<svg viewBox="0 0 550 188.13" xmlns="http://www.w3.org/2000/svg"><path d="m443.32 186.76h-336.64a8 8 0 0 1 0-16h336.64a8 8 0 0 1 0 16z" fill="#085680"/><rect fill="#2d4a54" height="168.45" rx="7.07" width="265.98" x="142.01" y="1.07"/><path d="m152.95 13.47h244.1v136.6h-244.1z" fill="#009997"/><path d="m423.58 178.76h-297.16a11.79 11.79 0 0 1 -11.78-11.76v-4.66a2.52 2.52 0 0 1 2.52-2.53h315.68a2.52 2.52 0 0 1 2.52 2.53v4.66a11.79 11.79 0 0 1 -11.78 11.76z" fill="#b2b2b2"/><path d="m300.31 167.49h-50.62a4.8 4.8 0 0 1 -4.79-4.79v-2.92h60.2v2.92a4.8 4.8 0 0 1 -4.79 4.79z" fill="#878787"/><path d="m308.33 141h-66.66a11.66 11.66 0 0 1 -11.67-11.67v-98.33a11.66 11.66 0 0 1 11.66-11.66h48.21l30.13 30.09v79.9a11.66 11.66 0 0 1 -11.67 11.67z" fill="#f4f7f4"/><path d="m320 55.81h-14.37a11.46 11.46 0 0 1 -11.46-11.45v-18.66l25.83 23.73z" fill="#ccd1d7" opacity=".5"/><path d="m320 49.43h-18.67a11.45 11.45 0 0 1 -11.45-11.43v-18.68z" fill="#fff"/><rect fill="#009997" height="10.35" rx="2.91" transform="matrix(-1 0 0 -1 509.6 149.97)" width="5.81" x="251.9" y="69.81"/><rect fill="#009997" height="10.35" rx="2.91" transform="matrix(-1 0 0 -1 589.53 149.97)" width="5.81" x="291.86" y="69.81"/><g fill="#129294"><path d="m278.09 87.94h-7.95a2.07 2.07 0 1 1 0-4.14h3.86v-12.59a2.07 2.07 0 1 1 4.14 0z"/><path d="m286.25 102a2.07 2.07 0 0 1 -1.52-.67 14.16 14.16 0 0 0 -9.58-3.81 14.47 14.47 0 0 0 -9.7 3.84 2.07 2.07 0 0 1 -3-2.86 18.44 18.44 0 0 1 12.7-5.13 18.09 18.09 0 0 1 12.62 5.15 2.07 2.07 0 0 1 -.11 2.93 2.12 2.12 0 0 1 -1.41.55z"/></g></svg>