<svg id="Layer_1" data-name="Layer 1" xmlns="http://www.w3.org/2000/svg" viewBox="0 0 200 56"><defs><style>.cls-1{fill:#5295d2;}.cls-2{fill:#243047;}.cls-3{fill:#fff;}</style></defs><path class="cls-1" d="M.55,50.27l4,2.07a.19.19,0,0,0,.26-.13l1-4.73s0,0,0,0L18,23.73a.18.18,0,0,1,.24-.08L23.12,26a.17.17,0,0,0,.24-.09l.7-1.59a.18.18,0,0,0-.09-.23l-4.72-2.34a.18.18,0,0,1-.08-.24L27.28,5.8a.17.17,0,0,1,.16-.09h6.74a.18.18,0,0,0,.18-.18V3.69a.18.18,0,0,0-.18-.18H24.86a.18.18,0,0,0-.18.18l0,1.83a.19.19,0,0,1,0,.08l-21,40.94,0,0L.5,50A.18.18,0,0,0,.55,50.27Z"/><path class="cls-1" d="M48.17,50.27l-4,2.07a.18.18,0,0,1-.25-.13l-1-4.73s0,0,0,0L30.68,23.73a.18.18,0,0,0-.24-.08L25.6,26a.17.17,0,0,1-.24-.09l-.69-1.59a.18.18,0,0,1,.08-.23l4.72-2.34a.18.18,0,0,0,.08-.24L21.44,5.8a.17.17,0,0,0-.16-.09H14.54a.18.18,0,0,1-.18-.18V3.69a.18.18,0,0,1,.18-.18h9.32a.18.18,0,0,1,.18.18l0,1.83a.19.19,0,0,0,0,.08l21,40.94,0,0L48.22,50A.18.18,0,0,1,48.17,50.27Z"/><path class="cls-2" d="M51.89,12.39V10.9q5.86.28,12.93.28,7.41,0,16.26-.28l.56,9.45H79.9a35.87,35.87,0,0,0-1.59-5.12,2.17,2.17,0,0,0-1.12-1.09,10.52,10.52,0,0,0-3.44-.34h-11q-.15,3.33-.25,12.85h6.92A9,9,0,0,0,72,26.42a2,2,0,0,0,1-.88,11.88,11.88,0,0,0,.87-3c.05-.29.14-.71.28-1.26h1.66q-.22,5.27-.23,6.85c0,.33.08,2.48.23,6.42H74.16c-.09-.47-.15-.82-.18-1.06-.35-2.16-.75-3.45-1.19-3.85s-1.56-.6-3.38-.6H62.52c0,1.67,0,2.8,0,3.37q0,10.05.15,10.81a1.07,1.07,0,0,0,.56.75,29.94,29.94,0,0,0,5.72,1.16v1.49q-5.69-.28-8.18-.28l-8.8.28V45.16l1.5-.27c2-.31,3.22-.64,3.6-1a3.34,3.34,0,0,0,.57-2.32l.12-7.18c0-1.11,0-3.22,0-6.35q0-11.41-.1-12.9a1.83,1.83,0,0,0-.51-1.33,12.1,12.1,0,0,0-3.9-1.14C52.94,12.61,52.49,12.52,51.89,12.39Z"/><path class="cls-2" d="M88.47,20.73H86.53c.32-2.93.6-6.2.86-9.83q11.14.28,15.9.28,4,0,14.4-.28c.22,3.75.47,7,.76,9.83h-1.89q-1.19-4.62-1.53-5.41a2.27,2.27,0,0,0-1-1.13,9.71,9.71,0,0,0-3.38-.34h-5.58q-.21,6.71-.21,16.58,0,9.16.21,12.39a1.41,1.41,0,0,0,.37,1,16.75,16.75,0,0,0,4.16,1.09c.24,0,.59.11,1.06.22v1.49q-5-.28-8.89-.28-3.7,0-7.59.28V45.16c.59-.15,1-.25,1.34-.3a14.12,14.12,0,0,0,4-1,1.28,1.28,0,0,0,.34-.57c.07-.24.14-2.1.19-5.58q.09-8.05.1-11.94,0-6.78-.1-11.94H94l-1.08,0a3.73,3.73,0,0,0-1.89.31A3.62,3.62,0,0,0,89.78,16,42.27,42.27,0,0,0,88.47,20.73Z"/><path class="cls-2" d="M133.16,26.67h6.1a23.4,23.4,0,0,0,4.16-.19,1.8,1.8,0,0,0,1-.77,13,13,0,0,0,1-3.35c.05-.18.12-.47.22-.85h1.67q-.28,4.15-.28,6.4c0,1.54.09,3.66.28,6.34h-1.67c-.48-2.43-.79-3.79-.9-4.08a1.62,1.62,0,0,0-.89-.87,14.84,14.84,0,0,0-3.75-.26h-6.9l.12,14.81h10.56l.93,0a11.88,11.88,0,0,0,2.72-.18,4.21,4.21,0,0,0,1.69-1.09,27.6,27.6,0,0,0,2.7-4.35c.13-.23.33-.58.6-1h1.74q-.3.8-3.13,9.47-9.17-.28-16.75-.28c-3.53,0-7.42.09-11.69.28V45.16l4.08-.88a2.64,2.64,0,0,0,1.21-.55,3.55,3.55,0,0,0,.38-2v-.46l.13-5.92q0-1.71,0-6.72c0-4.86,0-8.41-.05-10.67a18.65,18.65,0,0,0-.25-3.84,1.19,1.19,0,0,0-.47-.5A13.27,13.27,0,0,0,125.4,13l-2.72-.6V10.9q4.74.28,11.31.28,3.62,0,17.13-.28a74.56,74.56,0,0,0,.61,8.62H150A26.76,26.76,0,0,0,148.33,15a2.21,2.21,0,0,0-1.06-1,13,13,0,0,0-3.68-.32H133.41l-.17,8.11Z"/><path class="cls-2" d="M159.45,12.39V10.9q6.68.28,10.71.28c1.54,0,3,0,4.33,0,1.78-.07,3-.1,3.71-.1q4.91,0,7.4,2.31a8.32,8.32,0,0,1,2.47,6.33A9.66,9.66,0,0,1,187,24.39a9.82,9.82,0,0,1-3.24,3.47,15.81,15.81,0,0,1-4.38,1.79l8.39,10.93a23.44,23.44,0,0,0,2,2.39,5.63,5.63,0,0,0,1.64.91,34.12,34.12,0,0,0,4.76,1.28l-1.2,1.49c-2.65-.19-3.38-.28-4.59-.28a33.06,33.06,0,0,0-4.28.28c-.76-1.26-1.78-2.84-3.08-4.75s-2.08-3-2.37-3.39c-.16-.2-.32-.41-.47-.63l-5.55-7.61c-1.49,0-3-.14-4.53-.32l.2,12.69a1.62,1.62,0,0,0,.45,1.14,11.43,11.43,0,0,0,3.78,1.08c.3,0,.77.15,1.39.3v1.49q-4.56-.28-8-.28-3.72,0-8.34.28V45.16l1.09-.22c2.4-.46,3.76-.83,4.09-1.12a2.27,2.27,0,0,0,.57-1.58q0-.74.12-13l-.1-11.84a21.81,21.81,0,0,0-.14-3.12,1,1,0,0,0-.49-.61,13.33,13.33,0,0,0-3.9-1.08ZM170,27.81c1.74.18,3.1.27,4.05.27q4.59,0,6.79-2a7.37,7.37,0,0,0,2.21-5.68,6.58,6.58,0,0,0-1.95-5,8,8,0,0,0-5.69-1.84c-.89,0-2.64.1-5.26.3Z"/><path class="cls-1" d="M176.91,35.6l6.64-4.31,6.55,10.12,4.69-3a1.35,1.35,0,0,1,1-.18,4.66,4.66,0,0,1,2.83,2,5.82,5.82,0,0,1,.91,3,1.33,1.33,0,0,1-.59,1.11l-10.11,6.8a1.42,1.42,0,0,1-2-.4Z"/><polygon class="cls-3" points="179.99 33.6 178.33 37.76 178.58 38.13 180.52 33.25 179.99 33.6"/><path class="cls-3" d="M187.14,36.85l-6.7.19.64-1.77L186,35l-.23-.36-4.53.21,1-2.71-.51.33-2.39,6.69.3.45,6.92-.19L186,41.54h-5.14l.25.37h4.79l-.53,2-3.17-.38.26.4,2.81.34-.74,2.81.28.41,2.68-10.22Zm-7.5,2.43.67-1.87,6.78-.19-.49,1.87Z"/><path class="cls-3" d="M193.73,43.51l.19-2,5.27-.21c0-.12-.09-.24-.14-.36l-5.1.2.22-2.35-.39.26-.74,7.8-2.27-.33.8-6.05-.4.26-.76,5.74-2.76-.41L189,39.73l-.28-.44-2.31,10.76.29.43.35-1.66,4,.82.43-.29-4.35-.89.44-2,6.78,1,.46-.31-1.41-.2.28-3,5.72-.07a2,2,0,0,0,.12-.37Z"/></svg>