<?xml version="1.0" encoding="UTF-8"?> <svg xmlns="http://www.w3.org/2000/svg" id="Layer_1" data-name="Layer 1" viewBox="0 0 176 90"><g style="isolation:isolate"><g style="isolation:isolate"><path d="M81.54,37.19V20L74.45,37.19h-.64L66.69,20V37.19H65V17.72H67.5l6.63,16.05,6.6-16.05h2.51V37.19Z" style="fill:#085680"></path><path d="M87.21,37.19V17.72H99.55v1.52H88.87v7.21H99.35V28H88.87v7.7H99.55v1.52Z" style="fill:#085680"></path><path d="M102.79,37.19V17.72H109a9.45,9.45,0,0,1,9.84,9.75A9.4,9.4,0,0,1,109,37.19Zm14.31-9.72c0-4.55-2.92-8.23-8.09-8.23h-4.55V35.67H109C114.15,35.67,117.1,32,117.1,27.47Z" style="fill:#085680"></path><path d="M122.12,37.19V17.72h1.66V37.19Z" style="fill:#085680"></path></g><g style="isolation:isolate"><path d="M127,27.47a9.68,9.68,0,0,1,9.87-10.07A8.78,8.78,0,0,1,144,20.84l-1.4.91a7.08,7.08,0,0,0-5.69-2.83c-4.58,0-8.12,3.47-8.12,8.55S132.3,36,136.88,36a7.08,7.08,0,0,0,5.69-2.83l1.4.88a8.72,8.72,0,0,1-7.09,3.47A9.68,9.68,0,0,1,127,27.47Z" style="fill:#085680"></path></g><g style="isolation:isolate"><path d="M160.52,37.19,158.6,32.4H148.29l-1.93,4.79h-1.92l8-19.47h2.07l8,19.47ZM153.43,19.5l-4.58,11.39H158Z" style="fill:#085680"></path><path d="M164.43,37.19V17.72h1.67v18h9.42v1.52Z" style="fill:#085680"></path></g></g><g style="isolation:isolate"><path d="M69,50.56H63.33V46.91H78.86v3.65H73.2V66.38H69Z" style="fill:#2191ba"></path><path d="M87.82,59.4h-3v7H80.64V46.91h9.11c4,0,6.53,2.66,6.53,6.28A5.59,5.59,0,0,1,92,59l4.38,7.41H91.64Zm1.31-8.93H84.78v5.37h4.35a2.69,2.69,0,1,0,0-5.37Z" style="fill:#2191ba"></path><path d="M98.53,46.91h4.15V66.38H98.53Z" style="fill:#2191ba"></path><path d="M118.06,63h-8.7l-1.23,3.36h-4.55l7.53-19.47h5.2l7.5,19.47h-4.52Zm-7.59-3.59h6.45l-3.21-8.93Z" style="fill:#2191ba"></path><path d="M124.74,46.91h4.15V62.73h8.23v3.65H124.74Z" style="fill:#2191ba"></path></g><path d="M45,90A13.78,13.78,0,0,1,31.23,76.23h0V13.77a13.77,13.77,0,0,1,27.54,0V76.23A13.76,13.76,0,0,1,45,90h0" style="fill:#2191ba"></path><path d="M31.23,31.23H13.77a13.77,13.77,0,0,0,0,27.54H31.23Z" style="fill:#2191ba"></path><path d="M58.77,31.23H31.23V58.77H58.77Z" style="fill:#085680"></path></svg> 