<?xml version="1.0" encoding="UTF-8"?> <svg xmlns="http://www.w3.org/2000/svg" xmlns:xlink="http://www.w3.org/1999/xlink" id="Layer_1" data-name="Layer 1" viewBox="0 0 550 400"><defs><clipPath id="clip-path"><path d="M394.37,93.12l-.71.19a57.5,57.5,0,0,0-32.08,51.58v7.2h6.7V138.24a52,52,0,0,1,26.09-45.12" style="fill:none"></path></clipPath><clipPath id="clip-path-2"><polyline points="265.72 306.27 242.42 306.27 242.42 263.98 265.72 263.98 265.72 306.27" style="fill:none"></polyline></clipPath></defs><polyline points="336.83 278.09 364.48 355.58 379.63 350.18 351.98 272.69" style="fill:#9e8b6a"></polyline><polyline points="465.33 286.84 465.33 392.55 481.41 392.55 481.41 286.84" style="fill:#9e8b6a"></polyline><path d="M380.1,352.88v-66a8,8,0,1,0-16.08,0v66a8,8,0,0,0,16.08,0" style="fill:#9e8b6a"></path><polyline points="465.33 286.84 465.33 305.86 481.41 305.86 481.41 286.84" style="fill:#8f7d5d"></polyline><polyline points="380.1 305.86 380.1 286.84 364.02 286.84 364.02 305.86" style="fill:#8f7d5d"></polyline><path d="M483.13,299.08H362.3v-9.86a59.38,59.38,0,0,1,59.38-59.38h2.06a59.38,59.38,0,0,1,59.39,59.38Z" style="fill:#fff"></path><path d="M441.72,242.39c0,9.19-8.67,16.64-19.37,16.64S403,251.58,403,242.39s8.67-16.64,19.36-16.64S441.72,233.2,441.72,242.39Z" style="fill:#8bd2f6"></path><rect x="377.35" y="289.39" width="90.72" height="94.19" style="fill:#fff"></rect><polygon points="468.07 392.55 377.35 392.55 377.35 350.17 468.07 293.38 468.07 392.55" style="fill:#8bd2f6"></polygon><path d="M407.52,239.61V196.29h30v43.32a15,15,0,0,1-30,0Z" style="fill:#9e8b6a"></path><path d="M437.18,222.94H407.52v12.32s4,2.85,14.68,2.85,15-2.85,15-2.85Z" style="fill:#8f7d5d"></path><path d="M422.21,77.61a64,64,0,0,0-64,64V152a30,30,0,0,0,30,30h68a30,30,0,0,0,30-30v-10.3a64,64,0,0,0-64-64" style="fill:#2d4a54"></path><path d="M380.54,182H369.29a13.18,13.18,0,0,1,0-26.35h11.25Z" style="fill:#8f7d5d"></path><path d="M465.08,155.64h11.24a13.18,13.18,0,1,1,0,26.35H465.08Z" style="fill:#8f7d5d"></path><path d="M422.54,228.55c-30,0-54.26-30-54.26-60V138.24a52,52,0,0,1,52.05-52h4.43a52,52,0,0,1,52,52v30.31c0,30-24.29,60-54.26,60" style="fill:#9e8b6a"></path><path d="M424.76,85.14h-4.43A51.79,51.79,0,0,0,391.26,94a52,52,0,0,1,15.87-2.47h4.43a52,52,0,0,1,52,52.05v30.3c0,20.24-11.09,40.5-27.52,51.53,23.42-7.29,40.72-32.63,40.72-57.92V137.19a52,52,0,0,0-52-52" style="fill:#938263"></path><g style="clip-path:url(#clip-path)"><rect x="361.58" y="93.12" width="32.79" height="58.97" style="fill:#2d4a54"></rect></g><path d="M411.56,91.54h-4.43a52.1,52.1,0,0,0-12.76,1.58,52,52,0,0,0-26.09,45.12v13.85H463.6v-8.5a52,52,0,0,0-52-52" style="fill:#8f7d5d"></path><path d="M460.76,99.6a51.88,51.88,0,0,1,16,37.59v14.9h6v-7.2A57.38,57.38,0,0,0,460.76,99.6" style="fill:#2d4a54"></path><path d="M425.34,87.4h-6.27a57.28,57.28,0,0,0-25.41,5.91l.71-.19a52.1,52.1,0,0,1,12.76-1.58h4.43a52,52,0,0,1,52,52.05v8.5h13.2v-14.9a51.88,51.88,0,0,0-16-37.59,57.27,57.27,0,0,0-35.42-12.2" style="fill:#8f7d5d"></path><path d="M425.34,81.55h-6.27A57.49,57.49,0,0,0,361.58,139v7.2H482.83V139A57.49,57.49,0,0,0,425.34,81.55Z" style="fill:#2d4a54"></path><path d="M429.54,199.15,425.33,197a2,2,0,0,1-.44.58,3.79,3.79,0,0,1-1.42.78,7.08,7.08,0,0,1-2.25.35,7.73,7.73,0,0,1-3.07-.62,3.85,3.85,0,0,1-.94-.57,2,2,0,0,1-.4-.45h0l-3,1.67h3.4a3.36,3.36,0,0,0-.44-1.67l-3,1.67h.08l2.4,2.3a3.31,3.31,0,0,0,.92-2.3h-3.32l2.4,2.3-2.39-2.29,1.37,3a3.32,3.32,0,0,0,1-.73l-2.39-2.29,1.37,3-1.38-3,.06,3.33a3.53,3.53,0,0,0,1.32-.3l-1.38-3,.06,3.33,14.38-.26h0l-.05-2.32,0,2.32h0l-.05-2.32,0,2.32-.06-3.93v3.93h.06l-.06-3.93v.59L427,201.55a3.34,3.34,0,0,0,1.35.29V198.5L427,201.55l1.35-3-2.81,1.8a3.37,3.37,0,0,0,1.46,1.24l1.35-3-2.81,1.8,2.78-1.79H425a3.29,3.29,0,0,0,.52,1.79l2.78-1.79h0L425.33,197a3.32,3.32,0,0,0-.35,1.48h3.3L425.33,197h0l4.21,2.12,4.21,2.11a6.09,6.09,0,0,0-5.44-8.84h-.11l-14.37.26a6.07,6.07,0,0,0-5.22,9h0a11,11,0,0,0,2.52,3,14,14,0,0,0,4.8,2.6,17.55,17.55,0,0,0,5.29.82,16.07,16.07,0,0,0,6.93-1.52,12.41,12.41,0,0,0,3.15-2.13,11.37,11.37,0,0,0,2.44-3.24h0Z" style="fill:#8f7d5d"></path><path d="M429.54,199.15c-3,5.95-13.92,5.42-16.83.26a1.37,1.37,0,0,1,1.2-2l14.38-.26A1.39,1.39,0,0,1,429.54,199.15Z" style="fill:#fff"></path><path d="M396.85,166.33h0a3.3,3.3,0,0,1,3.3,3.3V173a3.3,3.3,0,0,1-6.6,0v-3.38A3.3,3.3,0,0,1,396.85,166.33Z" style="fill:#2d4a54"></path><path d="M445.65,166.33h0a3.3,3.3,0,0,1,3.3,3.3V173a3.3,3.3,0,0,1-6.6,0v-3.38A3.3,3.3,0,0,1,445.65,166.33Z" style="fill:#2d4a54"></path><path d="M390.09,159.77l6.72-4.18a2.35,2.35,0,1,0-2.48-4l-6.73,4.17a2.36,2.36,0,0,0,2.49,4" style="fill:#2d4a54"></path><path d="M452.44,155.76l-6.72-4.17a2.36,2.36,0,1,0-2.49,4l6.73,4.18a2.36,2.36,0,0,0,2.48-4" style="fill:#2d4a54"></path><path d="M423.6,173.64l.09,6.39h-5.94a2.36,2.36,0,1,0,0,4.71h8.33a2.37,2.37,0,0,0,2.35-2.39l-.12-8.77a2.36,2.36,0,1,0-4.71.06Z" style="fill:#8f7d5d"></path><path d="M367.38,255.53l-7.33,10-5.16,14.8a5.93,5.93,0,1,0,11.2,3.91l4.58-13.13,6.28-8.61a5.93,5.93,0,1,0-9.57-7Z" style="fill:#9e8b6a"></path><path d="M331.61,266.15l-2-7.54a5,5,0,1,0-9.7,2.57l2,7.54a5,5,0,0,0,9.7-2.57" style="fill:#9e8b6a"></path><path d="M341.28,264.1l-2.61-9.47A5,5,0,0,0,329,257.3l2.61,9.47a5,5,0,1,0,9.67-2.67" style="fill:#9e8b6a"></path><path d="M350.68,260.93,348,250.78a5,5,0,0,0-9.7,2.58l2.7,10.15a5,5,0,1,0,9.7-2.58" style="fill:#9e8b6a"></path><path d="M360.34,258.45l-7.91-29.28a5,5,0,1,0-9.69,2.62l7.91,29.27a5,5,0,1,0,9.69-2.61" style="fill:#9e8b6a"></path><path d="M320.55,263.82l6.23,22.74a11.45,11.45,0,0,0,14.08,8L361.24,289a7.13,7.13,0,0,0,5-8.76l-7.38-26.91Z" style="fill:#9e8b6a"></path><path d="M96,356.16V267.93a11.64,11.64,0,1,0-23.27,0v88.23a11.64,11.64,0,0,0,23.27,0" style="fill:#f5ddbf"></path><polyline points="90.95 267.93 86.16 267.93 86.96 279.74 90.95 279.74 90.95 267.93" style="fill:#e7b987"></polyline><path d="M265.72,351.45V267.93a11.64,11.64,0,1,0-23.27,0v83.52a11.64,11.64,0,1,0,23.27,0" style="fill:#f5ddbf"></path><polyline points="265.72 279.74 265.72 267.93 242.45 267.93 242.45 279.74" style="fill:#f0d5b4"></polyline><g style="clip-path:url(#clip-path-2)"><polygon points="237.42 294.75 237.42 296.22 254.46 296.22 244.68 279.03 234.9 296.22 237.42 296.22 237.42 294.75 238.7 295.48 244.68 284.96 249.42 293.29 237.42 293.29 237.42 294.75 238.7 295.48 237.42 294.75" style="fill:#71898a"></polygon><polygon points="262.96 294.75 262.96 296.22 280 296.22 270.22 279.03 260.44 296.22 262.96 296.22 262.96 294.75 264.23 295.48 270.22 284.96 274.95 293.29 262.96 293.29 262.96 294.75 264.23 295.48 262.96 294.75" style="fill:#71898a"></polygon><polygon points="267.74 292.02 272.69 292.02 270.22 287.67 267.74 292.02" style="fill:#71898a"></polygon><polygon points="259.93 283 254.97 283 257.45 287.35 259.93 283" style="fill:#71898a"></polygon><polygon points="234.15 283 229.2 283 231.68 287.35 234.15 283" style="fill:#71898a"></polygon><polygon points="242.21 292.02 247.16 292.02 244.68 287.67 242.21 292.02" style="fill:#71898a"></polygon><polygon points="264.53 280.53 264.53 279.06 247.49 279.06 257.27 296.25 267.05 279.06 264.53 279.06 264.53 280.53 263.25 279.8 257.27 290.32 252.53 282 264.53 282 264.53 280.53 263.25 279.8 264.53 280.53" style="fill:#71898a"></polygon><polygon points="238.94 280.53 238.94 279.06 221.9 279.06 231.68 296.25 241.46 279.06 238.94 279.06 238.94 280.53 237.66 279.8 231.68 290.32 226.94 282 238.94 282 238.94 280.53 237.66 279.8 238.94 280.53" style="fill:#71898a"></polygon><polyline points="220.31 277.5 302.69 277.5 302.69 274.57 220.31 274.57" style="fill:#71898a"></polyline><polyline points="220.31 300.49 302.69 300.49 302.69 297.56 220.31 297.56" style="fill:#71898a"></polyline></g><path d="M268.93,262H68.77v-7.82c0-41.85,40.89-79.52,82.73-79.52h34.7c41.85,0,82.73,37.67,82.73,79.52V262" style="fill:#006381"></path><rect x="67.31" y="261.96" width="203.03" height="9.23" style="fill:#1a738e"></rect><path d="M247.06,391.19H91V251.34a76.72,76.72,0,0,1,76.72-76.72h2.66a76.72,76.72,0,0,1,76.72,76.72V391.19" style="fill:#006381"></path><rect x="165.43" y="194.65" width="7.97" height="32.11" style="fill:#1a738e"></rect><path d="M176.38,2.34H161.77a52.71,52.71,0,0,0-52.71,52.71V85.94h120V55.05A52.71,52.71,0,0,0,176.38,2.34" style="fill:#2d4a54"></path><path d="M151.36,168.39l-9.55,6.9s-4.8,14.93,6,35L169,194.85l-17.67-26.46" style="fill:#1a738e"></path><path d="M187.09,168.39l9.55,6.9s4.8,14.93-6,35l-21.21-15.44,17.67-26.46" style="fill:#1a738e"></path><path d="M169.42,194.85a18.21,18.21,0,0,1-18.21-18.21V118.33h36.42v58.31a18.22,18.22,0,0,1-18.21,18.21" style="fill:#f7e4ce"></path><path d="M151.21,161.77v6.14s4.95,3.45,18,3.45,18.4-3.45,18.4-3.45v-6.14a44.34,44.34,0,0,1-6.13.42H157.34a44.24,44.24,0,0,1-6.13-.42" style="fill:#f0d2b1"></path><path d="M214.64,79h11.49a13.47,13.47,0,1,1,0,26.93H214.64V79" style="fill:#f0d5b4"></path><path d="M125.52,105.89H114A13.47,13.47,0,1,1,114,79h11.48Z" style="fill:#f0d5b4"></path><path d="M175.42,162.19h-12A49.44,49.44,0,0,1,114,112.75V63.9a47.17,47.17,0,0,1,47.18-47.17h16.54A47.18,47.18,0,0,1,224.87,63.9v48.85a49.44,49.44,0,0,1-49.45,49.44" style="fill:#f6e0c5"></path><path d="M115.21,71.36a1.88,1.88,0,0,0-1.88,1.87v45a44,44,0,0,0,44,44H181.5a44,44,0,0,0,44-44v-45a1.88,1.88,0,0,0-1.88-1.87h-1a6.85,6.85,0,0,0-6.85,6.84v34.41a7.94,7.94,0,0,1,0,.85c-.55,5.45-6.82,8.33-11.59,5.64l-14.11-8a49.18,49.18,0,0,0-13.64-1.93H162.46a49.18,49.18,0,0,0-13.64,1.93l-14.11,8c-4.77,2.69-11-.19-11.59-5.64a7.94,7.94,0,0,1,0-.85V78.2a6.85,6.85,0,0,0-6.85-6.84h-1m32.48,55.82a9.33,9.33,0,0,1,9.32-9.32h24.82a9.33,9.33,0,0,1,9.32,9.32v6.91a9.33,9.33,0,0,1-9.32,9.32h-1.12a3.84,3.84,0,0,1-3.83-3.83,3.06,3.06,0,0,0-3.06-3.06h-7.34a3.06,3.06,0,0,0-3.06,3.06,3.83,3.83,0,0,1-3.82,3.83H157a9.33,9.33,0,0,1-9.32-9.32v-6.91" style="fill:#2d4a54"></path><polyline points="123.9 44.14 111.72 47.63 113.97 87.56 122.51 87.56 123.9 44.14" style="fill:#2d4a54"></polyline><polyline points="225.51 44.14 214.65 44.14 215.76 89.46 225.51 87.56 225.51 44.14" style="fill:#2d4a54"></polyline><path d="M161.27,134.67a24.28,24.28,0,0,0,3.28.58,31.32,31.32,0,0,0,3.73.22,25.78,25.78,0,0,0,6.12-.68,17.82,17.82,0,0,0,3.28-1.1,15,15,0,0,0,3.31-2,7.17,7.17,0,1,0-9-11.15l.28.34-.26-.36,0,0,.28.34-.26-.36h0a3.89,3.89,0,0,1-1.2.39,13,13,0,0,1-2.49.22,16.51,16.51,0,0,1-2.05-.12,12.17,12.17,0,0,1-1.49-.25,7.17,7.17,0,0,0-3.47,13.92Z" style="fill:#f0d5b4"></path><path d="M162.36,130.32a26.12,26.12,0,0,0,5.92.67,21.7,21.7,0,0,0,5.07-.56,12.07,12.07,0,0,0,4.81-2.23,2.69,2.69,0,0,0-3.38-4.19,6.82,6.82,0,0,1-2.69,1.19,16.61,16.61,0,0,1-3.81.41,20.62,20.62,0,0,1-4.62-.51,2.69,2.69,0,0,0-1.3,5.22Z" style="fill:#fff"></path><path d="M201.87,23.38a47.41,47.41,0,0,1,18.67,20.76h4.39c-2.91-8.29-9.39-16.23-23.06-20.76" style="fill:#2d4a54"></path><path d="M173.28,19.53c-42,0-53.08,21.43-55,26.23l5.66-1.62-.79,24.65c13.74-.39,30-3.78,30-3.78-5,8-4.28,13.81-4.28,13.81q3.26.2,6.28.19c33.68,0,48.6-16.8,48.6-16.8-1.73,6.65,0,14.69,0,14.69a39.57,39.57,0,0,0,11.63-6.39l-.66-26.37h5.9a47.41,47.41,0,0,0-18.67-20.76c-7.3-2.41-16.64-3.85-28.59-3.85" style="fill:#f0d5b4"></path><path d="M123.9,44.14l-5.66,1.62c-.25.61-.35,1-.35,1a134.5,134.5,0,0,0-2.32,21.93c1.58.13,3.26.19,5,.19.83,0,1.67,0,2.53,0l.79-24.65" style="fill:#2d4a54"></path><path d="M225.51,45.94V60.39c1-1.3,1.6-2.12,1.6-2.12a44.37,44.37,0,0,0-1.6-12.33" style="fill:#2d4a54"></path><path d="M224.93,44.14H214.64l.66,26.37a62,62,0,0,0,10.21-10.12V45.94c-.18-.6-.37-1.2-.58-1.8" style="fill:#2d4a54"></path><path d="M225.51,50.62s-9.63,14.08-23.44,18.63c0,0-1.73-8,0-14.7,0,0-16.76,18.89-54.88,16.62,0,0-.69-5.77,4.28-13.82,0,0-23.07,4.82-37.5,3.64a134.5,134.5,0,0,1,2.32-21.93s8.12-27.19,55.4-27.19S225.51,34.44,225.51,50.62Z" style="fill:#2d4a54"></path><path d="M172,209.7a2.61,2.61,0,1,1-2.61-2.61A2.61,2.61,0,0,1,172,209.7Z" style="fill:#e3cc8b"></path><path d="M172,220.9a2.61,2.61,0,1,1-2.61-2.61A2.61,2.61,0,0,1,172,220.9Z" style="fill:#e3cc8b"></path><path d="M145.87,97.14h0a3.1,3.1,0,0,1-3.1-3.1V90.81a3.1,3.1,0,1,1,6.19,0V94A3.09,3.09,0,0,1,145.87,97.14Z" style="fill:#2d4a54"></path><path d="M191.53,97.14h0a3.1,3.1,0,0,1-3.1-3.1V90.81a3.1,3.1,0,1,1,6.19,0V94A3.09,3.09,0,0,1,191.53,97.14Z" style="fill:#2d4a54"></path><path d="M167.64,278.69l8.16,5.18,3.8-6-4.51,5.46a9,9,0,0,1,3.25,6.24,7.08,7.08,0,0,0,14.12-1.14,23.2,23.2,0,0,0-8.34-16l-.34-.28-8.54-5.43a7.09,7.09,0,0,0-7.6,12Z" style="fill:#f7e3cc"></path><path d="M149.18,300l-6.92-.38a5.6,5.6,0,0,0-5.66,7.22l2.41,7.9a5.6,5.6,0,0,0,10.71-3.28l-2.41-7.89L142,305.22l-.3,5.59,6.92.38a5.6,5.6,0,1,0,.61-11.18Z" style="fill:#f1d9bb"></path><path d="M154.92,291l-9.71-2.47a5.6,5.6,0,0,0-2.75,10.86l9.71,2.46A5.6,5.6,0,0,0,154.92,291" style="fill:#f1d9bb"></path><path d="M160.17,281.53l-11.79-3.83a5.6,5.6,0,1,0-3.46,10.65l11.8,3.83a5.6,5.6,0,1,0,3.45-10.65" style="fill:#f1d9bb"></path><path d="M165.3,272.51,136.47,260.4a5.6,5.6,0,0,0-4.33,10.33L161,282.83a5.6,5.6,0,1,0,4.33-10.32" style="fill:#f7e3cc"></path><path d="M145.75,311.14l17.88,9.13a12.43,12.43,0,0,0,16.72-5.42l10.42-20.42A7.72,7.72,0,0,0,187.4,284l-27-13.76-17.08,33.48A5.49,5.49,0,0,0,145.75,311.14Z" style="fill:#f7e3cc"></path><path d="M171.72,311.7l76.44,51.51a11.71,11.71,0,1,0,13.09-19.43l-76.43-51.51a11.72,11.72,0,1,0-13.1,19.43" style="fill:#f7e3cc"></path><path d="M163.77,89.67l-2,16a1.55,1.55,0,0,0,.39,1.25,1.6,1.6,0,0,0,1.19.54H174a1.6,1.6,0,1,0,0-3.2h-8.82L167,90.06a1.6,1.6,0,0,0-3.18-.39Z" style="fill:#f0d5b4"></path><path d="M134.56,79.41l6.85-4.26a2.4,2.4,0,0,0-2.53-4.07L132,75.33a2.4,2.4,0,0,0,2.53,4.08" style="fill:#2d4a54"></path><path d="M204.65,77.05l-6.84-4.26a2.4,2.4,0,0,0-2.53,4.08l6.84,4.25a2.4,2.4,0,1,0,2.53-4.07" style="fill:#2d4a54"></path><path d="M92.09,355.46,83.58,229.9A10.31,10.31,0,1,0,63,231.29l8.51,125.56a10.31,10.31,0,0,0,20.57-1.39" style="fill:#f5ddbf"></path><path d="M63,230.69v10.36h.68L63,231.29c0-.2,0-.4,0-.6" style="fill:#f0d5b4"></path><path d="M83.6,230.6H63v.09c0,.2,0,.4,0,.6l.66,9.76H83.6V230.6" style="fill:#e7b987"></path><path d="M114.51,328.34H53.08a10.32,10.32,0,0,1-10.27-9.18L32.47,226.68a8.3,8.3,0,0,1,8.25-9.24h61.44a10.33,10.33,0,0,1,10.26,9.19l10.35,92.48A8.31,8.31,0,0,1,114.51,328.34Z" style="fill:#2d4a54"></path><path d="M34.39,282.91l21-4.76A5.24,5.24,0,1,0,53,267.93l-21,4.77a5.24,5.24,0,1,0,2.33,10.21" style="fill:#f7e3cc"></path><path d="M34.87,292.9l22.67-5.15a5.24,5.24,0,0,0-2.33-10.22l-22.66,5.16a5.24,5.24,0,1,0,2.32,10.21" style="fill:#f7e3cc"></path><path d="M37.05,302.51l17.56-4a5.24,5.24,0,1,0-2.32-10.22l-17.56,4a5.24,5.24,0,0,0,2.32,10.22" style="fill:#f7e3cc"></path><path d="M42.64,311.34l7-1.6a5.24,5.24,0,1,0-2.32-10.21l-7,1.59a5.24,5.24,0,0,0,2.32,10.22" style="fill:#f7e3cc"></path><path d="M25,397.86H525a6,6,0,1,0,0-12H25a6,6,0,1,0,0,12" style="fill:#085680"></path></svg> 