<?xml version="1.0" encoding="UTF-8"?> <svg xmlns="http://www.w3.org/2000/svg" xmlns:xlink="http://www.w3.org/1999/xlink" id="Layer_1" data-name="Layer 1" viewBox="0 0 550 329.01"><defs><pattern id="Unnamed_Pattern_3" data-name="Unnamed Pattern 3" width="127.76" height="50.82" patternTransform="matrix(1.02, 0, 0, -1.02, 3263.01, 13647.47)" patternUnits="userSpaceOnUse" viewBox="0 0 127.76 50.82"><rect width="127.76" height="50.82" style="fill:none"></rect><rect width="127.76" height="25.41" style="fill:#e3cc8b"></rect><rect y="25.41" width="127.76" height="25.41" style="fill:#fcfaf3"></rect></pattern><clipPath id="clip-path"><path d="M78.25,143.58c0-19,15.7-34.63,35.08-34.63h1.22c19.37,0,35.08,15.64,35.08,34.63H78.25" style="fill:none"></path></clipPath><clipPath id="clip-path-2"><polyline points="6.98 182.63 137.17 182.63 137.17 130.85 6.98 130.85 6.98 182.63" style="fill:none"></polyline></clipPath><clipPath id="clip-path-3"><polyline points="137.17 182.63 267.36 182.63 267.36 130.85 137.17 130.85 137.17 182.63" style="fill:none"></polyline></clipPath><clipPath id="clip-path-4"><polyline points="6.98 130.85 137.17 130.85 137.17 79.07 6.98 79.07 6.98 130.85" style="fill:none"></polyline></clipPath><clipPath id="clip-path-5"><polyline points="137.17 130.85 267.36 130.85 267.36 79.07 137.17 79.07 137.17 130.85" style="fill:none"></polyline></clipPath><clipPath id="clip-path-6"><path d="M474.27,47.72a29.23,29.23,0,0,1-.71,3.66l.27.16.45-3c0-.27,0-.53,0-.8m-60.54-1.89c-.08.89-.12,1.79-.12,2.69v5.07a7.39,7.39,0,0,1,1.19-1.53,30.51,30.51,0,0,1-1.07-6.23" style="fill:none"></path></clipPath></defs><path d="M310.9,305.1H41a10.57,10.57,0,0,0,0,21.13H310.9a10.57,10.57,0,0,0,0-21.13" style="fill:#eaedee"></path><path d="M154.41,220.09l-23.69,90.59a4.24,4.24,0,1,0,8.2,2.15l23.69-90.59a4.24,4.24,0,1,0-8.2-2.15" style="fill:#b1b1b6"></path><path d="M205.16,221.24l5.6,90.54a4.24,4.24,0,1,0,8.46-.52l-5.6-90.55a4.24,4.24,0,1,0-8.46.53" style="fill:#9c9c9b"></path><path d="M194.44,220.71l-9.75,90.59a4.24,4.24,0,0,0,8.44.91l9.74-90.59a4.24,4.24,0,0,0-8.43-.91" style="fill:#b1b1b6"></path><path d="M240.74,221.87l19.54,90.55a4.24,4.24,0,1,0,8.29-1.79L249,220.08a4.24,4.24,0,0,0-8.29,1.79" style="fill:#9c9c9b"></path><path d="M211.76,107.37v94.08A11.6,11.6,0,0,0,223.36,213h53.58a15,15,0,0,1-15,15H166.84a23.37,23.37,0,0,1-23.37-23.37V134.73a27.36,27.36,0,0,1,27.36-27.36Z" style="fill:#fbd35e"></path><path d="M208.94,107.29a21.78,21.78,0,0,1,21.79,21.79v72.29A11.59,11.59,0,0,0,242.33,213H169.85a15.53,15.53,0,0,1-15.54-15.53V129.08a21.79,21.79,0,0,1,21.8-21.79Z" style="fill:#f9b900"></path><path d="M69.37,220.09,45.68,310.68a4.24,4.24,0,1,0,8.2,2.15l23.7-90.59a4.24,4.24,0,1,0-8.21-2.15" style="fill:#b1b1b6"></path><path d="M120.12,221.24l5.6,90.54a4.24,4.24,0,0,0,8.46-.52l-5.59-90.55a4.24,4.24,0,0,0-8.47.53" style="fill:#9c9c9b"></path><path d="M109.4,220.71,99.66,311.3a4.24,4.24,0,1,0,8.43.91l9.74-90.59a4.24,4.24,0,0,0-8.43-.91" style="fill:#b1b1b6"></path><path d="M155.7,221.87l19.55,90.55a4.24,4.24,0,1,0,8.29-1.79L164,220.08a4.24,4.24,0,0,0-8.29,1.79" style="fill:#9c9c9b"></path><path d="M126.73,107.37v94.08A11.59,11.59,0,0,0,138.32,213H191.9a15,15,0,0,1-15,15H81.8a23.36,23.36,0,0,1-23.36-23.37V134.73A27.36,27.36,0,0,1,85.8,107.37h40.93" style="fill:#fbd35e"></path><path d="M123.91,107.29a21.79,21.79,0,0,1,21.79,21.79v72.29A11.59,11.59,0,0,0,157.29,213H84.81a15.53,15.53,0,0,1-15.53-15.53V129.08a21.78,21.78,0,0,1,21.79-21.79h32.84" style="fill:#f9b900"></path><polyline points="231.6 123.89 231.6 158.73 243.22 158.73 243.22 123.89" style="fill:#9e8b6a"></polyline><polyline points="231.6 123.89 231.6 128.44 243.22 128.44 243.22 123.89" style="fill:#8f7d5d"></polyline><path d="M237,164.53l30.33,2a5.81,5.81,0,1,0,.78-11.6l-30.33-2a5.81,5.81,0,0,0-.78,11.6" style="fill:#9e8b6a"></path><path d="M234,213H186.75a19,19,0,0,1-19-19V180H234Z" style="fill:#3c5662"></path><rect x="166.76" y="104.59" width="68.23" height="84.05" style="fill:#47c5f4"></rect><path d="M286,304.8h-22.6V301a11.3,11.3,0,0,1,22.6,0Z" style="fill:#dadada"></path><path d="M286.3,294.25V201.8a11.6,11.6,0,0,0-11.49-11.62l-46.26-.53-.26,23.24,34.76.4v81Z" style="fill:#264350"></path><path d="M254.09,304.8h-22.6V301a11.3,11.3,0,0,1,22.6,0Z" style="fill:#dadada"></path><path d="M254.41,294.25V201.8a11.6,11.6,0,0,0-11.5-11.62l-46.21-.47L196.47,213l34.7.35v80.94Z" style="fill:#3c5662"></path><path d="M160,123.76a42.54,42.54,0,0,1,42.28-42.58h1.47A42.54,42.54,0,0,1,246,123.76H160" style="fill:#47c5f4"></path><rect x="200.96" y="92.99" width="4.02" height="18.21" style="fill:#2ebdf3"></rect><path d="M236.11,33.23A32.46,32.46,0,1,1,203.42,1a32.47,32.47,0,0,1,32.69,32.23" style="fill:#2d4a54"></path><path d="M183,56l-5.91,0a6.93,6.93,0,0,1-.1-13.86l5.91,0Z" style="fill:#8f7d5d"></path><path d="M224.11,41.89l5.91,0a6.93,6.93,0,0,1,.1,13.86l-5.91,0Z" style="fill:#8f7d5d"></path><polyline points="203.16 93.13 190.84 97.66 196.18 81.33 203.16 93.13" style="fill:#2ebdf3"></polyline><polyline points="202.97 93.13 215.29 97.66 209.95 81.33 202.97 93.13" style="fill:#2ebdf3"></polyline><path d="M203.16,93.13a7,7,0,0,1-7-7V66.33h14V86.14a7,7,0,0,1-7,7" style="fill:#a89779"></path><path d="M210.14,67.07h-14V79.9s2.22,2.79,7.37,2.79,6.59-2.79,6.59-2.79V67.07" style="fill:#9c8b6d"></path><path d="M204.88,78.77h0c-14.95.1-27.18-15.61-27.29-31.37l-.11-15.95C177.37,16.34,188.9,4,203.24,3.89h2.21c14.34-.1,26,12.07,26.15,27.19L231.72,47C231.83,62.77,219.82,78.66,204.88,78.77Z" style="fill:#a89779"></path><path d="M184.86,49.22l-.11-15.94c-.11-15.12,11.43-27.46,25.76-27.56h2.21a23.45,23.45,0,0,1,2.53.11,24.6,24.6,0,0,0-9.78-1.94h-2.21C188.93,4,177.39,16.34,177.5,31.45l.11,16c.11,15.14,11.41,30.24,25.56,31.3C192.6,74.08,185,61.67,184.86,49.22Z" style="fill:#9f8f74"></path><path d="M227.55,21.82l-49,.61.15,19.78c0,1.79,38.88-7.44,44.09-14.54,3.66,7.65,8.33,10.62,8.33,10.62Z" style="fill:#8f7d5d"></path><path d="M227.55,18.6l-49,.62.15,21c0,1.79,37.61-7.21,44.09-13.12,5.66,7.65,8.33,8,8.33,8Z" style="fill:#2d4a54"></path><path d="M230.93,44.75h0a1.26,1.26,0,0,1-1.57-1.21l-.1-11.87a9.73,9.73,0,0,0-9.8-9.66l-29.93.22a9.72,9.72,0,0,0-9.66,9.65l-.1,12a1.2,1.2,0,0,1-2.39,0l-.8-16.5C176.49,14.77,187.35,3.13,200,3l8.7-.06c12.57-.09,23.4,11.34,23.54,23.91l-.33,16.66A1.26,1.26,0,0,1,230.93,44.75Z" style="fill:#2d4a54"></path><path d="M195,41l3.4-.53a1.19,1.19,0,0,0-.37-2.35l-3.39.52A1.19,1.19,0,0,0,195,41" style="fill:#2d4a54"></path><path d="M226.46,38.63l-3.39-.52a1.19,1.19,0,0,0-.37,2.35l3.4.53a1.19,1.19,0,0,0,.36-2.36" style="fill:#2d4a54"></path><rect x="214.6" y="112.55" width="15.38" height="22.42" style="fill:#2ebdf3"></rect><path d="M206.27,65a10.8,10.8,0,0,0,9.57-.16,3.2,3.2,0,0,0-2.93-5.68,4.39,4.39,0,0,1-2,.49,4.44,4.44,0,0,1-1.88-.42A3.19,3.19,0,1,0,206.27,65Z" style="fill:#8f7d5d"></path><path d="M207.18,63a8.8,8.8,0,0,0,3.71.83,8.67,8.67,0,0,0,4-1,1.06,1.06,0,1,0-1-1.89,6.53,6.53,0,0,1-5.78.09,1.07,1.07,0,0,0-.92,1.93Z" style="fill:#fff"></path><polyline points="161.82 123.89 161.82 158.73 173.45 158.73 173.45 123.89" style="fill:#9e8b6a"></polyline><polyline points="161.82 123.89 161.82 128.44 173.45 128.44 173.45 123.89" style="fill:#8f7d5d"></polyline><path d="M171,163.51l29.21-20.25a5.82,5.82,0,0,0-6.63-9.56L164.32,154a5.82,5.82,0,0,0,6.63,9.56" style="fill:#9e8b6a"></path><path d="M202.83,120.11l-5.43,4.14a9.86,9.86,0,0,0-3.82,6.66,2.82,2.82,0,0,0,5.59.67,4.25,4.25,0,0,1,1.64-2.86l5.43-4.14a2.81,2.81,0,0,0-3.41-4.47Z" style="fill:#9e8b6a"></path><path d="M212.38,141.47l7.1-1a2.38,2.38,0,0,0-.68-4.71l-7.09,1a2.38,2.38,0,1,0,.67,4.71" style="fill:#9e8b6a"></path><path d="M210.88,137.31l11.42-3.59a2.38,2.38,0,0,0-1.42-4.54l-11.43,3.59a2.38,2.38,0,0,0,1.43,4.54" style="fill:#9e8b6a"></path><path d="M209,133l12.55-4.63a2.38,2.38,0,0,0-1.65-4.46l-12.55,4.63A2.38,2.38,0,0,0,209,133" style="fill:#9e8b6a"></path><path d="M207.31,128.82l11.24-5.28a2.38,2.38,0,0,0-2-4.3l-11.24,5.27a2.38,2.38,0,0,0,2,4.31" style="fill:#9e8b6a"></path><path d="M215.49,140.58l-10.14,4.69a5.44,5.44,0,0,1-7.21-2.66l-4.2-9.1a3.38,3.38,0,0,1,1.65-4.48l12-5.55Z" style="fill:#9e8b6a"></path><path d="M215.49,140.58l-.09-.2-10.14,4.69a5.23,5.23,0,0,1-6.93-2.55l-4.2-9.1a3.28,3.28,0,0,1-.29-1.32,3.17,3.17,0,0,1,1.84-2.88l11.82-5.45,7.8,16.9.19-.09-.09-.2.09.2.2-.09-8-17.29-12.21,5.63a3.6,3.6,0,0,0-1.76,4.77l4.2,9.1a5.64,5.64,0,0,0,5.13,3.28,5.58,5.58,0,0,0,2.37-.52l10.34-4.77-.09-.2Z" style="fill:#9e8b6a"></path><path d="M282.56,151.12l-6.81-.55c-.26,0-.53,0-.79,0a9.88,9.88,0,0,0-6.5,2.44,2.81,2.81,0,0,0,3.71,4.23,4.22,4.22,0,0,1,2.79-1.05l.34,0,6.81.54a2.81,2.81,0,1,0,.45-5.6Z" style="fill:#9e8b6a"></path><path d="M275.4,173.4l6,4a2.38,2.38,0,0,0,2.64-4l-6-4a2.38,2.38,0,0,0-2.64,4" style="fill:#9e8b6a"></path><path d="M277.06,169.3l10.9,5a2.38,2.38,0,0,0,2-4.34L279,165a2.38,2.38,0,1,0-2,4.33" style="fill:#9e8b6a"></path><path d="M278.55,164.84,291,169.77a2.38,2.38,0,1,0,1.76-4.42l-12.43-4.93a2.38,2.38,0,0,0-1.76,4.42" style="fill:#9e8b6a"></path><path d="M280.07,160.6,292,164.18a2.38,2.38,0,1,0,1.37-4.56L281.44,156a2.38,2.38,0,0,0-1.37,4.56" style="fill:#9e8b6a"></path><path d="M278.31,174.81l-10.68-3.29a5.43,5.43,0,0,1-3.6-6.79l3-9.57a3.37,3.37,0,0,1,4.22-2.24l12.65,3.9Z" style="fill:#9e8b6a"></path><path d="M278.31,174.81l.06-.2-10.68-3.29a5.23,5.23,0,0,1-3.45-6.53l2.95-9.57a3.16,3.16,0,0,1,3-2.23,3,3,0,0,1,.93.14L283.58,157l-5.48,17.79.21.06.06-.2-.06.2.2.07,5.62-18.2-12.85-4a4,4,0,0,0-1.06-.16,3.61,3.61,0,0,0-3.44,2.54l-2.95,9.58a5.65,5.65,0,0,0,3.73,7.06l10.89,3.36.06-.21Z" style="fill:#9e8b6a"></path><path d="M288.3,294.25,306.93,303A10.53,10.53,0,0,1,313,312.5v2.86H259.73l2-17.5a1.08,1.08,0,0,1,1.56-.84l3,2.5a8.25,8.25,0,0,0,8.81,1.06Z" style="fill:#264350"></path><polygon points="291.18 295.59 284.79 292.7 279.52 298.48 291.18 295.59" style="fill:#264350"></polygon><rect x="259.73" y="311.23" width="53.86" height="4.44" style="fill:#ededed"></rect><path d="M234.87,298.89h0a2.06,2.06,0,0,0,2.06,2.06h.8a2.2,2.2,0,0,0,2.2-2.2,4.91,4.91,0,0,1,4.85-5.68h4.72a8.33,8.33,0,0,1,5,1.64l7.54,5.55a16.18,16.18,0,0,1,6.54,11.86l.37,3.24H228.88l1.81-20.65A4.18,4.18,0,0,1,234.87,298.89Z" style="fill:#3c5662"></path><rect x="228.88" y="311.23" width="40.36" height="4.44" style="fill:#f7f5f2"></rect><path d="M198.83,43.23h0a1.83,1.83,0,0,1,1.83,1.83v1.88a1.83,1.83,0,1,1-3.66,0V45.06A1.83,1.83,0,0,1,198.83,43.23Z" style="fill:#2d4a54"></path><path d="M222.88,43.23h0a1.83,1.83,0,0,1,1.83,1.83v1.88a1.84,1.84,0,0,1-3.67,0V45.06A1.83,1.83,0,0,1,222.88,43.23Z" style="fill:#2d4a54"></path><path d="M210.25,45.39l1.13,7.54H209a1.37,1.37,0,0,0,0,2.74H213a1.38,1.38,0,0,0,1.36-1.58L213,45a1.39,1.39,0,0,0-1.56-1.15,1.37,1.37,0,0,0-1.15,1.56Z" style="fill:#958365"></path><path d="M199.51,247.5l16,3.09a9.4,9.4,0,0,1,6.93,6.62l.74,2.4L184,271.7l-3-15.14a.83.83,0,0,1,.93-1.06l2.88,1.41a5.72,5.72,0,0,0,6.75-1.11Z" style="fill:#264350"></path><polygon points="201.98 247.98 196.53 247 194.15 253.05 201.98 247.98" style="fill:#264350"></polygon><rect x="182.55" y="262.04" width="41.45" height="3.9" transform="translate(-68.82 71.7) rotate(-17.15)" style="fill:#ededed"></rect><polyline points="137.51 143.69 137.51 202.57 147.71 202.57 147.71 143.69" style="fill:#9e8b6a"></polyline><polyline points="137.51 143.69 137.51 147.69 147.71 147.69 147.71 143.69" style="fill:#8f7d5d"></polyline><path d="M143.24,212.77H101.78a16.65,16.65,0,0,1-16.66-16.65V183.84h58.12Z" style="fill:#1a738e"></path><rect x="84.23" y="126.74" width="59.91" height="64.67" style="fill:url(#Unnamed_Pattern_3)"></rect><path d="M137.77,260.79h0a1.82,1.82,0,0,0,1.3,2.2l.69.18a1.93,1.93,0,0,0,2.35-1.4,4.31,4.31,0,0,1,5.36-3.77l4,1a7.32,7.32,0,0,1,3.88,2.48l5.2,6.37a14.19,14.19,0,0,1,3,11.51l-.39,2.84-34.07-8.74,6-17.17A3.67,3.67,0,0,1,137.77,260.79Z" style="fill:#3c5662"></path><rect x="144.72" y="258.55" width="3.9" height="35.44" transform="translate(-157.38 349.67) rotate(-75.61)" style="fill:#f7f5f2"></rect><path d="M198.52,248.81l-16.23-49.05a10.22,10.22,0,0,0-9.56-7l-34.22-.46-.28,20.41,27,.37,13.95,42.14,19.38-6.41Z" style="fill:#006381"></path><path d="M154.8,257.66V203a10.23,10.23,0,0,0-10.08-10.21l-34.18-.41-.25,20.42,24.1.29v44.6Z" style="fill:#1a738e"></path><g style="clip-path:url(#clip-path)"><g style="clip-path:url(#clip-path-2)"><rect x="6.98" y="156.73" width="130.19" height="25.89" style="fill:#e3cc8b"></rect><rect x="6.98" y="130.84" width="130.19" height="25.89" style="fill:#fcfaf3"></rect></g><g style="clip-path:url(#clip-path-3)"><rect x="137.17" y="156.73" width="130.19" height="25.89" style="fill:#e3cc8b"></rect><rect x="137.17" y="130.84" width="130.19" height="25.89" style="fill:#fcfaf3"></rect></g><g style="clip-path:url(#clip-path-4)"><polyline points="137.17 130.85 6.98 130.85 6.98 104.95 137.17 104.95 137.17 130.85" style="fill:#e3cc8b"></polyline><rect x="6.98" y="79.07" width="130.19" height="25.89" style="fill:#fcfaf3"></rect></g><g style="clip-path:url(#clip-path-5)"><rect x="137.17" y="104.96" width="130.19" height="25.89" style="fill:#e3cc8b"></rect><rect x="137.17" y="79.07" width="130.19" height="25.89" style="fill:#fcfaf3"></rect></g></g><path d="M147.84,68c.13,17.29-13.8,29.59-31.1,29.71s-31.42-12-31.55-29.27A31.33,31.33,0,1,1,147.84,68" style="fill:#2d4a54"></path><path d="M96.66,88.21l-5.71,0a6.69,6.69,0,1,1-.09-13.38l5.7,0,.1,13.38" style="fill:#8f7d5d"></path><path d="M136.29,74.56l5.71,0a6.69,6.69,0,0,1,.1,13.38l-5.71,0-.1-13.37" style="fill:#8f7d5d"></path><path d="M116.08,121.25a6.74,6.74,0,0,1-6.74-6.74V95.39h13.48v19.12a6.74,6.74,0,0,1-6.74,6.74" style="fill:#a89779"></path><path d="M109.34,106.83v1.66s2.15,2.7,7.11,2.7,6.37-2.7,6.37-2.7v-.7a21.57,21.57,0,0,1-5.09.64h-.16a22.21,22.21,0,0,1-8.23-1.6" style="fill:#9c8b6d"></path><path d="M117.73,108.43c-14.43.11-26.22-14.28-26.32-28.71l-.11-9.4a25.06,25.06,0,0,1,24.87-25.25l2.13,0A25.06,25.06,0,0,1,143.53,70l.11,9.39c.1,14.44-11.49,29-25.91,29.09" style="fill:#a89779"></path><path d="M142.88,77.31a1.22,1.22,0,0,1-1.52-1.17l-.1-9.62a9.37,9.37,0,0,0-9.45-9.32l-28.88.21a9.38,9.38,0,0,0-9.32,9.31l-.1,9.7a1.16,1.16,0,0,1-2.31,0l-.76-14.1C90.35,50.21,100.83,39,113,38.89l8.4-.06C133.52,38.75,144,49.77,144.1,61.9l-.31,14.26a1.23,1.23,0,0,1-.91,1.15" style="fill:#2d4a54"></path><path d="M119.23,96.5a10.1,10.1,0,0,0,8.92-.14,2.74,2.74,0,1,0-2.51-4.88,4.58,4.58,0,0,1-2.1.51,4.49,4.49,0,0,1-2-.44,2.74,2.74,0,0,0-2.35,5Z" style="fill:#8f7d5d"></path><path d="M120,95a8.49,8.49,0,0,0,3.58.8,8.33,8.33,0,0,0,3.83-.93,1,1,0,1,0-.94-1.82,6.41,6.41,0,0,1-2.89.7,6.33,6.33,0,0,1-2.69-.61A1,1,0,0,0,120,95Z" style="fill:#fff"></path><polyline points="79.89 143.69 79.89 174.29 90.1 174.29 90.1 143.69" style="fill:#9e8b6a"></polyline><polyline points="79.89 143.69 79.89 147.69 90.1 147.69 90.1 143.69" style="fill:#8f7d5d"></polyline><path d="M79.89,174.4l.84,38.23a5.1,5.1,0,0,0,10.2-.22l-.83-38.24a5.11,5.11,0,0,0-10.21.23" style="fill:#9e8b6a"></path><path d="M98.59,223.26,97.14,213l0-.11a9.06,9.06,0,0,0-2.68-4.63,7.75,7.75,0,0,0-2.07-1.41,2.47,2.47,0,1,0-2,4.53l.58-1.33-.62,1.31,0,0,.58-1.33-.62,1.31.07-.14-.07.14h0l.07-.14-.07.14a3.56,3.56,0,0,1,.85.65,4.25,4.25,0,0,1,1.1,2l2.4-.57-2.44.35L93.7,224a2.47,2.47,0,0,0,4.89-.69Z" style="fill:#9e8b6a"></path><path d="M77.3,218.48l-.09,8.87a2.09,2.09,0,0,0,4.18.05l.09-8.88a2.09,2.09,0,1,0-4.18,0" style="fill:#9e8b6a"></path><path d="M81.22,218.79,81,228.34a2.09,2.09,0,1,0,4.18.08l.19-9.54a2.09,2.09,0,0,0-4.18-.09" style="fill:#9e8b6a"></path><path d="M85.35,219.17l-.09,9.19a2.09,2.09,0,1,0,4.17,0l.09-9.19a2.09,2.09,0,1,0-4.17,0" style="fill:#9e8b6a"></path><path d="M89.29,219.53v8.85a2.09,2.09,0,0,0,4.18,0v-8.85a2.09,2.09,0,0,0-4.18,0" style="fill:#9e8b6a"></path><path d="M77.4,221.28l-.06-9.82a4.78,4.78,0,0,1,4.74-4.8l8.8,0a3,3,0,0,1,3,2.95l.07,11.62Z" style="fill:#9e8b6a"></path><path d="M77.4,221.28h.19l-.06-9.82v0a4.59,4.59,0,0,1,4.56-4.58l8.79,0h0a2.78,2.78,0,0,1,2.78,2.76L93.75,221l-16.35.1v.19h0v.19l16.73-.11-.07-11.8a3.16,3.16,0,0,0-3.16-3.14h0l-8.78.05a5,5,0,0,0-4.93,5v0l.07,10h.18Z" style="fill:#9e8b6a"></path><path d="M111.9,75.85a1.76,1.76,0,0,1,1.77,1.76v1.81a1.77,1.77,0,1,1-3.54,0V77.61a1.77,1.77,0,0,1,1.77-1.76" style="fill:#2d4a54"></path><path d="M135.1,75.85a1.76,1.76,0,0,1,1.77,1.76v1.81a1.77,1.77,0,1,1-3.53,0V77.61a1.76,1.76,0,0,1,1.76-1.76" style="fill:#2d4a54"></path><path d="M108.12,73.38l3.4-.52a.92.92,0,0,0-.28-1.81l-3.39.53a.91.91,0,1,0,.27,1.8" style="fill:#2d4a54"></path><path d="M137.79,71.58l-3.4-.53a.92.92,0,0,0-1,.77.91.91,0,0,0,.76,1l3.4.52a.91.91,0,0,0,.28-1.8" style="fill:#2d4a54"></path><path d="M131.88,57.2h-.07l-28.88.21a9.38,9.38,0,0,0-9.32,9.31l0,4.44h0a88.59,88.59,0,0,0,14.94-1.76,15.63,15.63,0,0,0-1.23,2.46.86.86,0,0,1,.53-.28l3.39-.53h.14a.92.92,0,0,1,.14,1.82l-3.4.52H108a.91.91,0,0,1-.9-.77.22.22,0,0,0,0-.08,8.28,8.28,0,0,0-.49,3.22c1,.06,2,.09,2.89.09,15.5,0,22.36-7.74,22.36-7.74a17.3,17.3,0,0,0,0,6.77,16.41,16.41,0,0,0,3.72-1.8l-1.44-.22a.92.92,0,0,1,.14-1.82h.14l3.27.51A28.57,28.57,0,0,0,141.28,68l0-1.49a9.38,9.38,0,0,0-9.38-9.32" style="fill:#9a8a6d"></path><path d="M117.85,48.47C96.1,48.47,92.36,61,92.36,61A62.31,62.31,0,0,0,91.3,71.07c.71.06,1.48.09,2.27.09l0-4.44a9.38,9.38,0,0,1,9.32-9.31l28.88-.21h.07a9.38,9.38,0,0,1,9.38,9.32l0,1.49c.86-1,1.34-1.71,1.34-1.71,0-7.44-3-17.83-24.77-17.83" style="fill:#2d4a54"></path><path d="M111.38,71h-.14l-3.39.53a.86.86,0,0,0-.53.28c-.09.23-.17.46-.25.68a.22.22,0,0,1,0,.08.91.91,0,0,0,.9.77h.14l3.4-.52a.92.92,0,0,0-.14-1.82" style="fill:#2d4a54"></path><path d="M134.25,71a.92.92,0,0,0-.14,1.82l1.44.22a21.51,21.51,0,0,0,2.11-1.52l-3.27-.51h-.14" style="fill:#2d4a54"></path><path d="M144.14,64.52S139.71,71,133.35,73.1a17.26,17.26,0,0,1,0-6.76S125.64,75,108.1,74c0,0-.31-2.65,2-6.36,0,0-10.61,2.22-17.25,1.68a62.35,62.35,0,0,1,1.06-10.1s3.74-12.5,25.49-12.5S144.14,57.08,144.14,64.52Z" style="fill:#2d4a54"></path><path d="M123.34,79.93l.69,4.58h-1.21a1.37,1.37,0,1,0,0,2.74h2.8a1.39,1.39,0,0,0,1-.47,1.37,1.37,0,0,0,.31-1.1l-.92-6.16a1.38,1.38,0,0,0-1.56-1.15,1.36,1.36,0,0,0-1.15,1.56Z" style="fill:#958365"></path><path d="M515.87,304.66H337.56a10.52,10.52,0,0,0,0,21H515.87a10.52,10.52,0,1,0,0-21" style="fill:#eaedee"></path><path d="M471.81,160.15v40.72a7.08,7.08,0,0,1-.56,2.78,7.15,7.15,0,0,1-6.58,4.36H457V221.9h7.64a21,21,0,0,0,21-21V160.15Z" style="fill:#878787"></path><rect x="430.97" y="229.63" width="10.37" height="50.43" style="fill:#535353"></rect><rect x="430.97" y="229.63" width="10.37" height="29.94" style="fill:#464645"></rect><rect x="428.36" y="218.23" width="15.58" height="36.82" style="fill:#2d4a54"></rect><rect x="383.18" y="208.16" width="105.51" height="20.15" rx="5.81" style="fill:#2d4a54"></rect><path d="M390.09,299.52l46.67-15.36,46.67,15.36a4.53,4.53,0,1,0,2.83-8.6l-49.5-16.29-49.5,16.29a4.53,4.53,0,0,0,2.83,8.6Z" style="fill:#535353"></path><path d="M492.82,305.1a9.33,9.33,0,1,1-9.33-9.33A9.33,9.33,0,0,1,492.82,305.1Z" style="fill:#2d4a54"></path><path d="M399.76,305.1a9.33,9.33,0,1,1-9.33-9.33A9.33,9.33,0,0,1,399.76,305.1Z" style="fill:#2d4a54"></path><path d="M432.24,279.4v16.37a4.53,4.53,0,1,0,9.05,0V279.4a4.53,4.53,0,1,0-9.05,0" style="fill:#535353"></path><rect x="447.58" y="122.62" width="66.03" height="46" rx="18.5" style="fill:#4a636c"></rect><rect x="440.37" y="122.62" width="66.03" height="46" rx="18.5" style="fill:#2d4a54"></rect><rect x="439.36" y="208.16" width="49.77" height="20.15" rx="5.81" style="fill:#2d4a54"></rect><path d="M446,305.1a9.32,9.32,0,1,1-9.32-9.33A9.32,9.32,0,0,1,446,305.1Z" style="fill:#2d4a54"></path><path d="M466.16,106.63a19.52,19.52,0,0,1-24.51-22.22l7.08-39.66,26.74,30.14a19.52,19.52,0,0,1-9.31,31.74" style="fill:#9b805f"></path><path d="M409.38,131.55v34.71a5.7,5.7,0,0,0,11.39,0V131.55a5.7,5.7,0,1,0-11.39,0" style="fill:#f6e2c9"></path><polyline points="409.38 131.55 409.38 136.09 420.77 136.09 420.77 131.55" style="fill:#f0d5b4"></polyline><path d="M414.69,160.58l-30.21,2a5.69,5.69,0,1,0,.76,11.36l30.21-2a5.69,5.69,0,1,0-.76-11.36" style="fill:#f6e2c9"></path><path d="M421.25,212.87h41.51A18.9,18.9,0,0,0,481.66,194V180.05H421.25Z" style="fill:#2d4a54"></path><polygon points="417.97 189.7 482.67 189.7 473.38 115.24 417.97 115.24 417.97 189.7" style="fill:#f9b900"></polygon><polygon points="473.16 189.7 482.67 189.7 473.38 115.24 473.16 189.7" style="fill:#f5a300"></polygon><rect x="449.83" y="132.67" width="18.88" height="12.95" rx="2.81" style="fill:#82cad3"></rect><path d="M465.9,145.62v-.69H452.64a2.13,2.13,0,0,1-2.13-2.12v-7.33a2.13,2.13,0,0,1,2.13-2.12H465.9a2.12,2.12,0,0,1,2.12,2.12v7.33a2.12,2.12,0,0,1-2.12,2.12v1.38a3.5,3.5,0,0,0,3.5-3.5v-7.33a3.5,3.5,0,0,0-3.5-3.5H452.64a3.5,3.5,0,0,0-3.5,3.5v7.33a3.5,3.5,0,0,0,3.5,3.5H465.9Z" style="fill:#fff"></path><rect x="452.34" y="135.06" width="6.16" height="7.63" rx="1.42" style="fill:#fff"></rect><polyline points="460.24 136.75 465.84 136.75 465.84 135.38 460.24 135.38" style="fill:#36a9b8"></polyline><polyline points="460.24 139.56 465.84 139.56 465.84 138.18 460.24 138.18" style="fill:#36a9b8"></polyline><polyline points="460.24 142.36 465.84 142.36 465.84 140.98 460.24 140.98" style="fill:#36a9b8"></polyline><rect x="457.71" y="129.13" width="3.35" height="2.85" style="fill:#dadada"></rect><rect x="457.5" y="126.56" width="3.77" height="4.78" rx="0.6" style="fill:#ededed"></rect><path d="M371.78,252.08,376.6,305a6.95,6.95,0,1,0,13.84-1.26l-4.82-52.91a6.95,6.95,0,0,0-13.84,1.26" style="fill:#f0d5b4"></path><path d="M403.6,252.08,408.43,305a6.95,6.95,0,1,0,13.84-1.26l-4.83-52.91a6.95,6.95,0,0,0-13.84,1.26" style="fill:#f0d5b4"></path><path d="M423.12,273.88l-3.86-60.67,33.82-.34-.23-23.16-46,.46a11.58,11.58,0,0,0-11.44,12.31L400,275.35l23.12-1.47Z" style="fill:#2d4a54"></path><path d="M391.36,275.43l-3.87-62.24,33.89-.39-.26-23.15-46.08.52a11.59,11.59,0,0,0-11.43,12.3l4.64,74.4,23.11-1.44Z" style="fill:#2d4a54"></path><path d="M475.18,132v34.71a5.7,5.7,0,1,0,11.39,0V132a5.7,5.7,0,0,0-11.39,0" style="fill:#f6e2c9"></path><path d="M489.46,131.86a41,41,0,0,0-40.72-41h-1.41a41,41,0,0,0-40.71,41Z" style="fill:#f9b900"></path><path d="M413.66,43.57a30.43,30.43,0,1,0,30.65-30.21,30.44,30.44,0,0,0-30.65,30.21" style="fill:#9b805f"></path><path d="M464.21,64.25l5.89,0a6.91,6.91,0,1,0,.1-13.81l-5.89,0-.1,13.81" style="fill:#f0d5b4"></path><path d="M425.55,50.16l-5.9,0a6.91,6.91,0,0,0-.09,13.81l5.89,0,.1-13.81" style="fill:#f0d5b4"></path><path d="M444.12,109h0c3.84,0,6.95-9.31,6.95-13.15V76.06H437.16V95.8C437.16,99.64,440.28,109,444.12,109Z" style="fill:#f5ddbf"></path><path d="M443.73,92.37c5.13,0,7.34-2.78,7.34-2.78V76.8H437.16V89.59S438.61,92.37,443.73,92.37Z" style="fill:#f0d5b4"></path><path d="M470.63,29v32a26.33,26.33,0,1,1-52.66,0v-20L470.63,29" style="fill:#f5ddbf"></path><path d="M462.12,31V61.83a26.36,26.36,0,0,1-19.2,25.35c.63,0,1.25.07,1.89.07a26.34,26.34,0,0,0,26.34-26.33V29l-9,2" style="fill:#f0d5b4"></path><path d="M425.65,55.34a1.82,1.82,0,0,1,1.82,1.82V59a1.83,1.83,0,1,1-3.65,0V57.16a1.83,1.83,0,0,1,1.83-1.82" style="fill:#264350"></path><path d="M451.6,55.34h0a1.83,1.83,0,0,1,1.83,1.83V59a1.83,1.83,0,1,1-3.65,0V57.17A1.83,1.83,0,0,1,451.6,55.34Z" style="fill:#264350"></path><path d="M440.78,69.81a4.85,4.85,0,0,1-2.07.47,4.78,4.78,0,0,1-2.21-.54A2.74,2.74,0,1,0,434,74.61a10.29,10.29,0,0,0,9.13.16,2.74,2.74,0,1,0-2.34-5Z" style="fill:#f0d5b4"></path><path d="M441.5,71.33a6.47,6.47,0,0,1-5.77-.1,1.06,1.06,0,1,0-1,1.89,8.61,8.61,0,0,0,7.64.13,1.07,1.07,0,0,0,.51-1.42,1.06,1.06,0,0,0-1.41-.5Z" style="fill:#fff"></path><polyline points="475.18 132.01 475.18 136.55 486.57 136.55 486.57 132.01" style="fill:#f0d5b4"></polyline><path d="M484.12,162,455,141.87a5.69,5.69,0,0,0-6.49,9.36l29.1,20.17a5.69,5.69,0,0,0,6.49-9.36" style="fill:#f6e2c9"></path><path d="M442.42,132.7l5.41,4.13a4.18,4.18,0,0,1,1.63,2.85A2.81,2.81,0,1,0,455,139a9.86,9.86,0,0,0-3.8-6.64l-5.41-4.12a2.8,2.8,0,1,0-3.4,4.45Z" style="fill:#f6e2c9"></path><path d="M437,144.83l-7.06-1a2.37,2.37,0,1,0-.68,4.69l7.07,1a2.37,2.37,0,0,0,.67-4.7" style="fill:#f6e2c9"></path><path d="M439.22,140.86l-11.38-3.58a2.37,2.37,0,0,0-1.42,4.53l11.38,3.58a2.37,2.37,0,0,0,1.42-4.53" style="fill:#f6e2c9"></path><path d="M441.3,136.64,428.8,132a2.37,2.37,0,0,0-1.64,4.45l12.5,4.61a2.37,2.37,0,0,0,1.64-4.44" style="fill:#f6e2c9"></path><path d="M443.37,132.64l-11.2-5.26a2.37,2.37,0,1,0-2,4.29l11.19,5.26a2.37,2.37,0,0,0,2-4.29" style="fill:#f6e2c9"></path><path d="M433.2,148.64l10.11,4.67a5.41,5.41,0,0,0,7.18-2.65l4.18-9.06a3.36,3.36,0,0,0-1.64-4.47l-12-5.52Z" style="fill:#f5ddbf"></path><path d="M370,293.84l-18.56,8.69a10.47,10.47,0,0,0-6.05,9.5v2.85h53.07l-2-17.43a1.09,1.09,0,0,0-1.56-.85l-3,2.5a8.2,8.2,0,0,1-8.77,1Z" style="fill:#fff"></path><polygon points="367.08 295.19 373.44 292.31 378.7 298.06 367.08 295.19" style="fill:#fff"></polygon><rect x="344.76" y="310.76" width="53.66" height="4.42" style="fill:#c6c6c6"></rect><path d="M420.75,298.47h0a2,2,0,0,1-2.05,2h-.8a2.2,2.2,0,0,1-2.2-2.19,4.88,4.88,0,0,0-4.82-5.66h-4.71a8.37,8.37,0,0,0-5,1.63l-7.51,5.54a16.13,16.13,0,0,0-6.51,11.81l-.37,3.23h39.9l-1.81-20.57A4.16,4.16,0,0,0,420.75,298.47Z" style="fill:#fff"></path><rect x="386.51" y="310.76" width="40.2" height="4.42" style="fill:#dadada"></rect><g style="clip-path:url(#clip-path-6)"><rect x="413.61" y="45.83" width="60.67" height="7.76" style="fill:#f0d5b4"></rect></g><path d="M471.15,35.09V50.55a7,7,0,0,1,2.41.83,29.23,29.23,0,0,0,.71-3.66,30.22,30.22,0,0,0-3.12-12.63m-27.21-16.9a30.33,30.33,0,0,0-30.21,27.64,30.51,30.51,0,0,0,1.07,6.23A6.93,6.93,0,0,1,418,50.31V40.88l49.69-11.26a30.24,30.24,0,0,0-23.72-11.43" style="fill:#9b805f"></path><path d="M471.15,50.55v5l2.07.15.61-4.12-.27-.16a7,7,0,0,0-2.41-.83" style="fill:#f0d5b4"></path><path d="M418,50.31a6.93,6.93,0,0,0-3.17,1.75,7.39,7.39,0,0,0-1.19,1.53v1.12H418v-4.4" style="fill:#f0d5b4"></path><path d="M467.66,29.62,418,40.88V54.71h1.35s31.75-1.9,36.78-15a26.46,26.46,0,0,0,6,10.81V31l5.62-1.27-.08-.1" style="fill:#f0d5b4"></path><path d="M467.74,29.72,462.12,31V50.51a16.13,16.13,0,0,0,8.34,5l.69,0V35.09a30.3,30.3,0,0,0-3.41-5.37" style="fill:#f0d5b4"></path><path d="M443.94,13.22h0a30.33,30.33,0,0,0-30.33,30.33v6.19h5.71s31.75-1.89,36.77-15c4.38,14.27,14.37,15.76,14.37,15.76l2.76.19,1.06-7.13A30.33,30.33,0,0,0,443.94,13.22Z" style="fill:#9b805f"></path><path d="M404.47,175.33H371.9a5.47,5.47,0,0,1-5.44-4.87l-5.49-49a4.42,4.42,0,0,1,4.38-4.9h32.58a5.48,5.48,0,0,1,5.44,4.87l5.48,49A4.4,4.4,0,0,1,404.47,175.33Z" style="fill:#2d4a54"></path><path d="M362,151.25l11.12-2.53a2.78,2.78,0,0,0-1.23-5.42l-11.12,2.53a2.78,2.78,0,0,0,1.23,5.42" style="fill:#f6e2c9"></path><path d="M362.25,156.54l12-2.73a2.78,2.78,0,0,0-1.23-5.42l-12,2.74a2.77,2.77,0,1,0,1.23,5.41" style="fill:#f6e2c9"></path><path d="M363.41,161.64l9.31-2.12a2.78,2.78,0,0,0-1.24-5.42l-9.31,2.12a2.78,2.78,0,0,0,1.24,5.42" style="fill:#f6e2c9"></path><path d="M366.37,166.32l3.71-.85a2.77,2.77,0,0,0-1.23-5.41l-3.71.84a2.78,2.78,0,0,0,1.23,5.42" style="fill:#f6e2c9"></path><path d="M435.44,54.75l-1.13,9.1a.91.91,0,0,0,.91,1h3.89a.92.92,0,0,0,0-1.83h-2.86l1-8.08a.91.91,0,0,0-.79-1,.92.92,0,0,0-1,.8Z" style="fill:#f0d5b4"></path><path d="M422.44,52l3.12-.93a.91.91,0,0,0-.52-1.75l-3.12.92a.92.92,0,1,0,.52,1.76" style="fill:#9b805f"></path><path d="M456.5,50.2l-3.12-.92a.92.92,0,0,0-1.14.62.91.91,0,0,0,.62,1.13L456,52a.92.92,0,0,0,.52-1.76" style="fill:#9b805f"></path></svg> 