<?xml version="1.0" encoding="UTF-8"?> <svg xmlns="http://www.w3.org/2000/svg" xmlns:xlink="http://www.w3.org/1999/xlink" id="Layer_1" data-name="Layer 1" viewBox="0 0 550 322"><defs><linearGradient id="linear-gradient" x1="-1500" y1="-750.11" x2="-1499" y2="-750.11" gradientTransform="matrix(0, -109.86, -109.86, 0, -82133.42, -164486.25)" gradientUnits="userSpaceOnUse"><stop offset="0" stop-color="#7b8996"></stop><stop offset="0.67" stop-color="#485b6e"></stop><stop offset="1" stop-color="#485b6e"></stop></linearGradient></defs><path d="M148.22,320.18H390.74a6.05,6.05,0,0,0,0-12.1H148.22a6.05,6.05,0,1,0,0,12.1" style="fill:#085680"></path><path d="M316.1,305.21l-7.31-57.67,2,16.15H282.19a15.26,15.26,0,0,1-14.38,0H238.73l.57-5.11-5.9,46.63Z" style="fill:#7f9197"></path><path d="M275,235.06a15.2,15.2,0,0,1,13.56,8.34h19.71l-6.09-48.05H247.31l-6.09,48.05h20.22A15.2,15.2,0,0,1,275,235.06Z" style="fill:url(#linear-gradient)"></path><path d="M290.22,250.28a15.23,15.23,0,0,1-8,13.41h28.65l-2-16.15-.52-4.14H288.56A15.16,15.16,0,0,1,290.22,250.28Z" style="fill:#5b727a"></path><path d="M267.81,263.69a15.18,15.18,0,0,1-6.37-20.29H241l-1.7,15.18-.57,5.11Z" style="fill:#5b727a"></path><rect x="86.92" y="2" width="376.17" height="242.25" rx="16.44" style="fill:#abb7bb"></rect><path d="M446.92,2H103.08A16.16,16.16,0,0,0,86.92,18.17V206H463.08V18.17A16.16,16.16,0,0,0,446.92,2Z" style="fill:#2d4a54"></path><rect x="101.72" y="18.33" width="346.05" height="173.33" style="fill:#085680"></rect><rect x="274.44" y="18.33" width="173.33" height="173.33" style="fill:#129294"></rect><path d="M339.74,298.46h-130a4.19,4.19,0,0,0-4.18,4.19v10.27H343.93V302.65A4.2,4.2,0,0,0,339.74,298.46Z" style="fill:#abb7bb"></path><path d="M282.9,223.46a7.9,7.9,0,1,1-7.9-7.91A7.9,7.9,0,0,1,282.9,223.46Z" style="fill:#46596c"></path><path d="M310.41,151.63h107.3a5.67,5.67,0,0,0,4.87-8.59L368.94,53.19a5.69,5.69,0,0,0-9.76,0L305.54,143A5.67,5.67,0,0,0,310.41,151.63Z" style="fill:#085680"></path><path d="M241.22,105A54.24,54.24,0,1,1,187,50.76,54.24,54.24,0,0,1,241.22,105Z" style="fill:#129294"></path><path d="M158.65,115.4l12,12.47a5.07,5.07,0,0,0,7.28,0l37.38-38.72a5.05,5.05,0,1,0-7.27-7l-33.75,35-8.38-8.69a5.05,5.05,0,1,0-7.27,7Z" style="fill:#fff"></path><path d="M359,84.46V115.9a5.05,5.05,0,0,0,10.1,0V84.46a5,5,0,0,0-10.1,0" style="fill:#fff"></path><path d="M364.06,136.53a5.05,5.05,0,1,0-3.57-1.48,5.08,5.08,0,0,0,3.57,1.48" style="fill:#fff"></path></svg> 