<?xml version="1.0" encoding="UTF-8"?> <svg xmlns="http://www.w3.org/2000/svg" id="Layer_1" data-name="Layer 1" viewBox="0 0 550 360"><path d="M184.85,67.86a126,126,0,1,0,93.22,210.75L260.4,262.54H236.51v71.51a23.89,23.89,0,1,0,47.77,0V262.54a23.89,23.89,0,0,0-41.56-16.08A78.18,78.18,0,0,1,120,237.57a78.35,78.35,0,0,1-7.21-74.15A78.57,78.57,0,0,1,141.13,129a77.56,77.56,0,0,1,20.45-9.84,78.42,78.42,0,0,1,23.27-3.51,23.89,23.89,0,1,0,0-47.78" style="fill:#f2665e"></path><path d="M260.4,352.34c-10.48,0-18.37-5.61-18.37-13s7.89-13.05,18.37-13.05,18.36,5.61,18.36,13.05S270.87,352.34,260.4,352.34Z" style="fill:#cc564f"></path><path d="M260.4,332.33c6.78,0,12.27,3.12,12.27,7s-5.49,7-12.27,7-12.28-3.11-12.28-7,5.49-7,12.28-7m0-12.18c-13.95,0-24.46,8.23-24.46,19.14s10.51,19.14,24.46,19.14,24.45-8.23,24.45-19.14S274.34,320.15,260.4,320.15Z" style="fill:#f47e78"></path><path d="M357.84,95.15l-180.26,17v0a82.46,82.46,0,0,0-74.95,83.94c1,44.72,38.08,80.83,82.81,80.63a82.44,82.44,0,0,0,75.22-49.49,68.38,68.38,0,0,1,26.6-31.08l85.2-52.48a25.91,25.91,0,0,0-14.63-48.59Z" style="fill:#f484a8"></path><path d="M285.85,197.27c.46-.3.91-.6,1.38-.89l85.2-52.48a25.93,25.93,0,0,0,11.91-13.73l-78.25,48.2A70.9,70.9,0,0,0,285.85,197.27Z" style="fill:#e06088"></path><path d="M109.52,178.15a88.7,88.7,0,0,1,2.13-21.32,82.19,82.19,0,0,0-9,39.33c1,44.72,38.08,80.83,82.81,80.63a82.21,82.21,0,0,0,61.93-28.46A87.34,87.34,0,0,1,197.71,264C150.07,264.22,110.56,225.77,109.52,178.15Z" style="fill:#e06088"></path><path d="M121.17,96.26a5.11,5.11,0,0,0-2.43.62,70.77,70.77,0,0,0-14.63,10.76A117.53,117.53,0,0,0,86,129.71a120.81,120.81,0,0,0-12,23.81,5.1,5.1,0,0,0,3.08,6.53,5,5,0,0,0,1.73.31A5.12,5.12,0,0,0,83.68,157a115.4,115.4,0,0,1,15.95-29,99.35,99.35,0,0,1,11.46-12.9,60.93,60.93,0,0,1,12.5-9.24,5.11,5.11,0,0,0-2.42-9.61" style="fill:#f7a19d"></path><path d="M236.59,308.71v-26l-24,34.09S228.6,313.1,236.59,308.71Z" style="fill:#d15851"></path><path d="M352.74,222.8a13,13,0,1,1-12.95-13A13,13,0,0,1,352.74,222.8Z" style="fill:#c4e4e4"></path><path d="M403.5,181.19a13,13,0,1,1-13-13A13,13,0,0,1,403.5,181.19Z" style="fill:#c4e4e4"></path><path d="M435.3,119.42a13,13,0,1,1-12.95-13A13,13,0,0,1,435.3,119.42Z" style="fill:#c4e4e4"></path><path d="M390.54,63.41a13,13,0,1,1-13-13A13,13,0,0,1,390.54,63.41Z" style="fill:#c4e4e4"></path><path d="M285.63,72.71a13,13,0,1,1-13-12.95A13,13,0,0,1,285.63,72.71Z" style="fill:#c4e4e4"></path><path d="M285.63,14.21a13,13,0,1,1-13-12.95A13,13,0,0,1,285.63,14.21Z" style="fill:#c4e4e4"></path><path d="M411.1,14.21a13,13,0,1,1-13-12.95A13,13,0,0,1,411.1,14.21Z" style="fill:#c4e4e4"></path><circle cx="495" cy="106.46" r="12.96" style="fill:#c4e4e4"></circle><path d="M457.54,213.06a13,13,0,1,1-13-13A13,13,0,0,1,457.54,213.06Z" style="fill:#c4e4e4"></path><path d="M381.54,282.72a13,13,0,1,1-13-13A13,13,0,0,1,381.54,282.72Z" style="fill:#c4e4e4"></path><path d="M169.09,166.11a3.55,3.55,0,0,1,2,.61,4.55,4.55,0,0,1,1.5,1.66,5,5,0,0,1,0,4.64,4.63,4.63,0,0,1-1.5,1.66,3.49,3.49,0,0,1-2,.62h-3.76l.2-.36v4.23a1.27,1.27,0,0,1-.33.89,1.1,1.1,0,0,1-.86.35,1,1,0,0,1-.83-.35,1.27,1.27,0,0,1-.33-.89V167.35a1.18,1.18,0,0,1,.36-.88,1.2,1.2,0,0,1,.89-.36Zm0,6.86a1.11,1.11,0,0,0,.75-.32,2.63,2.63,0,0,0,.62-.85,2.64,2.64,0,0,0,0-2.2,2.5,2.5,0,0,0-.62-.82,1.11,1.11,0,0,0-.75-.32h-3.81l.25-.37v5.21l-.23-.33Z" style="fill:#f6f6f6"></path><path d="M184.05,169.28a1.18,1.18,0,0,1,.87.34,1.2,1.2,0,0,1,.35.9v8.65a1.21,1.21,0,0,1-.35.89,1.27,1.27,0,0,1-1.75,0,1.25,1.25,0,0,1-.35-.89v-1l.45.18a1.14,1.14,0,0,1-.29.64,3.94,3.94,0,0,1-.77.75,4.73,4.73,0,0,1-1.16.62,4,4,0,0,1-1.44.26,4.6,4.6,0,0,1-2.55-.73,5,5,0,0,1-1.81-2,6.18,6.18,0,0,1-.67-2.93,6.27,6.27,0,0,1,.67-3,5.18,5.18,0,0,1,1.79-2,4.52,4.52,0,0,1,2.49-.72,4.61,4.61,0,0,1,1.61.26,4.71,4.71,0,0,1,1.28.68,3.87,3.87,0,0,1,.84.82,1.32,1.32,0,0,1,.3.71l-.74.26v-1.49a1.25,1.25,0,0,1,.35-.89A1.19,1.19,0,0,1,184.05,169.28Zm-4.13,9.09a2.76,2.76,0,0,0,1.57-.45,3,3,0,0,0,1-1.23,3.76,3.76,0,0,0,.38-1.73,3.86,3.86,0,0,0-.38-1.76,3,3,0,0,0-1-1.23,2.95,2.95,0,0,0-3.13,0,3.09,3.09,0,0,0-1.05,1.23,4,4,0,0,0-.38,1.76,3.89,3.89,0,0,0,.38,1.73,3.09,3.09,0,0,0,1.05,1.23A2.75,2.75,0,0,0,179.92,178.37Z" style="fill:#f6f6f6"></path><path d="M193.77,169.28a3.6,3.6,0,0,1,2.3.63,3.18,3.18,0,0,1,1.09,1.69,8.92,8.92,0,0,1,.29,2.34v5.23a1.24,1.24,0,0,1-.34.89,1.18,1.18,0,0,1-.88.35,1.15,1.15,0,0,1-.88-.35,1.25,1.25,0,0,1-.35-.89v-5.23a4.18,4.18,0,0,0-.17-1.22,1.73,1.73,0,0,0-.63-.87,2.14,2.14,0,0,0-1.28-.33,2.66,2.66,0,0,0-1.38.33,2.24,2.24,0,0,0-.86.87,2.48,2.48,0,0,0-.3,1.22v5.23a1.21,1.21,0,0,1-.35.89,1.27,1.27,0,0,1-1.75,0,1.21,1.21,0,0,1-.35-.89v-8.44a1.19,1.19,0,0,1,.35-.89,1.24,1.24,0,0,1,1.75,0,1.19,1.19,0,0,1,.35.89v.88l-.3-.07a3.44,3.44,0,0,1,.53-.74,4.87,4.87,0,0,1,.81-.75,4.18,4.18,0,0,1,1.07-.56A3.78,3.78,0,0,1,193.77,169.28Z" style="fill:#f6f6f6"></path><path d="M204.87,169.28a7.72,7.72,0,0,1,2,.24,3.2,3.2,0,0,1,1.34.69,1.37,1.37,0,0,1,.48,1,1.32,1.32,0,0,1-.24.76.81.81,0,0,1-.72.36,1.45,1.45,0,0,1-.54-.09,1.6,1.6,0,0,1-.38-.23,1.61,1.61,0,0,0-.38-.27,1.81,1.81,0,0,0-.63-.19,4,4,0,0,0-.62-.08,3.28,3.28,0,0,0-1.77.45,3,3,0,0,0-1.11,1.22A3.85,3.85,0,0,0,202,175a3.66,3.66,0,0,0,.4,1.74,3,3,0,0,0,1.1,1.22,3,3,0,0,0,1.63.45,5.61,5.61,0,0,0,.88-.06,2.32,2.32,0,0,0,.61-.18,4.13,4.13,0,0,0,.51-.35,1,1,0,0,1,.67-.19,1,1,0,0,1,.82.34,1.25,1.25,0,0,1,.29.83,1.16,1.16,0,0,1-.58.93,4.55,4.55,0,0,1-1.5.67,7.58,7.58,0,0,1-2,.26,5.12,5.12,0,0,1-2.8-.75,4.93,4.93,0,0,1-1.83-2,6.35,6.35,0,0,1-.64-2.88,6.16,6.16,0,0,1,.68-3,5.15,5.15,0,0,1,1.9-2A5.37,5.37,0,0,1,204.87,169.28Z" style="fill:#f6f6f6"></path><path d="M211.86,180.41a1.17,1.17,0,0,1-.88-.35,1.25,1.25,0,0,1-.35-.89v-8.44a1.23,1.23,0,0,1,.35-.89,1.18,1.18,0,0,1,.88-.36,1.16,1.16,0,0,1,.88.36,1.23,1.23,0,0,1,.35.89v1.92l-.15-1.37a3.11,3.11,0,0,1,.59-.87,3.48,3.48,0,0,1,.8-.63,3.63,3.63,0,0,1,1-.38,4.53,4.53,0,0,1,1-.12,1.56,1.56,0,0,1,1,.34,1.06,1.06,0,0,1,.42.82,1.22,1.22,0,0,1-.35,1,1.13,1.13,0,0,1-.76.3,1.63,1.63,0,0,1-.7-.15,1.83,1.83,0,0,0-.73-.14,1.71,1.71,0,0,0-.74.18,2,2,0,0,0-.7.54,2.84,2.84,0,0,0-.51.91,3.73,3.73,0,0,0-.19,1.27v4.85a1.25,1.25,0,0,1-.35.89A1.15,1.15,0,0,1,211.86,180.41Z" style="fill:#f6f6f6"></path><path d="M224.1,180.62a5.91,5.91,0,0,1-3-.73,5,5,0,0,1-2-2,5.72,5.72,0,0,1-.69-2.82,6.18,6.18,0,0,1,.75-3.14,5.25,5.25,0,0,1,1.95-2,5,5,0,0,1,2.55-.69,4.61,4.61,0,0,1,2,.43,5.24,5.24,0,0,1,1.64,1.17,5.66,5.66,0,0,1,1.14,1.73,5.4,5.4,0,0,1,.42,2.08,1.1,1.1,0,0,1-.39.8,1.33,1.33,0,0,1-.86.31h-7.81l-.61-2.05h7.5l-.45.41v-.55a1.87,1.87,0,0,0-.42-1.06,2.65,2.65,0,0,0-.94-.75,2.75,2.75,0,0,0-1.2-.28,3.83,3.83,0,0,0-1.14.17,2.22,2.22,0,0,0-.92.55,2.7,2.7,0,0,0-.61,1,5.19,5.19,0,0,0-.23,1.66,3.65,3.65,0,0,0,.46,1.87,3.17,3.17,0,0,0,2.73,1.56,4.91,4.91,0,0,0,1.21-.12,2.44,2.44,0,0,0,.72-.3l.5-.3a1.62,1.62,0,0,1,.7-.18,1,1,0,0,1,.74.31,1,1,0,0,1,.3.71,1.26,1.26,0,0,1-.57,1,4.69,4.69,0,0,1-1.49.79A5.86,5.86,0,0,1,224.1,180.62Z" style="fill:#f6f6f6"></path><path d="M239.84,169.28a1.2,1.2,0,0,1,.88.34,1.24,1.24,0,0,1,.35.9v8.65a1.25,1.25,0,0,1-.35.89,1.17,1.17,0,0,1-.88.35,1.15,1.15,0,0,1-.88-.35,1.25,1.25,0,0,1-.35-.89v-1l.45.18a1.12,1.12,0,0,1-.28.64,4,4,0,0,1-.78.75,4.55,4.55,0,0,1-1.16.62,4,4,0,0,1-1.44.26,4.6,4.6,0,0,1-2.55-.73,5.08,5.08,0,0,1-1.81-2,6.29,6.29,0,0,1-.66-2.93,6.39,6.39,0,0,1,.66-3,5.18,5.18,0,0,1,1.79-2,4.52,4.52,0,0,1,2.49-.72,4.66,4.66,0,0,1,2.89.94,3.65,3.65,0,0,1,.84.82,1.32,1.32,0,0,1,.3.71l-.74.26v-1.49a1.25,1.25,0,0,1,.35-.89A1.19,1.19,0,0,1,239.84,169.28Zm-4.13,9.09a2.76,2.76,0,0,0,1.57-.45,3.11,3.11,0,0,0,1.06-1.23,3.89,3.89,0,0,0,.37-1.73,4,4,0,0,0-.37-1.76,3.11,3.11,0,0,0-1.06-1.23,2.76,2.76,0,0,0-1.57-.45,2.71,2.71,0,0,0-1.55.45,3.11,3.11,0,0,0-1.06,1.23,4,4,0,0,0-.37,1.76,3.89,3.89,0,0,0,.37,1.73,3.11,3.11,0,0,0,1.06,1.23A2.71,2.71,0,0,0,235.71,178.37Z" style="fill:#f6f6f6"></path><path d="M243.09,178.72a1.15,1.15,0,0,1-.19-.74,1,1,0,0,1,.54-.77,1.07,1.07,0,0,1,.69-.18,1.19,1.19,0,0,1,.72.38,4.74,4.74,0,0,0,1.24.92,3.63,3.63,0,0,0,1.64.33,6.43,6.43,0,0,0,.67-.1,1.25,1.25,0,0,0,.65-.32,1,1,0,0,0,.27-.79.89.89,0,0,0-.3-.71,2.6,2.6,0,0,0-.81-.45,11.47,11.47,0,0,0-1.12-.35c-.42-.12-.85-.26-1.29-.41a5.28,5.28,0,0,1-1.22-.58,2.83,2.83,0,0,1-.9-.95,3,3,0,0,1-.35-1.49,2.63,2.63,0,0,1,.58-1.74,3.69,3.69,0,0,1,1.48-1.11,4.93,4.93,0,0,1,1.91-.38,6.38,6.38,0,0,1,1.33.15,5.47,5.47,0,0,1,1.33.49,3.25,3.25,0,0,1,1.06.89,1.37,1.37,0,0,1,.26.73.88.88,0,0,1-.38.78,1,1,0,0,1-.72.22,1.08,1.08,0,0,1-.67-.28,2.59,2.59,0,0,0-.93-.72,3.34,3.34,0,0,0-1.34-.26,3.25,3.25,0,0,0-.67.07,1.3,1.3,0,0,0-.62.31.92.92,0,0,0-.27.74,1,1,0,0,0,.31.75,2.5,2.5,0,0,0,.83.45l1.11.34a12.67,12.67,0,0,1,1.25.38,4.72,4.72,0,0,1,1.16.6,2.72,2.72,0,0,1,.86,1,3,3,0,0,1,.33,1.48,2.74,2.74,0,0,1-.61,1.78,3.84,3.84,0,0,1-1.54,1.11,4.93,4.93,0,0,1-1.88.38,7.33,7.33,0,0,1-2.41-.42A4.17,4.17,0,0,1,243.09,178.72Z" style="fill:#f6f6f6"></path><path d="M392,290.48a1.17,1.17,0,0,1-.39.89,1.32,1.32,0,0,1-.9.35,1.2,1.2,0,0,1-1.27-1.24V278.66a1.19,1.19,0,0,1,.37-.89,1.32,1.32,0,0,1,.94-.35,1.25,1.25,0,0,1,.87.35,1.19,1.19,0,0,1,.38.89Z" style="fill:#129294"></path><path d="M400.68,280.59a3.6,3.6,0,0,1,2.3.63,3.12,3.12,0,0,1,1.08,1.68,8.61,8.61,0,0,1,.3,2.34v5.24a1.21,1.21,0,0,1-.35.89,1.27,1.27,0,0,1-1.75,0,1.21,1.21,0,0,1-.35-.89v-5.24a3.84,3.84,0,0,0-.18-1.21,1.66,1.66,0,0,0-.62-.87,2.16,2.16,0,0,0-1.29-.33,2.71,2.71,0,0,0-1.38.33,2.22,2.22,0,0,0-.85.87,2.47,2.47,0,0,0-.3,1.21v5.24a1.25,1.25,0,0,1-.35.89,1.19,1.19,0,0,1-.88.35,1.22,1.22,0,0,1-.88-.35,1.24,1.24,0,0,1-.34-.89V282a1.22,1.22,0,0,1,.34-.89,1.19,1.19,0,0,1,.88-.36,1.16,1.16,0,0,1,.88.36,1.23,1.23,0,0,1,.35.89v.87l-.31-.06a4.32,4.32,0,0,1,.53-.74,5.38,5.38,0,0,1,.82-.75,4.29,4.29,0,0,1,1.06-.56A3.88,3.88,0,0,1,400.68,280.59Z" style="fill:#129294"></path><path d="M406.38,290a1.22,1.22,0,0,1-.18-.74,1,1,0,0,1,.53-.78,1.07,1.07,0,0,1,1.41.21,5,5,0,0,0,1.25.92A3.58,3.58,0,0,0,411,290a6.59,6.59,0,0,0,.68-.1,1.22,1.22,0,0,0,.64-.32,1,1,0,0,0,.28-.79.9.9,0,0,0-.31-.72,2.78,2.78,0,0,0-.81-.45c-.33-.12-.7-.23-1.11-.34l-1.3-.41a5.64,5.64,0,0,1-1.21-.58,2.83,2.83,0,0,1-.9-.95,3,3,0,0,1-.35-1.5,2.67,2.67,0,0,1,.57-1.73,3.76,3.76,0,0,1,1.48-1.11,4.82,4.82,0,0,1,1.91-.38,6.23,6.23,0,0,1,1.33.15,4.83,4.83,0,0,1,1.33.49,3.15,3.15,0,0,1,1.06.89,1.46,1.46,0,0,1,.27.73.86.86,0,0,1-.39.78,1,1,0,0,1-.71.21,1.1,1.1,0,0,1-.68-.27,2.42,2.42,0,0,0-.93-.72,3.3,3.3,0,0,0-1.34-.26,3.23,3.23,0,0,0-.66.07,1.26,1.26,0,0,0-.62.31.92.92,0,0,0-.27.74,1,1,0,0,0,.31.75,2.44,2.44,0,0,0,.82.45c.35.11.72.23,1.12.33s.82.24,1.24.39a4.62,4.62,0,0,1,1.17.6,2.81,2.81,0,0,1,.86.95,3,3,0,0,1,.33,1.48,2.7,2.7,0,0,1-.62,1.78,3.88,3.88,0,0,1-1.53,1.11,4.93,4.93,0,0,1-1.88.38,7.28,7.28,0,0,1-2.41-.42A4.2,4.2,0,0,1,406.38,290Z" style="fill:#129294"></path><path d="M425,280.79a1.16,1.16,0,0,1,.88.36,1.23,1.23,0,0,1,.35.89v5.19a4.74,4.74,0,0,1-1.21,3.43,5.38,5.38,0,0,1-6.94,0,4.82,4.82,0,0,1-1.19-3.43V282a1.19,1.19,0,0,1,.35-.89,1.24,1.24,0,0,1,1.75,0,1.19,1.19,0,0,1,.35.89v5.19a2.67,2.67,0,0,0,.55,1.85,2.61,2.61,0,0,0,3.33,0,2.67,2.67,0,0,0,.56-1.85V282a1.22,1.22,0,0,1,.34-.89A1.18,1.18,0,0,1,425,280.79Z" style="fill:#129294"></path><path d="M431.52,290.48a1.2,1.2,0,0,1-1.24,1.24,1.16,1.16,0,0,1-.86-.35,1.25,1.25,0,0,1-.35-.89V277.85a1.23,1.23,0,0,1,1.25-1.25,1.15,1.15,0,0,1,.87.36,1.26,1.26,0,0,1,.33.89Z" style="fill:#129294"></path><path d="M435.45,279.46a1.66,1.66,0,0,1-1-.22,1,1,0,0,1-.28-.8v-.39a.91.91,0,0,1,.32-.81,1.77,1.77,0,0,1,1-.21,1.68,1.68,0,0,1,1,.22,1,1,0,0,1,.28.8v.39a1,1,0,0,1-.3.81A1.84,1.84,0,0,1,435.45,279.46Zm1.24,11a1.21,1.21,0,0,1-.35.89,1.27,1.27,0,0,1-1.75,0,1.25,1.25,0,0,1-.35-.89V282a1.23,1.23,0,0,1,.35-.89,1.24,1.24,0,0,1,1.75,0,1.19,1.19,0,0,1,.35.89Z" style="fill:#129294"></path><path d="M445.05,280.59a3.6,3.6,0,0,1,2.3.63,3.12,3.12,0,0,1,1.08,1.68,8.61,8.61,0,0,1,.3,2.34v5.24a1.25,1.25,0,0,1-.35.89,1.19,1.19,0,0,1-.88.35,1.22,1.22,0,0,1-.88-.35,1.24,1.24,0,0,1-.34-.89v-5.24a3.84,3.84,0,0,0-.18-1.21,1.66,1.66,0,0,0-.62-.87,2.16,2.16,0,0,0-1.29-.33,2.71,2.71,0,0,0-1.38.33,2.22,2.22,0,0,0-.85.87,2.47,2.47,0,0,0-.3,1.21v5.24a1.25,1.25,0,0,1-.35.89,1.19,1.19,0,0,1-.88.35,1.22,1.22,0,0,1-.88-.35,1.24,1.24,0,0,1-.34-.89V282a1.22,1.22,0,0,1,.34-.89,1.19,1.19,0,0,1,.88-.36,1.16,1.16,0,0,1,.88.36,1.23,1.23,0,0,1,.35.89v.87l-.31-.06a3.83,3.83,0,0,1,.53-.74,5.38,5.38,0,0,1,.82-.75,4.12,4.12,0,0,1,1.06-.56A3.88,3.88,0,0,1,445.05,280.59Z" style="fill:#129294"></path></svg> 