<svg viewBox="0 0 550 270" xmlns="http://www.w3.org/2000/svg"><path d="m149.2 3.85h72.87a53.67 53.67 0 0 1 53.66 53.66v42.68a53.66 53.66 0 0 1 -53.66 53.66h-53.78l-36.29 21.06.25-23.83a53.64 53.64 0 0 1 -36.73-50.89v-42.68a53.66 53.66 0 0 1 53.68-53.66z" fill="#085680"/><path d="m364.3 94.1h-72.87a53.66 53.66 0 0 0 -53.65 53.66v42.68a53.65 53.65 0 0 0 53.65 53.66h53.78l36.26 21.06-.25-23.83a53.65 53.65 0 0 0 36.78-50.89v-42.68a53.67 53.67 0 0 0 -53.7-53.66z" fill="#fff"/><g fill="#085680"><circle cx="288.48" cy="170.31" r="12.75"/><circle cx="327.87" cy="170.31" r="12.75"/><circle cx="367.25" cy="170.31" opacity=".48" r="12.75"/></g><path d="m182.52 79.14a5.3 5.3 0 0 1 1.5-3.85 5.08 5.08 0 0 1 3.8-1.55 18.24 18.24 0 0 0 6.54-1.1 9.72 9.72 0 0 0 4.64-3.58 11.31 11.31 0 0 0 1.72-6.55 9.7 9.7 0 0 0 -1.46-5.3 10.24 10.24 0 0 0 -4-3.62 12 12 0 0 0 -5.7-1.33 12.13 12.13 0 0 0 -4.64.88 14.52 14.52 0 0 0 -3.92 2.39 8.62 8.62 0 0 1 -3.4 1.81 4.42 4.42 0 0 1 -4-.93 5.18 5.18 0 0 1 -2.3-3.8 5 5 0 0 1 1.7-4.06 22.58 22.58 0 0 1 7.47-5.09 23.24 23.24 0 0 1 9.15-1.81 22 22 0 0 1 11 2.78 21.59 21.59 0 0 1 7.82 7.48 19.6 19.6 0 0 1 2.92 10.6 21.35 21.35 0 0 1 -1.36 7.83 16.62 16.62 0 0 1 -3.75 5.83 19.12 19.12 0 0 1 -5.66 3.9 28 28 0 0 1 -7 2.07l-.31.18a.29.29 0 0 0 -.13.26v3.28a5.3 5.3 0 0 1 -1.51 3.84 5.43 5.43 0 0 1 -7.6 0 5.3 5.3 0 0 1 -1.5-3.84zm4.86 27.94a4.8 4.8 0 0 1 -5.31-5.31v-1.5a4.79 4.79 0 0 1 5.31-5.27h1.15a4.79 4.79 0 0 1 5.3 5.31v1.5a4.8 4.8 0 0 1 -5.3 5.31z" fill="#fff"/></svg>