<svg viewBox="0 0 550 420" xmlns="http://www.w3.org/2000/svg"><circle cx="275" cy="210" fill="#129294" r="200"/><path d="m368.1 353.11h-165.1a28.88 28.88 0 0 1 -28.88-28.88v-243.55a28.88 28.88 0 0 1 28.88-28.88h119.41l74.59 74.56v197.87a28.88 28.88 0 0 1 -28.9 28.88z" fill="#fafcfa"/><path d="m397 142.16h-35.6a28.36 28.36 0 0 1 -28.4-28.36v-46.2l64 58.76z" fill="#ccd1d7" opacity=".5"/><path d="m397 126.36h-46.23a28.36 28.36 0 0 1 -28.36-28.36v-46.2z" fill="#fff"/><path d="m206.29 232.68h168.12" fill="none" stroke="#085680" stroke-linecap="round" stroke-miterlimit="10" stroke-width="9.38"/><path d="m206.29 256.14h168.12" fill="none" stroke="#085680" stroke-linecap="round" stroke-miterlimit="10" stroke-width="9.38"/><path d="m206.29 279.6h132.24" fill="none" stroke="#085680" stroke-linecap="round" stroke-miterlimit="10" stroke-width="9.38"/><g fill="#085680"><path d="m210.89 211.66a3 3 0 0 1 -1 2.3 3.36 3.36 0 0 1 -2.34.93 3.13 3.13 0 0 1 -3.28-3.23v-30.66a3.11 3.11 0 0 1 .95-2.3 3.36 3.36 0 0 1 2.44-.93 3.16 3.16 0 0 1 2.25.93 3 3 0 0 1 1 2.3z"/><path d="m233.47 186a9.3 9.3 0 0 1 6 1.64 8.35 8.35 0 0 1 2.81 4.37 22.45 22.45 0 0 1 .77 6.07v13.57a3.15 3.15 0 0 1 -.9 2.3 3.26 3.26 0 0 1 -4.56 0 3.15 3.15 0 0 1 -.9-2.3v-13.56a10.24 10.24 0 0 0 -.45-3.15 4.37 4.37 0 0 0 -1.62-2.26 5.64 5.64 0 0 0 -3.34-.84 7 7 0 0 0 -3.57.84 5.76 5.76 0 0 0 -2.23 2.26 6.44 6.44 0 0 0 -.77 3.15v13.57a3.15 3.15 0 0 1 -.9 2.3 3.26 3.26 0 0 1 -4.56 0 3.15 3.15 0 0 1 -.9-2.3v-21.89a3.19 3.19 0 0 1 .9-2.31 3.29 3.29 0 0 1 4.56 0 3.19 3.19 0 0 1 .9 2.31v2.28l-.79-.16a9.89 9.89 0 0 1 1.38-1.93 12.84 12.84 0 0 1 2.12-1.94 10.77 10.77 0 0 1 2.75-1.46 9.79 9.79 0 0 1 3.3-.56z"/><path d="m265.06 187.07a2.92 2.92 0 0 1 2.12.82 3 3 0 0 1 0 4.19 3 3 0 0 1 -2.12.82h-14.06a3 3 0 0 1 -2.12-.82 3 3 0 0 1 0-4.19 2.92 2.92 0 0 1 2.12-.82zm-.59-11.4a8.32 8.32 0 0 1 2.28.32 4.38 4.38 0 0 1 1.86 1 2.52 2.52 0 0 1 .74 1.88 2.84 2.84 0 0 1 -.77 2.1 2.44 2.44 0 0 1 -1.77.77 6.41 6.41 0 0 1 -1.43-.24 7.66 7.66 0 0 0 -1.86-.24 3.16 3.16 0 0 0 -2 .58 3 3 0 0 0 -1 1.35 4.23 4.23 0 0 0 -.27 1.36v27.08a3.15 3.15 0 0 1 -.9 2.3 3.25 3.25 0 0 1 -4.55 0 3.12 3.12 0 0 1 -.91-2.3v-27a8.58 8.58 0 0 1 2.65-6.36q2.64-2.59 7.93-2.6z"/><path d="m299.24 200.74a14.9 14.9 0 0 1 -1.93 7.66 13.87 13.87 0 0 1 -5.2 5.17 15.27 15.27 0 0 1 -14.57 0 13.94 13.94 0 0 1 -5.2-5.17 16.17 16.17 0 0 1 0-15.32 14.07 14.07 0 0 1 5.2-5.19 15.05 15.05 0 0 1 14.57 0 14 14 0 0 1 5.2 5.19 14.9 14.9 0 0 1 1.93 7.66zm-6.36 0a9.7 9.7 0 0 0 -1.08-4.69 8.15 8.15 0 0 0 -2.92-3.1 8 8 0 0 0 -8.11 0 8.05 8.05 0 0 0 -2.91 3.1 9.59 9.59 0 0 0 -1.09 4.69 9.47 9.47 0 0 0 1.09 4.64 8.05 8.05 0 0 0 2.91 3.1 8 8 0 0 0 8.11 0 8.15 8.15 0 0 0 2.92-3.1 9.58 9.58 0 0 0 1.08-4.64z"/></g></svg>