<svg viewBox="0 0 550 420" xmlns="http://www.w3.org/2000/svg"><circle cx="275" cy="210" fill="#2d4a54" r="200"/><g fill="#fff"><path d="m210.39 162.86a95 95 0 0 1 7.73-37.64 95.31 95.31 0 1 0 125.22 125.21 95.34 95.34 0 0 1 -132.95-87.57z"/><path d="m268.06 201.22a9.43 9.43 0 0 1 .19-5.77l8.3-25.18-11.2 4.27a8.8 8.8 0 0 1 -4.57.72c-1.21-.22-2.13-1.14-2.74-2.75q-1.69-4.42 4-6.6l19-7.26a20.4 20.4 0 0 1 2.6-.83 8.72 8.72 0 0 1 2.22-.22 3.12 3.12 0 0 1 1.91.68 4.49 4.49 0 0 1 1.28 1.92q.7 1.83-.26 5.8l-7.95 25.33 13.51-5.15a4.13 4.13 0 0 1 3.48.12 4.59 4.59 0 0 1 2.26 2.51 4.06 4.06 0 0 1 -.18 3.93 8.15 8.15 0 0 1 -3.91 2.62l-21 8q-5.34 2.07-6.94-2.14z"/><path d="m319.86 195a6.8 6.8 0 0 1 1.95-3.69l13.35-13.74-8.63-.76a6.36 6.36 0 0 1 -3.19-1 2.75 2.75 0 0 1 -.92-2.66q.3-3.4 4.7-3l14.67 1.3a15.18 15.18 0 0 1 1.95.29 6.23 6.23 0 0 1 1.51.56 2.25 2.25 0 0 1 1 1 3.2 3.2 0 0 1 .22 1.66 7.67 7.67 0 0 1 -2 3.69l-13.18 14 10.41.92a3 3 0 0 1 2.23 1.18 3.31 3.31 0 0 1 .67 2.35 2.9 2.9 0 0 1 -1.36 2.49 5.93 5.93 0 0 1 -3.37.47l-16.18-1.44c-2.69-.28-4.02-1.48-3.83-3.62z"/><path d="m341.37 155.11q-.8-2.25.36-5.94l9.27-25.69-11.66 4.08a9.07 9.07 0 0 1 -4.73.61c-1.24-.27-2.16-1.24-2.74-2.91-1.08-3.08.36-5.3 4.33-6.69l19.8-6.93a21.41 21.41 0 0 1 2.71-.77 8.37 8.37 0 0 1 2.29-.16 3.18 3.18 0 0 1 1.95.74 4.61 4.61 0 0 1 1.26 2c.45 1.27.3 3.26-.43 6l-8.91 25.86 14.05-4.92a4.23 4.23 0 0 1 3.59.23 4.71 4.71 0 0 1 2.25 2.65 4.14 4.14 0 0 1 -.3 4 8.4 8.4 0 0 1 -4.09 2.58l-21.87 7.65q-5.59 2-7.13-2.39z"/></g></svg>