<svg viewBox="0 0 550 260" xmlns="http://www.w3.org/2000/svg"><path d="m59.25 243.05h431.5" fill="none" stroke="#085680" stroke-linecap="round" stroke-miterlimit="10" stroke-width="20.97"/><path d="m107.85 224.4v-198.4a19.37 19.37 0 0 1 19.35-19.36h295.6a19.37 19.37 0 0 1 19.35 19.36v198.4z" fill="#2d4a54"/><path d="m422.8 9.7a16.28 16.28 0 0 1 16.28 16.3v195.34h-328.16v-195.34a16.28 16.28 0 0 1 16.28-16.3zm0-6.12h-295.6a22.43 22.43 0 0 0 -22.41 22.42v201.47h340.42v-201.47a22.43 22.43 0 0 0 -22.41-22.42z" fill="#c6c6c6"/><path d="m77.06 217.49h395.88a0 0 0 0 1 0 0v12a12.85 12.85 0 0 1 -12.85 12.85h-370.18a12.85 12.85 0 0 1 -12.85-12.85v-12a0 0 0 0 1 0 0z" fill="#c6c6c6"/><path d="m460.09 242.37h-370.18a12.83 12.83 0 0 1 -11.13-6.37h392.44a12.83 12.83 0 0 1 -11.13 6.37z" fill="#b2b2b2"/><path d="m124.19 27.4h301.61v175.35h-301.61z" fill="#129294"/><path d="m237.6 217.49h74.8a0 0 0 0 1 0 0v5.12a4.43 4.43 0 0 1 -4.4 4.39h-66a4.43 4.43 0 0 1 -4.43-4.43v-5.12a0 0 0 0 1 .03.04z" fill="#9d9d9c"/><path d="m235.48 52.31h34.15a25.15 25.15 0 0 1 25.14 25.15v20a25.15 25.15 0 0 1 -25.14 25.15h-25.21l-17 9.87.12-11.17a25.14 25.14 0 0 1 -17.22-23.85v-20a25.15 25.15 0 0 1 25.16-25.15z" fill="#fff"/><g fill="#085680"><circle cx="271.01" cy="88.03" r="5.98"/><circle cx="252.55" cy="88.03" r="5.98"/><circle cx="234.09" cy="88.03" r="5.98"/><path d="m327 94.61h-34.17a25.14 25.14 0 0 0 -25.14 25.14v20a25.15 25.15 0 0 0 25.14 25.15h25.17l17 9.87-.12-11.17a25.13 25.13 0 0 0 17.22-23.85v-20a25.14 25.14 0 0 0 -25.1-25.14z"/></g><circle cx="291.45" cy="130.32" fill="#fff" r="5.98"/><circle cx="309.91" cy="130.32" fill="#fff" r="5.98"/><circle cx="328.37" cy="130.32" fill="#fff" r="5.98"/></svg>