<svg viewBox="0 0 550 260" xmlns="http://www.w3.org/2000/svg"><path d="m539 113.72a19.14 19.14 0 0 0 -17.5-19.15h-.72a15.51 15.51 0 0 0 -18.44-15.44 27.82 27.82 0 0 0 -54.54 5 27.12 27.12 0 0 0 0 5.18c-17.55-7-32.81 2.26-32.81 21.11 0 6.46 5 19 18.61 19h90c11.56-.1 15.4-10.88 15.4-15.7z" fill="#fff"/><path d="m129.79 62.76a19.17 19.17 0 0 0 -17.5-19.16h-.73a15.51 15.51 0 0 0 -18.43-15.49 27.82 27.82 0 0 0 -54.54 5 27.24 27.24 0 0 0 0 5.19c-17.55-7-32.81 2.26-32.81 21.11 0 6.46 5 19 18.62 19h89.95c11.65-.05 15.44-10.83 15.44-15.65z" fill="#fff"/><path d="m484 188.21a14.5 14.5 0 0 1 14.5 14.5v18.89a0 0 0 0 1 0 0h-29a0 0 0 0 1 0 0v-18.89a14.5 14.5 0 0 1 14.5-14.5z" fill="#b2e0e0"/><path d="m460.72 198.4a10.07 10.07 0 0 1 10.07 10.07v13.13a0 0 0 0 1 0 0h-20.14a0 0 0 0 1 0 0v-13.13a10.07 10.07 0 0 1 10.07-10.07z" fill="#3ea9a0"/><path d="m505.62 206.32a11.5 11.5 0 0 1 11.5 11.5v3.78a0 0 0 0 1 0 0h-23a0 0 0 0 1 0 0v-3.78a11.5 11.5 0 0 1 11.5-11.5z" fill="#b2e0e0"/><rect fill="#f2665e" height="44.82" rx="13.16" width="26.32" x="226.25" y="149.2"/><path d="m239.41 149.2v44.82" fill="none" stroke="#ede9d0" stroke-miterlimit="10" stroke-width=".71"/><path d="m239.41 193.96v30.94" fill="none" stroke="#264350" stroke-miterlimit="10" stroke-width=".71"/><path d="m226.71 158.88 12.7 7.93" fill="none" stroke="#ede9d0" stroke-miterlimit="10" stroke-width=".71"/><path d="m226.71 180.8 12.7 7.92" fill="none" stroke="#ede9d0" stroke-miterlimit="10" stroke-width=".71"/><path d="m226.25 169.11 13.16 8.22" fill="none" stroke="#ede9d0" stroke-miterlimit="10" stroke-width=".71"/><path d="m252.11 158.88-12.7 7.93" fill="none" stroke="#ede9d0" stroke-miterlimit="10" stroke-width=".71"/><path d="m252.11 180.8-12.7 7.92" fill="none" stroke="#ede9d0" stroke-miterlimit="10" stroke-width=".71"/><path d="m252.57 169.11-13.16 8.22" fill="none" stroke="#ede9d0" stroke-miterlimit="10" stroke-width=".71"/><rect fill="#66c2c1" height="44.82" rx="13.16" width="26.32" x="510.71" y="146.89"/><path d="m523.87 146.89v44.82" fill="none" stroke="#085680" stroke-miterlimit="10" stroke-width="1.17"/><path d="m523.87 191.65v30.94" fill="none" stroke="#085680" stroke-miterlimit="10" stroke-width="2.34"/><path d="m511.17 156.57 12.7 7.93" fill="none" stroke="#085680" stroke-miterlimit="10" stroke-width="1.17"/><path d="m511.17 178.49 12.7 7.92" fill="none" stroke="#085680" stroke-miterlimit="10" stroke-width="1.17"/><path d="m510.71 166.8 13.16 8.22" fill="none" stroke="#085680" stroke-miterlimit="10" stroke-width="1.17"/><path d="m536.57 156.57-12.7 7.93" fill="none" stroke="#085680" stroke-miterlimit="10" stroke-width="1.17"/><path d="m536.57 178.49-12.7 7.92" fill="none" stroke="#085680" stroke-miterlimit="10" stroke-width="1.17"/><path d="m537.03 166.8-13.16 8.22" fill="none" stroke="#085680" stroke-miterlimit="10" stroke-width="1.17"/><path d="m276.34 134.49a18.35 18.35 0 0 0 -3.57-10.92 5.75 5.75 0 0 1 0-6.81 18.47 18.47 0 1 0 -29.76 0 5.78 5.78 0 0 1 0 6.83 18.46 18.46 0 0 0 -.58 21 5.9 5.9 0 0 1 0 6.5 18.46 18.46 0 1 0 30.89 0 6 6 0 0 1 0-6.55 18.33 18.33 0 0 0 3.02-10.05z" fill="#3ea9a0"/><path d="m257.88 179.69v-92.2" fill="none" stroke="#264350" stroke-miterlimit="10" stroke-width=".97"/><path d="m239.64 158.28 18.24 10.6" fill="none" stroke="#264350" stroke-miterlimit="10" stroke-width=".97"/><path d="m239.57 136.9 18.31 10.64" fill="none" stroke="#264350" stroke-miterlimit="10" stroke-width=".97"/><path d="m244.24 118.28 13.64 7.93" fill="none" stroke="#264350" stroke-miterlimit="10" stroke-width=".97"/><path d="m242.33 95.84 15.55 9.03" fill="none" stroke="#264350" stroke-miterlimit="10" stroke-width=".97"/><path d="m272.32 150.15-14.44 8.39" fill="none" stroke="#264350" stroke-miterlimit="10" stroke-width=".97"/><path d="m274.35 127.63-16.47 9.58" fill="none" stroke="#264350" stroke-miterlimit="10" stroke-width=".97"/><path d="m275.71 105.5-17.83 10.37" fill="none" stroke="#264350" stroke-miterlimit="10" stroke-width=".97"/><path d="m257.88 179.69v44.04" fill="none" stroke="#f2665e" stroke-miterlimit="10" stroke-width=".97"/><path d="m270.33 159.69h213.55v61.91h-213.55z" fill="#2d4a54"/><path d="m270.33 106.33h223.78v70.79h-223.78z" fill="#b2b2b2"/><path d="m270.33 128.13h213.55v22.06h-213.55z" fill="#2d4a54"/><path d="m287.9 177.12h5.46v44.48h-5.46z" fill="#f2665e"/><path d="m343.17 177.12h5.46v44.48h-5.46z" fill="#9d9d9c"/><path d="m401.44 177.12h5.46v44.48h-5.46z" fill="#9d9d9c"/><path d="m462.09 177.12h5.46v44.48h-5.46z" fill="#9d9d9c"/><path d="m292.35 124.54h2.02v29.31h-2.02z" fill="#b2b2b2"/><path d="m332.34 124.54h2.02v29.31h-2.02z" fill="#b2b2b2"/><path d="m372.34 124.54h2.02v29.31h-2.02z" fill="#b2b2b2"/><path d="m412.33 124.54h2.02v29.31h-2.02z" fill="#b2b2b2"/><path d="m452.33 124.54h2.02v29.31h-2.02z" fill="#b2b2b2"/><path d="m270.33 177.12h213.55v9.93h-213.55z" fill="#ede9d0"/><path d="m295.35 188.21a14.5 14.5 0 0 1 14.5 14.5v18.89a0 0 0 0 1 0 0h-29a0 0 0 0 1 0 0v-18.89a14.5 14.5 0 0 1 14.5-14.5z" fill="#3ea9a0"/><path d="m272.1 198.4a10.07 10.07 0 0 1 10.07 10.07v13.13a0 0 0 0 1 0 0h-20.17a0 0 0 0 1 0 0v-13.13a10.07 10.07 0 0 1 10.1-10.07z" fill="#3ea9a0"/><path d="m317 206.32a11.5 11.5 0 0 1 11.5 11.5v3.78a0 0 0 0 1 0 0h-23a0 0 0 0 1 0 0v-3.78a11.5 11.5 0 0 1 11.5-11.5z" fill="#3ea9a0"/><path d="m343.17 106.52 47.96 70.6h-120.8v-70.79z" fill="#f0f4f0"/><path d="m55.07 194.79a11.65 11.65 0 0 1 11.65 11.65v15.18a0 0 0 0 1 0 0h-23.3a0 0 0 0 1 0 0v-15.17a11.65 11.65 0 0 1 11.65-11.66z" fill="#b2e0e0"/><path d="m38.47 207.72a8.1 8.1 0 0 1 8.1 8.1v5.81a0 0 0 0 1 0 0h-16.2a0 0 0 0 1 0 0v-5.81a8.1 8.1 0 0 1 8.1-8.1z" fill="#b2e0e0"/><path d="m73.05 209.35a9.25 9.25 0 0 1 9.25 9.25v3a0 0 0 0 1 0 0h-18.49a0 0 0 0 1 0 0v-3a9.25 9.25 0 0 1 9.24-9.25z" fill="#b2e0e0"/><rect fill="#66c2c1" height="46.81" rx="13.75" width="27.49" x="44.46" y="142.56"/><path d="m58.2 142.56v46.81" fill="none" stroke="#ede9d0" stroke-miterlimit="10" stroke-width=".74"/><path d="m58.2 189.31v32.32" fill="none" stroke="#085680" stroke-miterlimit="10" stroke-width="2.34"/><path d="m44.94 152.68 13.26 8.28" fill="none" stroke="#ede9d0" stroke-miterlimit="10" stroke-width=".74"/><path d="m44.94 175.57 13.26 8.27" fill="none" stroke="#ede9d0" stroke-miterlimit="10" stroke-width=".74"/><path d="m44.46 163.36 13.74 8.58" fill="none" stroke="#ede9d0" stroke-miterlimit="10" stroke-width=".74"/><path d="m71.46 152.68-13.26 8.28" fill="none" stroke="#ede9d0" stroke-miterlimit="10" stroke-width=".74"/><path d="m71.46 175.57-13.26 8.27" fill="none" stroke="#ede9d0" stroke-miterlimit="10" stroke-width=".74"/><path d="m71.95 163.36-13.75 8.58" fill="none" stroke="#ede9d0" stroke-miterlimit="10" stroke-width=".74"/><path d="m97.86 188.49a14.39 14.39 0 0 1 14.39 14.39v18.75a0 0 0 0 1 0 0h-28.78a0 0 0 0 1 0 0v-18.75a14.39 14.39 0 0 1 14.39-14.39z" fill="#66c2c1"/><path d="m74.78 198.6a10 10 0 0 1 10 10v13a0 0 0 0 1 0 0h-20a0 0 0 0 1 0 0v-13a10 10 0 0 1 10-10z" fill="#66c2c1"/><path d="m119.35 206.46a11.42 11.42 0 0 1 11.42 11.42v3.75a0 0 0 0 1 0 0h-22.84a0 0 0 0 1 0 0v-3.75a11.42 11.42 0 0 1 11.42-11.42z" fill="#66c2c1"/><path d="m117.44 72.35h226.24v149.41h-226.24z" fill="#2d4a54"/><path d="m141.47 179.16h4.22v16.52h-4.22v-6.68h-6.75v6.68h-4.21v-16.52h4.21v6.42h6.75z" fill="#ede9d0"/><path d="m150.88 195.13a5.28 5.28 0 0 1 -2.22-2.09 6.21 6.21 0 0 1 -.79-3.19 6.15 6.15 0 0 1 .79-3.18 5.2 5.2 0 0 1 2.21-2.07 8.05 8.05 0 0 1 6.7 0 5.23 5.23 0 0 1 2.22 2.07 6.25 6.25 0 0 1 .78 3.18 6.31 6.31 0 0 1 -.78 3.19 5.33 5.33 0 0 1 -2.22 2.09 7.93 7.93 0 0 1 -6.69 0zm5.57-5.28c0-1.94-.74-2.91-2.23-2.91s-2.22 1-2.22 2.91.74 2.9 2.22 2.9 2.23-.96 2.23-2.9z" fill="#ede9d0"/><path d="m164 195.52a7.26 7.26 0 0 1 -2.37-1l1.06-2.84a8.34 8.34 0 0 0 2.13 1 8 8 0 0 0 2.3.36 2.3 2.3 0 0 0 1.05-.2.61.61 0 0 0 .38-.55.53.53 0 0 0 -.27-.47 4 4 0 0 0 -1.09-.35l-1.85-.42a5.15 5.15 0 0 1 -2.53-1.18 3 3 0 0 1 -.78-2.2 3.13 3.13 0 0 1 .66-2 4.19 4.19 0 0 1 1.84-1.32 7.28 7.28 0 0 1 2.68-.47 8.74 8.74 0 0 1 2.47.36 9 9 0 0 1 2.24 1l-1.04 2.76a8.71 8.71 0 0 0 -1.88-.9 5.7 5.7 0 0 0 -1.79-.32 2.07 2.07 0 0 0 -1.06.22.65.65 0 0 0 -.37.6.44.44 0 0 0 .23.39 2.85 2.85 0 0 0 .82.29l1.95.45a5.29 5.29 0 0 1 2.64 1.23 3.06 3.06 0 0 1 .82 2.26 3.14 3.14 0 0 1 -1.37 2.7 6.36 6.36 0 0 1 -3.76 1 12.88 12.88 0 0 1 -3.11-.4z" fill="#ede9d0"/><path d="m184.23 184.63a5.12 5.12 0 0 1 1.81 2.15 7.52 7.52 0 0 1 .64 3.16 7.32 7.32 0 0 1 -.64 3.13 4.75 4.75 0 0 1 -4.45 2.8 4.67 4.67 0 0 1 -2-.44 3.58 3.58 0 0 1 -1.44-1.2v5.67h-4.15v-15.75h4.11v1.48a3.25 3.25 0 0 1 1.44-1.29 4.68 4.68 0 0 1 2.09-.47 4.75 4.75 0 0 1 2.59.76zm-2.23 7.37a3.33 3.33 0 0 0 .58-2.09 3.55 3.55 0 0 0 -.59-2.19 2 2 0 0 0 -1.66-.76 2 2 0 0 0 -1.67.75 3.44 3.44 0 0 0 -.58 2.15 3.38 3.38 0 0 0 .58 2.13 2 2 0 0 0 1.69.73 2 2 0 0 0 1.65-.72z" fill="#ede9d0"/><path d="m188.51 178.39h4.36v3.77h-4.36zm.09 17.29v-11.53h4.17v11.53z" fill="#ede9d0"/><path d="m203.22 192.8-.21 3a12.13 12.13 0 0 1 -1.45.09 5.9 5.9 0 0 1 -4.09-1.18 4.78 4.78 0 0 1 -1.28-3.67v-3.8h-2.19v-3.07h2.15v-3.37h4.18v3.35h2.76v3.07h-2.76v3.78q0 1.83 1.71 1.83a9.64 9.64 0 0 0 1.18-.03z" fill="#ede9d0"/><path d="m214 185.13a5.17 5.17 0 0 1 1.3 3.9v6.65h-3.91v-1.61a2.68 2.68 0 0 1 -1.1 1.32 3.48 3.48 0 0 1 -1.86.48 4.75 4.75 0 0 1 -2.15-.48 3.64 3.64 0 0 1 -1.51-1.34 3.46 3.46 0 0 1 -.55-1.93 2.89 2.89 0 0 1 .64-2 3.8 3.8 0 0 1 2-1.07 18.08 18.08 0 0 1 3.8-.32h.63v-.29a1.49 1.49 0 0 0 -.4-1.2 2.15 2.15 0 0 0 -1.4-.34 6.37 6.37 0 0 0 -1.84.31 11.85 11.85 0 0 0 -2 .81l-1.06-2.74a10.64 10.64 0 0 1 2.52-1 10.88 10.88 0 0 1 2.78-.41 5.6 5.6 0 0 1 4.11 1.26zm-3.2 7.35a2.18 2.18 0 0 0 .54-1.53v-.28h-.37a6 6 0 0 0 -2.14.27.92.92 0 0 0 -.63.9 1.21 1.21 0 0 0 .34.89 1.19 1.19 0 0 0 .88.35 1.77 1.77 0 0 0 1.35-.6z" fill="#ede9d0"/><path d="m217.61 195.68v-16.52h4.18v16.52z" fill="#ede9d0"/><path d="m88.06 163.65h3.62v58.11h-3.62z" fill="#b2b2b2"/><path d="m163.77 163.65h3.62v58.11h-3.62z" fill="#b2b2b2"/><path d="m239.48 163.65h3.62v58.11h-3.62z" fill="#b2b2b2"/><path d="m315.18 163.65h3.62v58.11h-3.62z" fill="#b2b2b2"/><path d="m117.36 161.59h224.84v16.03h-224.84z" fill="#ede9d0"/><path d="m65.45 47.38h278.23v116.27h-278.23z" fill="#c6c6c6"/><path d="m78.93 59.14h10.94v94.76h-10.94z" fill="#2d4a54"/><path d="m119.12 59.14h10.94v94.76h-10.94z" fill="#2d4a54"/><path d="m159.31 59.14h10.94v94.76h-10.94z" fill="#2d4a54"/><path d="m199.5 59.14h10.94v94.76h-10.94z" fill="#2d4a54"/><path d="m239.69 59.14h10.94v94.76h-10.94z" fill="#2d4a54"/><path d="m279.88 59.14h10.94v94.76h-10.94z" fill="#2d4a54"/><path d="m320.07 59.14h10.94v94.76h-10.94z" fill="#2d4a54"/><path d="m334.82 215.29h-78.94v-35.92a3.66 3.66 0 0 1 3.66-3.66h50.53a3.65 3.65 0 0 1 2.64 1.13l14.78 15.51a9 9 0 0 0 1.45 1.23l4.58 3.09a2.92 2.92 0 0 1 1.3 2.43z" fill="#ffdc7c"/><path d="m255.88 198.89h78.94v14.69h-78.94z" fill="#009997"/><path d="m269.09 207.97h52.52v7.27h-52.52z" fill="#c4e8e7"/><path d="m277.85 211.99h39.07v3.31h-39.07z" fill="#445e67"/><circle cx="270.81" cy="213.75" fill="#2d4a54" r="8.45"/><circle cx="323" cy="213.75" fill="#2d4a54" r="8.45"/><path d="m322.33 191.14-7.57-8a1.72 1.72 0 0 0 -1.26-.54h-5.69a1.73 1.73 0 0 0 -1.73 1.72v8a1.73 1.73 0 0 0 1.73 1.72h13.27a1.73 1.73 0 0 0 1.25-2.9z" fill="#2d4a54"/><path d="m321.01 207.97h13.81v7.32h-13.81z" fill="#445e67"/><path d="m255.88 207.97h15.92v7.32h-15.92z" fill="#445e67"/><path d="m332.11 202.43h2.71v5.55h-2.71z" fill="#fff"/><path d="m331 202.43h1.08a0 0 0 0 1 0 0v5.57a0 0 0 0 1 0 0h-3a0 0 0 0 1 0 0v-3.59a2 2 0 0 1 1.92-1.98z" fill="#ffdc7c"/><path d="m255.88 202.43h3a0 0 0 0 1 0 0v5.57a0 0 0 0 1 0 0h-1.08a2 2 0 0 1 -2-2v-3.59a0 0 0 0 1 0 0z" fill="#ffdc7c" transform="matrix(-1 0 0 -1 514.8 410.4)"/><path d="m301.59 172.14h4.76a1.78 1.78 0 0 1 1.78 1.78v1.78a0 0 0 0 1 0 0h-8.32a0 0 0 0 1 0 0v-1.78a1.78 1.78 0 0 1 1.78-1.78z" fill="#009997"/><path d="m261.46 172.14h4.76a1.78 1.78 0 0 1 1.78 1.78v1.78a0 0 0 0 1 0 0h-8.32a0 0 0 0 1 0 0v-1.78a1.78 1.78 0 0 1 1.78-1.78z" fill="#009997"/><circle cx="270.81" cy="213.75" fill="#f0f4f0" r="5.73"/><circle cx="323" cy="213.75" fill="#f0f4f0" r="5.73"/><g fill="#009997"><path d="m274.43 189.41h-1.32l-.15.42a.38.38 0 0 1 -.16.24.32.32 0 0 1 -.22.08.48.48 0 0 1 -.2-.07.27.27 0 0 1 -.13-.19.48.48 0 0 1 0-.29l.82-2.11a1.39 1.39 0 0 1 .14-.32.69.69 0 0 1 .17-.2l.18-.09a.6.6 0 0 1 .2 0 .64.64 0 0 1 .2 0l.18.09a.67.67 0 0 1 .16.2 1.37 1.37 0 0 1 .15.32l.81 2.11a.49.49 0 0 1 0 .29.27.27 0 0 1 -.13.19.58.58 0 0 1 -.21.07.33.33 0 0 1 -.22-.08.48.48 0 0 1 -.16-.24zm-.66-1.86-.49 1.4h1z"/><path d="m277.2 189.89a1.16 1.16 0 0 1 -.19-.36l-.73-1.81v2.15a.47.47 0 0 1 0 .17.4.4 0 0 1 -.1.12l-.14.05h-.15a.35.35 0 0 1 -.14-.06.27.27 0 0 1 -.1-.11.47.47 0 0 1 0-.17v-2.39a.53.53 0 0 1 .06-.24.45.45 0 0 1 .14-.19 1 1 0 0 1 .2-.11.45.45 0 0 1 .23 0 .48.48 0 0 1 .24.06.57.57 0 0 1 .22.17 1.07 1.07 0 0 1 .17.3l.65 1.61.65-1.61a1.07 1.07 0 0 1 .17-.3.57.57 0 0 1 .22-.17.53.53 0 0 1 .24-.06.45.45 0 0 1 .23 0 1 1 0 0 1 .2.11.58.58 0 0 1 .15.19.69.69 0 0 1 0 .24v2.39a.33.33 0 0 1 -.06.19.3.3 0 0 1 -.13.12.42.42 0 0 1 -.16 0 .33.33 0 0 1 -.17 0 .25.25 0 0 1 -.13-.12.3.3 0 0 1 -.05-.19v-2.15l-.73 1.81a1.16 1.16 0 0 1 -.19.36.44.44 0 0 1 -.58 0z"/><path d="m280.18 190.13a.32.32 0 0 1 -.26-.27 1.58 1.58 0 0 1 0-.34v-2.2a.35.35 0 0 1 .08-.32.62.62 0 0 1 .37-.1h1.11.2.19a.54.54 0 0 1 .17.07l.14.1a.53.53 0 0 1 .11.15.84.84 0 0 1 .07.19.88.88 0 0 1 0 .24.76.76 0 0 1 -.17.48.7.7 0 0 1 -.44.25.85.85 0 0 1 .53.27.74.74 0 0 1 .19.52.92.92 0 0 1 -.06.33 1 1 0 0 1 -.56.5 1.61 1.61 0 0 1 -.51.07h-1a.68.68 0 0 1 -.16.06zm.78-1.83h.28a.86.86 0 0 0 .21-.07.32.32 0 0 0 .14-.14.51.51 0 0 0 0-.44.32.32 0 0 0 -.14-.14.59.59 0 0 0 -.2-.06h-.24-.34v.89zm0 1.34h.32a.83.83 0 0 0 .22-.08.29.29 0 0 0 .14-.15.54.54 0 0 0 .05-.24.39.39 0 0 0 -.19-.36 1.24 1.24 0 0 0 -.57-.1h-.3v.94z"/><path d="m283.7 190.17a1.4 1.4 0 0 1 -.44-.22 1 1 0 0 1 -.3-.37 1.42 1.42 0 0 1 -.1-.52v-1.69a.48.48 0 0 1 .14-.37.38.38 0 0 1 .29-.14.37.37 0 0 1 .29.14.44.44 0 0 1 .13.33v1.68a.57.57 0 0 0 .16.44.61.61 0 0 0 .41.15.59.59 0 0 0 .4-.15.57.57 0 0 0 .17-.44v-1.68a.48.48 0 0 1 .15-.33.38.38 0 0 1 .29-.14.37.37 0 0 1 .29.14.44.44 0 0 1 .13.33v1.69a1.1 1.1 0 0 1 -.68 1.05 1.81 1.81 0 0 1 -.72.13 2.38 2.38 0 0 1 -.61-.03z"/><path d="m286.28 190.05a.7.7 0 0 1 -.13-.24 1.69 1.69 0 0 1 0-.33v-2.12a.47.47 0 0 1 .12-.32.37.37 0 0 1 .58 0 .47.47 0 0 1 .12.32v2.18h1.12a.28.28 0 0 1 .2.08.31.31 0 0 1 .09.22.29.29 0 0 1 -.09.22.25.25 0 0 1 -.2.09h-1.54a.33.33 0 0 1 -.27-.1z"/><path d="m290.58 189.41h-1.32l-.14.42a.48.48 0 0 1 -.16.24.35.35 0 0 1 -.22.08.58.58 0 0 1 -.21-.07.27.27 0 0 1 -.13-.19.49.49 0 0 1 0-.29l.81-2.11a1.37 1.37 0 0 1 .15-.32.67.67 0 0 1 .16-.2l.18-.09a.64.64 0 0 1 .2 0 .6.6 0 0 1 .2 0l.18.09a.69.69 0 0 1 .17.2 1.39 1.39 0 0 1 .14.32l.82 2.11a.48.48 0 0 1 0 .29.27.27 0 0 1 -.13.19.48.48 0 0 1 -.21.07.31.31 0 0 1 -.21-.08.38.38 0 0 1 -.16-.24zm-.66-1.86-.49 1.4h1z"/><path d="m291.84 190.05a.39.39 0 0 1 -.1-.27v-2.4a.52.52 0 0 1 .11-.35.37.37 0 0 1 .29-.13c.17 0 .33.13.5.38l1.36 1.72v-1.73a.35.35 0 0 1 .1-.26.32.32 0 0 1 .24-.11.34.34 0 0 1 .25.11.35.35 0 0 1 .1.26v2.21a1.85 1.85 0 0 1 0 .25.79.79 0 0 1 -.06.22.26.26 0 0 1 -.12.15.31.31 0 0 1 -.2.05.36.36 0 0 1 -.25-.1 1.19 1.19 0 0 1 -.25-.28l-1.37-1.77v1.76a.4.4 0 0 1 -.11.27.33.33 0 0 1 -.24.1.33.33 0 0 1 -.25-.08z"/><path d="m296 190.13a1.53 1.53 0 0 1 -.5-.32 1.33 1.33 0 0 1 -.35-.53 2 2 0 0 1 -.13-.72 2.11 2.11 0 0 1 .13-.73 1.48 1.48 0 0 1 .35-.55 1.65 1.65 0 0 1 .5-.28 1.76 1.76 0 0 1 .66-.12 1.93 1.93 0 0 1 .55.07 2.33 2.33 0 0 1 .36.15.33.33 0 0 1 .17.24.28.28 0 0 1 0 .13.33.33 0 0 1 0 .12l-.09.09a.28.28 0 0 1 -.13 0 .4.4 0 0 1 -.15 0 1.51 1.51 0 0 0 -.61-.15h-.27l-.23.09a.54.54 0 0 0 -.19.18 1.68 1.68 0 0 0 -.12.31 2.07 2.07 0 0 0 0 .46 1.32 1.32 0 0 0 .2.78.73.73 0 0 0 .62.27 1.42 1.42 0 0 0 .38-.06 1.79 1.79 0 0 0 .37-.15.2.2 0 0 1 .21 0 .26.26 0 0 1 .13.2.34.34 0 0 1 -.16.34 1.55 1.55 0 0 1 -1 .31 1.9 1.9 0 0 1 -.7-.13z"/><path d="m298.31 190.1a.3.3 0 0 1 -.12-.13 1.34 1.34 0 0 1 -.07-.18 1.49 1.49 0 0 1 0-.21v-2a1.34 1.34 0 0 1 0-.21.58.58 0 0 1 0-.18.34.34 0 0 1 .09-.14.35.35 0 0 1 .15-.09.69.69 0 0 1 .22 0h1.44a.31.31 0 0 1 .31.31.29.29 0 0 1 -.31.29h-1.12v.7h1.1a.29.29 0 0 1 .22.09.29.29 0 0 1 .09.21.29.29 0 0 1 -.09.22.29.29 0 0 1 -.22.08h-1.1v.75h1.21a.25.25 0 0 1 .2.09.29.29 0 0 1 .09.21.29.29 0 0 1 -.09.22.24.24 0 0 1 -.2.08h-1.61a.32.32 0 0 1 -.19-.11z"/><path d="m260.9 189.08a5 5 0 0 0 2.5 4.33 5 5 0 0 0 5 0 5 5 0 0 0 2.5-4.33 5 5 0 0 0 -2.5-4.33 5 5 0 0 0 -5 0 5 5 0 0 0 -2.5 4.33z"/></g><path d="m264.82 185.85h2.15v6.46h-2.15z" fill="#fff"/><path d="m264.82 185.85h2.15v6.46h-2.15z" fill="#fff" transform="matrix(0 1 -1 0 454.98 -76.82)"/><rect fill="#2d4a54" height="1.47" rx=".73" width="4.4" x="303.24" y="198.75"/><path d="m23.56 230.03h510.59" fill="none" stroke="#085680" stroke-linecap="round" stroke-miterlimit="10" stroke-width="17.58"/></svg>