<svg id="Layer_1" data-name="Layer 1" xmlns="http://www.w3.org/2000/svg" viewBox="0 0 550 190"><defs><style>.cls-1{fill:#fff;}.cls-2{fill:#085680;}.cls-3{fill:none;stroke:#dadada;stroke-linecap:round;stroke-miterlimit:10;stroke-width:12.51px;}.cls-4{fill:#1c66a2;}.cls-5{fill:#ec5b55;}</style></defs><rect class="cls-1" x="10.1" y="28.46" width="128.05" height="128.05" rx="11.75"/><path class="cls-2" d="M21.85,28.46H126.41a11.75,11.75,0,0,1,11.75,11.75V64.42a0,0,0,0,1,0,0H10.1a0,0,0,0,1,0,0V40.21A11.75,11.75,0,0,1,21.85,28.46Z"/><line class="cls-3" x1="41.95" y1="23.59" x2="41.95" y2="46.44"/><line class="cls-3" x1="108.2" y1="23.59" x2="108.2" y2="46.44"/><path class="cls-4" d="M58.45,76.7a.44.44,0,0,1,.38.18.58.58,0,0,1,.12.3.9.9,0,0,1,0,.18l-.08.15-5.93,8.06.22-.73v9a.49.49,0,0,1-.15.36.56.56,0,0,1-.76,0,.52.52,0,0,1-.14-.36V85l.13.53-5.86-8-.08-.15a.9.9,0,0,1,0-.18.44.44,0,0,1,.17-.34.61.61,0,0,1,.36-.14.48.48,0,0,1,.42.23l5.56,7.58-.25-.05L58,76.93A.5.5,0,0,1,58.45,76.7Z"/><path class="cls-4" d="M61.45,76.8h9.44a.49.49,0,0,1,.35.15.49.49,0,0,1,.15.36.46.46,0,0,1-.15.36.52.52,0,0,1-.35.14H61.75l.25-.43v7.76l-.3-.35h8.06a.47.47,0,0,1,.35.15.49.49,0,0,1,.15.35.46.46,0,0,1-.15.36.5.5,0,0,1-.35.14h-8l.25-.27v7.93l-.1-.13h9a.46.46,0,0,1,.35.16.45.45,0,0,1,.15.34.47.47,0,0,1-.15.37.52.52,0,0,1-.35.14H61.45a.49.49,0,0,1-.35-.15.49.49,0,0,1-.15-.36V77.31A.49.49,0,0,1,61.1,77,.49.49,0,0,1,61.45,76.8Z"/><path class="cls-4" d="M79.82,78.08,73.49,94a.46.46,0,0,1-.17.24.49.49,0,0,1-.28.09.5.5,0,0,1-.37-.13.44.44,0,0,1-.15-.3.45.45,0,0,1,0-.25l6.73-16.57a.5.5,0,0,1,.19-.26.62.62,0,0,1,.29-.07.58.58,0,0,1,.33.09.46.46,0,0,1,.17.24L87,93.65a.56.56,0,0,1,0,.2.43.43,0,0,1-.15.35.6.6,0,0,1-.38.13.56.56,0,0,1-.31-.09A.5.5,0,0,1,86,94L79.45,77.88ZM75.19,88.89l.35-1h8.11l.25,1Z"/><path class="cls-4" d="M89.91,94.33a.48.48,0,0,1-.52-.51V77.31a.49.49,0,0,1,.15-.36.47.47,0,0,1,.35-.15h6.6a5.54,5.54,0,0,1,2.6.59,4.32,4.32,0,0,1,2.36,3.94,5.11,5.11,0,0,1-.41,2.08A4.24,4.24,0,0,1,99.89,85a4.65,4.65,0,0,1-1.69.89l-1.15-.2a3.81,3.81,0,0,1,1.9.51,4.17,4.17,0,0,1,1.48,1.5,4.79,4.79,0,0,1,.57,2.42,12.33,12.33,0,0,0,.11,1.87,3,3,0,0,0,.3.93,1.71,1.71,0,0,0,.44.48.68.68,0,0,1,.23.25.46.46,0,0,1,0,.35.51.51,0,0,1-.16.24.64.64,0,0,1-.24.11.39.39,0,0,1-.27,0,2.36,2.36,0,0,1-.69-.6,3.21,3.21,0,0,1-.57-1.23,9.45,9.45,0,0,1-.22-2.35,4.17,4.17,0,0,0-.36-1.88,2.88,2.88,0,0,0-.93-1.07,3.3,3.3,0,0,0-1.2-.5,5.73,5.73,0,0,0-1.17-.13H90.21l.23-.3v7.63a.49.49,0,0,1-.15.36A.52.52,0,0,1,89.91,94.33Zm.28-8.84h6.43a4.58,4.58,0,0,0,1.85-.6,3.89,3.89,0,0,0,1.39-1.4,4.06,4.06,0,0,0,.54-2.13,3.3,3.3,0,0,0-1.09-2.54,4.12,4.12,0,0,0-2.94-1H90.31l.13-.18v8.14Z"/><path class="cls-2" d="M74.54,140.36a3.24,3.24,0,0,1-2.35-.89,3,3,0,0,1-.92-2.22V111.53l.71,1.12L68.11,115a3.11,3.11,0,0,1-1.64.46,2.79,2.79,0,0,1-2.19-1,3.19,3.19,0,0,1-.87-2.12A2.93,2.93,0,0,1,65,109.69l7.71-4.59a4.74,4.74,0,0,1,2.19-.46,2.83,2.83,0,0,1,2.17.9,3.1,3.1,0,0,1,.84,2.22v29.49a2.94,2.94,0,0,1-.94,2.22A3.41,3.41,0,0,1,74.54,140.36Z"/><circle class="cls-5" cx="125.93" cy="148.21" r="27.34"/><path class="cls-1" d="M125,157.69a6.53,6.53,0,0,1-.63-3.24V142.63l-2.56,1.49a1.87,1.87,0,0,1-.91.25,1.62,1.62,0,0,1-1.26-.57,2,2,0,0,1-.51-1.35,1.7,1.7,0,0,1,.27-1,3.59,3.59,0,0,1,.93-.84l4.91-2.71a3.78,3.78,0,0,1,1.89-.74c1.68,0,2.53,1.33,2.53,4v13.69q0,3.9-2.67,3.9A2.14,2.14,0,0,1,125,157.69Z"/><rect class="cls-1" x="203.52" y="28.46" width="128.05" height="128.05" rx="11.75"/><path class="cls-2" d="M215.27,28.46H319.83a11.75,11.75,0,0,1,11.75,11.75V64.42a0,0,0,0,1,0,0H203.52a0,0,0,0,1,0,0V40.21A11.75,11.75,0,0,1,215.27,28.46Z"/><line class="cls-3" x1="235.37" y1="23.59" x2="235.37" y2="46.44"/><line class="cls-3" x1="301.62" y1="23.59" x2="301.62" y2="46.44"/><path class="cls-4" d="M251.67,76.7a.43.43,0,0,1,.38.18.62.62,0,0,1,.13.3.48.48,0,0,1,0,.18.74.74,0,0,1-.08.15l-5.93,8.06.23-.73v9a.49.49,0,0,1-.15.36.52.52,0,0,1-.38.15.53.53,0,0,1-.39-.15.52.52,0,0,1-.13-.36V85l.12.53-5.86-8c0-.05-.05-.11-.07-.15a.48.48,0,0,1,0-.18.42.42,0,0,1,.18-.34.58.58,0,0,1,.35-.14.5.5,0,0,1,.43.23L246,84.51l-.25-.05,5.51-7.53A.48.48,0,0,1,251.67,76.7Z"/><path class="cls-4" d="M254.68,76.8h9.43a.51.51,0,0,1,.36.15.52.52,0,0,1,.14.36.49.49,0,0,1-.14.36.54.54,0,0,1-.36.14H255l.25-.43v7.76l-.3-.35H263a.51.51,0,0,1,.5.5.46.46,0,0,1-.15.36.52.52,0,0,1-.35.14h-8l.25-.27v7.93l-.1-.13h9a.51.51,0,0,1,.5.5.5.5,0,0,1-.14.37.54.54,0,0,1-.36.14h-9.43a.47.47,0,0,1-.35-.15.49.49,0,0,1-.15-.36V77.31a.49.49,0,0,1,.15-.36A.47.47,0,0,1,254.68,76.8Z"/><path class="cls-4" d="M273.05,78.08,266.72,94a.48.48,0,0,1-.18.24.44.44,0,0,1-.27.09.53.53,0,0,1-.38-.13.54.54,0,0,1-.15-.3.38.38,0,0,1,0-.25l6.73-16.57a.45.45,0,0,1,.19-.26.58.58,0,0,1,.28-.07.54.54,0,0,1,.33.09.46.46,0,0,1,.17.24l6.74,16.57a1,1,0,0,1,0,.2.43.43,0,0,1-.15.35.57.57,0,0,1-.37.13.59.59,0,0,1-.32-.09.43.43,0,0,1-.18-.24l-6.54-16.12Zm-4.63,10.81.35-1h8.11l.25,1Z"/><path class="cls-4" d="M283.14,94.33a.5.5,0,0,1-.39-.15.52.52,0,0,1-.14-.36V77.31a.49.49,0,0,1,.15-.36.49.49,0,0,1,.35-.15h6.61a5.5,5.5,0,0,1,2.59.59A4.39,4.39,0,0,1,294.05,79a4.34,4.34,0,0,1,.63,2.32,5,5,0,0,1-.42,2.08A4.13,4.13,0,0,1,293.11,85a4.5,4.5,0,0,1-1.69.89l-1.15-.2a3.79,3.79,0,0,1,1.9.51,4.17,4.17,0,0,1,1.48,1.5,4.79,4.79,0,0,1,.57,2.42,10.92,10.92,0,0,0,.12,1.87,2.52,2.52,0,0,0,.3.93,1.57,1.57,0,0,0,.44.48.65.65,0,0,1,.22.25.51.51,0,0,1,0,.35.53.53,0,0,1-.17.24.54.54,0,0,1-.23.11.41.41,0,0,1-.28,0,2.64,2.64,0,0,1-.69-.6,3.37,3.37,0,0,1-.56-1.23,9.37,9.37,0,0,1-.23-2.35,4.17,4.17,0,0,0-.36-1.88,2.86,2.86,0,0,0-.92-1.07,3.28,3.28,0,0,0-1.21-.5,5.56,5.56,0,0,0-1.16-.13h-6.08l.22-.3v7.63a.49.49,0,0,1-.15.36A.5.5,0,0,1,283.14,94.33Zm.27-8.84h6.44a4.64,4.64,0,0,0,1.85-.6,4,4,0,0,0,1.39-1.4,4.15,4.15,0,0,0,.53-2.13,3.33,3.33,0,0,0-1.08-2.54,4.15,4.15,0,0,0-3-1h-6l.12-.18v8.14Z"/><path class="cls-2" d="M277.84,134.75a2.79,2.79,0,0,1,2.86,2.85,2.61,2.61,0,0,1-.82,2,2.79,2.79,0,0,1-2,.79H260.49a2.71,2.71,0,0,1-2.09-.82,2.92,2.92,0,0,1-.76-2.09,3.15,3.15,0,0,1,.91-2.24l11.13-11.89a20.61,20.61,0,0,0,3-4.06,8.23,8.23,0,0,0,1.12-3.85,5.47,5.47,0,0,0-.77-2.86,6,6,0,0,0-2-2,4.89,4.89,0,0,0-2.65-.76,5.52,5.52,0,0,0-3,1,10,10,0,0,0-2.7,2.63,2.78,2.78,0,0,1-1.23,1,3.45,3.45,0,0,1-1.12.2,3.05,3.05,0,0,1-2.07-.84,2.56,2.56,0,0,1-.94-2,2.88,2.88,0,0,1,.58-1.69,15,15,0,0,1,1.46-1.68,15.36,15.36,0,0,1,4.49-3.11,11.59,11.59,0,0,1,4.9-1.18,11.88,11.88,0,0,1,6,1.43,10,10,0,0,1,3.87,3.93,11.54,11.54,0,0,1,1.38,5.66,12.91,12.91,0,0,1-.79,4.37,20.26,20.26,0,0,1-2.17,4.31,31.93,31.93,0,0,1-3.16,4l-6.89,7.35-.56-.46Z"/><circle class="cls-5" cx="319.34" cy="148.21" r="27.34"/><path class="cls-1" d="M318.46,157.69a6.53,6.53,0,0,1-.63-3.24V142.63l-2.56,1.49a1.87,1.87,0,0,1-.91.25,1.62,1.62,0,0,1-1.26-.57,2,2,0,0,1-.51-1.35,1.7,1.7,0,0,1,.27-1,3.69,3.69,0,0,1,.92-.84l4.92-2.71a3.79,3.79,0,0,1,1.88-.74q2.54,0,2.54,4v13.69q0,3.9-2.67,3.9A2.14,2.14,0,0,1,318.46,157.69Z"/><rect class="cls-1" x="396.94" y="28.46" width="128.05" height="128.05" rx="11.75"/><path class="cls-2" d="M408.69,28.46H513.25A11.75,11.75,0,0,1,525,40.21V64.42a0,0,0,0,1,0,0H396.94a0,0,0,0,1,0,0V40.21A11.75,11.75,0,0,1,408.69,28.46Z"/><line class="cls-3" x1="428.79" y1="23.59" x2="428.79" y2="46.44"/><line class="cls-3" x1="495.04" y1="23.59" x2="495.04" y2="46.44"/><path class="cls-4" d="M444.79,76.7a.42.42,0,0,1,.37.18.53.53,0,0,1,.13.3.48.48,0,0,1,0,.18.66.66,0,0,1-.07.15l-5.93,8.06.22-.73v9a.49.49,0,0,1-.15.36.52.52,0,0,1-.38.15.49.49,0,0,1-.38-.15.48.48,0,0,1-.14-.36V85l.12.53-5.85-8a.74.74,0,0,1-.08-.15.5.5,0,0,1,0-.18.41.41,0,0,1,.17-.34.6.6,0,0,1,.35-.14.49.49,0,0,1,.43.23l5.55,7.58-.25-.05,5.51-7.53A.49.49,0,0,1,444.79,76.7Z"/><path class="cls-4" d="M447.79,76.8h9.44a.49.49,0,0,1,.35.15.49.49,0,0,1,.15.36.46.46,0,0,1-.15.36.52.52,0,0,1-.35.14h-9.14l.25-.43v7.76l-.3-.35h8.06a.51.51,0,0,1,.5.5.46.46,0,0,1-.15.36.52.52,0,0,1-.35.14h-8l.25-.27v7.93l-.1-.13h9a.46.46,0,0,1,.35.16.45.45,0,0,1,.15.34.47.47,0,0,1-.15.37.52.52,0,0,1-.35.14h-9.44a.49.49,0,0,1-.35-.15.49.49,0,0,1-.15-.36V77.31a.49.49,0,0,1,.15-.36A.49.49,0,0,1,447.79,76.8Z"/><path class="cls-4" d="M466.16,78.08,459.83,94a.43.43,0,0,1-.18.24.44.44,0,0,1-.27.09.54.54,0,0,1-.38-.13.54.54,0,0,1-.15-.3.46.46,0,0,1,0-.25l6.73-16.57a.45.45,0,0,1,.19-.26.59.59,0,0,1,.29-.07.53.53,0,0,1,.32.09.48.48,0,0,1,.18.24l6.73,16.57a.56.56,0,0,1,0,.2.43.43,0,0,1-.15.35.6.6,0,0,1-.38.13.54.54,0,0,1-.31-.09.45.45,0,0,1-.19-.24l-6.53-16.12Zm-4.63,10.81.35-1H470l.25,1Z"/><path class="cls-4" d="M476.25,94.33a.5.5,0,0,1-.39-.15.52.52,0,0,1-.14-.36V77.31a.49.49,0,0,1,.15-.36.49.49,0,0,1,.35-.15h6.61a5.47,5.47,0,0,1,2.59.59A4.39,4.39,0,0,1,487.16,79a4.34,4.34,0,0,1,.63,2.32,5,5,0,0,1-.42,2.08A4,4,0,0,1,486.22,85a4.5,4.5,0,0,1-1.69.89l-1.15-.2a3.79,3.79,0,0,1,1.9.51,4,4,0,0,1,1.48,1.5,4.79,4.79,0,0,1,.58,2.42,11.13,11.13,0,0,0,.11,1.87,2.73,2.73,0,0,0,.3.93,1.71,1.71,0,0,0,.44.48.65.65,0,0,1,.22.25.51.51,0,0,1,0,.35.6.6,0,0,1-.16.24.64.64,0,0,1-.24.11.41.41,0,0,1-.28,0,2.64,2.64,0,0,1-.69-.6,3.37,3.37,0,0,1-.56-1.23,9.45,9.45,0,0,1-.22-2.35,4.16,4.16,0,0,0-.37-1.88,2.86,2.86,0,0,0-.92-1.07,3.3,3.3,0,0,0-1.2-.5,5.73,5.73,0,0,0-1.17-.13h-6.08l.22-.3v7.63a.49.49,0,0,1-.15.36A.5.5,0,0,1,476.25,94.33Zm.27-8.84H483a4.64,4.64,0,0,0,1.85-.6,3.89,3.89,0,0,0,1.39-1.4,4.06,4.06,0,0,0,.54-2.13,3.33,3.33,0,0,0-1.09-2.54,4.14,4.14,0,0,0-2.94-1h-6.06l.12-.18v8.14Z"/><path class="cls-2" d="M453.2,133.16a3.77,3.77,0,0,1,1,.16,4,4,0,0,1,1.2.61,9.67,9.67,0,0,0,2.07,1.17,7,7,0,0,0,2.78.51,5.94,5.94,0,0,0,3-.79,6.35,6.35,0,0,0,3.24-5.74,6,6,0,0,0-.79-3.21,5.2,5.2,0,0,0-2.09-1.94,6.09,6.09,0,0,0-2.78-.66,7,7,0,0,0-1.86.2c-.5.14-1,.28-1.43.43a4.93,4.93,0,0,1-1.61.23,2.17,2.17,0,0,1-1.81-.81,3,3,0,0,1-.64-1.94,2.8,2.8,0,0,1,.28-1.28,6.71,6.71,0,0,1,.84-1.22l9-9.8,1.38,1.18H452.38a2.8,2.8,0,0,1-2.86-2.86,2.63,2.63,0,0,1,.82-2,2.83,2.83,0,0,1,2-.79H468a3,3,0,0,1,2.37.87,3.13,3.13,0,0,1,.8,2.19,2.56,2.56,0,0,1-.34,1.28,5,5,0,0,1-.89,1.17l-9,9.95-1.38-1.73a8.07,8.07,0,0,1,1.56-.46,8.23,8.23,0,0,1,1.66-.21,8.88,8.88,0,0,1,5.23,1.56,10.37,10.37,0,0,1,3.42,4,13.07,13.07,0,0,1-.49,11.86,11,11,0,0,1-4.74,4.24,16.25,16.25,0,0,1-7.15,1.48,15,15,0,0,1-3.72-.46,12.48,12.48,0,0,1-3.17-1.22,3.49,3.49,0,0,1-1.5-1.36,3,3,0,0,1-.38-1.4,3.5,3.5,0,0,1,.84-2.22A2.61,2.61,0,0,1,453.2,133.16Z"/><circle class="cls-5" cx="512.76" cy="148.21" r="27.34"/><path class="cls-1" d="M511.88,157.69a6.53,6.53,0,0,1-.63-3.24V142.63l-2.57,1.49a1.8,1.8,0,0,1-.9.25,1.66,1.66,0,0,1-1.27-.57,2,2,0,0,1-.51-1.35,1.71,1.71,0,0,1,.28-1,3.69,3.69,0,0,1,.92-.84l4.92-2.71a3.79,3.79,0,0,1,1.88-.74q2.54,0,2.54,4v13.69q0,3.9-2.67,3.9A2.14,2.14,0,0,1,511.88,157.69Z"/></svg>