<svg viewBox="0 0 550 420" xmlns="http://www.w3.org/2000/svg"><circle cx="275" cy="210" fill="#129294" r="200"/><path d="m202.62 72.86h172.85a0 0 0 0 1 0 0v226.78a0 0 0 0 1 0 0h-214.28a0 0 0 0 1 0 0v-185.35a41.43 41.43 0 0 1 41.43-41.43z" fill="#3e7b9c"/><path d="m375.47 266.5h-168.9a33.14 33.14 0 0 0 -33.14 33.14 33.14 33.14 0 0 0 33.14 33.14h168.9" fill="#fff" stroke="#085680" stroke-miterlimit="10" stroke-width="23.26"/><path d="m212.89 299.64v58.87l21.47-13.8 21.46 13.8v-58.87z" fill="#ff6f5d"/><path d="m238.94 134.12a49.5 49.5 0 0 1 4-19.65 49.74 49.74 0 1 0 65.34 65.34 49.74 49.74 0 0 1 -69.38-45.69z" fill="#fff"/><g fill="#2d4a54"><path d="m269 154.14a5 5 0 0 1 .1-3l4.36-13.14-5.84 2.22a4.52 4.52 0 0 1 -2.39.38 2 2 0 0 1 -1.43-1.43q-.89-2.31 2.1-3.45l9.93-3.79a10.27 10.27 0 0 1 1.36-.43 4.52 4.52 0 0 1 1.16-.11 1.59 1.59 0 0 1 1 .35 2.29 2.29 0 0 1 .67 1 5.61 5.61 0 0 1 -.13 3l-4.16 13.26 7-2.69a2.11 2.11 0 0 1 1.81.06 2.37 2.37 0 0 1 1.18 1.31 2.09 2.09 0 0 1 -.09 2.05 4.26 4.26 0 0 1 -2 1.37l-11 4.18c-1.82.72-3.04.32-3.63-1.14z"/><path d="m296.07 150.88a3.58 3.58 0 0 1 1-1.93l7-7.17-4.5-.4a3.24 3.24 0 0 1 -1.67-.51 1.44 1.44 0 0 1 -.47-1.38c.1-1.19.92-1.72 2.45-1.58l7.65.68a6.18 6.18 0 0 1 1 .15 3.26 3.26 0 0 1 .79.29 1.18 1.18 0 0 1 .54.54 1.81 1.81 0 0 1 .11.87 4 4 0 0 1 -1 1.92l-6.88 7.28 5.43.48a1.55 1.55 0 0 1 1.16.62 1.69 1.69 0 0 1 .32 1.26 1.52 1.52 0 0 1 -.7 1.31 3.1 3.1 0 0 1 -1.76.24l-8.45-.75c-1.45-.17-2.09-.8-2.02-1.92z"/><path d="m307.28 130.09a5.07 5.07 0 0 1 .19-3.1l4.84-13.41-6.08 2.13a4.68 4.68 0 0 1 -2.47.31 2 2 0 0 1 -1.43-1.51c-.57-1.61.19-2.77 2.25-3.49l10.34-3.62a10.53 10.53 0 0 1 1.41-.4 4.86 4.86 0 0 1 1.2-.09 1.77 1.77 0 0 1 1 .39 2.54 2.54 0 0 1 .66 1.06 5.76 5.76 0 0 1 -.23 3.11l-4.63 13.53 7.33-2.57a2.17 2.17 0 0 1 1.87.12 2.43 2.43 0 0 1 1.18 1.38 2.16 2.16 0 0 1 -.16 2.11 4.4 4.4 0 0 1 -2.13 1.35l-11.41 4q-2.92.98-3.73-1.3z"/></g></svg>