<svg viewBox="0 0 550 338" xmlns="http://www.w3.org/2000/svg" xmlns:xlink="http://www.w3.org/1999/xlink"><linearGradient id="a" gradientUnits="userSpaceOnUse" x1="274.75" x2="274.75" y1="316.67" y2="207.96"><stop offset="0" stop-color="#7b8996"/><stop offset=".67" stop-color="#485b6e"/></linearGradient><rect fill="#34495e" height="8.51" opacity=".1" rx="4.25" width="300.43" x="124.78" y="320.04"/><path d="m315.66 316.67-7.22-57.06 2 16h-28.33a15.09 15.09 0 0 1 -14.22 0h-28.78l.57-5.06-5.85 46.14z" fill="#7f9197"/><path d="m275 247.26a15.06 15.06 0 0 1 13.42 8.25h19.5l-6-47.55h-54.32l-6 47.55h20a15.06 15.06 0 0 1 13.4-8.25z" fill="url(#a)"/><path d="m290.06 262.31a15.06 15.06 0 0 1 -7.95 13.28h28.35l-2-16-.52-4.1h-19.5a15 15 0 0 1 1.62 6.82z" fill="#5b727a"/><path d="m267.89 275.59a15 15 0 0 1 -6.31-20.08h-20.22l-1.68 15-.57 5.06z" fill="#5b727a"/><rect fill="#abb7bb" height="239.7" rx="16.27" width="372.22" x="88.89" y="16.65"/><path d="m445.11 16.65h-340.22a16 16 0 0 0 -16 16v185.88h372.22v-185.89a16 16 0 0 0 -16-15.99z" fill="#2d4a54"/><path d="m103.54 32.81h342.41v171.51h-342.41z" fill="#085680"/><path d="m274.45 32.81h171.51v171.51h-171.51z" fill="#129294"/><path d="m210.44 310h128.62a4.14 4.14 0 0 1 4.14 4.14v10.16a0 0 0 0 1 0 0h-136.9a0 0 0 0 1 0 0v-10.16a4.14 4.14 0 0 1 4.14-4.14z" fill="#abb7bb"/><circle cx="275" cy="235.77" fill="#46596c" r="7.82"/><path d="m134.05 164.71h106.17a5.62 5.62 0 0 0 4.78-8.51l-53-88.9a5.61 5.61 0 0 0 -9.65 0l-53.09 88.9a5.63 5.63 0 0 0 4.79 8.51z" fill="#fff"/><path d="m394.84 167.85 26.48-45.85a8 8 0 0 0 0-8l-26.48-45.95a8.06 8.06 0 0 0 -7-4h-53a8.06 8.06 0 0 0 -7 4l-26.48 45.87a8 8 0 0 0 0 8l26.48 45.88a8.05 8.05 0 0 0 7 4h53a8.05 8.05 0 0 0 7-3.95z" fill="#fff"/><path d="m187.8 107.19-11.45 26.92a3.27 3.27 0 0 1 -1.14 1.57 2.79 2.79 0 0 1 -1.67.55 2.66 2.66 0 0 1 -2.12-.79 2.9 2.9 0 0 1 -.69-2 3.37 3.37 0 0 1 .16-1l13.2-31.69a3.41 3.41 0 0 1 1.3-1.65 2.82 2.82 0 0 1 1.88-.47 3.13 3.13 0 0 1 3 2.12l13 31.05a3.55 3.55 0 0 1 .27 1.28 3 3 0 0 1 -.93 2.28 3 3 0 0 1 -2 .84 2.75 2.75 0 0 1 -1.72-.58 3.82 3.82 0 0 1 -1.2-1.59l-11.39-26.55zm-9.8 20.46 2.92-6.1h14.31l1 6.1z" fill="#085680"/><path d="m364.59 98.87q5.09 0 7.57 2.38t2.5 7a7.54 7.54 0 0 1 -4.83 7.29 14.78 14.78 0 0 1 -5.88 1l.21-2.38a18.44 18.44 0 0 1 3.77.45 14.05 14.05 0 0 1 4.1 1.59 9.43 9.43 0 0 1 3.29 3.18 9.62 9.62 0 0 1 1.3 5.22 12.52 12.52 0 0 1 -1.14 5.72 8.76 8.76 0 0 1 -3 3.45 11.55 11.55 0 0 1 -4 1.67 19.74 19.74 0 0 1 -4.08.45h-13.2a3.16 3.16 0 0 1 -3.23-3.23v-30.56a3.16 3.16 0 0 1 3.23-3.23zm-1 6.25h-9.39l.69-.85v9.6l-.64-.48h9.54a4.2 4.2 0 0 0 2.76-1 3.56 3.56 0 0 0 1.22-2.91 3.82 3.82 0 0 0 -4.14-4.35zm.43 14.52h-9.65l.48-.42v11.18l-.53-.53h10.07a5.58 5.58 0 0 0 3.87-1.29 6.31 6.31 0 0 0 .47-7.35 4.1 4.1 0 0 0 -2.28-1.32 12.19 12.19 0 0 0 -2.39-.27z" fill="#129294"/></svg>