<svg viewBox="0 0 550 420" xmlns="http://www.w3.org/2000/svg" xmlns:xlink="http://www.w3.org/1999/xlink"><clipPath id="a"><circle cx="275" cy="210" r="200"/></clipPath><circle cx="275" cy="210" fill="#085680" r="200"/><g clip-path="url(#a)"><g fill="none" stroke-linecap="round"><path d="m743.33 230.5-420.4 2.27" stroke="#edd0af" stroke-linejoin="round" stroke-width="59.51"/><path d="m282.19 249.57-100.98 13.4" stroke="#e6caa9" stroke-miterlimit="10" stroke-width="34.63"/><path d="m271.13 278.81-58.18 15.84" stroke="#e6caa9" stroke-miterlimit="10" stroke-width="34.63"/><path d="m270.75 193.85-41.51-39.46-5.62-27.75-5.81-12.46" stroke="#edd0af" stroke-linejoin="round" stroke-width="34.63"/><path d="m281.59 219.72-116.91-.89" stroke="#e6caa9" stroke-miterlimit="10" stroke-width="34.63"/></g><path d="m269.56 171h70.59a36.15 36.15 0 0 1 36.15 36.15v47a40.39 40.39 0 0 1 -40.39 40.39h-66.35a0 0 0 0 1 0 0v-123.54a0 0 0 0 1 0 0z" fill="#edd0af" transform="matrix(.99979858 -.02006994 .02006994 .99979858 -4.61 6.53)"/><path d="m294.06 84.93h-69.65l6.1 66.89h57.45z" fill="#fff" opacity=".9"/><path d="m285.07 118.37h-51.67l1.99 27.77h47.69z" fill="#f0af7d"/><path d="m294.06 84.93h-69.65l.75 8.8h68.03z" fill="#f0f4f0"/><rect fill="#fff" height="6.63" rx="3.31" width="73.38" x="222.54" y="82.24"/><path d="m358.72 223.23-.41-20.17c-.39-19.73-9.7-39.58-27.87-47.29l-28.8-25.56-4.34-18.21" fill="none" stroke="#edd0af" stroke-linecap="round" stroke-miterlimit="10" stroke-width="34.63"/><path d="m397.23 219.6h69.77v25.25h-69.77z" fill="#f2665e" transform="matrix(0 -1 1 0 199.89 664.33)"/></g></svg>