<svg xmlns="http://www.w3.org/2000/svg" viewBox="0 0 550 420"><defs><style>.cls-1{isolation:isolate;}.cls-2{fill:#085680;}.cls-3{fill:#fff;}.cls-4{fill:#ededed;opacity:0.5;mix-blend-mode:multiply;}.cls-5{fill:#d5e2e9;}.cls-6,.cls-7{fill:none;stroke-linecap:round;stroke-miterlimit:10;}.cls-6{stroke:#085680;stroke-width:9.44px;}.cls-7{stroke:#fff;stroke-width:4px;}</style></defs><g class="cls-1"><g id="Layer_1" data-name="Layer 1"><circle class="cls-2" cx="275" cy="210" r="200"/><path class="cls-3" d="M371.1,361.48H205a29.06,29.06,0,0,1-29.06-29.06v-245A29.06,29.06,0,0,1,205,58.31H325.13l75,75V332.42A29.06,29.06,0,0,1,371.1,361.48Z"/><path class="cls-4" d="M400.16,149.23h-35.8a28.53,28.53,0,0,1-28.53-28.53V74.21l64.33,59.13Z"/><path class="cls-5" d="M400.16,133.34H353.67a28.54,28.54,0,0,1-28.54-28.54V58.31Z"/><line class="cls-6" x1="240.39" y1="200.35" x2="363.99" y2="200.35"/><line class="cls-6" x1="240.39" y1="215.95" x2="331.83" y2="215.95"/><line class="cls-6" x1="240.39" y1="248.74" x2="363.99" y2="248.74"/><line class="cls-6" x1="240.39" y1="264.34" x2="355.75" y2="264.34"/><line class="cls-6" x1="240.39" y1="300.5" x2="363.99" y2="300.5"/><line class="cls-6" x1="240.39" y1="316.1" x2="302.19" y2="316.1"/><rect class="cls-2" x="193.43" y="192.8" width="33.06" height="33.06" rx="11.32"/><rect class="cls-2" x="193.43" y="242.28" width="33.06" height="33.06" rx="11.32"/><rect class="cls-2" x="193.43" y="291.77" width="33.06" height="33.06" rx="11.32"/><polyline class="cls-7" points="200.98 209.79 207.07 215.95 218.94 203.84"/><polyline class="cls-7" points="200.98 258.71 207.07 264.87 218.94 252.76"/><polyline class="cls-7" points="200.98 307.62 207.07 313.78 218.94 301.68"/><path class="cls-2" d="M211.32,161.12a11.63,11.63,0,0,1-.77,4.25,10.84,10.84,0,0,1-2.14,3.49,9.93,9.93,0,0,1-7.43,3.2,9.88,9.88,0,0,1-7.41-3.2,10.84,10.84,0,0,1-2.14-3.49,12.29,12.29,0,0,1,0-8.51,10.69,10.69,0,0,1,2.14-3.48,9.84,9.84,0,0,1,7.41-3.21,10,10,0,0,1,4.15.85,9.9,9.9,0,0,1,3.28,2.36,10.69,10.69,0,0,1,2.14,3.48A11.68,11.68,0,0,1,211.32,161.12Zm-4,0a8.21,8.21,0,0,0-.82-3.7,6.8,6.8,0,0,0-2.25-2.63,6.15,6.15,0,0,0-6.63,0,6.67,6.67,0,0,0-2.24,2.62,9,9,0,0,0,0,7.4,6.63,6.63,0,0,0,2.24,2.63,6.15,6.15,0,0,0,6.63,0,6.73,6.73,0,0,0,2.25-2.63A8.16,8.16,0,0,0,207.36,161.12Zm4.08,11.49a1.85,1.85,0,0,1,1.73,1.77,1.89,1.89,0,0,1-.62,1.32,6.44,6.44,0,0,1-1.6,1.11,10.47,10.47,0,0,1-2,.76,7.74,7.74,0,0,1-1.9.27,10.21,10.21,0,0,1-3-.35,8.18,8.18,0,0,1-1.86-.79c-.49-.29-.94-.56-1.37-.79a3.2,3.2,0,0,0-1.55-.35,1.94,1.94,0,0,0-.93.2c-.23.13-.48.26-.76.39a2.53,2.53,0,0,1-1.14.2,1.62,1.62,0,0,1-1.27-.58,1.8,1.8,0,0,1-.52-1.24,1.53,1.53,0,0,1,1.06-1.58l6.3-2.35,2.74.67-5.9,2.19,1.73-1a5.12,5.12,0,0,1,1.87.32,14.46,14.46,0,0,1,1.54.71,12.94,12.94,0,0,0,1.5.72,4.71,4.71,0,0,0,1.78.32,3,3,0,0,0,1.38-.28,5.2,5.2,0,0,0,1-.6l.93-.72A1.44,1.44,0,0,1,211.44,172.61Z"/><path class="cls-2" d="M225.85,155.49a1.77,1.77,0,0,1,1.31.53,1.86,1.86,0,0,1,.52,1.32v7.73a7.1,7.1,0,0,1-1.8,5.11,8,8,0,0,1-10.32,0,7.13,7.13,0,0,1-1.78-5.11v-7.73a1.82,1.82,0,0,1,.52-1.32,1.87,1.87,0,0,1,2.61,0,1.82,1.82,0,0,1,.52,1.32v7.73a4,4,0,0,0,.82,2.75,3.17,3.17,0,0,0,2.46.9,3.22,3.22,0,0,0,2.5-.9,4,4,0,0,0,.82-2.75v-7.73a1.85,1.85,0,0,1,.51-1.32A1.77,1.77,0,0,1,225.85,155.49Z"/><path class="cls-2" d="M238.53,172.06a8.9,8.9,0,0,1-4.48-1.08,7.41,7.41,0,0,1-2.92-2.93,8.59,8.59,0,0,1-1-4.2,9.25,9.25,0,0,1,1.11-4.67,7.93,7.93,0,0,1,2.9-3,7.51,7.51,0,0,1,3.8-1,7,7,0,0,1,2.94.63,8.14,8.14,0,0,1,2.45,1.75,8.62,8.62,0,0,1,1.69,2.57,7.94,7.94,0,0,1,.62,3.1,1.54,1.54,0,0,1-.58,1.19,2,2,0,0,1-1.28.46H232.15l-.92-3H242.4l-.67.6v-.82a2.74,2.74,0,0,0-.63-1.58,3.92,3.92,0,0,0-1.4-1.11,4,4,0,0,0-1.78-.41,5.87,5.87,0,0,0-1.7.24,3.42,3.42,0,0,0-1.37.82,4.07,4.07,0,0,0-.91,1.56,7.74,7.74,0,0,0-.33,2.46,5.28,5.28,0,0,0,.68,2.78,4.64,4.64,0,0,0,4.06,2.33,7.23,7.23,0,0,0,1.8-.18,4,4,0,0,0,1.07-.45l.75-.44a2.33,2.33,0,0,1,1-.27,1.54,1.54,0,0,1,1.55,1.52,1.88,1.88,0,0,1-.85,1.49,6.74,6.74,0,0,1-2.22,1.17A8.67,8.67,0,0,1,238.53,172.06Z"/><path class="cls-2" d="M247.11,169.24a1.74,1.74,0,0,1-.27-1.1,1.45,1.45,0,0,1,.79-1.15,1.6,1.6,0,0,1,1-.26,1.71,1.71,0,0,1,1.07.56,7.09,7.09,0,0,0,1.85,1.37,5.48,5.48,0,0,0,2.43.48,8.23,8.23,0,0,0,1-.13,2,2,0,0,0,1-.49,1.52,1.52,0,0,0,.41-1.17,1.33,1.33,0,0,0-.46-1.06,3.8,3.8,0,0,0-1.2-.67,16.38,16.38,0,0,0-1.66-.52c-.63-.18-1.27-.39-1.93-.61a7.76,7.76,0,0,1-1.81-.87,4.12,4.12,0,0,1-1.34-1.41,4.39,4.39,0,0,1-.51-2.22,4,4,0,0,1,.85-2.58,5.56,5.56,0,0,1,2.2-1.65,7.24,7.24,0,0,1,2.84-.57,9.31,9.31,0,0,1,2,.22,8.27,8.27,0,0,1,2,.73,5,5,0,0,1,1.58,1.33,2.27,2.27,0,0,1,.4,1.09,1.33,1.33,0,0,1-.58,1.16,1.5,1.5,0,0,1-1.07.32,1.62,1.62,0,0,1-1-.41,3.67,3.67,0,0,0-1.39-1.07,4.77,4.77,0,0,0-2-.39,5.19,5.19,0,0,0-1,.1,2,2,0,0,0-.92.46,1.38,1.38,0,0,0-.4,1.11,1.42,1.42,0,0,0,.46,1.11,3.4,3.4,0,0,0,1.23.67c.52.17,1.07.34,1.66.5s1.22.35,1.85.58a7.11,7.11,0,0,1,1.74.88,4.21,4.21,0,0,1,1.27,1.41,4.44,4.44,0,0,1,.49,2.21,4,4,0,0,1-.91,2.64,5.76,5.76,0,0,1-2.28,1.66,7.25,7.25,0,0,1-2.8.56,10.76,10.76,0,0,1-3.59-.62A6.17,6.17,0,0,1,247.11,169.24Z"/><path class="cls-2" d="M262.28,155.79h7.21a1.67,1.67,0,0,1,1.71,1.71,1.6,1.6,0,0,1-.49,1.17,1.71,1.71,0,0,1-1.22.47h-7.21a1.67,1.67,0,0,1-1.7-1.7,1.57,1.57,0,0,1,.49-1.18A1.68,1.68,0,0,1,262.28,155.79Zm3.26-3.8a1.7,1.7,0,0,1,1.29.53,1.85,1.85,0,0,1,.5,1.33v13.53a1.32,1.32,0,0,0,.17.7,1,1,0,0,0,.46.4,1.59,1.59,0,0,0,.62.12,1.64,1.64,0,0,0,.67-.14,1.71,1.71,0,0,1,.7-.14,1,1,0,0,1,.77.4,1.55,1.55,0,0,1,.35,1.09,1.61,1.61,0,0,1-.92,1.4,3.84,3.84,0,0,1-2,.55,10.73,10.73,0,0,1-1.41-.11,3.86,3.86,0,0,1-1.46-.51,3.16,3.16,0,0,1-1.14-1.27,5,5,0,0,1-.46-2.34V153.85a1.83,1.83,0,0,1,1.86-1.86Z"/><path class="cls-2" d="M275.51,153.51a2.45,2.45,0,0,1-1.46-.33,1.44,1.44,0,0,1-.42-1.19v-.58a1.35,1.35,0,0,1,.47-1.2,2.62,2.62,0,0,1,1.44-.32,2.49,2.49,0,0,1,1.49.34,1.4,1.4,0,0,1,.43,1.18V152a1.35,1.35,0,0,1-.46,1.2A2.59,2.59,0,0,1,275.51,153.51Zm1.86,16.39a1.82,1.82,0,0,1-.52,1.33,1.87,1.87,0,0,1-2.61,0,1.82,1.82,0,0,1-.52-1.33V157.34a1.82,1.82,0,0,1,.52-1.32,1.87,1.87,0,0,1,2.61,0,1.82,1.82,0,0,1,.52,1.32Z"/><path class="cls-2" d="M296.13,163.64A8.52,8.52,0,0,1,295,168a7.94,7.94,0,0,1-3,3,8.77,8.77,0,0,1-8.36,0,7.94,7.94,0,0,1-3-3,9.24,9.24,0,0,1,0-8.78,8.14,8.14,0,0,1,3-3,8.7,8.7,0,0,1,8.36,0,8.14,8.14,0,0,1,3,3A8.52,8.52,0,0,1,296.13,163.64Zm-3.65,0a5.59,5.59,0,0,0-.62-2.69,4.63,4.63,0,0,0-1.67-1.78,4.56,4.56,0,0,0-4.66,0,4.63,4.63,0,0,0-1.67,1.78,5.59,5.59,0,0,0-.62,2.69,5.53,5.53,0,0,0,.62,2.66,4.7,4.7,0,0,0,1.67,1.78,4.56,4.56,0,0,0,4.66,0,4.7,4.7,0,0,0,1.67-1.78A5.53,5.53,0,0,0,292.48,163.64Z"/><path class="cls-2" d="M307.26,155.19a5.34,5.34,0,0,1,3.42.94,4.83,4.83,0,0,1,1.62,2.51,12.94,12.94,0,0,1,.44,3.48v7.78a1.82,1.82,0,0,1-.52,1.33,1.87,1.87,0,0,1-2.61,0,1.82,1.82,0,0,1-.52-1.33v-7.78a6,6,0,0,0-.26-1.81,2.44,2.44,0,0,0-.93-1.29,3.15,3.15,0,0,0-1.91-.49,4,4,0,0,0-2.06.49,3.21,3.21,0,0,0-1.27,1.29,3.65,3.65,0,0,0-.45,1.81v7.78a1.86,1.86,0,0,1-.51,1.33,1.88,1.88,0,0,1-2.62,0,1.86,1.86,0,0,1-.51-1.33V157.34a1.85,1.85,0,0,1,.51-1.32,1.88,1.88,0,0,1,2.62,0,1.85,1.85,0,0,1,.51,1.32v1.31l-.45-.09a6,6,0,0,1,.79-1.11,7.76,7.76,0,0,1,1.22-1.11,6.42,6.42,0,0,1,1.58-.84A5.63,5.63,0,0,1,307.26,155.19Z"/><path class="cls-2" d="M324.78,155.19a5.34,5.34,0,0,1,3.42.94,4.75,4.75,0,0,1,1.61,2.51,12.55,12.55,0,0,1,.44,3.48v7.78a1.86,1.86,0,0,1-.51,1.33,1.88,1.88,0,0,1-2.62,0,1.87,1.87,0,0,1-.52-1.33v-7.78a6,6,0,0,0-.25-1.81,2.55,2.55,0,0,0-.93-1.29,3.21,3.21,0,0,0-1.92-.49,4,4,0,0,0-2.05.49,3.31,3.31,0,0,0-1.28,1.29,3.76,3.76,0,0,0-.44,1.81v7.78a1.82,1.82,0,0,1-.52,1.33,1.87,1.87,0,0,1-2.61,0,1.82,1.82,0,0,1-.52-1.33V157.34a1.82,1.82,0,0,1,.52-1.32,1.87,1.87,0,0,1,2.61,0,1.82,1.82,0,0,1,.52,1.32v1.31l-.46-.09a6.57,6.57,0,0,1,.8-1.11,8.14,8.14,0,0,1,1.21-1.11,6.6,6.6,0,0,1,1.58-.84A5.69,5.69,0,0,1,324.78,155.19Z"/><path class="cls-2" d="M346.77,155.19a1.81,1.81,0,0,1,1.31.51,1.83,1.83,0,0,1,.51,1.34V169.9a1.86,1.86,0,0,1-.51,1.33,1.79,1.79,0,0,1-1.31.53,1.76,1.76,0,0,1-1.31-.53,1.82,1.82,0,0,1-.52-1.33v-1.49l.67.28a1.75,1.75,0,0,1-.42,1,6.21,6.21,0,0,1-1.16,1.11,7.18,7.18,0,0,1-1.72.92,5.77,5.77,0,0,1-2.14.38,6.93,6.93,0,0,1-3.8-1.08,7.47,7.47,0,0,1-2.69-3,10.16,10.16,0,0,1,0-8.75,7.65,7.65,0,0,1,2.66-3,6.75,6.75,0,0,1,3.71-1.07,7.11,7.11,0,0,1,2.4.39,7.27,7.27,0,0,1,1.9,1,5.87,5.87,0,0,1,1.25,1.24,2,2,0,0,1,.44,1.05l-1.1.39V157a1.79,1.79,0,0,1,.52-1.32A1.72,1.72,0,0,1,346.77,155.19Zm-6.15,13.53a4.1,4.1,0,0,0,2.35-.67,4.44,4.44,0,0,0,1.56-1.83,5.75,5.75,0,0,0,.57-2.58,5.86,5.86,0,0,0-.57-2.62A4.47,4.47,0,0,0,343,159.2a4.1,4.1,0,0,0-2.35-.67,4,4,0,0,0-2.31.67,4.47,4.47,0,0,0-1.56,1.82,5.86,5.86,0,0,0-.57,2.62,5.75,5.75,0,0,0,.57,2.58,4.44,4.44,0,0,0,1.56,1.83A4,4,0,0,0,340.62,168.72Z"/><path class="cls-2" d="M353.52,153.51a2.43,2.43,0,0,1-1.46-.33,1.41,1.41,0,0,1-.43-1.19v-.58a1.38,1.38,0,0,1,.47-1.2,2.66,2.66,0,0,1,1.45-.32,2.49,2.49,0,0,1,1.49.34,1.43,1.43,0,0,1,.43,1.18V152a1.38,1.38,0,0,1-.46,1.2A2.62,2.62,0,0,1,353.52,153.51Zm1.85,16.39a1.86,1.86,0,0,1-.51,1.33,1.88,1.88,0,0,1-2.62,0,1.87,1.87,0,0,1-.52-1.33V157.34a1.86,1.86,0,0,1,.52-1.32,1.88,1.88,0,0,1,2.62,0,1.85,1.85,0,0,1,.51,1.32Z"/><path class="cls-2" d="M360.33,171.76a1.77,1.77,0,0,1-1.31-.53,1.86,1.86,0,0,1-.51-1.33V157.34A1.85,1.85,0,0,1,359,156a1.88,1.88,0,0,1,2.62,0,1.85,1.85,0,0,1,.51,1.32v2.86l-.21-2a4.63,4.63,0,0,1,.87-1.3,5,5,0,0,1,1.2-.94,5.53,5.53,0,0,1,1.43-.56,6.58,6.58,0,0,1,1.52-.18,2.36,2.36,0,0,1,1.54.51,1.56,1.56,0,0,1,.62,1.22,1.77,1.77,0,0,1-.52,1.44,1.66,1.66,0,0,1-1.12.44,2.52,2.52,0,0,1-1.05-.21,2.67,2.67,0,0,0-1.08-.21,2.5,2.5,0,0,0-1.11.26,3.1,3.1,0,0,0-1,.8,4.55,4.55,0,0,0-.76,1.36,5.67,5.67,0,0,0-.29,1.9v7.2a1.86,1.86,0,0,1-.51,1.33A1.77,1.77,0,0,1,360.33,171.76Z"/><path class="cls-2" d="M377.94,172.06a8.94,8.94,0,0,1-4.49-1.08,7.48,7.48,0,0,1-2.92-2.93,8.59,8.59,0,0,1-1-4.2,9.25,9.25,0,0,1,1.11-4.67,7.88,7.88,0,0,1,2.91-3,7.46,7.46,0,0,1,3.8-1,7.06,7.06,0,0,1,2.94.63,8.1,8.1,0,0,1,2.44,1.75,8.62,8.62,0,0,1,1.69,2.57,7.77,7.77,0,0,1,.62,3.1,1.57,1.57,0,0,1-.57,1.19,2,2,0,0,1-1.28.46H371.55l-.91-3H381.8l-.67.6v-.82a2.8,2.8,0,0,0-.62-1.58,4.1,4.1,0,0,0-3.18-1.52,5.77,5.77,0,0,0-1.7.24,3.35,3.35,0,0,0-1.37.82,4,4,0,0,0-.91,1.56,7.44,7.44,0,0,0-.34,2.46,5.28,5.28,0,0,0,.69,2.78,4.66,4.66,0,0,0,1.76,1.74,4.74,4.74,0,0,0,2.3.59,7.15,7.15,0,0,0,1.79-.18,3.94,3.94,0,0,0,1.08-.45l.74-.44a2.37,2.37,0,0,1,1-.27A1.54,1.54,0,0,1,384,168.9a1.88,1.88,0,0,1-.85,1.49,7,7,0,0,1-2.22,1.17A8.71,8.71,0,0,1,377.94,172.06Z"/></g></g></svg>