<svg viewBox="0 0 550 340" xmlns="http://www.w3.org/2000/svg"><rect fill="#085680" height="23.5" rx="11.75" width="315.1" x="117.45" y="295.99"/><path d="m135.73 25.01h186.66v282.72h-186.66z" fill="#fff"/><path d="m135.73 152.14h186.66v155.6h-186.66z" fill="#009997"/><path d="m194.35 87.89a36 36 0 0 0 18 31.19 36 36 0 0 0 36 0 36 36 0 0 0 18-31.19 36 36 0 0 0 -18-31.2 36 36 0 0 0 -36 0 36 36 0 0 0 -18 31.2z" fill="#009997"/><g fill="#fff"><path d="m222.61 64.62h15.51v46.53h-15.51z"/><path d="m222.61 64.62h15.51v46.53h-15.51z" transform="matrix(0 1 -1 0 318.25 -142.48)"/><path d="m206.79 286.88a2.29 2.29 0 0 1 -1.56.57h-10.37v2.94a1.5 1.5 0 0 1 -.44 1.07 1.37 1.37 0 0 1 -1 .45 1.4 1.4 0 0 1 -1-.45 1.53 1.53 0 0 1 -.43-1.07v-9.75a1.49 1.49 0 0 1 .43-1.06 1.41 1.41 0 0 1 1-.45 1.37 1.37 0 0 1 1 .45 1.49 1.49 0 0 1 .43 1.06v2.87h10.37a2.3 2.3 0 0 1 1.56.58 1.81 1.81 0 0 1 .66 1.4 1.77 1.77 0 0 1 -.65 1.39z"/><path d="m205.17 278.63h-6.79a1.6 1.6 0 0 1 -1.08-.35 1.37 1.37 0 0 1 -.53-.85 2.54 2.54 0 0 1 0-1 1.56 1.56 0 0 1 .55-.85 1.67 1.67 0 0 1 1.06-.35h.37a4.84 4.84 0 0 1 -.76-.37 4.59 4.59 0 0 1 -.73-.56 2.42 2.42 0 0 1 -.58-.79 2.15 2.15 0 0 1 -.22-1 1.6 1.6 0 0 1 .15-.7 1.18 1.18 0 0 1 .4-.45 2 2 0 0 1 .55-.2 1.35 1.35 0 0 1 .6 0 1.89 1.89 0 0 1 .54.24 1.14 1.14 0 0 1 .4.44 1.26 1.26 0 0 1 .15.62 3.13 3.13 0 0 0 .61 1.91 2 2 0 0 0 1.68.81h3.69a2.88 2.88 0 0 1 1.67.39 1.53 1.53 0 0 1 .53 1.31c.02 1.19-.74 1.75-2.26 1.75z"/><path d="m207 268.31a4.62 4.62 0 0 1 -1.87 2.05 5.85 5.85 0 0 1 -3.07.76 5.61 5.61 0 0 1 -2.81-.7 5 5 0 0 1 -2-2 6.36 6.36 0 0 1 -.31-5.23 3.88 3.88 0 0 1 1.14-1.57 5 5 0 0 1 1.65-.85 7 7 0 0 1 2-.3q.87 0 .87 1.08v6.19a2.46 2.46 0 0 0 2.61-2.8 3.87 3.87 0 0 0 -.29-1.45 4.21 4.21 0 0 0 -.73-1.22.89.89 0 0 1 0-.89 1.24 1.24 0 0 1 .82-.64 1 1 0 0 1 1 .23c.21.25.39.48.54.7a6.28 6.28 0 0 1 .51.87 4.37 4.37 0 0 1 .42 1.25 7.48 7.48 0 0 1 .15 1.55 6.7 6.7 0 0 1 -.63 2.97zm-5.92-5a3.64 3.64 0 0 0 -1.91.55 1.84 1.84 0 0 0 -.67 1.59 2 2 0 0 0 .72 1.62 3.13 3.13 0 0 0 1.86.65z"/><path d="m206.71 258.84a2.78 2.78 0 0 1 -2.18 1 2.73 2.73 0 0 1 -2.72-1.51 13.35 13.35 0 0 1 -.73-5.3h-.67q-1.65 0-1.65 1.74a8.22 8.22 0 0 0 .77 3.08.84.84 0 0 1 -.19 1 1.31 1.31 0 0 1 -1.06.4 1 1 0 0 1 -.93-.61 8.72 8.72 0 0 1 -.59-1.88 10.15 10.15 0 0 1 -.25-2.19 6.7 6.7 0 0 1 .24-1.88 4 4 0 0 1 .77-1.46 3.3 3.3 0 0 1 1.44-1 6.46 6.46 0 0 1 2.19-.34h4.56a2 2 0 0 1 1.13.31 1.27 1.27 0 0 1 .57.76 1.75 1.75 0 0 1 0 .88 1.25 1.25 0 0 1 -.58.74 2 2 0 0 1 -1.14.31h-.18c1.4.48 2.09 1.63 2.08 3.44a3.86 3.86 0 0 1 -.88 2.51zm-1.74-5a2.55 2.55 0 0 0 -1.97-.84h-.43v1s0 .57.05.88a5.09 5.09 0 0 0 .11.75 4.23 4.23 0 0 0 .19.57 1.1 1.1 0 0 0 .3.43 1.37 1.37 0 0 0 .43.24 1.48 1.48 0 0 0 .58.08 1.38 1.38 0 0 0 1.4-1.34 2.36 2.36 0 0 0 -.63-1.75z"/><path d="m206.62 246.6a4.52 4.52 0 0 1 -3.11.87h-4.51v.65a1.22 1.22 0 0 1 -.29.89 1.26 1.26 0 0 1 -.94.3 1 1 0 0 1 -1.12-1.15v-.91l-2.08-.24q-2-.19-2-1.62t2.16-1.32h1.9v-1.3c0-.75.4-1.13 1.19-1.13a1.18 1.18 0 0 1 .87.29 1.23 1.23 0 0 1 .29.9v1.24h3.79a4 4 0 0 0 1.9-.32 1.21 1.21 0 0 0 .47-1.18v-.62a.72.72 0 0 1 .18-.52.83.83 0 0 1 .47-.31 1.73 1.73 0 0 1 .6-.07 1 1 0 0 1 .57.17.86.86 0 0 1 .37.45 7.46 7.46 0 0 1 .29 2.46 3.31 3.31 0 0 1 -1 2.47z"/><path d="m206.87 239.84a3 3 0 0 1 -1.7.38h-6.28a2.71 2.71 0 0 1 -1.65-.4 1.47 1.47 0 0 1 -.54-1.27 1.69 1.69 0 0 1 .46-1.28 1.79 1.79 0 0 1 1.3-.44h.22a2.92 2.92 0 0 1 -1.62-1.34 4.43 4.43 0 0 1 -.55-2.26 5.74 5.74 0 0 1 .09-1.08 3.8 3.8 0 0 1 .32-.93 2.15 2.15 0 0 1 .71-.8 4.32 4.32 0 0 1 1.18-.55 4.32 4.32 0 0 1 -1.18-.78 2.89 2.89 0 0 1 -.71-1 4 4 0 0 1 -.32-1.06 6.63 6.63 0 0 1 -.09-1.15 3.37 3.37 0 0 1 1-2.57 4.05 4.05 0 0 1 2.94-1h4.69a3 3 0 0 1 1.71.39 1.48 1.48 0 0 1 .57 1.3c0 1.14-.76 1.7-2.28 1.7h-4.5a2.08 2.08 0 0 0 -1.43.48 1.55 1.55 0 0 0 -.53 1.21 2.13 2.13 0 0 0 .62 1.55 2.32 2.32 0 0 0 1.74.62h4.1a3 3 0 0 1 1.71.41 1.5 1.5 0 0 1 .57 1.31q0 1.68-2.28 1.68h-4.26a2.57 2.57 0 0 0 -1.63.45 1.48 1.48 0 0 0 -.57 1.23 2.23 2.23 0 0 0 .55 1.57 2 2 0 0 0 1.57.6h4.34c1.52 0 2.28.59 2.28 1.76a1.38 1.38 0 0 1 -.55 1.27z"/><path d="m207 218.26a4.6 4.6 0 0 1 -1.87 2 5.85 5.85 0 0 1 -3.07.77 5.71 5.71 0 0 1 -2.81-.7 5.05 5.05 0 0 1 -2-2 5.77 5.77 0 0 1 -.73-2.93 5.86 5.86 0 0 1 .42-2.3 3.91 3.91 0 0 1 1.14-1.56 5.19 5.19 0 0 1 1.65-.86 7 7 0 0 1 2-.29q.87 0 .87 1.08v6.19a2.46 2.46 0 0 0 2.61-2.8 3.83 3.83 0 0 0 -.29-1.45 4.4 4.4 0 0 0 -.73-1.23.87.87 0 0 1 0-.88 1.24 1.24 0 0 1 .82-.64.93.93 0 0 1 1 .23 7.32 7.32 0 0 1 .54.69 6.28 6.28 0 0 1 .51.87 4.48 4.48 0 0 1 .42 1.25 7.58 7.58 0 0 1 .15 1.56 6.73 6.73 0 0 1 -.63 3zm-5.92-5a3.64 3.64 0 0 0 -1.91.55 1.81 1.81 0 0 0 -.67 1.58 2 2 0 0 0 .72 1.62 3.07 3.07 0 0 0 1.86.65z"/><path d="m206.88 208.86a3.05 3.05 0 0 1 -1.71.38h-6.61a2 2 0 0 1 -1.4-.42 1.66 1.66 0 0 1 -.46-1.3c0-1.11.63-1.66 1.88-1.66-1.42-.62-2.13-1.87-2.13-3.76a3.29 3.29 0 0 1 1.09-2.57 4.32 4.32 0 0 1 3-1h4.56a2.86 2.86 0 0 1 1.7.42 1.54 1.54 0 0 1 .58 1.34 1.4 1.4 0 0 1 -.57 1.25 3.05 3.05 0 0 1 -1.71.38h-4.5a2 2 0 0 0 -1.45.49 1.64 1.64 0 0 0 -.51 1.24 2.05 2.05 0 0 0 .68 1.56 2.42 2.42 0 0 0 1.72.63h4.06a2.86 2.86 0 0 1 1.7.42 1.54 1.54 0 0 1 .58 1.34 1.4 1.4 0 0 1 -.5 1.26z"/><path d="m206.62 195.35a4.52 4.52 0 0 1 -3.11.87h-4.51v.65a1.26 1.26 0 0 1 -.29.9 1.31 1.31 0 0 1 -.94.29 1 1 0 0 1 -1.12-1.14v-.92l-2.08-.24q-2-.18-2-1.62t2.16-1.32h1.9v-1.3c0-.75.4-1.12 1.19-1.12a1.18 1.18 0 0 1 .87.28 1.26 1.26 0 0 1 .29.9v1.24h3.79a4 4 0 0 0 1.9-.32 1.2 1.2 0 0 0 .47-1.18v-.61a.73.73 0 0 1 .18-.53.83.83 0 0 1 .47-.31 1.73 1.73 0 0 1 .6-.07 1.12 1.12 0 0 1 .57.17.86.86 0 0 1 .37.45 7.46 7.46 0 0 1 .29 2.46 3.31 3.31 0 0 1 -1 2.47z"/></g><path d="m230.36 230.64v61.38" fill="none" stroke="#085680" stroke-miterlimit="10" stroke-width="2.91"/><path d="m240.33 230.64v61.38" fill="none" stroke="#085680" stroke-miterlimit="10" stroke-width="2.91"/><path d="m251.54 230.64v61.38" fill="none" stroke="#085680" stroke-miterlimit="10" stroke-width="2.91"/><path d="m293.94 109.83h119a0 0 0 0 1 0 0v188.6a9.31 9.31 0 0 1 -9.31 9.31h-100.38a9.31 9.31 0 0 1 -9.31-9.31v-188.6a0 0 0 0 1 0 0z" fill="#ffdc7c"/><path d="m293.94 109.83h118.96v38.37h-118.96z" fill="#ffdc7c" opacity=".6"/><path d="m287.24 97.55h132.36v36.6h-132.36z" fill="#fff"/><path d="m294.43 102.69v26.33" fill="none" stroke="#f0f4f0" stroke-linecap="round" stroke-miterlimit="10" stroke-width="3.29"/><path d="m307.6 102.69v26.33" fill="none" stroke="#f0f4f0" stroke-linecap="round" stroke-miterlimit="10" stroke-width="3.29"/><path d="m320.76 102.69v26.33" fill="none" stroke="#f0f4f0" stroke-linecap="round" stroke-miterlimit="10" stroke-width="3.29"/><path d="m333.92 102.69v26.33" fill="none" stroke="#f0f4f0" stroke-linecap="round" stroke-miterlimit="10" stroke-width="3.29"/><path d="m347.08 102.69v26.33" fill="none" stroke="#f0f4f0" stroke-linecap="round" stroke-miterlimit="10" stroke-width="3.29"/><path d="m360.25 102.69v26.33" fill="none" stroke="#f0f4f0" stroke-linecap="round" stroke-miterlimit="10" stroke-width="3.29"/><path d="m373.41 102.69v26.33" fill="none" stroke="#f0f4f0" stroke-linecap="round" stroke-miterlimit="10" stroke-width="3.29"/><path d="m386.57 102.69v26.33" fill="none" stroke="#f0f4f0" stroke-linecap="round" stroke-miterlimit="10" stroke-width="3.29"/><path d="m399.74 102.69v26.33" fill="none" stroke="#f0f4f0" stroke-linecap="round" stroke-miterlimit="10" stroke-width="3.29"/><path d="m412.9 102.69v26.33" fill="none" stroke="#f0f4f0" stroke-linecap="round" stroke-miterlimit="10" stroke-width="3.29"/><path d="m293.94 167.63h118.96v109.9h-118.96z" fill="#fff"/><path d="m293.94 242.5h118.96v35.03h-118.96z" fill="#009997"/><path d="m327.35 205a26.06 26.06 0 0 0 13 22.57 26 26 0 0 0 26.06 0 26.06 26.06 0 0 0 13-22.57 26.07 26.07 0 0 0 -13-22.58 26.09 26.09 0 0 0 -26.06 0 26.07 26.07 0 0 0 -13 22.58z" fill="#009997"/><path d="m347.81 188.13h11.22v33.67h-11.22z" fill="#fff"/><path d="m347.81 188.13h11.22v33.67h-11.22z" fill="#fff" transform="matrix(0 1 -1 0 558.39 -148.45)"/><path d="m293.94 167.63h59.48v109.9h-59.48z" fill="#f0f4f0"/><path d="m312.68 292h14.8a0 0 0 0 1 0 0v22.14a0 0 0 0 1 0 0h-14.8a11.07 11.07 0 0 1 -11.07-11.07 11.07 11.07 0 0 1 11.07-11.07z" fill="#009997" transform="matrix(-1 0 0 -1 629.1 606.18)"/><path d="m286.81 292h14.8a0 0 0 0 1 0 0v22.14a0 0 0 0 1 0 0h-14.8a11.07 11.07 0 0 1 -11.07-11.07 11.07 11.07 0 0 1 11.07-11.07z" fill="#fff"/><path d="m137.56 292h14.8a0 0 0 0 1 0 0v22.14a0 0 0 0 1 0 0h-14.8a11.07 11.07 0 0 1 -11.07-11.07 11.07 11.07 0 0 1 11.07-11.07z" fill="#009997"/><path d="m163.43 292h14.8a0 0 0 0 1 0 0v22.14a0 0 0 0 1 0 0h-14.8a11.07 11.07 0 0 1 -11.07-11.07 11.07 11.07 0 0 1 11.07-11.07z" fill="#fff" transform="matrix(-1 0 0 -1 330.6 606.18)"/></svg>