<svg viewBox="0 0 550 420" xmlns="http://www.w3.org/2000/svg" xmlns:xlink="http://www.w3.org/1999/xlink"><clipPath id="a"><circle cx="275" cy="210" r="200"/></clipPath><circle cx="275" cy="210" fill="#085680" r="200"/><g clip-path="url(#a)"><path d="m184.27 341.8h49v193.3h-49z" fill="#957e66"/><path d="m208.77 341.8v21.34" fill="none" opacity=".41" stroke="#d8bd9f" stroke-miterlimit="10" stroke-width="49"/><path d="m236.14 348.41h-49.4a29.79 29.79 0 0 1 -29.74-29.79v-20.88l59.87-59.54 49.11 80.42a29.79 29.79 0 0 1 -29.84 29.79z" fill="#957e66"/><path d="m171.42 284.32v36.01" fill="none" stroke="#957e66" stroke-linecap="round" stroke-miterlimit="10" stroke-width="28.94"/><path d="m356.68 53.49h-166.87a9.49 9.49 0 0 0 -9.46 9.51v258a9.49 9.49 0 0 0 9.46 9.46h166.86a9.49 9.49 0 0 0 9.46-9.46v-258a9.47 9.47 0 0 0 -9.45-9.51z" fill="#264350"/><circle cx="283.05" cy="64.59" fill="#516973" r="2.35"/><rect fill="#516973" height="16.61" rx="2.29" transform="matrix(0 -1 1 0 206.11 335.29)" width="4.57" x="268.41" y="56.29"/><path d="m280.63 300.14c-10.85-8.22-23.08 4.05-14.87 14.87a1.09 1.09 0 0 0 .18.19c10.77 8 22.88-4 14.87-14.87a.81.81 0 0 0 -.18-.19z" fill="#516973"/><rect fill="#129294" height="216.18" rx="4.13" width="168.51" x="188.99" y="72.97"/><path d="m171.94 284.32 44.85-19.59" fill="none" stroke="#957e66" stroke-linecap="round" stroke-miterlimit="10" stroke-width="28.94"/><path d="m361.73 373.97h-49.13l-.49 157.26h48.85z" fill="#957e66"/><path d="m272.15 315.28a38.53 38.53 0 0 1 38.53 38.53v10.67a11 11 0 0 1 -11 11h-27.53a0 0 0 0 1 0 0v-60.2a0 0 0 0 1 0 0z" fill="#86725c" transform="matrix(-1 0 0 -1 582.84 690.77)"/><rect fill="#86725c" height="21.65" rx="10.82" transform="matrix(0 -1 1 0 19.88 628.8)" width="60.54" x="294.07" y="293.64"/><rect fill="#86725c" height="21.65" rx="10.82" transform="matrix(0 -1 1 0 43.97 652.89)" width="60.54" x="318.16" y="293.64"/><rect fill="#86725c" height="21.65" rx="10.82" transform="matrix(0 -1 1 0 66.78 678.21)" width="54.25" x="345.37" y="294.89"/><path d="m289.11 294h94.2v53.14a28.38 28.38 0 0 1 -28.38 28.38h-46a19.82 19.82 0 0 1 -19.82-19.82z" fill="#957e66"/><rect fill="#957e66" height="21.65" rx="10.82" transform="matrix(0 -1 1 0 20.23 579.5)" width="110.19" x="244.77" y="268.81"/><rect fill="none" height="46.81" rx="23.4" stroke="#fff" stroke-miterlimit="10" stroke-width="3.78" width="117.05" x="214.72" y="160.86"/><g fill="#fff"><path d="m250.9 189.73h-3.64l-2.2-4a1.4 1.4 0 0 0 -1.31-.7h-1v4.75h-3.26v-12.78h6.05a5.19 5.19 0 0 1 3.47 1 3.61 3.61 0 0 1 1.16 2.89 3.81 3.81 0 0 1 -.8 2.44 3.89 3.89 0 0 1 -2.23 1.34 2.57 2.57 0 0 1 1.75 1.42zm-4.32-7.58a1.27 1.27 0 0 0 .48-1.11 1.34 1.34 0 0 0 -.48-1.15 2.72 2.72 0 0 0 -1.57-.35h-2.31v3h2.3a2.73 2.73 0 0 0 1.58-.39z"/><path d="m260.16 185.91h-5.47a2 2 0 0 0 .63 1.25 2.25 2.25 0 0 0 1.39.37 4.32 4.32 0 0 0 1.31-.21 4.16 4.16 0 0 0 1.19-.6l.81 2.11a5.16 5.16 0 0 1 -1.6.76 6.43 6.43 0 0 1 -1.87.28 5.76 5.76 0 0 1 -2.65-.56 4 4 0 0 1 -1.72-1.6 4.8 4.8 0 0 1 -.6-2.44 4.94 4.94 0 0 1 .57-2.39 4 4 0 0 1 1.58-1.64 4.51 4.51 0 0 1 2.29-.58 3.91 3.91 0 0 1 3 1.21 4.74 4.74 0 0 1 1.11 3.32zm-5.5-1.51h2.82c-.07-1.05-.53-1.58-1.37-1.58s-1.33.53-1.45 1.58z"/><path d="m271.07 180.87v7.78a4.18 4.18 0 0 1 -1.3 3.33 5.72 5.72 0 0 1 -3.86 1.13 10 10 0 0 1 -2.34-.27 7.05 7.05 0 0 1 -2-.79l.81-2.18a8.63 8.63 0 0 0 1.72.67 6.52 6.52 0 0 0 1.69.23 2.28 2.28 0 0 0 1.57-.46 1.83 1.83 0 0 0 .51-1.44v-.69a2.73 2.73 0 0 1 -1.13.95 3.71 3.71 0 0 1 -1.6.35 3.9 3.9 0 0 1 -2.05-.54 3.76 3.76 0 0 1 -1.41-1.54 5.16 5.16 0 0 1 -.5-2.31 5.25 5.25 0 0 1 .5-2.33 3.72 3.72 0 0 1 1.41-1.55 3.81 3.81 0 0 1 2.05-.55 3.63 3.63 0 0 1 1.62.36 2.67 2.67 0 0 1 1.13 1v-1.14zm-3.62 5.68a2.09 2.09 0 0 0 .47-1.46 2.18 2.18 0 0 0 -.47-1.5 1.85 1.85 0 0 0 -2.6 0 2.19 2.19 0 0 0 -.47 1.51 2.13 2.13 0 0 0 .47 1.46 1.86 1.86 0 0 0 2.6 0z"/><path d="m272.87 176.45h3.35v2.89h-3.35zm.07 13.28v-8.86h3.21v8.86z"/><path d="m279.21 189.6a5.33 5.33 0 0 1 -1.82-.79l.81-2.18a6 6 0 0 0 1.64.75 5.92 5.92 0 0 0 1.76.28 1.77 1.77 0 0 0 .81-.15.48.48 0 0 0 .29-.43.41.41 0 0 0 -.21-.36 3.56 3.56 0 0 0 -.83-.27l-1.43-.32a3.9 3.9 0 0 1 -1.94-.9 2.28 2.28 0 0 1 -.59-1.69 2.39 2.39 0 0 1 .5-1.51 3.33 3.33 0 0 1 1.41-1 5.6 5.6 0 0 1 2.06-.36 6.53 6.53 0 0 1 1.9.28 6.12 6.12 0 0 1 1.72.78l-.83 2.09a7.33 7.33 0 0 0 -1.44-.7 4.46 4.46 0 0 0 -1.38-.24 1.76 1.76 0 0 0 -.81.16.53.53 0 0 0 -.29.47.35.35 0 0 0 .18.3 2.1 2.1 0 0 0 .63.22l1.49.35a4 4 0 0 1 2 .94 2.38 2.38 0 0 1 .63 1.74 2.41 2.41 0 0 1 -1.06 2.07 4.88 4.88 0 0 1 -2.88.75 9.68 9.68 0 0 1 -2.32-.28z"/><path d="m292.9 187.52-.16 2.28a8.48 8.48 0 0 1 -1.11.07 4.5 4.5 0 0 1 -3.14-.91 3.62 3.62 0 0 1 -1-2.81v-2.92h-1.65v-2.36h1.65v-2.57h3.21v2.57h2.12v2.36h-2.12v2.94c0 .93.44 1.4 1.31 1.4.28 0 .57-.02.89-.05z"/><path d="m302.19 185.91h-5.47a2 2 0 0 0 .63 1.25 2.23 2.23 0 0 0 1.39.37 4.33 4.33 0 0 0 2.5-.81l.81 2.11a5.27 5.27 0 0 1 -1.6.76 6.44 6.44 0 0 1 -1.88.28 5.71 5.71 0 0 1 -2.64-.56 3.92 3.92 0 0 1 -1.72-1.6 4.8 4.8 0 0 1 -.6-2.44 5 5 0 0 1 .56-2.39 4.11 4.11 0 0 1 1.59-1.64 4.48 4.48 0 0 1 2.29-.58 3.93 3.93 0 0 1 3 1.21 4.74 4.74 0 0 1 1.11 3.32zm-5.51-1.51h2.83c-.07-1.05-.53-1.58-1.37-1.58s-1.34.53-1.46 1.58z"/><path d="m310.47 183.27-1.74.18a2.25 2.25 0 0 0 -1.46.56 1.78 1.78 0 0 0 -.41 1.27v4.45h-3.21v-8.86h3v1.53a2.38 2.38 0 0 1 1-1.23 3.73 3.73 0 0 1 1.71-.48l.88-.07z"/></g></g></svg>