<svg viewBox="0 0 550 420" xmlns="http://www.w3.org/2000/svg" xmlns:xlink="http://www.w3.org/1999/xlink"><linearGradient id="a" gradientUnits="userSpaceOnUse" x1="275.77" x2="275.77" y1="341.86" y2="61.98"><stop offset="0" stop-color="#34495e"/><stop offset="1" stop-color="#485b6e"/></linearGradient><circle cx="275" cy="210" fill="#129294" r="200"/><path d="m186.83 341.86h175.24" style="fill:none;stroke-linecap:round;stroke-miterlimit:10;stroke:#085680;stroke-width:33.63;opacity:.29"/><rect fill="url(#a)" height="279.88" rx="21.89" width="155.7" x="197.92" y="61.98"/><rect fill="#085680" height="271.26" rx="17.12" width="147.09" x="202.23" y="66.29"/><path d="m332.2 70.6a12.83 12.83 0 0 1 12.8 12.81v237a12.83 12.83 0 0 1 -12.81 12.82h-112.84a12.82 12.82 0 0 1 -12.81-12.82v-237a12.82 12.82 0 0 1 12.81-12.81zm0-8.62h-112.85a21.44 21.44 0 0 0 -21.43 21.43v237a21.43 21.43 0 0 0 21.43 21.43h112.85a21.43 21.43 0 0 0 21.43-21.43v-237a21.44 21.44 0 0 0 -21.43-21.41z" fill="#2d4a54"/><path d="m307.52 86.77h-63.52a5.93 5.93 0 0 1 -5.86-5.08l-2.14-14.8h79.47l-2.13 14.8a5.91 5.91 0 0 1 -5.82 5.08z" fill="#2d4a54"/><rect fill="#fff" height="49.27" rx="8.98" width="64.68" x="241.06" y="182.72"/><path d="m280.69 205.86 17.67 18.06" fill="none" stroke="#c2c8cf" stroke-linecap="round" stroke-miterlimit="10" stroke-width="1.93"/><path d="m266.27 205.71-17.82 18.21" fill="none" stroke="#c2c8cf" stroke-linecap="round" stroke-miterlimit="10" stroke-width="1.93"/><path d="m303.41 185.69-25 26.3a7.14 7.14 0 0 1 -10 0l-25-26.34" fill="#c2c8cf"/><path d="m303.42 185.69-26.25 23.39a5.36 5.36 0 0 1 -7.5 0l-26.26-23.43" fill="#fff"/><circle cx="305.67" cy="183.15" fill="#ff6f5d" r="16.74"/><path d="m305.13 187.78a4 4 0 0 1 -.39-2v-7.24l-1.57.92a1.17 1.17 0 0 1 -.55.15 1 1 0 0 1 -.78-.35 1.18 1.18 0 0 1 -.31-.82 1 1 0 0 1 .17-.59 2 2 0 0 1 .56-.52l3-1.66a2.2 2.2 0 0 1 1.15-.45c1 0 1.55.81 1.55 2.44v8.38c0 1.59-.54 2.38-1.63 2.38a1.29 1.29 0 0 1 -1.2-.64z" fill="#fff"/></svg>