<svg viewBox="0 0 550 255" xmlns="http://www.w3.org/2000/svg"><rect fill="#05334d" height="23.5" rx="11.75" width="482.95" x="23.92" y="226.04"/><path d="m120.44-24.34h204.17v309.25h-204.17z" fill="#fff" transform="matrix(0 1 -1 0 352.81 -92.24)"/><path d="m50.91 45.18h204.17v170.2h-204.17z" fill="#129294" transform="matrix(0 1 -1 0 283.28 -22.71)"/><path d="m308.38 92.31a39.38 39.38 0 0 0 -34.12 19.69 39.39 39.39 0 0 0 0 39.4 39.38 39.38 0 0 0 34.12 19.7 39.41 39.41 0 0 0 34.12-19.7 39.44 39.44 0 0 0 0-39.4 39.41 39.41 0 0 0 -34.12-19.69z" fill="#129294"/><g fill="#fff"><path d="m299.89 106.26h16.96v50.89h-16.96z" transform="matrix(0 1 -1 0 440.08 -176.67)"/><path d="m299.89 106.26h16.96v50.89h-16.96z" transform="matrix(-1 0 0 -1 616.75 263.41)"/><path d="m90.71 105.92a2.52 2.52 0 0 1 -.62-1.71v-11.34h-3.21a1.68 1.68 0 0 1 -1.18-.47 1.53 1.53 0 0 1 -.49-1.14 1.5 1.5 0 0 1 .49-1.14 1.64 1.64 0 0 1 1.18-.47h10.65a1.58 1.58 0 0 1 1.17.47 1.52 1.52 0 0 1 .49 1.15 1.49 1.49 0 0 1 -.49 1.13 1.62 1.62 0 0 1 -1.17.47h-3.14v11.34a2.48 2.48 0 0 1 -.63 1.71 2 2 0 0 1 -3.05 0z"/><path d="m99.73 104.14v-7.42a1.79 1.79 0 0 1 .39-1.18 1.51 1.51 0 0 1 .88-.54 2.85 2.85 0 0 1 1.09 0 1.64 1.64 0 0 1 .93.6 1.81 1.81 0 0 1 .38 1.15v.41a5.33 5.33 0 0 1 .41-.83 4.85 4.85 0 0 1 .61-.8 2.72 2.72 0 0 1 .86-.64 2.45 2.45 0 0 1 1.06-.24 1.71 1.71 0 0 1 .77.17 1.17 1.17 0 0 1 .49.44 2 2 0 0 1 .22.6 1.43 1.43 0 0 1 0 .65 2.11 2.11 0 0 1 -.26.59 1.21 1.21 0 0 1 -.48.44 1.3 1.3 0 0 1 -.68.17 3.41 3.41 0 0 0 -2.09.66 2.16 2.16 0 0 0 -.89 1.84v4a3.15 3.15 0 0 1 -.42 1.82 1.65 1.65 0 0 1 -1.43.58c-1.22.03-1.84-.8-1.84-2.47z"/><path d="m111 106.12a5.09 5.09 0 0 1 -2.24-2.05 6.44 6.44 0 0 1 -.83-3.36 6.19 6.19 0 0 1 .76-3.07 5.59 5.59 0 0 1 2.17-2.17 7 7 0 0 1 5.72-.34 4.2 4.2 0 0 1 1.71 1.26 5.34 5.34 0 0 1 .94 1.8 7.49 7.49 0 0 1 .33 2.18c0 .64-.4 1-1.18 1h-6.77c.08 1.9 1.1 2.85 3.05 2.85a4.14 4.14 0 0 0 1.59-.32 4.89 4.89 0 0 0 1.34-.79 1 1 0 0 1 1 0 1.39 1.39 0 0 1 .7.9 1 1 0 0 1 -.29.99c-.27.23-.52.43-.76.6a8.09 8.09 0 0 1 -1 .55 4.9 4.9 0 0 1 -1.37.46 8.18 8.18 0 0 1 -1.7.16 7.48 7.48 0 0 1 -3.17-.65zm5.45-6.48a3.89 3.89 0 0 0 -.6-2.08 2 2 0 0 0 -1.73-.73 2.18 2.18 0 0 0 -1.78.78 3.42 3.42 0 0 0 -.71 2z"/><path d="m121.39 105.83a3.36 3.36 0 0 1 .57-5.36 14.73 14.73 0 0 1 5.8-.8v-.73c0-1.2-.64-1.8-1.9-1.8a9 9 0 0 0 -3.38.84 1 1 0 0 1 -1.09-.2 1.49 1.49 0 0 1 -.44-1.16 1.15 1.15 0 0 1 .67-1 9.22 9.22 0 0 1 2.07-.65 11.37 11.37 0 0 1 2.39-.27 7.5 7.5 0 0 1 2 .26 4.63 4.63 0 0 1 1.6.84 3.64 3.64 0 0 1 1.07 1.58 7 7 0 0 1 .37 2.4v5a2.23 2.23 0 0 1 -.34 1.24 1.43 1.43 0 0 1 -.82.62 2.12 2.12 0 0 1 -1 0 1.36 1.36 0 0 1 -.81-.63 2.18 2.18 0 0 1 -.34-1.25v-.2c-.52 1.53-1.78 2.29-3.76 2.27a4.09 4.09 0 0 1 -2.66-1zm5.44-1.9a2.8 2.8 0 0 0 .92-2.13v-.47h-1.13l-1 .06a5 5 0 0 0 -.82.11 3.48 3.48 0 0 0 -.62.21 1.27 1.27 0 0 0 -.48.33 1.51 1.51 0 0 0 -.26.47 1.74 1.74 0 0 0 -.09.63 1.59 1.59 0 0 0 .41 1 1.53 1.53 0 0 0 1.06.48 2.54 2.54 0 0 0 2.01-.69z"/><path d="m134.77 105.73a4.87 4.87 0 0 1 -1-3.39v-5h-.71a1.36 1.36 0 0 1 -1-.31 1.41 1.41 0 0 1 -.32-1 1.09 1.09 0 0 1 1.25-1.22h1l.26-2.28q.21-2.16 1.77-2.16c1 0 1.45.79 1.45 2.36v2.08h1.53c.81 0 1.22.43 1.22 1.3a1.26 1.26 0 0 1 -.31 1 1.34 1.34 0 0 1 -1 .31h-1.36v4.16a4.33 4.33 0 0 0 .35 2.07 1.3 1.3 0 0 0 1.29.52h.67a.81.81 0 0 1 .58.19 1 1 0 0 1 .34.52 2.36 2.36 0 0 1 .08.65 1.27 1.27 0 0 1 -.2.63 1 1 0 0 1 -.48.4 8.22 8.22 0 0 1 -2.7.31 3.56 3.56 0 0 1 -2.71-1.14z"/><path d="m142.17 106a3.38 3.38 0 0 1 -.42-1.87v-6.85a3 3 0 0 1 .43-1.81 1.63 1.63 0 0 1 1.4-.58 1.86 1.86 0 0 1 1.39.49 1.94 1.94 0 0 1 .49 1.43v.24a3.24 3.24 0 0 1 1.46-1.78 5 5 0 0 1 2.47-.59 6 6 0 0 1 1.19.1 3.8 3.8 0 0 1 1 .35 2.29 2.29 0 0 1 .88.77 4.55 4.55 0 0 1 .6 1.29 4.59 4.59 0 0 1 .85-1.29 3.23 3.23 0 0 1 1.09-.78 4.86 4.86 0 0 1 1.15-.35 7.93 7.93 0 0 1 1.26-.09 3.73 3.73 0 0 1 2.82 1.12 4.46 4.46 0 0 1 1.09 3.2v5.12a3.31 3.31 0 0 1 -.43 1.88 1.62 1.62 0 0 1 -1.43.62c-1.23 0-1.85-.83-1.85-2.5v-4.89a2.25 2.25 0 0 0 -.52-1.56 1.71 1.71 0 0 0 -1.33-.59 2.31 2.31 0 0 0 -1.69.68 2.55 2.55 0 0 0 -.69 1.9v4.48a3.3 3.3 0 0 1 -.44 1.88 1.65 1.65 0 0 1 -1.44.62c-1.22 0-1.83-.83-1.83-2.5v-4.65a2.8 2.8 0 0 0 -.49-1.78 1.62 1.62 0 0 0 -1.35-.63 2.44 2.44 0 0 0 -1.71.6 2.22 2.22 0 0 0 -.66 1.73v4.73c0 1.67-.65 2.5-1.93 2.5a1.51 1.51 0 0 1 -1.36-.64z"/><path d="m165.77 106.12a5.09 5.09 0 0 1 -2.24-2.05 6.44 6.44 0 0 1 -.83-3.36 6.19 6.19 0 0 1 .76-3.07 5.59 5.59 0 0 1 2.17-2.17 7 7 0 0 1 5.72-.34 4.2 4.2 0 0 1 1.71 1.26 5.34 5.34 0 0 1 .94 1.8 7.49 7.49 0 0 1 .33 2.18c0 .64-.4 1-1.18 1h-6.77c.08 1.9 1.1 2.85 3.05 2.85a4.14 4.14 0 0 0 1.59-.32 4.89 4.89 0 0 0 1.34-.79 1 1 0 0 1 1 0 1.39 1.39 0 0 1 .7.9 1 1 0 0 1 -.25 1.09c-.27.23-.52.43-.76.6a8.09 8.09 0 0 1 -1 .55 4.9 4.9 0 0 1 -1.37.46 8.18 8.18 0 0 1 -1.7.16 7.48 7.48 0 0 1 -3.21-.75zm5.45-6.48a3.89 3.89 0 0 0 -.6-2.08 2 2 0 0 0 -1.73-.73 2.18 2.18 0 0 0 -1.78.78 3.42 3.42 0 0 0 -.71 2z"/><path d="m176.05 106a3.4 3.4 0 0 1 -.42-1.88v-7.2a2.25 2.25 0 0 1 .46-1.54 1.85 1.85 0 0 1 1.42-.49c1.22 0 1.82.68 1.82 2q1-2.34 4.11-2.34a3.62 3.62 0 0 1 2.82 1.2 4.73 4.73 0 0 1 1.08 3.31v5a3.13 3.13 0 0 1 -.46 1.87 1.7 1.7 0 0 1 -1.46.63 1.53 1.53 0 0 1 -1.37-.62 3.4 3.4 0 0 1 -.42-1.88v-4.83a2.26 2.26 0 0 0 -.53-1.59 1.82 1.82 0 0 0 -1.36-.56 2.26 2.26 0 0 0 -1.71.74 2.68 2.68 0 0 0 -.68 1.89v4.43a3.12 3.12 0 0 1 -.47 1.87 1.67 1.67 0 0 1 -1.46.63 1.55 1.55 0 0 1 -1.37-.64z"/><path d="m190.83 105.73a4.87 4.87 0 0 1 -1-3.39v-5h-.72a1.33 1.33 0 0 1 -1-.31 1.37 1.37 0 0 1 -.32-1 1.09 1.09 0 0 1 1.25-1.22h1l.26-2.28q.21-2.16 1.77-2.16c1 0 1.45.79 1.45 2.36v2.08h1.48c.82 0 1.23.43 1.23 1.3a1.27 1.27 0 0 1 -.32 1 1.33 1.33 0 0 1 -1 .31h-1.31v4.16a4.33 4.33 0 0 0 .35 2.07 1.29 1.29 0 0 0 1.28.52h.68a.81.81 0 0 1 .58.19 1 1 0 0 1 .34.52 2 2 0 0 1 .07.65 1.26 1.26 0 0 1 -.19.63 1 1 0 0 1 -.48.4 8.22 8.22 0 0 1 -2.7.31 3.56 3.56 0 0 1 -2.7-1.14z"/></g><path d="m152.23 131.71h-67.14" fill="none" stroke="#71bebf" stroke-miterlimit="10" stroke-width="3.18"/><path d="m152.23 142.61h-67.14" fill="none" stroke="#71bebf" stroke-miterlimit="10" stroke-width="3.18"/><path d="m152.23 154.87h-67.14" fill="none" stroke="#71bebf" stroke-miterlimit="10" stroke-width="3.18"/><path d="m340.46 20.08h130.11a0 0 0 0 1 0 0v206.3a10.18 10.18 0 0 1 -10.18 10.18h-109.75a10.18 10.18 0 0 1 -10.18-10.18v-206.3a0 0 0 0 1 0 0z" fill="#ffdc7c"/><path d="m340.46 20.08h130.12v41.97h-130.12z" fill="#ffdc7c" opacity=".6"/><path d="m333.12 6.65h144.78v40.03h-144.78z" fill="#fff"/><path d="m340.99 12.27v28.8" fill="none" stroke="#f0f4f0" stroke-linecap="round" stroke-miterlimit="10" stroke-width="3.6"/><path d="m355.39 12.27v28.8" fill="none" stroke="#f0f4f0" stroke-linecap="round" stroke-miterlimit="10" stroke-width="3.6"/><path d="m369.79 12.27v28.8" fill="none" stroke="#f0f4f0" stroke-linecap="round" stroke-miterlimit="10" stroke-width="3.6"/><path d="m384.19 12.27v28.8" fill="none" stroke="#f0f4f0" stroke-linecap="round" stroke-miterlimit="10" stroke-width="3.6"/><path d="m398.58 12.27v28.8" fill="none" stroke="#f0f4f0" stroke-linecap="round" stroke-miterlimit="10" stroke-width="3.6"/><path d="m412.98 12.27v28.8" fill="none" stroke="#f0f4f0" stroke-linecap="round" stroke-miterlimit="10" stroke-width="3.6"/><path d="m427.38 12.27v28.8" fill="none" stroke="#f0f4f0" stroke-linecap="round" stroke-miterlimit="10" stroke-width="3.6"/><path d="m441.78 12.27v28.8" fill="none" stroke="#f0f4f0" stroke-linecap="round" stroke-miterlimit="10" stroke-width="3.6"/><path d="m456.18 12.27v28.8" fill="none" stroke="#f0f4f0" stroke-linecap="round" stroke-miterlimit="10" stroke-width="3.6"/><path d="m470.57 12.27v28.8" fill="none" stroke="#f0f4f0" stroke-linecap="round" stroke-miterlimit="10" stroke-width="3.6"/><path d="m340.46 83.31h130.12v120.21h-130.12z" fill="#fff"/><path d="m340.46 165.2h130.12v38.32h-130.12z" fill="#129294"/><path d="m377 124.15a28.53 28.53 0 0 0 14.26 24.69 28.52 28.52 0 0 0 28.51 0 28.53 28.53 0 0 0 14.23-24.69 28.54 28.54 0 0 0 -14.26-24.7 28.52 28.52 0 0 0 -28.51 0 28.54 28.54 0 0 0 -14.23 24.7z" fill="#129294"/><path d="m399.38 105.73h12.28v36.83h-12.28z" fill="#fff"/><path d="m399.38 105.73h12.28v36.83h-12.28z" fill="#fff" transform="matrix(0 1 -1 0 529.66 -281.37)"/><path d="m340.46 83.31h65.06v120.21h-65.06z" fill="#f0f4f0"/><path d="m333 217.84h17.63a0 0 0 0 1 0 0v26.37a0 0 0 0 1 0 0h-17.63a13.18 13.18 0 0 1 -13.2-13.21 13.18 13.18 0 0 1 13.2-13.16z" fill="#129294"/><path d="m363.79 217.84h17.63a0 0 0 0 1 0 0v26.37a0 0 0 0 1 0 0h-17.63a13.18 13.18 0 0 1 -13.18-13.21 13.18 13.18 0 0 1 13.18-13.16z" fill="#fff" transform="matrix(-1 0 0 -1 732.03 462.05)"/><path d="m45.85 217.84h17.63a0 0 0 0 1 0 0v26.37a0 0 0 0 1 0 0h-17.63a13.18 13.18 0 0 1 -13.18-13.21 13.18 13.18 0 0 1 13.18-13.16z" fill="#129294"/><path d="m76.66 217.84h17.63a0 0 0 0 1 0 0v26.37a0 0 0 0 1 0 0h-17.63a13.18 13.18 0 0 1 -13.18-13.21 13.18 13.18 0 0 1 13.18-13.16z" fill="#fff" transform="matrix(-1 0 0 -1 157.77 462.05)"/></svg>