<svg viewBox="0 0 550 280" xmlns="http://www.w3.org/2000/svg"><path d="m472 110.47a22.29 22.29 0 0 0 -20.4-22.28h-.84a18 18 0 0 0 -21.44-18 32.36 32.36 0 0 0 -63.44 5.81 32.78 32.78 0 0 0 0 6c-20.41-8.17-38.16 2.63-38.16 24.56 0 7.51 5.85 22.06 21.65 22.06h104.63c13.49 0 18-12.54 18-18.15z" fill="#fff"/><circle cx="97.51" cy="156.67" fill="#80cccb" r="31.58"/><path d="m92.63 230.94 2.37-79.55a.88.88 0 0 1 .88-.85h2.21a.87.87 0 0 1 .87.84l3.38 79.56z" fill="#b2e0e0"/><path d="m95.21 180.36 15.18-9.85 1.17 1.55-13.43 12.2z" fill="#b2e0e0"/><path d="m94.95 168.91-11.88-10.98 1.02-1.26 13.41 9.1z" fill="#b2e0e0"/><path d="m62 190.66h-3.07a22.54 22.54 0 0 1 -22.54-23.18l1.54-55a22.55 22.55 0 0 1 22.54-21.89 22.55 22.55 0 0 1 22.53 21.92l1.54 55a22.54 22.54 0 0 1 -22.54 23.15z" fill="#8fd2d1"/><path d="m55.21 231.64 2.6-85.9a1 1 0 0 1 .95-.92h2.38a1 1 0 0 1 1 .91l3.64 85.91z" fill="#b2e0e0"/><path d="m57.99 179.53 16.4-10.64 1.26 1.68-14.5 13.17z" fill="#b2e0e0"/><path d="m57.72 164.65-12.84-11.85 1.1-1.36 14.49 9.83z" fill="#b2e0e0"/><path d="m468 197.89h-2.54a18.57 18.57 0 0 1 -18.57-19.09l1.27-45.27a18.58 18.58 0 0 1 18.57-18 18.57 18.57 0 0 1 18.56 18l1.27 45.27a18.57 18.57 0 0 1 -18.56 19.09z" fill="#8fd2d1"/><path d="m462.39 231.64 2.15-70.75a.77.77 0 0 1 .78-.75h2a.77.77 0 0 1 .78.74l3 70.76z" fill="#b2e0e0"/><path d="m464.69 188.72 13.5-8.76 1.04 1.38-11.95 10.85z" fill="#b2e0e0"/><path d="m464.46 176.47-10.57-9.76.9-1.12 11.94 8.1z" fill="#b2e0e0"/><rect fill="#085680" height="23.5" rx="11.75" width="483.48" x="34.92" y="231.28"/><path d="m426.8 217.78h-308v-140.2a14.27 14.27 0 0 1 14.2-14.27h197.21a14.26 14.26 0 0 1 10.33 4.43l57.65 60.52a34.17 34.17 0 0 0 5.67 4.79l17.88 12a11.43 11.43 0 0 1 5.06 9.49z" fill="#ffdc7c"/><path d="m118.77 153.78h308.03v57.33h-308.03z" fill="#085680"/><path d="m170.32 189.22h204.93v28.35h-204.93z" fill="#c4e8e7"/><circle cx="177.04" cy="211.77" fill="#2d4a54" r="32.98"/><circle cx="380.67" cy="211.77" fill="#2d4a54" r="32.98"/><path d="m378.06 123.54-29.55-31.35a6.71 6.71 0 0 0 -4.89-2.11h-22.23a6.72 6.72 0 0 0 -6.72 6.72v31.35a6.72 6.72 0 0 0 6.72 6.72h51.78a6.72 6.72 0 0 0 4.89-11.33z" fill="#2d4a54"/><path d="m372.92 189.22h53.87v28.56h-53.87z" fill="#2d4a54"/><path d="m118.77 189.22h62.12v28.56h-62.12z" fill="#2d4a54"/><path d="m204.48 204.66h152.46v12.91h-152.46z" fill="#2d4a54"/><path d="m416.23 167.58h10.57v21.64h-10.57z" fill="#fff"/><path d="m412 167.58h4.22a0 0 0 0 1 0 0v21.64a0 0 0 0 1 0 0h-11.85a0 0 0 0 1 0 0v-14a7.64 7.64 0 0 1 7.63-7.64z" fill="#ffdc7c"/><path d="m118.77 167.58h11.86a0 0 0 0 1 0 0v21.64a0 0 0 0 1 0 0h-4.22a7.64 7.64 0 0 1 -7.64-7.64v-14a0 0 0 0 1 0 0z" fill="#ffdc7c" transform="matrix(-1 0 0 -1 249.4 356.79)"/><path d="m297.14 49.39h18.56a7 7 0 0 1 7 7v7a0 0 0 0 1 0 0h-32.52a0 0 0 0 1 0 0v-7a7 7 0 0 1 6.96-7z" fill="#009997"/><path d="m140.55 49.39h18.56a7 7 0 0 1 7 7v7a0 0 0 0 1 0 0h-32.52a0 0 0 0 1 0 0v-7a7 7 0 0 1 6.96-7z" fill="#009997"/><circle cx="177.04" cy="211.77" fill="#f0f4f0" r="22.35"/><circle cx="380.67" cy="211.77" fill="#f0f4f0" r="22.35"/><g fill="#009997"><path d="m191.13 116.79h-5.13l-.58 1.64a1.89 1.89 0 0 1 -.62.93 1.27 1.27 0 0 1 -.85.29 1.88 1.88 0 0 1 -.82-.26 1.14 1.14 0 0 1 -.51-.75 2.11 2.11 0 0 1 .07-1.13l3.19-8.24a6 6 0 0 1 .56-1.24 2.69 2.69 0 0 1 .65-.77 2.29 2.29 0 0 1 .69-.36 2.68 2.68 0 0 1 .78-.1 2.64 2.64 0 0 1 .78.1 2.33 2.33 0 0 1 .7.36 2.69 2.69 0 0 1 .65.77 6 6 0 0 1 .56 1.24l3.19 8.24a2.22 2.22 0 0 1 .07 1.13 1.22 1.22 0 0 1 -.51.75 1.92 1.92 0 0 1 -.82.26 1.26 1.26 0 0 1 -.85-.29 1.89 1.89 0 0 1 -.62-.93zm-2.57-7.28-1.91 5.49h3.83z"/><path d="m202 118.64a4.24 4.24 0 0 1 -.75-1.39l-2.84-7.07v8.38a1.44 1.44 0 0 1 -.15.67 1.09 1.09 0 0 1 -.39.45 1.56 1.56 0 0 1 -.53.22 1.42 1.42 0 0 1 -.58 0 1.87 1.87 0 0 1 -.54-.23 1.12 1.12 0 0 1 -.38-.45 1.4 1.4 0 0 1 -.15-.66v-9.32a2.25 2.25 0 0 1 .2-.93 2.06 2.06 0 0 1 .56-.73 2.74 2.74 0 0 1 .78-.45 1.91 1.91 0 0 1 .92-.13 2.8 2.8 0 0 1 .93.25 2.38 2.38 0 0 1 .85.68 3.87 3.87 0 0 1 .65 1.17l2.55 6.27 2.55-6.27a3.87 3.87 0 0 1 .65-1.17 2.38 2.38 0 0 1 .85-.68 2.8 2.8 0 0 1 .93-.25 1.91 1.91 0 0 1 .92.13 2.74 2.74 0 0 1 .78.45 2 2 0 0 1 .56.73 2.25 2.25 0 0 1 .2.93v9.32a1.32 1.32 0 0 1 -.2.75 1.16 1.16 0 0 1 -.5.46 1.49 1.49 0 0 1 -.66.15 1.44 1.44 0 0 1 -.65-.14 1.17 1.17 0 0 1 -.51-.46 1.43 1.43 0 0 1 -.2-.76v-8.38l-2.85 7.07a4.24 4.24 0 0 1 -.75 1.39 1.46 1.46 0 0 1 -1.12.42 1.45 1.45 0 0 1 -1.13-.42z"/><path d="m213.57 119.6a1.36 1.36 0 0 1 -.61-.33 1.42 1.42 0 0 1 -.4-.76 5.74 5.74 0 0 1 -.12-1.3v-8.6a1.38 1.38 0 0 1 .56-1.23 2.45 2.45 0 0 1 1.44-.4h3.56.79a5.71 5.71 0 0 1 .79.08c.19 0 .43.09.72.16a2.18 2.18 0 0 1 .68.27c.15.1.33.24.53.4a1.69 1.69 0 0 1 .45.56 3.85 3.85 0 0 1 .26.75 4.06 4.06 0 0 1 .11 1 2.87 2.87 0 0 1 -.66 1.85 2.76 2.76 0 0 1 -1.72 1 3.43 3.43 0 0 1 2.07 1 2.89 2.89 0 0 1 .77 2 3.27 3.27 0 0 1 -.27 1.31 3.46 3.46 0 0 1 -.79 1.13 3.54 3.54 0 0 1 -1.38.8 6 6 0 0 1 -2 .3h-3.92a4 4 0 0 1 -.86.01zm3.05-7.16a6.85 6.85 0 0 0 1.09-.08 2.72 2.72 0 0 0 .82-.26 1.24 1.24 0 0 0 .57-.54 1.78 1.78 0 0 0 .19-.87 1.86 1.86 0 0 0 -.18-.86 1.28 1.28 0 0 0 -.55-.53 2.66 2.66 0 0 0 -.78-.26 6.78 6.78 0 0 0 -1-.07h-1.3v3.47zm.16 5.25a8.39 8.39 0 0 0 1.24-.08 2.61 2.61 0 0 0 .87-.27 1.28 1.28 0 0 0 .56-.59 2.23 2.23 0 0 0 .17-1 1.45 1.45 0 0 0 -.75-1.4 4.72 4.72 0 0 0 -2.19-.4h-1.17v3.7z"/><path d="m227.32 119.72a5.21 5.21 0 0 1 -1.72-.84 3.73 3.73 0 0 1 -1.15-1.45 4.81 4.81 0 0 1 -.4-2v-6.59a1.86 1.86 0 0 1 .46-1.28 1.47 1.47 0 0 1 2.28 0 1.83 1.83 0 0 1 .48 1.28v6.54a2.17 2.17 0 0 0 .66 1.72 2.23 2.23 0 0 0 1.56.59 2.26 2.26 0 0 0 1.58-.59 2.17 2.17 0 0 0 .66-1.72v-6.54a1.83 1.83 0 0 1 .48-1.28 1.44 1.44 0 0 1 1.13-.54 1.48 1.48 0 0 1 1.14.54 1.87 1.87 0 0 1 .47 1.28v6.59a4.4 4.4 0 0 1 -.71 2.55 4.14 4.14 0 0 1 -1.92 1.55 7.26 7.26 0 0 1 -2.83.51 7.8 7.8 0 0 1 -2.17-.32z"/><path d="m237.41 119.28a2.13 2.13 0 0 1 -.51-1 4.94 4.94 0 0 1 -.14-1.27v-8.26a1.87 1.87 0 0 1 .47-1.28 1.44 1.44 0 0 1 1.14-.53 1.47 1.47 0 0 1 1.14.53 1.87 1.87 0 0 1 .47 1.28v8.47h4.37a1.08 1.08 0 0 1 .81.35 1.25 1.25 0 0 1 0 1.71 1.06 1.06 0 0 1 -.81.36h-6a1.28 1.28 0 0 1 -.94-.36z"/><path d="m254.17 116.79h-5.17l-.58 1.64a1.89 1.89 0 0 1 -.62.93 1.3 1.3 0 0 1 -.86.29 1.88 1.88 0 0 1 -.81-.26 1.14 1.14 0 0 1 -.51-.75 2.11 2.11 0 0 1 .07-1.13l3.18-8.24a6.6 6.6 0 0 1 .56-1.24 2.71 2.71 0 0 1 .66-.77 2.29 2.29 0 0 1 .69-.36 3.09 3.09 0 0 1 1.56 0 2.29 2.29 0 0 1 .69.36 2.56 2.56 0 0 1 .66.77 6.6 6.6 0 0 1 .56 1.24l3.18 8.24a2.11 2.11 0 0 1 .07 1.13 1.14 1.14 0 0 1 -.51.75 1.88 1.88 0 0 1 -.81.26 1.3 1.3 0 0 1 -.86-.29 1.89 1.89 0 0 1 -.62-.93zm-2.57-7.28-1.92 5.49h3.84z"/><path d="m259.08 119.25a1.44 1.44 0 0 1 -.39-1v-9.4a2 2 0 0 1 .45-1.36 1.46 1.46 0 0 1 1.13-.49q1 0 2 1.5l5.16 6.7v-6.76a1.44 1.44 0 0 1 .4-1 1.26 1.26 0 0 1 1-.42 1.27 1.27 0 0 1 1 .42 1.45 1.45 0 0 1 .41 1v8.56a7.15 7.15 0 0 1 -.06 1 3.8 3.8 0 0 1 -.21.82 1.29 1.29 0 0 1 -.48.61 1.48 1.48 0 0 1 -.81.21 1.51 1.51 0 0 1 -1-.39 6.43 6.43 0 0 1 -1-1.09l-5.2-6.84v6.87a1.42 1.42 0 0 1 -.41 1 1.3 1.3 0 0 1 -1.93 0z"/><path d="m275.42 119.58a5.92 5.92 0 0 1 -2-1.24 5.68 5.68 0 0 1 -1.35-2.06 7.64 7.64 0 0 1 -.49-2.81 7.91 7.91 0 0 1 .49-2.86 5.76 5.76 0 0 1 3.41-3.44 6.9 6.9 0 0 1 2.56-.47 7.86 7.86 0 0 1 2.13.27 7.18 7.18 0 0 1 1.44.6 1.55 1.55 0 0 1 .45.43 1.35 1.35 0 0 1 .2.51 1.82 1.82 0 0 1 0 .52.92.92 0 0 1 -.2.45 1.61 1.61 0 0 1 -.35.34.84.84 0 0 1 -.48.13 1.59 1.59 0 0 1 -.59-.12 6.06 6.06 0 0 0 -2.41-.58 6.25 6.25 0 0 0 -1 .08 2.8 2.8 0 0 0 -.89.34 2.07 2.07 0 0 0 -.74.7 3.81 3.81 0 0 0 -.46 1.2 7.39 7.39 0 0 0 -.19 1.81 4.89 4.89 0 0 0 .81 3 2.83 2.83 0 0 0 2.39 1 5.65 5.65 0 0 0 1.48-.22 6.09 6.09 0 0 0 1.47-.58.77.77 0 0 1 .8 0 1.1 1.1 0 0 1 .52.8 1.34 1.34 0 0 1 -.61 1.32 6.26 6.26 0 0 1 -3.93 1.2 6.76 6.76 0 0 1 -2.46-.32z"/><path d="m284.35 119.48a1.32 1.32 0 0 1 -.49-.53 2.52 2.52 0 0 1 -.26-.71 3.45 3.45 0 0 1 -.08-.8v-7.92c0-.33 0-.61 0-.83a2.87 2.87 0 0 1 .16-.69 1.42 1.42 0 0 1 .33-.55 1.67 1.67 0 0 1 .59-.34 2.88 2.88 0 0 1 .89-.13h5.62a1.18 1.18 0 0 1 .86.35 1.11 1.11 0 0 1 .35.84 1.07 1.07 0 0 1 -.35.83 1.17 1.17 0 0 1 -.86.34h-4.5v2.71h4.11a1.19 1.19 0 0 1 .86.35 1.15 1.15 0 0 1 .35.84 1.11 1.11 0 0 1 -.35.83 1.18 1.18 0 0 1 -.86.34h-4.11v2.92h4.72a1.07 1.07 0 0 1 .8.34 1.16 1.16 0 0 1 .32.84 1.12 1.12 0 0 1 -.32.83 1.07 1.07 0 0 1 -.8.34h-6.28a1.33 1.33 0 0 1 -.7-.2z"/><path d="m138.34 115.48a19.52 19.52 0 0 0 9.76 16.9 19.53 19.53 0 0 0 19.51 0 19.52 19.52 0 0 0 9.76-16.9 19.51 19.51 0 0 0 -9.76-16.9 19.49 19.49 0 0 0 -19.51 0 19.51 19.51 0 0 0 -9.76 16.9z"/></g><path d="m153.65 102.87h8.4v25.21h-8.4z" fill="#fff"/><path d="m153.65 102.87h8.4v25.21h-8.4z" fill="#fff" transform="matrix(0 1 -1 0 273.33 -42.38)"/><rect fill="#2d4a54" height="5.72" rx="2.86" width="17.17" x="303.57" y="153.22"/><path d="m149.83 82.97h-89.36" fill="none" stroke="#fff" stroke-linecap="round" stroke-miterlimit="10" stroke-width="17"/><path d="m133.59 140.63h-43.3" fill="none" stroke="#fff" stroke-linecap="round" stroke-miterlimit="10" stroke-width="17"/><path d="m169.48 204.66h-93.83" fill="none" stroke="#fff" stroke-linecap="round" stroke-miterlimit="10" stroke-width="17"/></svg>