<svg viewBox="0 0 550 350" xmlns="http://www.w3.org/2000/svg"><rect fill="#2d4a54" height="16.75" opacity=".2" rx="8.38" width="264.65" x="146.63" y="318.81"/><path d="m275 280.77a8.19 8.19 0 0 1 -6.33-3h-19.48v41.56h51.62v-41.53h-19.48a8.19 8.19 0 0 1 -6.33 2.97z" fill="#85929e"/><path d="m283.24 249.14v23.4a8.19 8.19 0 0 1 -1.91 5.26h19.48v-28.66z" fill="#71808e"/><path d="m266.76 272.54v-23.4h-17.57v28.66h19.48a8.19 8.19 0 0 1 -1.91-5.26z" fill="#71808e"/><rect fill="#1a4359" height="242.5" rx="16.46" width="376.56" x="86.72" y="15.84"/><path d="m101.54 32.19h346.41v209.74h-346.41z" fill="#129294"/><path d="m101.54 32.19h173.46v209.74h-173.46z" fill="#085680"/><path d="m200.85 312.61h148.3v14.47h-148.3z" fill="#a6afb8"/><path d="m129.73 206.11h113" fill="none" stroke="#b5ccd9" stroke-linecap="round" stroke-miterlimit="10" stroke-width="16.48"/><path d="m189.26 113.49-5.87-19.88v-5.16h-45v5.16l-5.88 19.88a55.38 55.38 0 0 0 -2.25 15.61v64.65a12.89 12.89 0 0 0 12.89 12.89h35.55a12.89 12.89 0 0 0 12.89-12.89v-64.65a55 55 0 0 0 -2.33-15.61z" fill="#f0f4f0"/><path d="m180.72 103.62 3.1 11.3a69 69 0 0 1 2.46 18.24" fill="none" stroke="#fff" stroke-linecap="round" stroke-miterlimit="10" stroke-width="7.56"/><path d="m138.32 88.45h45.05v5.16h-45.05z" fill="#dadada"/><path d="m130.19 138.49h61.33v49.59h-61.33z" fill="#fff"/><g fill="#085680"><path d="m135.5 163.2a1.11 1.11 0 0 1 -.39-.87 1.09 1.09 0 0 1 .6-1.08 5.37 5.37 0 0 1 2.1-.29v-.27c0-.43-.23-.65-.69-.65a3.12 3.12 0 0 0 -1.22.31.35.35 0 0 1 -.4-.08.5.5 0 0 1 -.16-.42.42.42 0 0 1 .24-.37 4.15 4.15 0 0 1 .75-.24 4.59 4.59 0 0 1 .87-.09 2.86 2.86 0 0 1 .75.09 1.55 1.55 0 0 1 .58.31 1.32 1.32 0 0 1 .39.57 2.49 2.49 0 0 1 .13.87v1.81a.79.79 0 0 1 -.12.45.51.51 0 0 1 -.3.23.83.83 0 0 1 -.35 0 .5.5 0 0 1 -.3-.22.85.85 0 0 1 -.12-.46v-.07a1.26 1.26 0 0 1 -1.37.82 1.49 1.49 0 0 1 -.99-.35zm2-.69a1 1 0 0 0 .34-.78v-.17h-.41-.35-.3a1 1 0 0 0 -.22.08.5.5 0 0 0 -.18.11.56.56 0 0 0 -.09.17.45.45 0 0 0 0 .23.58.58 0 0 0 .14.39.55.55 0 0 0 .39.17.93.93 0 0 0 .65-.2z"/><path d="m139.46 163a1 1 0 0 1 .24-.58l1.81-2.23h-1.3a1 1 0 0 1 -.49-.1.43.43 0 0 1 -.17-.39q0-.51.66-.51h2.21.29a.94.94 0 0 1 .24.06.39.39 0 0 1 .17.14.62.62 0 0 1 0 .25 1.1 1.1 0 0 1 -.25.57l-1.78 2.26h1.56a.44.44 0 0 1 .35.15.47.47 0 0 1 .13.34.43.43 0 0 1 -.17.39.85.85 0 0 1 -.49.11h-2.44c-.36.03-.57-.13-.57-.46z"/><path d="m143.84 158.18a.65.65 0 0 1 -.2-.49.63.63 0 0 1 .2-.48.76.76 0 0 1 .54-.19.72.72 0 0 1 .53.19.63.63 0 0 1 .2.48.65.65 0 0 1 -.2.49.74.74 0 0 1 -.54.19.75.75 0 0 1 -.53-.19zm0 5.09a1.16 1.16 0 0 1 -.16-.68v-2.47a1.23 1.23 0 0 1 .15-.67.56.56 0 0 1 .5-.23.62.62 0 0 1 .53.23 1.14 1.14 0 0 1 .17.67v2.47a1.22 1.22 0 0 1 -.15.68.56.56 0 0 1 -.51.22.6.6 0 0 1 -.51-.22z"/><path d="m146.37 163.16a1.79 1.79 0 0 1 -.35-1.23v-1.81h-.26a.46.46 0 0 1 -.35-.11.5.5 0 0 1 -.12-.37.4.4 0 0 1 .46-.45h.36l.09-.82c.05-.53.27-.79.65-.79s.52.29.52.86v.75h.52q.45 0 .45.48a.44.44 0 0 1 -.12.34.45.45 0 0 1 -.35.11h-.5v1.52a1.62 1.62 0 0 0 .13.75.48.48 0 0 0 .47.19h.24a.31.31 0 0 1 .21.07.41.41 0 0 1 .13.19.65.65 0 0 1 0 .24.46.46 0 0 1 -.06.23.34.34 0 0 1 -.18.14 2.85 2.85 0 0 1 -1 .12 1.32 1.32 0 0 1 -.94-.41z"/><path d="m148.89 162.59v-4.36a1.25 1.25 0 0 1 .15-.68.56.56 0 0 1 .5-.23c.46 0 .7.3.7.91v1.63a1.51 1.51 0 0 1 1.52-.74 1.87 1.87 0 0 1 .53.13 1.43 1.43 0 0 1 .44.3 1.33 1.33 0 0 1 .31.49 2.11 2.11 0 0 1 .11.68v1.87a1.24 1.24 0 0 1 -.16.68.59.59 0 0 1 -.52.22c-.45 0-.67-.3-.67-.9v-1.79a.86.86 0 0 0 -.19-.58.67.67 0 0 0 -.5-.2.8.8 0 0 0 -.61.27 1 1 0 0 0 -.26.69v1.61a1.16 1.16 0 0 1 -.16.68.58.58 0 0 1 -.52.22c-.44 0-.67-.3-.67-.9z"/><path d="m153.79 162.59v-2.7a.67.67 0 0 1 .14-.43.5.5 0 0 1 .34-.21 1 1 0 0 1 .39 0 .61.61 0 0 1 .34.22.64.64 0 0 1 .14.42v.11a2.1 2.1 0 0 1 .15-.3 1.85 1.85 0 0 1 .22-.29.9.9 0 0 1 .31-.23.86.86 0 0 1 .39-.09.6.6 0 0 1 .27.06.48.48 0 0 1 .18.16.58.58 0 0 1 .08.22.39.39 0 0 1 0 .24.67.67 0 0 1 -.09.21.44.44 0 0 1 -.17.16.54.54 0 0 1 -.25.06 1.23 1.23 0 0 0 -.76.24.78.78 0 0 0 -.32.67v1.47a1.07 1.07 0 0 1 -.16.66.59.59 0 0 1 -.52.21c-.47.04-.68-.26-.68-.86z"/><path d="m157.38 162.94a2.16 2.16 0 0 1 -.61-1.59 2.39 2.39 0 0 1 .15-.86 2.25 2.25 0 0 1 .42-.7 2 2 0 0 1 .74-.48 3 3 0 0 1 1-.17 2.38 2.38 0 0 1 1.73.6 2.19 2.19 0 0 1 .61 1.61 2.43 2.43 0 0 1 -.15.86 2.06 2.06 0 0 1 -.43.69 1.88 1.88 0 0 1 -.73.47 2.82 2.82 0 0 1 -1 .17 2.35 2.35 0 0 1 -1.73-.6zm2.44-.63a1.66 1.66 0 0 0 .24-1 1.69 1.69 0 0 0 -.24-1 .81.81 0 0 0 -.71-.35.79.79 0 0 0 -.71.35 1.69 1.69 0 0 0 -.24 1 1.66 1.66 0 0 0 .24 1 .82.82 0 0 0 .71.35.81.81 0 0 0 .71-.35z"/><path d="m162.11 163.26a1.23 1.23 0 0 1 -.16-.67v-2.5a1.16 1.16 0 0 1 .16-.66.61.61 0 0 1 .51-.21.69.69 0 0 1 .51.18.76.76 0 0 1 .17.52v.08a1.16 1.16 0 0 1 .54-.65 1.8 1.8 0 0 1 .89-.21 2.63 2.63 0 0 1 .43 0 1.63 1.63 0 0 1 .37.13.84.84 0 0 1 .32.28 1.58 1.58 0 0 1 .22.47 1.67 1.67 0 0 1 .31-.47 1.13 1.13 0 0 1 .39-.28 1.54 1.54 0 0 1 .42-.13 3.23 3.23 0 0 1 .46 0 1.39 1.39 0 0 1 1 .4 1.62 1.62 0 0 1 .39 1.17v1.87a1.16 1.16 0 0 1 -.16.68.58.58 0 0 1 -.52.22c-.45 0-.67-.3-.67-.9v-1.78a.8.8 0 0 0 -.19-.57.63.63 0 0 0 -.48-.21.83.83 0 0 0 -.62.25.94.94 0 0 0 -.25.69v1.63a1.16 1.16 0 0 1 -.16.68.59.59 0 0 1 -.52.22c-.44 0-.67-.3-.67-.9v-1.7a1.06 1.06 0 0 0 -.17-.64.59.59 0 0 0 -.5-.23.87.87 0 0 0 -.62.22.78.78 0 0 0 -.24.62v1.73c0 .6-.23.9-.7.9a.52.52 0 0 1 -.46-.23z"/><path d="m170.8 165.34a.55.55 0 0 1 -.52-.27.64.64 0 0 1 0-.66l.78-1.56-1.49-2.75a.69.69 0 0 1 -.09-.3.44.44 0 0 1 .07-.26.79.79 0 0 1 .17-.2.55.55 0 0 1 .23-.11.7.7 0 0 1 .25 0 .49.49 0 0 1 .25.1.68.68 0 0 1 .2.24l1.06 2 1-1.94a.88.88 0 0 1 .2-.29.55.55 0 0 1 .25-.13.76.76 0 0 1 .26 0 .37.37 0 0 1 .22.1.53.53 0 0 1 .16.2.57.57 0 0 1 .06.27 1.07 1.07 0 0 1 -.09.34l-2.41 4.85a.62.62 0 0 1 -.56.37z"/><path d="m175.31 163.41a2.29 2.29 0 0 1 -.7-.39 1.82 1.82 0 0 1 -.5-.7 2.35 2.35 0 0 1 -.19-1 2.16 2.16 0 0 1 .3-1.14 2 2 0 0 1 .81-.78 2.33 2.33 0 0 1 1.15-.28 2.45 2.45 0 0 1 .78.11 1.4 1.4 0 0 1 .56.29.51.51 0 0 1 .18.26.59.59 0 0 1 0 .29.9.9 0 0 1 -.12.24.3.3 0 0 1 -.23.13.45.45 0 0 1 -.29-.05 1.51 1.51 0 0 0 -.78-.2 1.11 1.11 0 0 0 -.73.3 1.15 1.15 0 0 0 -.26.82 1.55 1.55 0 0 0 .09.55.94.94 0 0 0 .91.58 1.71 1.71 0 0 0 .8-.21.5.5 0 0 1 .29 0 .3.3 0 0 1 .22.14.58.58 0 0 1 .12.25.51.51 0 0 1 0 .3.58.58 0 0 1 -.19.27 1.55 1.55 0 0 1 -.59.27 3.12 3.12 0 0 1 -.82.1 2.51 2.51 0 0 1 -.81-.15z"/><path d="m178.37 158.18a.65.65 0 0 1 -.2-.49.63.63 0 0 1 .2-.48.76.76 0 0 1 .54-.19.72.72 0 0 1 .53.19.63.63 0 0 1 .2.48.65.65 0 0 1 -.2.49.76.76 0 0 1 -.54.19.75.75 0 0 1 -.53-.19zm0 5.09a1.16 1.16 0 0 1 -.16-.68v-2.47a1.23 1.23 0 0 1 .15-.67.56.56 0 0 1 .49-.23.63.63 0 0 1 .54.23 1.14 1.14 0 0 1 .16.67v2.47a1.33 1.33 0 0 1 -.14.68.56.56 0 0 1 -.51.22.59.59 0 0 1 -.51-.22z"/><path d="m180.39 163.27a1.25 1.25 0 0 1 -.15-.68v-2.59a.81.81 0 0 1 .17-.56.66.66 0 0 1 .51-.18c.45 0 .67.25.67.75a1.45 1.45 0 0 1 1.49-.85 1.3 1.3 0 0 1 1 .43 1.74 1.74 0 0 1 .4 1.2v1.82a1.14 1.14 0 0 1 -.17.67.6.6 0 0 1 -.53.23.56.56 0 0 1 -.5-.22 1.25 1.25 0 0 1 -.15-.68v-1.81a.82.82 0 0 0 -.2-.58.66.66 0 0 0 -.49-.2.81.81 0 0 0 -.62.27 1 1 0 0 0 -.25.68v1.62a1.14 1.14 0 0 1 -.17.67.6.6 0 0 1 -.53.23.57.57 0 0 1 -.48-.22z"/></g><path d="m168.42 169.19h-33.61" fill="none" stroke="#b5ccd9" stroke-miterlimit="10" stroke-width="2.96"/><path d="m168.42 174.64h-33.61" fill="none" stroke="#b5ccd9" stroke-miterlimit="10" stroke-width="2.96"/><path d="m168.42 180.78h-33.61" fill="none" stroke="#b5ccd9" stroke-miterlimit="10" stroke-width="2.96"/><path d="m160.85 153.61a14.76 14.76 0 1 1 12.77-7.38 14.8 14.8 0 0 1 -12.77 7.38z" fill="#085680"/><path d="m160.85 126.12a12.74 12.74 0 1 1 -11 6.37 12.73 12.73 0 0 1 11-6.37m0-4a16.76 16.76 0 1 0 14.52 8.38 16.79 16.79 0 0 0 -14.52-8.38z" fill="#fff"/><path d="m158.11 130.63h5.49v16.46h-5.49z" fill="#fff" transform="matrix(0 1 -1 0 299.71 -22)"/><path d="m158.11 130.63h5.49v16.46h-5.49z" fill="#fff" transform="matrix(-1 0 0 -1 321.7 277.71)"/><path d="m160.85 88.45h-22.53v5.16l-5.88 19.88a55.38 55.38 0 0 0 -2.25 15.61v64.65a12.89 12.89 0 0 0 12.89 12.89h17.77z" fill="#f0f4f0"/><path d="m134.41 56.01h52.88v33.08h-52.88z" fill="#fff"/><path d="m134.41 56.01h13.7v33.08h-13.7z" fill="#ededed"/><path d="m243.43 154.36h-54.02l4.73 51.88h44.56z" fill="#fff" opacity=".9"/><path d="m243.43 154.36h-54.02l.57 6.83h52.78z" fill="#f0f4f0"/><rect fill="#fff" height="5.14" rx="2.57" width="56.92" x="187.96" y="152.27"/><path d="m310.26 206.11h113.01" fill="none" stroke="#b5ccd9" stroke-linecap="round" stroke-miterlimit="10" stroke-width="16.48"/><path d="m369.8 113.49-5.88-19.88v-5.16h-45v5.16l-5.92 19.88a55 55 0 0 0 -2.26 15.61v64.65a12.89 12.89 0 0 0 12.89 12.89h35.55a12.89 12.89 0 0 0 12.89-12.89v-64.65a55.38 55.38 0 0 0 -2.27-15.61z" fill="#f0f4f0"/><path d="m361.26 103.62 3.1 11.3a69 69 0 0 1 2.45 18.24" fill="none" stroke="#fff" stroke-linecap="round" stroke-miterlimit="10" stroke-width="7.56"/><path d="m318.85 88.45h45.05v5.16h-45.05z" fill="#dadada"/><path d="m310.72 138.49h61.33v49.59h-61.33z" fill="#fff"/><path d="m316.21 163.23a.91.91 0 0 1 -.22-.62v-4c0-.16 0-.3 0-.41a2.09 2.09 0 0 1 .08-.34.74.74 0 0 1 .17-.29.72.72 0 0 1 .3-.17 1.16 1.16 0 0 1 .44-.07h1.66a4.28 4.28 0 0 1 .75.05 2.41 2.41 0 0 1 .65.18 1.38 1.38 0 0 1 .52.34 1.56 1.56 0 0 1 .34.55 2.39 2.39 0 0 1 .12.79 1.72 1.72 0 0 1 -.62 1.45 2.81 2.81 0 0 1 -1.76.48h-1.09v1.45a.88.88 0 0 1 -.24.62.69.69 0 0 1 -.55.26.71.71 0 0 1 -.55-.27zm2.19-3a2.14 2.14 0 0 0 .48 0 1 1 0 0 0 .34-.15.7.7 0 0 0 .21-.29 1.32 1.32 0 0 0 .07-.48.8.8 0 0 0 -.25-.7 1.24 1.24 0 0 0 -.78-.19h-.91v1.86z" fill="#085680"/><path d="m321.6 163.27a1.25 1.25 0 0 1 -.15-.68v-4.36a1.25 1.25 0 0 1 .15-.68.54.54 0 0 1 .49-.22.63.63 0 0 1 .54.22 1.16 1.16 0 0 1 .16.68v4.36a1.16 1.16 0 0 1 -.16.68.63.63 0 0 1 -.54.22.54.54 0 0 1 -.49-.22z" fill="#085680"/><path d="m323.63 163.2a1.11 1.11 0 0 1 -.39-.87 1.09 1.09 0 0 1 .6-1.08 5.43 5.43 0 0 1 2.16-.25v-.27c0-.43-.23-.65-.69-.65a3.16 3.16 0 0 0 -1.23.31.34.34 0 0 1 -.39-.08.5.5 0 0 1 -.16-.42.4.4 0 0 1 .24-.37 3.69 3.69 0 0 1 .75-.24 4.43 4.43 0 0 1 .87-.09 2.86 2.86 0 0 1 .75.09 1.63 1.63 0 0 1 .58.31 1.22 1.22 0 0 1 .38.57 2.48 2.48 0 0 1 .14.87v1.81a.79.79 0 0 1 -.12.45.58.58 0 0 1 -.3.23.82.82 0 0 1 -.35 0 .5.5 0 0 1 -.3-.22.85.85 0 0 1 -.12-.46v-.07a1.26 1.26 0 0 1 -1.37.82 1.51 1.51 0 0 1 -1.05-.39zm2-.69a1 1 0 0 0 .33-.78v-.17h-.4-.35-.3a1 1 0 0 0 -.23.08.39.39 0 0 0 -.26.28.59.59 0 0 0 0 .23.65.65 0 0 0 .15.39.55.55 0 0 0 .39.17.93.93 0 0 0 .65-.2z" fill="#085680"/><path d="m329.07 163.41a2.41 2.41 0 0 1 -.7-.39 1.82 1.82 0 0 1 -.5-.7 2.35 2.35 0 0 1 -.19-1 2.16 2.16 0 0 1 .3-1.14 2 2 0 0 1 .81-.78 2.33 2.33 0 0 1 1.15-.28 2.45 2.45 0 0 1 .78.11 1.4 1.4 0 0 1 .56.29.51.51 0 0 1 .18.26.59.59 0 0 1 0 .29.9.9 0 0 1 -.12.24.3.3 0 0 1 -.22.13.43.43 0 0 1 -.29-.05 1.52 1.52 0 0 0 -.79-.2 1.11 1.11 0 0 0 -.73.3 1.15 1.15 0 0 0 -.26.82 1.35 1.35 0 0 0 .1.55.86.86 0 0 0 .33.41.94.94 0 0 0 .57.17 1.68 1.68 0 0 0 .8-.21.5.5 0 0 1 .29 0 .3.3 0 0 1 .22.14.58.58 0 0 1 .12.25.51.51 0 0 1 0 .3.52.52 0 0 1 -.19.27 1.55 1.55 0 0 1 -.59.27 3.1 3.1 0 0 1 -.81.1 2.53 2.53 0 0 1 -.82-.15z" fill="#085680"/><path d="m332.87 163.3a1.81 1.81 0 0 1 -.81-.74 2.26 2.26 0 0 1 -.31-1.22 2.32 2.32 0 0 1 .28-1.12 2.14 2.14 0 0 1 .79-.79 2.62 2.62 0 0 1 2.08-.12 1.47 1.47 0 0 1 .62.46 1.92 1.92 0 0 1 .34.65 2.53 2.53 0 0 1 .12.8c0 .23-.15.34-.43.34h-2.46a1 1 0 0 0 1.11 1 1.47 1.47 0 0 0 .58-.12 2 2 0 0 0 .49-.28.32.32 0 0 1 .35 0 .52.52 0 0 1 .25.32.37.37 0 0 1 -.09.4c-.1.08-.19.16-.28.22a3.08 3.08 0 0 1 -.34.2 2.26 2.26 0 0 1 -.5.17 3 3 0 0 1 -.62 0 2.72 2.72 0 0 1 -1.17-.17zm2-2.35a1.43 1.43 0 0 0 -.22-.76.7.7 0 0 0 -.63-.26.77.77 0 0 0 -.64.28 1.18 1.18 0 0 0 -.26.74z" fill="#085680"/><path d="m337.79 162.78v.05a.69.69 0 0 1 -.17.48.63.63 0 0 1 -.49.19.57.57 0 0 1 -.51-.26 1.2 1.2 0 0 1 -.18-.71v-4.31a1.24 1.24 0 0 1 .16-.68.54.54 0 0 1 .49-.23.64.64 0 0 1 .54.23 1.18 1.18 0 0 1 .16.68v1.68a1.21 1.21 0 0 1 .52-.53 1.73 1.73 0 0 1 .83-.2 1.94 1.94 0 0 1 .73.14 1.62 1.62 0 0 1 .6.4 1.71 1.71 0 0 1 .42.68 2.85 2.85 0 0 1 .15 1 2.35 2.35 0 0 1 -.52 1.65 1.69 1.69 0 0 1 -1.32.57 1.4 1.4 0 0 1 -1.41-.83zm1.46-.16a.89.89 0 0 0 .29-.32 2 2 0 0 0 .16-.43 2.42 2.42 0 0 0 .05-.47 1.73 1.73 0 0 0 -.25-1 .81.81 0 0 0 -.72-.36.89.89 0 0 0 -.73.33 1.66 1.66 0 0 0 -.25 1c0 .91.33 1.36 1 1.36a.84.84 0 0 0 .45-.11z" fill="#085680"/><path d="m342 162.94a2.15 2.15 0 0 1 -.6-1.59 2.63 2.63 0 0 1 .14-.86 2.1 2.1 0 0 1 .43-.7 1.94 1.94 0 0 1 .73-.48 3 3 0 0 1 1-.17 2.36 2.36 0 0 1 1.73.6 2.15 2.15 0 0 1 .61 1.61 2.67 2.67 0 0 1 -.14.86 2.06 2.06 0 0 1 -.43.69 1.92 1.92 0 0 1 -.74.47 2.75 2.75 0 0 1 -1 .17 2.35 2.35 0 0 1 -1.73-.6zm2.44-.63a1.66 1.66 0 0 0 .24-1 1.69 1.69 0 0 0 -.24-1 .79.79 0 0 0 -.71-.35.78.78 0 0 0 -.7.35 1.69 1.69 0 0 0 -.24 1 1.66 1.66 0 0 0 .24 1 .89.89 0 0 0 1.41 0z" fill="#085680"/><path d="m348.96 169.19h-33.61" fill="none" stroke="#b5ccd9" stroke-miterlimit="10" stroke-width="2.96"/><path d="m348.96 174.64h-33.61" fill="none" stroke="#b5ccd9" stroke-miterlimit="10" stroke-width="2.96"/><path d="m348.96 180.78h-33.61" fill="none" stroke="#b5ccd9" stroke-miterlimit="10" stroke-width="2.96"/><path d="m341.39 153.61a14.76 14.76 0 1 1 12.77-7.38 14.81 14.81 0 0 1 -12.77 7.38z" fill="#085680"/><path d="m341.39 126.12a12.74 12.74 0 1 1 -11 6.37 12.75 12.75 0 0 1 11-6.37m0-4a16.76 16.76 0 1 0 14.51 8.38 16.82 16.82 0 0 0 -14.51-8.38z" fill="#fff"/><path d="m338.64 130.63h5.49v16.46h-5.49z" fill="#fff" transform="matrix(0 1 -1 0 480.24 -202.53)"/><path d="m338.64 130.63h5.49v16.46h-5.49z" fill="#fff" transform="matrix(-1 0 0 -1 682.77 277.71)"/><path d="m341.39 88.45h-22.54v5.16l-5.85 19.88a55 55 0 0 0 -2.26 15.61v64.65a12.89 12.89 0 0 0 12.89 12.89h17.78z" fill="#f0f4f0"/><path d="m314.95 56.01h52.88v33.08h-52.88z" fill="#fff"/><path d="m314.95 56.01h13.7v33.08h-13.7z" fill="#ededed"/><path d="m423.96 154.36h-54.02l4.73 51.88h44.57z" fill="#fff" opacity=".9"/><path d="m423.96 154.36h-54.02l.58 6.83h52.77z" fill="#f0f4f0"/><rect fill="#fff" height="5.14" rx="2.57" width="56.92" x="368.49" y="152.27"/></svg>