<svg viewBox="0 0 550 308.08" xmlns="http://www.w3.org/2000/svg" xmlns:xlink="http://www.w3.org/1999/xlink"><linearGradient id="a" gradientTransform="matrix(0 1 -1 0 -388.95 1989.64)" gradientUnits="userSpaceOnUse" x1="-1834.95" x2="-1834.95" y1="-512.87" y2="-868.58"><stop offset="0" stop-color="#34495e"/><stop offset="1" stop-color="#485b6e"/></linearGradient><linearGradient id="b" x1="124.36" x2="124.36" xlink:href="#a" y1="285.66" y2="57.75"/><path d="m45.4 281.9h442" fill="none" stroke="#085680" stroke-linecap="round" stroke-miterlimit="10" stroke-width="23.54"/><rect fill="url(#a)" height="256.46" rx="27.82" width="355.72" x="123.92" y="26.46"/><path d="m457.89 26.46a21.75 21.75 0 0 1 21.75 21.75v213a21.74 21.74 0 0 1 -21.75 21.74h-312.22a21.74 21.74 0 0 1 -21.75-21.74v-213a21.75 21.75 0 0 1 21.75-21.75h312.22m0-2.66h-312.22a24.44 24.44 0 0 0 -24.41 24.41v213a24.44 24.44 0 0 0 24.41 24.4h312.22a24.44 24.44 0 0 0 24.41-24.4v-213a24.44 24.44 0 0 0 -24.41-24.41z" fill="#b2b2b2"/><rect fill="#129294" height="245.51" rx="16.27" width="344.77" x="129.4" y="31.94"/><path d="m457.89 37.41a10.81 10.81 0 0 1 10.8 10.8v213a10.8 10.8 0 0 1 -10.8 10.79h-312.22a10.8 10.8 0 0 1 -10.8-10.79v-213a10.81 10.81 0 0 1 10.8-10.8zm0-10.95h-312.22a21.75 21.75 0 0 0 -21.75 21.75v213a21.74 21.74 0 0 0 21.75 21.74h312.22a21.74 21.74 0 0 0 21.75-21.74v-213a21.75 21.75 0 0 0 -21.75-21.75z" fill="#2d4a54"/><rect fill="url(#b)" height="227.91" rx="17.83" width="126.79" x="60.97" y="57.75"/><rect fill="#fff" height="220.89" rx="13.94" width="119.78" x="64.47" y="61.26"/><path d="m170.31 64.77a10.45 10.45 0 0 1 10.44 10.43v193a10.46 10.46 0 0 1 -10.44 10.44h-91.89a10.45 10.45 0 0 1 -10.42-10.43v-193.01a10.45 10.45 0 0 1 10.42-10.43zm0-7h-91.89a17.45 17.45 0 0 0 -17.42 17.43v193a17.45 17.45 0 0 0 17.45 17.45h91.89a17.45 17.45 0 0 0 17.45-17.45v-193a17.45 17.45 0 0 0 -17.45-17.45z" fill="#2d4a54"/><path d="m150.22 77.94h-51.71a4.82 4.82 0 0 1 -4.77-4.14l-1.74-12.05h64.71l-1.71 12.05a4.82 4.82 0 0 1 -4.78 4.14z" fill="#2d4a54"/><circle cx="301.72" cy="147.13" fill="#085680" r="37.26"/><rect fill="#fff" height="36.09" rx="6.58" width="47.38" x="278.03" y="129.04"/><path d="m307.06 145.99 12.94 13.24" fill="none" stroke="#c2c8cf" stroke-linecap="round" stroke-miterlimit="10" stroke-width="1.41"/><path d="m296.49 145.88-13.05 13.35" fill="none" stroke="#c2c8cf" stroke-linecap="round" stroke-miterlimit="10" stroke-width="1.41"/><path d="m323.7 131.22-18.32 19.27a5.21 5.21 0 0 1 -7.31 0l-18.33-19.29" fill="#c2c8cf"/><path d="m323.71 131.22-19.23 17.13a3.92 3.92 0 0 1 -5.5 0l-19.23-17.16" fill="#fff"/><circle cx="335.34" cy="121.43" fill="#f04b4c" r="13.36"/><path d="m334.91 125.12a3.17 3.17 0 0 1 -.31-1.59v-5.77l-1.25.73a.94.94 0 0 1 -.44.12.77.77 0 0 1 -.62-.28 1 1 0 0 1 -.25-.66.81.81 0 0 1 .13-.47 1.67 1.67 0 0 1 .45-.41l2.41-1.33a1.81 1.81 0 0 1 .92-.36q1.23 0 1.23 2v6.69c0 1.27-.43 1.9-1.3 1.9a1 1 0 0 1 -.97-.57z" fill="#fff"/><circle cx="123.5" cy="177.81" fill="#129294" r="37.26"/><path d="m131.69 160.41h-16.38a12.06 12.06 0 0 0 -12.07 12.06v9.6a12.06 12.06 0 0 0 12.07 12.06h12.09l8.15 4.74-.06-5.36a12.06 12.06 0 0 0 8.26-11.44v-9.6a12.06 12.06 0 0 0 -12.06-12.06z" fill="#fff"/><g fill="#129294"><circle cx="114.64" cy="177.54" r="2.87"/><circle cx="123.5" cy="177.54" r="2.87"/><circle cx="132.35" cy="177.54" r="2.87"/></g><circle cx="157.11" cy="152.1" fill="#f04b4c" r="13.36"/><path d="m156.68 155.8a3.28 3.28 0 0 1 -.31-1.59v-5.78l-1.25.74a.94.94 0 0 1 -.44.12.82.82 0 0 1 -.62-.28 1 1 0 0 1 -.25-.66.79.79 0 0 1 .14-.47 1.55 1.55 0 0 1 .45-.42l2.4-1.32a1.75 1.75 0 0 1 .92-.36c.83 0 1.24.65 1.24 1.94v6.7c0 1.26-.44 1.9-1.3 1.9a1.05 1.05 0 0 1 -.98-.52z" fill="#fff"/></svg>