<svg viewBox="0 0 1280 720" xmlns="http://www.w3.org/2000/svg"><path d="m-4-19.42h1285.69v778.45h-1285.69z" fill="#129294"/><path d="m-4-19.42h643.79v778.45h-643.79z" fill="#085680"/><path d="m100.62 626.09h419.41" fill="none" stroke="#b5ccd9" stroke-linecap="round" stroke-miterlimit="10" stroke-width="61.16"/><path d="m321.57 282.34-21.8-73.79h-.09v-19.14h-167.18v19.14l-21.8 73.79a204.36 204.36 0 0 0 -8.38 57.93v239.93a47.85 47.85 0 0 0 47.85 47.85h131.93a47.85 47.85 0 0 0 47.9-47.85v-239.93a204.36 204.36 0 0 0 -8.43-57.93z" fill="#f0f4f0"/><path d="m289.89 245.71 11.5 41.93a256 256 0 0 1 9.11 67.69" fill="none" stroke="#fff" stroke-linecap="round" stroke-miterlimit="10" stroke-width="28.04"/><path d="m132.5 189.41h167.18v19.14h-167.18z" fill="#dadada"/><path d="m102.32 375.12h227.63v184.07h-227.63z" fill="#fff"/><g fill="#085680"><path d="m122 466.82a4.08 4.08 0 0 1 -1.44-3.22 4 4 0 0 1 2.22-4c1.49-.72 4.09-1.08 7.82-1.08v-1c0-1.62-.86-2.42-2.57-2.42a12.22 12.22 0 0 0 -4.55 1.13 1.25 1.25 0 0 1 -1.48-.23 2 2 0 0 1 -.59-1.56 1.51 1.51 0 0 1 .9-1.37 12.34 12.34 0 0 1 2.78-.88 15.66 15.66 0 0 1 3.23-.36 10.08 10.08 0 0 1 2.77.35 6 6 0 0 1 2.16 1.13 4.85 4.85 0 0 1 1.44 2.13 9.33 9.33 0 0 1 .5 3.23v6.73a3 3 0 0 1 -.46 1.66 1.9 1.9 0 0 1 -1.11.84 2.72 2.72 0 0 1 -1.3 0 1.87 1.87 0 0 1 -1.1-.85 3 3 0 0 1 -.46-1.69v-.36q-1.05 3.11-5.07 3.07a5.61 5.61 0 0 1 -3.69-1.25zm7.34-2.57a3.73 3.73 0 0 0 1.24-2.87v-.63h-1.52c-.4 0-.83 0-1.29.08a6.79 6.79 0 0 0 -1.11.15 5.58 5.58 0 0 0 -.84.29 1.65 1.65 0 0 0 -.64.44 2.11 2.11 0 0 0 -.35.63 2.24 2.24 0 0 0 -.12.85 2.17 2.17 0 0 0 .54 1.42 2.14 2.14 0 0 0 1.45.65 3.4 3.4 0 0 0 2.67-1.01z"/><path d="m136.74 466.1a3.78 3.78 0 0 1 .9-2.14l6.72-8.26h-4.82a3.54 3.54 0 0 1 -1.82-.39 1.54 1.54 0 0 1 -.64-1.43c0-1.26.82-1.9 2.46-1.9h8.19a8.38 8.38 0 0 1 1.09.06 3.31 3.31 0 0 1 .87.24 1.25 1.25 0 0 1 .62.53 1.82 1.82 0 0 1 .2.9 4.2 4.2 0 0 1 -.92 2.14l-6.59 8.38h5.81a1.64 1.64 0 0 1 1.29.54 1.83 1.83 0 0 1 .49 1.27 1.63 1.63 0 0 1 -.63 1.45 3.32 3.32 0 0 1 -1.84.42h-9c-1.61 0-2.38-.6-2.38-1.81z"/><path d="m153 448.2a2.37 2.37 0 0 1 -.75-1.83 2.33 2.33 0 0 1 .75-1.8 2.89 2.89 0 0 1 2-.68 2.82 2.82 0 0 1 2 .68 2.58 2.58 0 0 1 0 3.63 3.17 3.17 0 0 1 -4 0zm.06 18.88a4.42 4.42 0 0 1 -.59-2.52v-9.15a4.6 4.6 0 0 1 .56-2.51 2 2 0 0 1 1.83-.84 2.29 2.29 0 0 1 2 .84 4.24 4.24 0 0 1 .62 2.51v9.15a4.63 4.63 0 0 1 -.55 2.53 2.11 2.11 0 0 1 -1.89.82 2.25 2.25 0 0 1 -1.97-.83z"/><path d="m162.38 466.68c-.86-.92-1.28-2.45-1.28-4.58v-6.69h-1a1.84 1.84 0 0 1 -1.32-.42 1.9 1.9 0 0 1 -.43-1.39 1.47 1.47 0 0 1 1.68-1.65h1.36l.34-3.07q.28-2.91 2.4-2.91 2 0 2 3.18v2.85h1.87c1.1 0 1.65.59 1.65 1.76a1.72 1.72 0 0 1 -.42 1.28 1.85 1.85 0 0 1 -1.33.42h-1.82v5.54a5.83 5.83 0 0 0 .47 2.79 1.75 1.75 0 0 0 1.73.7l.91-.05a1.13 1.13 0 0 1 .78.26 1.36 1.36 0 0 1 .46.71 2.83 2.83 0 0 1 .1.88 1.6 1.6 0 0 1 -.26.84 1.32 1.32 0 0 1 -.65.54 11.11 11.11 0 0 1 -3.64.42 4.8 4.8 0 0 1 -3.6-1.41z"/><path d="m171.75 464.54v-16.16a4.61 4.61 0 0 1 .56-2.52 2.06 2.06 0 0 1 1.84-.86c1.74 0 2.6 1.13 2.6 3.38v6q1.68-2.93 5.65-2.72a5.79 5.79 0 0 1 2 .45 5.61 5.61 0 0 1 1.63 1.11 5.11 5.11 0 0 1 1.15 1.85 6.94 6.94 0 0 1 .43 2.52v6.91a4.46 4.46 0 0 1 -.59 2.53 2.19 2.19 0 0 1 -1.93.84c-1.65 0-2.48-1.12-2.48-3.37v-6.62a3 3 0 0 0 -.71-2.14 2.41 2.41 0 0 0 -1.9-.74 3 3 0 0 0 -2.28 1 3.58 3.58 0 0 0 -.94 2.58v6a4.46 4.46 0 0 1 -.59 2.53 2.19 2.19 0 0 1 -1.93.84c-1.68-.04-2.51-1.16-2.51-3.41z"/><path d="m189.92 464.54v-10a2.5 2.5 0 0 1 .52-1.6 2.09 2.09 0 0 1 1.25-.77 3.64 3.64 0 0 1 1.47 0 2.24 2.24 0 0 1 1.25.81 2.41 2.41 0 0 1 .52 1.56v.55a7.26 7.26 0 0 1 .55-1.12 6.56 6.56 0 0 1 .82-1.08 3.55 3.55 0 0 1 1.16-.86 3.37 3.37 0 0 1 1.44-.32 2.17 2.17 0 0 1 1 .23 1.47 1.47 0 0 1 .66.59 2.55 2.55 0 0 1 .3.8 2.18 2.18 0 0 1 0 .88 2.9 2.9 0 0 1 -.35.8 1.62 1.62 0 0 1 -.65.59 1.8 1.8 0 0 1 -.92.23 4.62 4.62 0 0 0 -2.82.89 2.94 2.94 0 0 0 -1.19 2.48v5.45a4.11 4.11 0 0 1 -.58 2.45 2.2 2.2 0 0 1 -1.92.79c-1.67.02-2.51-1.1-2.51-3.35z"/><path d="m203.24 465.87a8 8 0 0 1 -2.24-5.87 9.13 9.13 0 0 1 .54-3.19 7.84 7.84 0 0 1 1.57-2.6 7 7 0 0 1 2.73-1.78 10.62 10.62 0 0 1 3.82-.65 8.75 8.75 0 0 1 6.42 2.25 8 8 0 0 1 2.27 6 9.06 9.06 0 0 1 -.54 3.17 7.57 7.57 0 0 1 -1.6 2.58 7.15 7.15 0 0 1 -2.73 1.75 10.59 10.59 0 0 1 -3.82.64 8.69 8.69 0 0 1 -6.42-2.3zm9-2.33a6.22 6.22 0 0 0 .9-3.58 6.34 6.34 0 0 0 -.9-3.66 3.33 3.33 0 0 0 -5.25 0 6.43 6.43 0 0 0 -.89 3.66 6.19 6.19 0 0 0 .9 3.56 3.29 3.29 0 0 0 5.24 0z"/><path d="m220.79 467.06a4.66 4.66 0 0 1 -.56-2.52v-9.25a4.15 4.15 0 0 1 .59-2.45 2.2 2.2 0 0 1 1.88-.78 2.5 2.5 0 0 1 1.88.67 2.62 2.62 0 0 1 .65 1.93v.34a4.32 4.32 0 0 1 2-2.39 6.57 6.57 0 0 1 3.33-.8 8.42 8.42 0 0 1 1.6.13 5.86 5.86 0 0 1 1.37.47 3.22 3.22 0 0 1 1.18 1 6.11 6.11 0 0 1 .81 1.74 6.58 6.58 0 0 1 1.15-1.74 4.55 4.55 0 0 1 1.46-1.05 7.24 7.24 0 0 1 1.56-.47 10.87 10.87 0 0 1 1.7-.12 5 5 0 0 1 3.8 1.51 6 6 0 0 1 1.46 4.34v6.91a4.55 4.55 0 0 1 -.58 2.53 2.17 2.17 0 0 1 -1.92.84c-1.68 0-2.51-1.12-2.51-3.37v-6.62a3 3 0 0 0 -.7-2.11 2.27 2.27 0 0 0 -1.79-.79 3.13 3.13 0 0 0 -2.29.91 3.48 3.48 0 0 0 -.92 2.57v6a4.46 4.46 0 0 1 -.59 2.53 2.22 2.22 0 0 1 -1.94.84c-1.65 0-2.47-1.12-2.47-3.37v-6.28a3.75 3.75 0 0 0 -.67-2.4 2.17 2.17 0 0 0 -1.82-.84 3.32 3.32 0 0 0 -2.31.81 3 3 0 0 0 -.89 2.32v6.39c0 2.25-.86 3.37-2.59 3.37a2.06 2.06 0 0 1 -1.87-.8z"/><path d="m253.05 474.76a2 2 0 0 1 -1.93-1 2.43 2.43 0 0 1 -.05-2.47l2.9-5.79-5.56-10.19a2.57 2.57 0 0 1 -.31-1.14 1.76 1.76 0 0 1 .24-1 2.82 2.82 0 0 1 .62-.72 2 2 0 0 1 .86-.41 3 3 0 0 1 1-.06 2 2 0 0 1 .92.38 2.53 2.53 0 0 1 .73.88l4 7.38 3.58-7.19a3.09 3.09 0 0 1 .76-1.05 2 2 0 0 1 .93-.52 2.7 2.7 0 0 1 .94 0 1.61 1.61 0 0 1 .84.37 2.43 2.43 0 0 1 .58.73 2.21 2.21 0 0 1 .21 1 3.35 3.35 0 0 1 -.32 1.26l-9 18a2.22 2.22 0 0 1 -1.94 1.54z"/><path d="m269.81 467.6a8.38 8.38 0 0 1 -2.61-1.46 6.74 6.74 0 0 1 -1.87-2.57 9.17 9.17 0 0 1 -.69-3.65 8.25 8.25 0 0 1 1.1-4.24 7.56 7.56 0 0 1 3-2.9 8.86 8.86 0 0 1 4.28-1 9.55 9.55 0 0 1 2.88.42 5.76 5.76 0 0 1 2.09 1.08 2 2 0 0 1 .67 1 2 2 0 0 1 .06 1.07 2.52 2.52 0 0 1 -.44.9 1.2 1.2 0 0 1 -.83.47 1.81 1.81 0 0 1 -1.08-.21 5.6 5.6 0 0 0 -2.9-.72 3.93 3.93 0 0 0 -2.7 1.1 4.21 4.21 0 0 0 -1 3.07 5.51 5.51 0 0 0 .36 2 3.41 3.41 0 0 0 1.22 1.53 3.59 3.59 0 0 0 2.13.61 6.55 6.55 0 0 0 3-.75 1.82 1.82 0 0 1 1.07-.19 1.3 1.3 0 0 1 .83.52 2.82 2.82 0 0 1 .45 1 2 2 0 0 1 -.05 1.11 2.16 2.16 0 0 1 -.7 1 5.64 5.64 0 0 1 -2.2 1 12.07 12.07 0 0 1 -3 .38 9 9 0 0 1 -3.07-.57z"/><path d="m281.17 448.2a2.34 2.34 0 0 1 -.76-1.83 2.31 2.31 0 0 1 .76-1.8 3.21 3.21 0 0 1 3.95 0 2.58 2.58 0 0 1 0 3.63 3.16 3.16 0 0 1 -3.94 0zm.06 18.88a4.34 4.34 0 0 1 -.6-2.52v-9.15a4.6 4.6 0 0 1 .56-2.51 2 2 0 0 1 1.84-.84 2.28 2.28 0 0 1 2 .84 4.16 4.16 0 0 1 .63 2.51v9.15a4.63 4.63 0 0 1 -.56 2.53 2.11 2.11 0 0 1 -1.89.82 2.23 2.23 0 0 1 -1.98-.83z"/><path d="m288.67 467.07a4.55 4.55 0 0 1 -.57-2.53v-9.74a3 3 0 0 1 .62-2.07 2.47 2.47 0 0 1 1.91-.67c1.64 0 2.46.92 2.46 2.77v.06q1.37-3.15 5.54-3.15a4.88 4.88 0 0 1 3.8 1.61 6.42 6.42 0 0 1 1.46 4.47v6.72a4.3 4.3 0 0 1 -.62 2.52 2.29 2.29 0 0 1 -2 .85 2.06 2.06 0 0 1 -1.84-.84 4.55 4.55 0 0 1 -.57-2.53v-6.62a3 3 0 0 0 -.71-2.15 2.43 2.43 0 0 0 -1.84-.75 3 3 0 0 0 -2.3 1 3.56 3.56 0 0 0 -.92 2.54v6a4.22 4.22 0 0 1 -.63 2.52 2.26 2.26 0 0 1 -2 .85 2 2 0 0 1 -1.79-.86z"/></g><path d="m244.24 489.05h-124.74" fill="none" stroke="#b5ccd9" stroke-miterlimit="10" stroke-width="10.97"/><path d="m244.24 509.3h-124.74" fill="none" stroke="#b5ccd9" stroke-miterlimit="10" stroke-width="10.97"/><path d="m244.24 532.08h-124.74" fill="none" stroke="#b5ccd9" stroke-miterlimit="10" stroke-width="10.97"/><path d="m216.14 431.21a54.74 54.74 0 1 1 47.4-27.37 54.9 54.9 0 0 1 -47.4 27.37z" fill="#085680"/><path d="m216.14 329.19a47.26 47.26 0 0 1 40.94 23.64 47.26 47.26 0 0 1 0 47.28 47.28 47.28 0 1 1 -40.94-70.92m0-14.91a62.2 62.2 0 1 0 53.86 31.1 62.37 62.37 0 0 0 -53.86-31.1z" fill="#fff"/><path d="m205.96 345.93h20.36v61.08h-20.36z" fill="#fff" transform="matrix(0 1 -1 0 592.61 160.34)"/><path d="m205.96 345.93h20.36v61.08h-20.36z" fill="#fff" transform="matrix(-1 0 0 -1 432.28 752.95)"/><path d="m216.14 189.41h-83.64v19.14l-21.8 73.79a204.36 204.36 0 0 0 -8.38 57.93v239.93a47.85 47.85 0 0 0 47.85 47.85h66z" fill="#f0f4f0"/><path d="m118 69h196.27v122.79h-196.27z" fill="#fff"/><path d="m118 69h50.85v122.79h-50.85z" fill="#ededed"/><path d="m522.62 434h-200.5l17.55 192.56h165.4z" fill="#fff" opacity=".9"/><path d="m522.62 434h-200.5l2.14 25.35h195.86z" fill="#f0f4f0"/><rect fill="#fff" height="19.09" rx="9.54" width="211.27" x="316.73" y="426.26"/><path d="m770.67 626.09h419.4" fill="none" stroke="#b5ccd9" stroke-linecap="round" stroke-miterlimit="10" stroke-width="61.16"/><path d="m991.62 282.34-21.8-73.79h-.09v-19.14h-167.18v19.14l-21.81 73.79a204.72 204.72 0 0 0 -8.38 57.93v239.93a47.85 47.85 0 0 0 47.86 47.85h131.92a47.85 47.85 0 0 0 47.86-47.85v-239.93a204.36 204.36 0 0 0 -8.38-57.93z" fill="#f0f4f0"/><path d="m959.94 245.71 11.49 41.93a256 256 0 0 1 9.11 67.69" fill="none" stroke="#fff" stroke-linecap="round" stroke-miterlimit="10" stroke-width="28.04"/><path d="m802.55 189.41h167.18v19.14h-167.18z" fill="#dadada"/><path d="m772.36 375.12h227.63v184.07h-227.63z" fill="#fff"/><path d="m792.75 466.94a3.38 3.38 0 0 1 -.84-2.3v-14.88q0-.9.06-1.53a6.9 6.9 0 0 1 .29-1.28 2.65 2.65 0 0 1 .63-1.05 3 3 0 0 1 1.09-.66 4.85 4.85 0 0 1 1.67-.25h6.16a19.47 19.47 0 0 1 2.78.18 10 10 0 0 1 2.41.67 5.84 5.84 0 0 1 1.94 1.27 5.66 5.66 0 0 1 1.23 2.05 8.49 8.49 0 0 1 .47 2.95 6.41 6.41 0 0 1 -2.3 5.35 10.32 10.32 0 0 1 -6.53 1.81h-4.08v5.37a3.31 3.31 0 0 1 -.87 2.3 2.66 2.66 0 0 1 -2.06 1 2.63 2.63 0 0 1 -2.05-1zm8.11-11.24a9 9 0 0 0 1.78-.2 3.15 3.15 0 0 0 1.25-.55 2.27 2.27 0 0 0 .8-1.08 5.17 5.17 0 0 0 .25-1.76 3.1 3.1 0 0 0 -.91-2.63 4.82 4.82 0 0 0 -2.9-.68h-3.4v6.9z" fill="#085680"/><path d="m812.74 467.07a4.6 4.6 0 0 1 -.56-2.51v-16.18a4.63 4.63 0 0 1 .56-2.52 2 2 0 0 1 1.84-.84 2.28 2.28 0 0 1 2 .84 4.2 4.2 0 0 1 .62 2.52v16.18a4.17 4.17 0 0 1 -.62 2.51 2.28 2.28 0 0 1 -2 .84 2 2 0 0 1 -1.84-.84z" fill="#085680"/><path d="m820.29 466.82a4.53 4.53 0 0 1 .78-7.23q2.22-1.08 7.82-1.08v-1c0-1.62-.86-2.42-2.57-2.42a12.17 12.17 0 0 0 -4.55 1.13 1.25 1.25 0 0 1 -1.47-.28 1.92 1.92 0 0 1 -.59-1.56 1.52 1.52 0 0 1 .89-1.37 12.61 12.61 0 0 1 2.79-.88 15.66 15.66 0 0 1 3.23-.36 10.13 10.13 0 0 1 2.77.35 6 6 0 0 1 2.16 1.13 4.85 4.85 0 0 1 1.44 2.13 9.34 9.34 0 0 1 .49 3.23v6.73a2.94 2.94 0 0 1 -.48 1.66 1.9 1.9 0 0 1 -1.11.84 2.72 2.72 0 0 1 -1.3 0 1.87 1.87 0 0 1 -1.1-.85 3 3 0 0 1 -.46-1.69v-.3c-.7 2.07-2.4 3.09-5.07 3.07a5.61 5.61 0 0 1 -3.67-1.25zm7.33-2.57a3.74 3.74 0 0 0 1.25-2.87v-.63h-1.52c-.4 0-.83 0-1.29.08a6.48 6.48 0 0 0 -1.06.17 5.22 5.22 0 0 0 -.84.29 1.65 1.65 0 0 0 -.64.44 1.75 1.75 0 0 0 -.35.63 2.24 2.24 0 0 0 -.12.85 2.17 2.17 0 0 0 .54 1.42 2.11 2.11 0 0 0 1.44.65 3.39 3.39 0 0 0 2.59-1.03z" fill="#085680"/><path d="m840.48 467.6a8.38 8.38 0 0 1 -2.61-1.46 6.74 6.74 0 0 1 -1.87-2.57 9.17 9.17 0 0 1 -.69-3.65 8.25 8.25 0 0 1 1.1-4.24 7.59 7.59 0 0 1 3-2.9 8.82 8.82 0 0 1 4.27-1 9.55 9.55 0 0 1 2.88.42 5.9 5.9 0 0 1 2.1 1.08 2.19 2.19 0 0 1 .67 1 2 2 0 0 1 0 1.07 2.36 2.36 0 0 1 -.44.9 1.2 1.2 0 0 1 -.83.47 1.76 1.76 0 0 1 -1.07-.21 5.62 5.62 0 0 0 -2.9-.72 3.93 3.93 0 0 0 -2.71 1.1 4.21 4.21 0 0 0 -1 3.07 5.51 5.51 0 0 0 .36 2 3.36 3.36 0 0 0 1.23 1.53 3.56 3.56 0 0 0 2.12.61 6.55 6.55 0 0 0 3-.75 1.86 1.86 0 0 1 1.08-.19 1.28 1.28 0 0 1 .82.52 2.82 2.82 0 0 1 .45 1 2 2 0 0 1 0 1.11 2.21 2.21 0 0 1 -.69 1 5.69 5.69 0 0 1 -2.21 1 12 12 0 0 1 -3 .38 9.08 9.08 0 0 1 -3.06-.57z" fill="#085680"/><path d="m854.57 467.21a6.81 6.81 0 0 1 -3-2.76 8.65 8.65 0 0 1 -1.13-4.53 8.33 8.33 0 0 1 1-4.15 7.48 7.48 0 0 1 2.92-2.93 9.52 9.52 0 0 1 7.72-.45 5.6 5.6 0 0 1 2.3 1.69 7.43 7.43 0 0 1 1.27 2.43 10.49 10.49 0 0 1 .44 2.95c0 .86-.54 1.29-1.6 1.29h-9.13c.12 2.56 1.49 3.84 4.13 3.84a5.49 5.49 0 0 0 2.14-.43 6.46 6.46 0 0 0 1.81-1.07 1.27 1.27 0 0 1 1.3-.06 1.82 1.82 0 0 1 .94 1.21 1.36 1.36 0 0 1 -.34 1.47 11.26 11.26 0 0 1 -1 .81 14.72 14.72 0 0 1 -1.28.75 7.64 7.64 0 0 1 -1.84.62 11.66 11.66 0 0 1 -2.29.21 10.13 10.13 0 0 1 -4.36-.89zm7.35-8.74a5.38 5.38 0 0 0 -.82-2.81 2.64 2.64 0 0 0 -2.33-1 2.93 2.93 0 0 0 -2.4 1.06 4.67 4.67 0 0 0 -1 2.74z" fill="#085680"/><path d="m872.83 465.27v.18a2.49 2.49 0 0 1 -.64 1.78 2.29 2.29 0 0 1 -1.8.7 2.15 2.15 0 0 1 -1.91-.95 4.61 4.61 0 0 1 -.64-2.63v-16a4.61 4.61 0 0 1 .56-2.52 2.07 2.07 0 0 1 1.84-.84 2.29 2.29 0 0 1 2 .84 4.22 4.22 0 0 1 .62 2.52v6.25a4.34 4.34 0 0 1 1.92-2 6.38 6.38 0 0 1 3.09-.72 7.33 7.33 0 0 1 2.71.5 6.47 6.47 0 0 1 2.23 1.47 6.69 6.69 0 0 1 1.54 2.55 10.6 10.6 0 0 1 .56 3.56 8.85 8.85 0 0 1 -1.91 6.12 6.3 6.3 0 0 1 -4.92 2.13q-3.89 0-5.25-2.94zm5.41-.6a3 3 0 0 0 1.1-1.19 6.69 6.69 0 0 0 .57-1.59 7.78 7.78 0 0 0 .19-1.76 6.45 6.45 0 0 0 -.91-3.65 3 3 0 0 0 -2.69-1.35 3.19 3.19 0 0 0 -2.69 1.24 6.06 6.06 0 0 0 -.95 3.7q0 5.06 3.71 5.05a3 3 0 0 0 1.67-.45z" fill="#085680"/><path d="m888.35 465.87a8 8 0 0 1 -2.24-5.91 9.13 9.13 0 0 1 .54-3.19 7.84 7.84 0 0 1 1.57-2.6 7 7 0 0 1 2.73-1.78 10.62 10.62 0 0 1 3.82-.65 8.75 8.75 0 0 1 6.42 2.25 8 8 0 0 1 2.27 6 9.06 9.06 0 0 1 -.54 3.17 7.57 7.57 0 0 1 -1.6 2.58 7.15 7.15 0 0 1 -2.73 1.75 10.59 10.59 0 0 1 -3.82.64 8.69 8.69 0 0 1 -6.42-2.26zm9-2.33a6.22 6.22 0 0 0 .9-3.58 6.34 6.34 0 0 0 -.9-3.66 3.33 3.33 0 0 0 -5.25 0 6.43 6.43 0 0 0 -.89 3.66 6.19 6.19 0 0 0 .9 3.56 3.29 3.29 0 0 0 5.24 0z" fill="#085680"/><path d="m914.28 489.05h-124.74" fill="none" stroke="#b5ccd9" stroke-miterlimit="10" stroke-width="10.97"/><path d="m914.28 509.3h-124.74" fill="none" stroke="#b5ccd9" stroke-miterlimit="10" stroke-width="10.97"/><path d="m914.28 532.08h-124.74" fill="none" stroke="#b5ccd9" stroke-miterlimit="10" stroke-width="10.97"/><path d="m886.18 431.21a54.74 54.74 0 1 1 47.41-27.37 54.88 54.88 0 0 1 -47.41 27.37z" fill="#085680"/><path d="m886.18 329.19a47.28 47.28 0 1 1 -40.94 23.64 47.29 47.29 0 0 1 40.94-23.64m0-14.91a62.2 62.2 0 1 0 53.87 31.1 62.34 62.34 0 0 0 -53.87-31.1z" fill="#fff"/><path d="m876 345.93h20.36v61.08h-20.36z" fill="#fff" transform="matrix(0 1 -1 0 1262.65 -509.71)"/><path d="m876 345.93h20.36v61.08h-20.36z" fill="#fff" transform="matrix(-1 0 0 -1 1772.36 752.95)"/><path d="m886.18 189.41h-83.63v19.14l-21.81 73.79a204.72 204.72 0 0 0 -8.38 57.93v239.93a47.85 47.85 0 0 0 47.86 47.85h66z" fill="#f0f4f0"/><path d="m788.05 69h196.27v122.79h-196.27z" fill="#fff"/><path d="m788.05 69h50.85v122.79h-50.85z" fill="#ededed"/><path d="m1192.66 434h-200.5l17.55 192.56h165.4z" fill="#fff" opacity=".9"/><path d="m1192.66 434h-200.5l2.14 25.35h195.86z" fill="#f0f4f0"/><rect fill="#fff" height="19.09" rx="9.54" width="211.27" x="986.78" y="426.26"/></svg>