<svg viewBox="0 0 550 420" xmlns="http://www.w3.org/2000/svg"><circle cx="275" cy="210" fill="#085680" r="200"/><path d="m166.03 329.77h221.47" fill="none" stroke="#b5ccd9" stroke-linecap="round" stroke-miterlimit="10" stroke-width="29.48"/><path d="m289.94 132-12.59-42.65h-.05v-11.06h-96.6v11.06l-12.6 42.65a118.24 118.24 0 0 0 -4.84 33.48v138.61a27.65 27.65 0 0 0 27.65 27.65h76.23a27.65 27.65 0 0 0 27.65-27.65v-138.63a117.89 117.89 0 0 0 -4.85-33.46z" fill="#f0f4f0"/><path d="m271.64 110.82 6.64 24.23a148.13 148.13 0 0 1 5.27 39.11" fill="none" stroke="#fff" stroke-linecap="round" stroke-miterlimit="10" stroke-width="8.72"/><path d="m180.7 78.29h96.6v11.06h-96.6z" fill="#dadada"/><path d="m163.26 185.59h131.53v106.36h-131.53z" fill="#ffdc7c"/><path d="m229 198.94a39.3 39.3 0 0 0 -34 19.66 39.3 39.3 0 0 0 0 39.3 39.3 39.3 0 0 0 34 19.66 39.28 39.28 0 0 0 34-19.66 39.25 39.25 0 0 0 0-39.3 39.28 39.28 0 0 0 -34-19.66z" fill="#fff"/><path d="m220.56 212.86h16.93v50.78h-16.93z" fill="#ffdc7c" transform="matrix(0 1 -1 0 467.27 9.23)"/><path d="m220.56 212.86h16.93v50.78h-16.93z" fill="#ffdc7c" transform="matrix(-1 0 0 -1 458.04 476.5)"/><path d="m229 78.29h-48.3v11.06l-12.6 42.65a118.24 118.24 0 0 0 -4.84 33.48v138.61a27.65 27.65 0 0 0 27.65 27.65h38.09z" fill="#f0f4f0"/><path d="m172.32 8.71h113.41v70.95h-113.41z" fill="#fff"/><path d="m172.32 8.71h40.38v70.95h-40.38z" fill="#f0f4f0"/><path d="m393.81 224.78h-110.33l9.66 105.96h91.01z" fill="#fff" opacity=".9"/><path d="m393.81 224.78h-110.33l1.18 13.95h107.78z" fill="#f0f4f0"/><rect fill="#fff" height="10.5" rx="5.25" width="116.26" x="280.52" y="220.52"/></svg>