<svg viewBox="0 0 550 420" xmlns="http://www.w3.org/2000/svg"><circle cx="275" cy="210" fill="#085680" r="200"/><path d="m154.96 332.19h242.34" fill="none" stroke="#b5ccd9" stroke-linecap="round" stroke-miterlimit="10" stroke-width="24.09"/><path d="m282.63 133.56-12.63-42.63v-11.06h-96.6v11.06l-12.6 42.63a118.24 118.24 0 0 0 -4.86 33.44v138.67a27.65 27.65 0 0 0 27.65 27.65h76.23a27.65 27.65 0 0 0 27.65-27.65v-138.67a118.24 118.24 0 0 0 -4.84-33.44z" fill="#f0f4f0"/><path d="m264.32 112.4 6.68 24.23a147.66 147.66 0 0 1 5.27 39.11" fill="none" stroke="#fff" stroke-linecap="round" stroke-miterlimit="10" stroke-width="8.72"/><path d="m173.38 79.87h96.6v11.06h-96.6z" fill="#dadada"/><path d="m155.94 187.17h131.53v106.36h-131.53z" fill="#fff"/><g fill="#085680"><path d="m170.24 240.23a2 2 0 0 1 -.48-1.33v-8.84h-2.51a1.3 1.3 0 0 1 -.91-.37 1.18 1.18 0 0 1 -.39-.89 1.16 1.16 0 0 1 .39-.88 1.26 1.26 0 0 1 .91-.37h8.31a1.26 1.26 0 0 1 .91.37 1.19 1.19 0 0 1 .38.89 1.17 1.17 0 0 1 -.38.88 1.26 1.26 0 0 1 -.91.37h-2.45v8.84a1.94 1.94 0 0 1 -.49 1.33 1.54 1.54 0 0 1 -2.38 0z"/><path d="m177.27 238.84v-5.78a1.39 1.39 0 0 1 .3-.92 1.17 1.17 0 0 1 .72-.45 2 2 0 0 1 .85 0 1.25 1.25 0 0 1 .72.47 1.4 1.4 0 0 1 .3.9v.32a3.92 3.92 0 0 1 .32-.65 5.14 5.14 0 0 1 .47-.63 2.23 2.23 0 0 1 .68-.49 1.81 1.81 0 0 1 .83-.19 1.25 1.25 0 0 1 .59.13.91.91 0 0 1 .38.34 1.76 1.76 0 0 1 .18.47 1.25 1.25 0 0 1 0 .51 1.73 1.73 0 0 1 -.2.46 1.09 1.09 0 0 1 -.91.47 2.71 2.71 0 0 0 -1.63.52 1.68 1.68 0 0 0 -.69 1.43v3.15a2.46 2.46 0 0 1 -.33 1.42 1.29 1.29 0 0 1 -1.11.45c-.99.02-1.47-.63-1.47-1.93z"/><path d="m186.07 240.39a4 4 0 0 1 -1.74-1.6 4.92 4.92 0 0 1 -.66-2.62 4.86 4.86 0 0 1 .6-2.4 4.33 4.33 0 0 1 1.69-1.68 4.93 4.93 0 0 1 2.5-.62 5.12 5.12 0 0 1 2 .35 3.28 3.28 0 0 1 1.33 1 4.26 4.26 0 0 1 .73 1.4 5.48 5.48 0 0 1 .25 1.71c0 .49-.3.74-.91.74h-5.28a2.09 2.09 0 0 0 2.38 2.22 3.3 3.3 0 0 0 1.24-.24 4.16 4.16 0 0 0 1.05-.62.72.72 0 0 1 .75 0 1.07 1.07 0 0 1 .54.7.8.8 0 0 1 -.19.85c-.21.18-.41.34-.59.47a7.33 7.33 0 0 1 -.75.43 3.88 3.88 0 0 1 -1.06.36 6.74 6.74 0 0 1 -1.32.12 5.84 5.84 0 0 1 -2.56-.57zm4.25-5.06a3.18 3.18 0 0 0 -.47-1.62 1.54 1.54 0 0 0 -1.35-.57 1.7 1.7 0 0 0 -1.39.61 2.64 2.64 0 0 0 -.55 1.58z"/><path d="m194.15 240.16a2.62 2.62 0 0 1 .45-4.18 11.48 11.48 0 0 1 4.51-.62v-.57c0-.94-.49-1.4-1.48-1.4a7.11 7.11 0 0 0 -2.63.61.73.73 0 0 1 -.85-.16 1.1 1.1 0 0 1 -.34-.9.87.87 0 0 1 .52-.79 7.29 7.29 0 0 1 1.61-.51 8.84 8.84 0 0 1 1.86-.21 5.93 5.93 0 0 1 1.6.2 3.49 3.49 0 0 1 1.25.66 2.85 2.85 0 0 1 .83 1.22 5.48 5.48 0 0 1 .29 1.87v3.89a1.65 1.65 0 0 1 -.27 1 1.06 1.06 0 0 1 -.64.48 1.47 1.47 0 0 1 -.75 0 1.06 1.06 0 0 1 -.63-.49 1.69 1.69 0 0 1 -.27-1v-.15c-.4 1.19-1.38 1.78-2.93 1.77a3.2 3.2 0 0 1 -2.13-.72zm4.23-1.48a2.17 2.17 0 0 0 .72-1.66v-.37h-.88-.74a3.91 3.91 0 0 0 -.64.09 2.84 2.84 0 0 0 -.49.17 1 1 0 0 0 -.37.25 1.18 1.18 0 0 0 -.2.37 1.24 1.24 0 0 0 -.07.49 1.27 1.27 0 0 0 .31.82 1.22 1.22 0 0 0 .84.37 1.91 1.91 0 0 0 1.52-.53z"/><path d="m204.57 240.08a3.85 3.85 0 0 1 -.74-2.65v-3.86h-.55a1 1 0 0 1 -.76-.25 1.07 1.07 0 0 1 -.25-.8.85.85 0 0 1 1-1h.73l.2-1.78c.11-1.12.57-1.68 1.39-1.68s1.12.61 1.12 1.84v1.62h1.11q1 0 1 1a1 1 0 0 1 -.25.74 1 1 0 0 1 -.76.24h-1.06v3.24a3.31 3.31 0 0 0 .28 1.61 1 1 0 0 0 1 .41h.53a.62.62 0 0 1 .45.15.82.82 0 0 1 .26.4 2.22 2.22 0 0 1 .06.51 1 1 0 0 1 -.15.49.76.76 0 0 1 -.38.31 6.16 6.16 0 0 1 -2.1.25 2.81 2.81 0 0 1 -2.13-.79z"/><path d="m210.34 240.3a2.63 2.63 0 0 1 -.33-1.46v-5.34a2.32 2.32 0 0 1 .34-1.41 1.26 1.26 0 0 1 1.09-.46 1.43 1.43 0 0 1 1.08.39 1.5 1.5 0 0 1 .38 1.11v.18a2.52 2.52 0 0 1 1.14-1.38 3.85 3.85 0 0 1 1.93-.46 5 5 0 0 1 .92.07 3.39 3.39 0 0 1 .79.28 1.76 1.76 0 0 1 .68.6 3.2 3.2 0 0 1 .47 1 3.72 3.72 0 0 1 .67-1 2.58 2.58 0 0 1 .84-.61 4.16 4.16 0 0 1 .9-.27 5.9 5.9 0 0 1 1-.07 2.91 2.91 0 0 1 2.19.87 3.48 3.48 0 0 1 .84 2.51v4a2.61 2.61 0 0 1 -.33 1.46 1.25 1.25 0 0 1 -1.11.49c-1 0-1.45-.65-1.45-1.95v-3.85a1.75 1.75 0 0 0 -.4-1.21 1.32 1.32 0 0 0 -1-.46 1.83 1.83 0 0 0 -1.32.53 2 2 0 0 0 -.53 1.48v3.49a2.51 2.51 0 0 1 -.35 1.46 1.26 1.26 0 0 1 -1.12.49c-1 0-1.42-.65-1.42-1.95v-3.63a2.14 2.14 0 0 0 -.39-1.38 1.24 1.24 0 0 0 -1.05-.49 1.89 1.89 0 0 0 -1.33.47 1.7 1.7 0 0 0 -.52 1.34v3.69q0 1.95-1.5 1.95a1.17 1.17 0 0 1 -1.11-.48z"/><path d="m228.73 240.39a4 4 0 0 1 -1.74-1.6 5.39 5.39 0 0 1 -.06-5 4.29 4.29 0 0 1 1.7-1.68 4.9 4.9 0 0 1 2.49-.62 5.12 5.12 0 0 1 2 .35 3.32 3.32 0 0 1 1.34 1 4.45 4.45 0 0 1 .73 1.4 6.14 6.14 0 0 1 .25 1.71c0 .49-.31.74-.92.74h-5.32a2.1 2.1 0 0 0 2.39 2.22 3.28 3.28 0 0 0 1.23-.24 4.16 4.16 0 0 0 1.05-.62.72.72 0 0 1 .75 0 1 1 0 0 1 .55.7.8.8 0 0 1 -.2.85 7.11 7.11 0 0 1 -.59.47 8.25 8.25 0 0 1 -.74.43 4 4 0 0 1 -1.07.36 6.74 6.74 0 0 1 -1.32.12 5.91 5.91 0 0 1 -2.52-.59zm4.25-5.06a3.08 3.08 0 0 0 -.47-1.62 1.54 1.54 0 0 0 -1.35-.57 1.67 1.67 0 0 0 -1.38.61 2.64 2.64 0 0 0 -.56 1.58z"/><path d="m236.74 240.3a2.7 2.7 0 0 1 -.32-1.46v-5.63a1.69 1.69 0 0 1 .36-1.19 1.42 1.42 0 0 1 1.1-.39c1 0 1.42.54 1.42 1.6a3.14 3.14 0 0 1 3.2-1.82 2.82 2.82 0 0 1 2.2.93 3.71 3.71 0 0 1 .84 2.58v3.88a2.46 2.46 0 0 1 -.36 1.46 1.31 1.31 0 0 1 -1.14.49 1.16 1.16 0 0 1 -1.06-.49 2.61 2.61 0 0 1 -.33-1.46v-3.8a1.7 1.7 0 0 0 -.42-1.23 1.39 1.39 0 0 0 -1.06-.44 1.71 1.71 0 0 0 -1.32.58 2.05 2.05 0 0 0 -.54 1.47v3.45a2.46 2.46 0 0 1 -.36 1.46 1.31 1.31 0 0 1 -1.14.49 1.19 1.19 0 0 1 -1.07-.48z"/><path d="m248.26 240.08a3.8 3.8 0 0 1 -.75-2.65v-3.86h-.51a1 1 0 0 1 -.76-.25 1.07 1.07 0 0 1 -.25-.8.85.85 0 0 1 1-1h.79l.2-1.78c.1-1.12.57-1.68 1.38-1.68s1.13.61 1.13 1.84v1.62h1.11c.63 0 .95.34.95 1a1 1 0 0 1 -.24.74 1.08 1.08 0 0 1 -.77.24h-1.05v3.24a3.34 3.34 0 0 0 .27 1.61 1 1 0 0 0 1 .41h.53a.62.62 0 0 1 .45.15.76.76 0 0 1 .26.4 1.49 1.49 0 0 1 .06.51 1 1 0 0 1 -.15.49.72.72 0 0 1 -.38.31 6.16 6.16 0 0 1 -2.1.25 2.77 2.77 0 0 1 -2.17-.79z"/></g><path d="m237.94 253h-72.08" fill="none" stroke="#b5ccd9" stroke-miterlimit="10" stroke-width="3.41"/><path d="m237.94 264.7h-72.08" fill="none" stroke="#b5ccd9" stroke-miterlimit="10" stroke-width="3.41"/><path d="m237.94 277.87h-72.08" fill="none" stroke="#b5ccd9" stroke-miterlimit="10" stroke-width="3.41"/><path d="m221.71 217.59a29.64 29.64 0 1 1 25.66-14.82 29.69 29.69 0 0 1 -25.66 14.82z" fill="#085680"/><path d="m221.71 160.64a27.32 27.32 0 0 1 0 54.64 27.32 27.32 0 0 1 0-54.64zm0-4.64a32 32 0 1 0 27.67 16 32 32 0 0 0 -27.67-16z" fill="#fff"/><path d="m215.82 170.31h11.76v35.29h-11.76z" fill="#fff" transform="matrix(0 1 -1 0 409.66 -33.75)"/><path d="m215.82 170.31h11.76v35.29h-11.76z" fill="#fff" transform="matrix(-1 0 0 -1 443.41 375.91)"/><path d="m221.7 79.87h-48.32v11.06l-12.6 42.63a118.24 118.24 0 0 0 -4.84 33.44v138.67a27.65 27.65 0 0 0 27.65 27.65h38.11z" fill="#f0f4f0"/><path d="m165 10.29h113.41v70.95h-113.41z" fill="#fff"/><path d="m165 10.29h29.38v70.95h-29.38z" fill="#ededed"/><path d="m398.79 221.19h-115.85l10.14 111.27h95.57z" fill="#fff" opacity=".9"/><path d="m398.79 221.19h-115.85l1.24 14.65h113.17z" fill="#f0f4f0"/><rect fill="#fff" height="11.03" rx="5.51" width="122.08" x="279.83" y="216.72"/></svg>