<svg viewBox="0 0 550 350" xmlns="http://www.w3.org/2000/svg"><circle cx="136.56" cy="204.25" fill="#085680" r="135"/><path d="m41.45 268.4h192.01" fill="none" stroke="#b5ccd9" stroke-linecap="round" stroke-miterlimit="10" stroke-width="28"/><path d="m142.61 111-10-33.77v-8.75h-76.61v8.77l-9.94 33.75a93.84 93.84 0 0 0 -3.83 26.53v109.86a21.91 21.91 0 0 0 21.91 21.91h60.39a21.91 21.91 0 0 0 21.91-21.91v-109.84a93.84 93.84 0 0 0 -3.83-26.55z" fill="#f0f4f0"/><path d="m128.1 94.25 5.26 19.2a117.16 117.16 0 0 1 4.18 31" fill="none" stroke="#fff" stroke-linecap="round" stroke-miterlimit="10" stroke-width="12.84"/><path d="m56.04 68.48h76.54v8.76h-76.54z" fill="#dadada"/><path d="m42.23 153.5h104.21v84.27h-104.21z" fill="#fff"/><g fill="#085680"><path d="m53.56 195.54a1.55 1.55 0 0 1 -.38-1.06v-7h-2a1 1 0 0 1 -.72-.29 1 1 0 0 1 0-1.41 1 1 0 0 1 .72-.29h6.58a1 1 0 0 1 .72.29.93.93 0 0 1 .31.71.9.9 0 0 1 -.31.7 1 1 0 0 1 -.72.29h-1.93v7a1.56 1.56 0 0 1 -.39 1.06 1.22 1.22 0 0 1 -1.88 0z"/><path d="m59.13 194.44v-4.58a1.09 1.09 0 0 1 .24-.73.91.91 0 0 1 .57-.36 1.68 1.68 0 0 1 .67 0 1 1 0 0 1 .57.37 1.09 1.09 0 0 1 .24.71v.25a3.44 3.44 0 0 1 .25-.51 3.31 3.31 0 0 1 .38-.5 1.74 1.74 0 0 1 .53-.39 1.52 1.52 0 0 1 .66-.15 1 1 0 0 1 .47.11.67.67 0 0 1 .3.27 1.09 1.09 0 0 1 .14.37.9.9 0 0 1 0 .4 1.51 1.51 0 0 1 -.15.37.85.85 0 0 1 -.72.37 2.09 2.09 0 0 0 -1.29.41 1.32 1.32 0 0 0 -.55 1.13v2.5a2 2 0 0 1 -.26 1.12 1 1 0 0 1 -.89.36c-.78.04-1.16-.49-1.16-1.52z"/><path d="m66.1 195.66a3.11 3.11 0 0 1 -1.38-1.26 3.92 3.92 0 0 1 -.52-2.08 3.8 3.8 0 0 1 .48-1.9 3.36 3.36 0 0 1 1.32-1.33 3.87 3.87 0 0 1 2-.49 4 4 0 0 1 1.56.28 2.53 2.53 0 0 1 1 .77 3.27 3.27 0 0 1 .58 1.11 4.45 4.45 0 0 1 .2 1.35c0 .4-.24.59-.73.59h-4.14a1.66 1.66 0 0 0 1.89 1.76 2.55 2.55 0 0 0 1-.19 3.19 3.19 0 0 0 .83-.49.59.59 0 0 1 .6 0 .82.82 0 0 1 .43.55.61.61 0 0 1 -.22.67 4.9 4.9 0 0 1 -.47.38 6 6 0 0 1 -.58.34 3.39 3.39 0 0 1 -.85.28 4.9 4.9 0 0 1 -1 .1 4.67 4.67 0 0 1 -2-.44zm3.36-4a2.38 2.38 0 0 0 -.37-1.29 1.22 1.22 0 0 0 -1.07-.45 1.33 1.33 0 0 0 -1.09.48 2.13 2.13 0 0 0 -.44 1.26z"/><path d="m72.5 195.48a2.08 2.08 0 0 1 .36-3.31 9.21 9.21 0 0 1 3.57-.49v-.45q0-1.11-1.17-1.11a5.43 5.43 0 0 0 -2.08.52.6.6 0 0 1 -.68-.13.93.93 0 0 1 -.27-.72.71.71 0 0 1 .41-.63 6.28 6.28 0 0 1 1.28-.4 7.12 7.12 0 0 1 1.48-.16 4.43 4.43 0 0 1 1.26.16 2.77 2.77 0 0 1 1 .52 2.15 2.15 0 0 1 .66 1 4.3 4.3 0 0 1 .23 1.48v3.08a1.31 1.31 0 0 1 -.21.76.81.81 0 0 1 -.51.38 1.18 1.18 0 0 1 -.59 0 .87.87 0 0 1 -.51-.39 1.36 1.36 0 0 1 -.21-.77v-.13a2.13 2.13 0 0 1 -2.32 1.41 2.57 2.57 0 0 1 -1.7-.62zm3.36-1.17a1.72 1.72 0 0 0 .57-1.32v-.29h-.7-.59a2.74 2.74 0 0 0 -.51.08 2.4 2.4 0 0 0 -.38.12.88.88 0 0 0 -.3.21 1 1 0 0 0 -.16.29 1 1 0 0 0 -.05.39 1 1 0 0 0 .25.65.93.93 0 0 0 .66.29 1.54 1.54 0 0 0 1.21-.42z"/><path d="m80.76 195.42a3 3 0 0 1 -.58-2.1v-3.06h-.44a.86.86 0 0 1 -.61-.19.88.88 0 0 1 -.19-.64.67.67 0 0 1 .77-.75h.62l.16-1.41c.08-.89.45-1.33 1.09-1.33s.9.48.9 1.45v1.29h.87c.51 0 .76.26.76.8a.79.79 0 0 1 -.19.59.84.84 0 0 1 -.61.19h-.83v2.57a2.73 2.73 0 0 0 .21 1.28.81.81 0 0 0 .79.32h.42a.56.56 0 0 1 .36.12.69.69 0 0 1 .21.32 1.39 1.39 0 0 1 0 .41.7.7 0 0 1 -.11.38.65.65 0 0 1 -.3.25 5 5 0 0 1 -1.67.2 2.26 2.26 0 0 1 -1.63-.69z"/><path d="m85.33 195.59a2.1 2.1 0 0 1 -.26-1.15v-4.24a1.85 1.85 0 0 1 .27-1.11 1 1 0 0 1 .86-.36 1.15 1.15 0 0 1 .86.3 1.22 1.22 0 0 1 .3.88v.15a2 2 0 0 1 .91-1.1 3.05 3.05 0 0 1 1.52-.36 3.91 3.91 0 0 1 .73.06 2.59 2.59 0 0 1 .63.21 1.54 1.54 0 0 1 .54.48 2.83 2.83 0 0 1 .37.8 3 3 0 0 1 .53-.8 2.07 2.07 0 0 1 .67-.48 2.89 2.89 0 0 1 .71-.22 4.65 4.65 0 0 1 .78-.05 2.3 2.3 0 0 1 1.74.69 2.77 2.77 0 0 1 .67 2v3.16a2 2 0 0 1 -.27 1.16 1 1 0 0 1 -.89.39c-.76 0-1.15-.51-1.15-1.54v-3a1.37 1.37 0 0 0 -.32-1 1 1 0 0 0 -.81-.36 1.42 1.42 0 0 0 -1 .42 1.58 1.58 0 0 0 -.42 1.17v2.77a2 2 0 0 1 -.3 1.14 1 1 0 0 1 -.88.38c-.76 0-1.14-.51-1.14-1.54v-2.87a1.74 1.74 0 0 0 -.3-1.1 1 1 0 0 0 -.84-.39 1.48 1.48 0 0 0 -1 .37 1.37 1.37 0 0 0 -.41 1.06v2.93c0 1-.39 1.54-1.19 1.54a.93.93 0 0 1 -.91-.39z"/><path d="m99.9 195.66a3.22 3.22 0 0 1 -1.38-1.26 4 4 0 0 1 -.51-2.08 3.91 3.91 0 0 1 .47-1.9 3.36 3.36 0 0 1 1.34-1.33 4.32 4.32 0 0 1 3.53-.21 2.5 2.5 0 0 1 1.06.77 3.46 3.46 0 0 1 .58 1.11 5.17 5.17 0 0 1 .2 1.35c0 .4-.25.59-.73.59h-4.18a1.65 1.65 0 0 0 1.89 1.76 2.59 2.59 0 0 0 1-.19 3.56 3.56 0 0 0 .83-.49.57.57 0 0 1 .59 0 .82.82 0 0 1 .43.55.62.62 0 0 1 -.15.67c-.17.15-.32.27-.47.38s-.35.21-.59.34a3.19 3.19 0 0 1 -.84.28 4.93 4.93 0 0 1 -1 .1 4.7 4.7 0 0 1 -2.07-.44zm3.37-4a2.57 2.57 0 0 0 -.37-1.29 1.23 1.23 0 0 0 -1.07-.45 1.35 1.35 0 0 0 -1.1.48 2.19 2.19 0 0 0 -.44 1.26z"/><path d="m106.25 195.6a2.14 2.14 0 0 1 -.26-1.16v-4.44a1.37 1.37 0 0 1 .29-.95 1.15 1.15 0 0 1 .87-.3c.75 0 1.13.42 1.13 1.26a2.48 2.48 0 0 1 2.54-1.44 2.26 2.26 0 0 1 1.74.74 2.94 2.94 0 0 1 .66 2v3.08a1.93 1.93 0 0 1 -.28 1.15 1 1 0 0 1 -.91.39.94.94 0 0 1 -.84-.38 2.14 2.14 0 0 1 -.26-1.16v-3a1.35 1.35 0 0 0 -.33-1 1.12 1.12 0 0 0 -.84-.35 1.37 1.37 0 0 0 -1.05.46 1.64 1.64 0 0 0 -.42 1.16v2.74a1.93 1.93 0 0 1 -.29 1.15 1 1 0 0 1 -.9.39 1 1 0 0 1 -.85-.34z"/><path d="m115.37 195.42a3 3 0 0 1 -.58-2.1v-3.06h-.44a.86.86 0 0 1 -.61-.19.88.88 0 0 1 -.19-.64.67.67 0 0 1 .77-.75h.62l.16-1.41c.08-.89.45-1.33 1.09-1.33s.9.48.9 1.45v1.29h.91c.51 0 .76.26.76.8a.79.79 0 0 1 -.19.59.84.84 0 0 1 -.61.19h-.83v2.57a2.73 2.73 0 0 0 .21 1.28.81.81 0 0 0 .79.32h.42a.56.56 0 0 1 .36.12.69.69 0 0 1 .21.32 1.39 1.39 0 0 1 0 .41.7.7 0 0 1 -.11.38.65.65 0 0 1 -.3.25 5 5 0 0 1 -1.67.2 2.28 2.28 0 0 1 -1.67-.69z"/></g><path d="m107.2 205.66h-57.11" fill="none" stroke="#b5ccd9" stroke-miterlimit="10" stroke-width="5.02"/><path d="m107.2 214.93h-57.11" fill="none" stroke="#b5ccd9" stroke-miterlimit="10" stroke-width="5.02"/><path d="m107.2 225.36h-57.11" fill="none" stroke="#b5ccd9" stroke-miterlimit="10" stroke-width="5.02"/><path d="m94.33 179.18a25.06 25.06 0 1 1 21.67-12.53 25.13 25.13 0 0 1 -21.67 12.53z" fill="#085680"/><path d="m94.34 132.48a21.64 21.64 0 1 1 -18.75 10.82 21.64 21.64 0 0 1 18.75-10.82m0-6.83a28.47 28.47 0 1 0 24.66 14.23 28.54 28.54 0 0 0 -24.65-14.23z" fill="#fff"/><path d="m89.67 140.14h9.32v27.96h-9.32z" fill="#fff" transform="matrix(0 1 -1 0 248.46 59.79)"/><path d="m89.67 140.14h9.32v27.96h-9.32z" fill="#fff" transform="matrix(-1 0 0 -1 188.67 308.24)"/><path d="m94.33 68.48h-38.33v8.77l-9.94 33.75a93.84 93.84 0 0 0 -3.83 26.53v109.86a21.91 21.91 0 0 0 21.91 21.91h30.19z" fill="#f0f4f0"/><path d="m49.41 13.35h89.86v56.22h-89.86z" fill="#fff"/><path d="m49.41 13.35h23.28v56.22h-23.28z" fill="#ededed"/><path d="m234.65 180.46h-91.8l8.04 88.16h75.72z" fill="#fff" opacity=".9"/><path d="m234.65 180.46h-91.8l.98 11.6h89.67z" fill="#f0f4f0"/><rect fill="#fff" height="8.74" rx="4.37" width="96.72" x="140.39" y="176.91"/><circle cx="411.04" cy="204.25" fill="#129294" r="135"/><path d="m315.92 268.4h192.01" fill="none" stroke="#b5ccd9" stroke-linecap="round" stroke-miterlimit="10" stroke-width="28"/><path d="m417.08 111-10-33.77v-8.75h-76.56v8.77l-10 33.77a93.49 93.49 0 0 0 -3.84 26.53v109.84a21.91 21.91 0 0 0 21.91 21.91h60.41a21.91 21.91 0 0 0 21.91-21.91v-109.84a93.85 93.85 0 0 0 -3.83-26.55z" fill="#f0f4f0"/><path d="m402.57 94.25 5.27 19.2a117.15 117.15 0 0 1 4.17 31" fill="none" stroke="#fff" stroke-linecap="round" stroke-miterlimit="10" stroke-width="12.84"/><path d="m330.52 68.48h76.54v8.76h-76.54z" fill="#dadada"/><path d="m316.7 153.5h104.21v84.27h-104.21z" fill="#fff"/><path d="m326 195.54a1.55 1.55 0 0 1 -.38-1.06v-6.81c0-.27 0-.5 0-.7a2.53 2.53 0 0 1 .13-.58 1.25 1.25 0 0 1 .29-.49 1.27 1.27 0 0 1 .5-.29 2.13 2.13 0 0 1 .76-.12h2.82a9.7 9.7 0 0 1 1.27.08 4.83 4.83 0 0 1 1.11.31 2.65 2.65 0 0 1 .88.58 2.57 2.57 0 0 1 .57.94 3.91 3.91 0 0 1 .21 1.35 2.93 2.93 0 0 1 -1.05 2.45 4.75 4.75 0 0 1 -3 .83h-1.87v2.45a1.56 1.56 0 0 1 -.39 1.06 1.22 1.22 0 0 1 -.95.44 1.2 1.2 0 0 1 -.9-.44zm3.72-5.15a4.33 4.33 0 0 0 .81-.09 1.34 1.34 0 0 0 .57-.25 1 1 0 0 0 .37-.5 2.57 2.57 0 0 0 .11-.8 1.46 1.46 0 0 0 -.41-1.21 2.31 2.31 0 0 0 -1.33-.31h-1.56v3.16z" fill="#085680"/><path d="m335.18 195.6a2.11 2.11 0 0 1 -.25-1.15v-7.45a2.11 2.11 0 0 1 .25-1.15.93.93 0 0 1 .84-.39 1 1 0 0 1 .91.39 1.93 1.93 0 0 1 .28 1.15v7.41a1.93 1.93 0 0 1 -.28 1.15 1.07 1.07 0 0 1 -.91.38.94.94 0 0 1 -.84-.34z" fill="#085680"/><path d="m338.64 195.48a2.08 2.08 0 0 1 .36-3.31 9.23 9.23 0 0 1 3.58-.49v-.45c0-.74-.4-1.11-1.18-1.11a5.43 5.43 0 0 0 -2.08.52.6.6 0 0 1 -.68-.13.93.93 0 0 1 -.27-.72.71.71 0 0 1 .41-.63 6.49 6.49 0 0 1 1.28-.4 7.12 7.12 0 0 1 1.48-.16 4.5 4.5 0 0 1 1.27.16 2.64 2.64 0 0 1 1 .52 2.15 2.15 0 0 1 .66 1 4.3 4.3 0 0 1 .23 1.48v3.08a1.31 1.31 0 0 1 -.21.76.81.81 0 0 1 -.51.38 1.18 1.18 0 0 1 -.59 0 .87.87 0 0 1 -.51-.39 1.36 1.36 0 0 1 -.21-.77v-.13a2.13 2.13 0 0 1 -2.32 1.41 2.57 2.57 0 0 1 -1.71-.62zm3.36-1.17a1.72 1.72 0 0 0 .57-1.32v-.29h-.7-.59a2.74 2.74 0 0 0 -.51.08 2.78 2.78 0 0 0 -.38.12.75.75 0 0 0 -.29.21 1 1 0 0 0 -.17.29 1.15 1.15 0 0 0 -.05.39 1 1 0 0 0 .25.65.93.93 0 0 0 .66.29 1.53 1.53 0 0 0 1.21-.42z" fill="#085680"/><path d="m347.88 195.84a3.69 3.69 0 0 1 -1.19-.67 3.12 3.12 0 0 1 -.86-1.18 4.18 4.18 0 0 1 -.31-1.67 3.81 3.81 0 0 1 .5-1.94 3.6 3.6 0 0 1 1.38-1.33 4.11 4.11 0 0 1 2-.47 4.68 4.68 0 0 1 1.32.19 2.62 2.62 0 0 1 1 .5.92.92 0 0 1 .3.45.83.83 0 0 1 0 .49 1.3 1.3 0 0 1 -.2.41.58.58 0 0 1 -.38.21.84.84 0 0 1 -.5-.09 2.55 2.55 0 0 0 -1.32-.34 1.79 1.79 0 0 0 -1.24.51 1.92 1.92 0 0 0 -.46 1.41 2.43 2.43 0 0 0 .17.92 1.52 1.52 0 0 0 .56.7 1.63 1.63 0 0 0 1 .28 3 3 0 0 0 1.37-.34.79.79 0 0 1 .49-.08.55.55 0 0 1 .38.23 1.46 1.46 0 0 1 .2.44.89.89 0 0 1 0 .51 1 1 0 0 1 -.32.46 2.72 2.72 0 0 1 -1 .46 5.67 5.67 0 0 1 -1.38.17 4.33 4.33 0 0 1 -1.51-.23z" fill="#085680"/><path d="m354.33 195.66a3.22 3.22 0 0 1 -1.33-1.26 4 4 0 0 1 -.51-2.08 3.8 3.8 0 0 1 .47-1.9 3.36 3.36 0 0 1 1.34-1.33 4.32 4.32 0 0 1 3.53-.21 2.5 2.5 0 0 1 1.06.77 3.46 3.46 0 0 1 .58 1.11 4.79 4.79 0 0 1 .19 1.35c0 .4-.24.59-.72.59h-4.18a1.65 1.65 0 0 0 1.89 1.76 2.5 2.5 0 0 0 1-.19 3.19 3.19 0 0 0 .83-.49.59.59 0 0 1 .6 0 .82.82 0 0 1 .43.55.62.62 0 0 1 -.15.67c-.17.15-.32.27-.47.38s-.35.21-.59.34a3.19 3.19 0 0 1 -.84.28 4.93 4.93 0 0 1 -1.05.1 4.67 4.67 0 0 1 -2.08-.44zm3.37-4a2.57 2.57 0 0 0 -.37-1.29 1.23 1.23 0 0 0 -1.07-.45 1.35 1.35 0 0 0 -1.1.48 2.19 2.19 0 0 0 -.44 1.26z" fill="#085680"/><path d="m362.69 194.77v.09a1.12 1.12 0 0 1 -.29.81 1.06 1.06 0 0 1 -.82.32 1 1 0 0 1 -.88-.43 2.19 2.19 0 0 1 -.29-1.21v-7.35a2 2 0 0 1 .26-1.16.93.93 0 0 1 .84-.39 1 1 0 0 1 .9.39 1.89 1.89 0 0 1 .29 1.16v2.86a2 2 0 0 1 .88-.92 3 3 0 0 1 1.41-.32 3.37 3.37 0 0 1 1.24.22 3 3 0 0 1 1 .68 3 3 0 0 1 .71 1.16 4.85 4.85 0 0 1 .25 1.63 4.09 4.09 0 0 1 -.87 2.81 2.87 2.87 0 0 1 -2.25 1 2.39 2.39 0 0 1 -2.38-1.35zm2.48-.27a1.32 1.32 0 0 0 .5-.55 3 3 0 0 0 .27-.72 4.28 4.28 0 0 0 .08-.81 2.93 2.93 0 0 0 -.42-1.67 1.39 1.39 0 0 0 -1.23-.62 1.46 1.46 0 0 0 -1.23.57 2.75 2.75 0 0 0 -.43 1.69c0 1.55.56 2.32 1.7 2.32a1.38 1.38 0 0 0 .76-.21z" fill="#085680"/><path d="m369.8 195.05a3.66 3.66 0 0 1 -1-2.71 4.34 4.34 0 0 1 .24-1.46 3.79 3.79 0 0 1 .72-1.19 3.26 3.26 0 0 1 1.25-.81 4.79 4.79 0 0 1 1.75-.3 4 4 0 0 1 2.94 1 3.66 3.66 0 0 1 1 2.73 4.07 4.07 0 0 1 -.25 1.46 3.55 3.55 0 0 1 -.73 1.17 3.26 3.26 0 0 1 -1.25.81 5 5 0 0 1 -1.75.29 4 4 0 0 1 -2.92-.99zm4.14-1.07a2.78 2.78 0 0 0 .42-1.64 2.84 2.84 0 0 0 -.42-1.67 1.52 1.52 0 0 0 -2.4 0 2.92 2.92 0 0 0 -.41 1.67 2.87 2.87 0 0 0 .41 1.63 1.51 1.51 0 0 0 2.4 0z" fill="#085680"/><path d="m381.67 205.66h-57.11" fill="none" stroke="#b5ccd9" stroke-miterlimit="10" stroke-width="5.02"/><path d="m381.67 214.93h-57.11" fill="none" stroke="#b5ccd9" stroke-miterlimit="10" stroke-width="5.02"/><path d="m381.67 225.36h-57.11" fill="none" stroke="#b5ccd9" stroke-miterlimit="10" stroke-width="5.02"/><path d="m368.81 179.18a25.06 25.06 0 1 1 21.7-12.53 25.11 25.11 0 0 1 -21.7 12.53z" fill="#085680"/><path d="m368.81 132.48a21.64 21.64 0 1 1 -18.75 10.82 21.62 21.62 0 0 1 18.75-10.82m0-6.83a28.47 28.47 0 1 0 24.66 14.23 28.55 28.55 0 0 0 -24.66-14.23z" fill="#fff"/><path d="m364.15 140.14h9.32v27.96h-9.32z" fill="#fff" transform="matrix(0 1 -1 0 522.93 -214.69)"/><path d="m364.15 140.14h9.32v27.96h-9.32z" fill="#fff" transform="matrix(-1 0 0 -1 737.62 308.24)"/><path d="m368.81 68.48h-38.29v8.77l-10 33.77a93.49 93.49 0 0 0 -3.84 26.53v109.84a21.91 21.91 0 0 0 21.91 21.91h30.2z" fill="#f0f4f0"/><path d="m323.88 13.35h89.86v56.22h-89.86z" fill="#fff"/><path d="m323.88 13.35h23.28v56.22h-23.28z" fill="#ededed"/><path d="m509.12 180.46h-91.79l8.03 88.16h75.72z" fill="#fff" opacity=".9"/><path d="m509.12 180.46h-91.79l.98 11.6h89.67z" fill="#f0f4f0"/><rect fill="#fff" height="8.74" rx="4.37" width="96.72" x="414.86" y="176.91"/></svg>