<svg viewBox="0 0 550 220" xmlns="http://www.w3.org/2000/svg"><circle cx="160.75" cy="110.1" fill="#085680" r="107.62"/><path d="m96.16 175.84h130.4" fill="none" stroke="#b5ccd9" stroke-linecap="round" stroke-miterlimit="10" stroke-width="24.09"/><path d="m164.85 69-6.77-23v-6h-52v6l-6.79 23a63.47 63.47 0 0 0 -2.6 18v74.6a14.87 14.87 0 0 0 14.87 14.87h41a14.88 14.88 0 0 0 14.88-14.87v-74.6a63.48 63.48 0 0 0 -2.59-18z" fill="#f0f4f0"/><path d="m155 57.58 3.58 13a79.57 79.57 0 0 1 2.83 21" fill="none" stroke="#fff" stroke-linecap="round" stroke-miterlimit="10" stroke-width="8.72"/><path d="m106.07 40.08h51.98v5.95h-51.98z" fill="#dadada"/><path d="m96.69 97.82h70.77v57.23h-70.77z" fill="#fff"/><g fill="#085680"><path d="m104.38 126.37a1.1 1.1 0 0 1 -.26-.72v-4.76h-1.34a.72.72 0 0 1 -.5-.2.66.66 0 0 1 0-1 .72.72 0 0 1 .5-.2h4.46a.68.68 0 0 1 .49.2.63.63 0 0 1 .21.48.61.61 0 0 1 -.21.47.64.64 0 0 1 -.49.2h-1.31v4.76a1.06 1.06 0 0 1 -.27.72.83.83 0 0 1 -1.28 0z"/><path d="m108.16 125.62v-3.11a.76.76 0 0 1 .17-.5.63.63 0 0 1 .38-.24 1.18 1.18 0 0 1 .46 0 .7.7 0 0 1 .39.25.76.76 0 0 1 .16.49v.17a2.26 2.26 0 0 1 .17-.35 2 2 0 0 1 .26-.34 1 1 0 0 1 .36-.26 1 1 0 0 1 .44-.11.66.66 0 0 1 .32.08.38.38 0 0 1 .21.18.68.68 0 0 1 .09.25.5.5 0 0 1 0 .27.93.93 0 0 1 -.1.25.55.55 0 0 1 -.21.19.64.64 0 0 1 -.28.07 1.46 1.46 0 0 0 -.88.27.9.9 0 0 0 -.37.77v1.7a1.29 1.29 0 0 1 -.18.76.71.71 0 0 1 -.6.25q-.79.01-.79-1.04z"/><path d="m112.9 126.45a2.16 2.16 0 0 1 -.94-.86 2.73 2.73 0 0 1 -.35-1.41 2.62 2.62 0 0 1 .32-1.29 2.41 2.41 0 0 1 .91-.91 2.7 2.7 0 0 1 1.35-.33 2.62 2.62 0 0 1 1 .19 1.78 1.78 0 0 1 .72.53 2.43 2.43 0 0 1 .39.75 3.35 3.35 0 0 1 .14.92c0 .27-.17.4-.5.4h-2.84a1.13 1.13 0 0 0 1.29 1.19 1.69 1.69 0 0 0 .66-.13 2.18 2.18 0 0 0 .56-.33.4.4 0 0 1 .41 0 .55.55 0 0 1 .29.38.43.43 0 0 1 -.1.45 3.14 3.14 0 0 1 -.32.25l-.4.24a2.93 2.93 0 0 1 -.57.19 4 4 0 0 1 -.72.06 3.19 3.19 0 0 1 -1.3-.29zm2.28-2.72a1.58 1.58 0 0 0 -.25-.87.82.82 0 0 0 -.73-.31.91.91 0 0 0 -.74.33 1.43 1.43 0 0 0 -.3.85z"/><path d="m117.24 126.33a1.27 1.27 0 0 1 -.45-1 1.25 1.25 0 0 1 .7-1.25 6.18 6.18 0 0 1 2.43-.34v-.3c0-.51-.27-.76-.8-.76a3.89 3.89 0 0 0 -1.42.35.37.37 0 0 1 -.45-.08.59.59 0 0 1 -.19-.49.47.47 0 0 1 .28-.42 4.24 4.24 0 0 1 .87-.28 5.18 5.18 0 0 1 1-.11 3.21 3.21 0 0 1 .86.11 1.79 1.79 0 0 1 .67.35 1.44 1.44 0 0 1 .45.66 3 3 0 0 1 .16 1v2.09a.89.89 0 0 1 -.15.52.61.61 0 0 1 -.34.26.77.77 0 0 1 -.4 0 .58.58 0 0 1 -.35-.26 1 1 0 0 1 -.14-.53v-.08a1.45 1.45 0 0 1 -1.57 1 1.77 1.77 0 0 1 -1.16-.44zm2.28-.8a1.17 1.17 0 0 0 .39-.9v-.19h-.47-.4-.35l-.26.09a.78.78 0 0 0 -.2.14.75.75 0 0 0 -.11.2.69.69 0 0 0 0 .26.6.6 0 0 0 .17.44.59.59 0 0 0 .44.2 1 1 0 0 0 .79-.24z"/><path d="m122.86 126.28a2 2 0 0 1 -.4-1.42v-2.08h-.3a.56.56 0 0 1 -.41-.13.58.58 0 0 1 -.13-.43.46.46 0 0 1 .52-.52h.42l.11-1c.06-.6.31-.91.74-.91s.61.33.61 1v.87h.6c.34 0 .51.19.51.55a.54.54 0 0 1 -.13.4.56.56 0 0 1 -.41.13h-.59v1.74a1.77 1.77 0 0 0 .15.87.53.53 0 0 0 .53.22h.29a.41.41 0 0 1 .24.08.4.4 0 0 1 .14.22.65.65 0 0 1 0 .28.5.5 0 0 1 -.08.26.42.42 0 0 1 -.2.17 3.35 3.35 0 0 1 -1.13.13 1.49 1.49 0 0 1 -1.08-.43z"/><path d="m126 126.4a1.38 1.38 0 0 1 -.18-.78v-2.88a1.31 1.31 0 0 1 .18-.74.71.71 0 0 1 .59-.24.76.76 0 0 1 .58.21.77.77 0 0 1 .21.59v.1a1.36 1.36 0 0 1 .61-.74 2 2 0 0 1 1-.25 2.37 2.37 0 0 1 .49 0 1.69 1.69 0 0 1 .43.15 1.11 1.11 0 0 1 .37.32 2.25 2.25 0 0 1 .25.54 2.12 2.12 0 0 1 .36-.54 1.58 1.58 0 0 1 .45-.33 1.92 1.92 0 0 1 .49-.14 2.75 2.75 0 0 1 .52 0 1.6 1.6 0 0 1 1.19.47 1.87 1.87 0 0 1 .45 1.35v2.15a1.36 1.36 0 0 1 -.18.78.67.67 0 0 1 -.6.27q-.78 0-.78-1v-2.06a1 1 0 0 0 -.21-.66.74.74 0 0 0 -.56-.24 1 1 0 0 0 -.71.28 1.09 1.09 0 0 0 -.29.8v1.88a1.36 1.36 0 0 1 -.18.78.7.7 0 0 1 -.61.27c-.51 0-.76-.35-.76-1v-2a1.16 1.16 0 0 0 -.21-.75.7.7 0 0 0 -.57-.26 1 1 0 0 0 -.72.25.94.94 0 0 0 -.27.72v2q0 1-.81 1a.62.62 0 0 1 -.53-.3z"/><path d="m135.86 126.45a2.11 2.11 0 0 1 -.94-.86 2.64 2.64 0 0 1 -.35-1.41 2.52 2.52 0 0 1 .32-1.29 2.34 2.34 0 0 1 .91-.91 3 3 0 0 1 2.4-.14 1.68 1.68 0 0 1 .71.53 2.26 2.26 0 0 1 .4.75 3.35 3.35 0 0 1 .13.92c0 .27-.16.4-.49.4h-2.84a1.12 1.12 0 0 0 1.28 1.19 1.74 1.74 0 0 0 .67-.13 2.36 2.36 0 0 0 .56-.33.4.4 0 0 1 .41 0 .58.58 0 0 1 .29.38.41.41 0 0 1 -.11.45 2.33 2.33 0 0 1 -.32.25l-.39.24a2.82 2.82 0 0 1 -.58.19 3.84 3.84 0 0 1 -.71.06 3.19 3.19 0 0 1 -1.35-.29zm2.28-2.72a1.66 1.66 0 0 0 -.25-.87.83.83 0 0 0 -.73-.31.91.91 0 0 0 -.74.33 1.43 1.43 0 0 0 -.3.85z"/><path d="m140.17 126.4a1.36 1.36 0 0 1 -.18-.78v-3a.94.94 0 0 1 .19-.64.78.78 0 0 1 .6-.21c.51 0 .76.28.76.86a1.7 1.7 0 0 1 1.73-1 1.53 1.53 0 0 1 1.18.5 2 2 0 0 1 .45 1.39v2.09a1.3 1.3 0 0 1 -.19.78.72.72 0 0 1 -.62.27.64.64 0 0 1 -.57-.27 1.36 1.36 0 0 1 -.18-.78v-2.06a.93.93 0 0 0 -.22-.67.78.78 0 0 0 -.57-.23.92.92 0 0 0 -.71.31 1.09 1.09 0 0 0 -.29.79v1.86a1.3 1.3 0 0 1 -.2.78.69.69 0 0 1 -.61.27.62.62 0 0 1 -.57-.26z"/><path d="m146.36 126.28a2.08 2.08 0 0 1 -.4-1.42v-2.08h-.3a.54.54 0 0 1 -.4-.13.58.58 0 0 1 -.14-.43.46.46 0 0 1 .52-.52h.43l.1-1c.06-.6.31-.91.75-.91s.6.33.6 1v.87h.6a.48.48 0 0 1 .52.55.54.54 0 0 1 -.14.4.55.55 0 0 1 -.41.13h-.57v1.74a1.77 1.77 0 0 0 .15.87.56.56 0 0 0 .54.22h.28a.44.44 0 0 1 .25.08.46.46 0 0 1 .14.22 1.27 1.27 0 0 1 0 .28.5.5 0 0 1 -.08.26.47.47 0 0 1 -.2.17 3.45 3.45 0 0 1 -1.14.13 1.52 1.52 0 0 1 -1.1-.43z"/></g><path d="m140.81 133.24h-38.78" fill="none" stroke="#b5ccd9" stroke-miterlimit="10" stroke-width="3.41"/><path d="m140.81 139.53h-38.78" fill="none" stroke="#b5ccd9" stroke-miterlimit="10" stroke-width="3.41"/><path d="m140.81 146.62h-38.78" fill="none" stroke="#b5ccd9" stroke-miterlimit="10" stroke-width="3.41"/><path d="m132.07 115.25a17 17 0 1 1 14.74-8.5 17.06 17.06 0 0 1 -14.74 8.5z" fill="#085680"/><path d="m132.07 83.54a14.7 14.7 0 1 1 -12.73 7.35 14.68 14.68 0 0 1 12.73-7.35m0-4.64a19.34 19.34 0 1 0 16.75 9.67 19.37 19.37 0 0 0 -16.75-9.67z" fill="#fff"/><path d="m128.91 88.74h6.33v18.99h-6.33z" fill="#fff" transform="matrix(0 1 -1 0 230.31 -33.84)"/><path d="m128.91 88.74h6.33v18.99h-6.33z" fill="#fff" transform="matrix(-1 0 0 -1 264.15 196.47)"/><path d="m132.07 40.08h-26v6l-6.78 22.92a63.47 63.47 0 0 0 -2.6 18v74.6a14.87 14.87 0 0 0 14.87 14.87h20.51z" fill="#f0f4f0"/><path d="m101.56 2.64h61.02v38.18h-61.02z" fill="#fff"/><path d="m101.56 2.64h15.81v38.18h-15.81z" fill="#ededed"/><path d="m227.36 116.12h-62.34l5.46 59.87h51.42z" fill="#fff" opacity=".9"/><path d="m227.36 116.12h-62.34l.67 7.88h60.89z" fill="#f0f4f0"/><rect fill="#fff" height="5.93" rx="2.97" width="65.69" x="163.35" y="113.72"/><circle cx="389.25" cy="110.1" fill="#129294" r="107.62"/><path d="m324.66 175.84h130.4" fill="none" stroke="#b5ccd9" stroke-linecap="round" stroke-miterlimit="10" stroke-width="24.09"/><path d="m393.35 69-6.77-23v-6h-52v6l-6.79 23a63.47 63.47 0 0 0 -2.6 18v74.6a14.87 14.87 0 0 0 14.87 14.87h41a14.88 14.88 0 0 0 14.94-14.89v-74.58a63.48 63.48 0 0 0 -2.65-18z" fill="#f0f4f0"/><path d="m383.5 57.58 3.58 13a79.57 79.57 0 0 1 2.83 21" fill="none" stroke="#fff" stroke-linecap="round" stroke-miterlimit="10" stroke-width="8.72"/><path d="m334.57 40.08h51.98v5.95h-51.98z" fill="#dadada"/><path d="m325.19 97.82h70.77v57.23h-70.77z" fill="#fff"/><path d="m331.52 126.37a1.1 1.1 0 0 1 -.26-.72v-4.65c0-.18 0-.34 0-.47a2.88 2.88 0 0 1 .09-.4.77.77 0 0 1 .2-.33.85.85 0 0 1 .34-.2 1.54 1.54 0 0 1 .52-.08h1.91a5.52 5.52 0 0 1 .86.06 2.77 2.77 0 0 1 .75.2 2.08 2.08 0 0 1 .61.4 1.81 1.81 0 0 1 .38.64 2.52 2.52 0 0 1 .14.91 2 2 0 0 1 -.71 1.67 3.25 3.25 0 0 1 -2 .56h-1.27v1.67a1.06 1.06 0 0 1 -.27.72.83.83 0 0 1 -1.28 0zm2.53-3.5a3.69 3.69 0 0 0 .55-.06 1.13 1.13 0 0 0 .39-.17.71.71 0 0 0 .24-.34 1.45 1.45 0 0 0 .08-.55 1 1 0 0 0 -.28-.82 1.53 1.53 0 0 0 -.9-.21h-1.06v2.15z" fill="#085680"/><path d="m337.74 126.4a1.36 1.36 0 0 1 -.18-.78v-5a1.41 1.41 0 0 1 .18-.78.63.63 0 0 1 .57-.26.72.72 0 0 1 .61.26 1.32 1.32 0 0 1 .19.78v5a1.28 1.28 0 0 1 -.19.78.7.7 0 0 1 -.61.27.61.61 0 0 1 -.57-.27z" fill="#085680"/><path d="m340.09 126.33a1.24 1.24 0 0 1 -.45-1 1.26 1.26 0 0 1 .69-1.25 6.18 6.18 0 0 1 2.43-.34v-.3c0-.51-.27-.76-.8-.76a3.8 3.8 0 0 0 -1.41.35.38.38 0 0 1 -.46-.08.62.62 0 0 1 -.19-.49.47.47 0 0 1 .28-.42 4.24 4.24 0 0 1 .87-.28 5.18 5.18 0 0 1 1-.11 3.15 3.15 0 0 1 .86.11 1.72 1.72 0 0 1 .67.35 1.44 1.44 0 0 1 .45.66 2.78 2.78 0 0 1 .16 1v2.09a1 1 0 0 1 -.14.52.63.63 0 0 1 -.35.26.78.78 0 0 1 -.4 0 .58.58 0 0 1 -.35-.26 1 1 0 0 1 -.14-.53v-.08a1.45 1.45 0 0 1 -1.57 1 1.74 1.74 0 0 1 -1.15-.44zm2.28-.8a1.2 1.2 0 0 0 .38-.9v-.19h-.47-.4-.35l-.26.09a.78.78 0 0 0 -.2.14.75.75 0 0 0 -.11.2.69.69 0 0 0 0 .26.6.6 0 0 0 .17.44.59.59 0 0 0 .44.2 1.07 1.07 0 0 0 .8-.24z" fill="#085680"/><path d="m346.36 126.57a2.48 2.48 0 0 1 -.81-.45 2.1 2.1 0 0 1 -.58-.8 3 3 0 0 1 -.22-1.14 2.55 2.55 0 0 1 .35-1.32 2.37 2.37 0 0 1 .93-.9 2.81 2.81 0 0 1 1.33-.32 2.92 2.92 0 0 1 .9.13 2 2 0 0 1 .65.33.72.72 0 0 1 .21.31.76.76 0 0 1 0 .33.82.82 0 0 1 -.14.28.39.39 0 0 1 -.26.15.58.58 0 0 1 -.33-.07 1.8 1.8 0 0 0 -.9-.22 1.24 1.24 0 0 0 -.85.34 1.34 1.34 0 0 0 -.3 1 1.62 1.62 0 0 0 .11.64 1 1 0 0 0 .38.47 1.09 1.09 0 0 0 .66.19 2.13 2.13 0 0 0 .93-.23.49.49 0 0 1 .33-.06.4.4 0 0 1 .26.16 1 1 0 0 1 .14.3.66.66 0 0 1 0 .34.58.58 0 0 1 -.22.31 1.72 1.72 0 0 1 -.68.32 3.61 3.61 0 0 1 -.94.11 3 3 0 0 1 -.95-.2z" fill="#085680"/><path d="m350.74 126.45a2.22 2.22 0 0 1 -.94-.86 2.73 2.73 0 0 1 -.35-1.41 2.62 2.62 0 0 1 .32-1.29 2.41 2.41 0 0 1 .91-.91 2.75 2.75 0 0 1 1.35-.33 2.62 2.62 0 0 1 1.05.19 1.78 1.78 0 0 1 .72.53 2.07 2.07 0 0 1 .39.75 3.35 3.35 0 0 1 .14.92c0 .27-.17.4-.5.4h-2.83a1.12 1.12 0 0 0 1.28 1.19 1.65 1.65 0 0 0 .66-.13 2.24 2.24 0 0 0 .57-.33.38.38 0 0 1 .4 0 .55.55 0 0 1 .29.38.41.41 0 0 1 -.1.45 3.14 3.14 0 0 1 -.32.25 3.8 3.8 0 0 1 -.4.24 2.54 2.54 0 0 1 -.57.19 4 4 0 0 1 -.71.06 3.2 3.2 0 0 1 -1.36-.29zm2.29-2.72a1.66 1.66 0 0 0 -.26-.87.8.8 0 0 0 -.72-.31.92.92 0 0 0 -.75.33 1.36 1.36 0 0 0 -.29.85z" fill="#085680"/><path d="m356.42 125.84v.06a.82.82 0 0 1 -.2.56.73.73 0 0 1 -.56.21.67.67 0 0 1 -.59-.29 1.4 1.4 0 0 1 -.2-.82v-5a1.46 1.46 0 0 1 .17-.78.64.64 0 0 1 .58-.26.69.69 0 0 1 .61.26 1.32 1.32 0 0 1 .19.78v2a1.33 1.33 0 0 1 .6-.62 2 2 0 0 1 1-.23 2.32 2.32 0 0 1 .84.16 1.9 1.9 0 0 1 1.17 1.25 3.13 3.13 0 0 1 .18 1.1 2.8 2.8 0 0 1 -.59 1.91 2 2 0 0 1 -1.54.66 1.61 1.61 0 0 1 -1.66-.95zm1.68-.18a.93.93 0 0 0 .34-.37 2.13 2.13 0 0 0 .18-.5 2.35 2.35 0 0 0 .06-.54 2 2 0 0 0 -.28-1.14 1 1 0 0 0 -.84-.42 1 1 0 0 0 -.84.39 1.93 1.93 0 0 0 -.29 1.15c0 1 .38 1.57 1.15 1.57a1 1 0 0 0 .52-.14z" fill="#085680"/><path d="m361.25 126a2.45 2.45 0 0 1 -.7-1.84 2.86 2.86 0 0 1 .17-1 2.41 2.41 0 0 1 .49-.81 2.12 2.12 0 0 1 .84-.55 3.41 3.41 0 0 1 1.19-.2 2.71 2.71 0 0 1 2 .7 2.47 2.47 0 0 1 .7 1.85 2.64 2.64 0 0 1 -.17 1 2.27 2.27 0 0 1 -.49.8 2.36 2.36 0 0 1 -.85.55 3.38 3.38 0 0 1 -1.19.19 2.69 2.69 0 0 1 -1.99-.69zm2.81-.72a2.4 2.4 0 0 0 0-2.25.93.93 0 0 0 -.82-.4.9.9 0 0 0 -.81.4 2.38 2.38 0 0 0 0 2.24.94.94 0 0 0 .81.41 1 1 0 0 0 .82-.37z" fill="#085680"/><path d="m369.31 133.24h-38.78" fill="none" stroke="#b5ccd9" stroke-miterlimit="10" stroke-width="3.41"/><path d="m369.31 139.53h-38.78" fill="none" stroke="#b5ccd9" stroke-miterlimit="10" stroke-width="3.41"/><path d="m369.31 146.62h-38.78" fill="none" stroke="#b5ccd9" stroke-miterlimit="10" stroke-width="3.41"/><path d="m360.57 115.25a17 17 0 1 1 14.74-8.5 17.06 17.06 0 0 1 -14.74 8.5z" fill="#085680"/><path d="m360.57 83.54a14.7 14.7 0 1 1 -12.73 7.35 14.69 14.69 0 0 1 12.73-7.35m0-4.64a19.34 19.34 0 1 0 16.75 9.67 19.37 19.37 0 0 0 -16.75-9.67z" fill="#fff"/><path d="m357.41 88.74h6.33v18.99h-6.33z" fill="#fff" transform="matrix(0 1 -1 0 458.81 -262.34)"/><path d="m357.41 88.74h6.33v18.99h-6.33z" fill="#fff" transform="matrix(-1 0 0 -1 721.15 196.47)"/><path d="m360.57 40.08h-26v6l-6.78 22.92a63.47 63.47 0 0 0 -2.6 18v74.6a14.87 14.87 0 0 0 14.87 14.87h20.51z" fill="#f0f4f0"/><path d="m330.06 2.64h61.02v38.18h-61.02z" fill="#fff"/><path d="m330.06 2.64h15.81v38.18h-15.81z" fill="#ededed"/><path d="m455.86 116.12h-62.34l5.46 59.87h51.42z" fill="#fff" opacity=".9"/><path d="m455.86 116.12h-62.34l.67 7.88h60.89z" fill="#f0f4f0"/><rect fill="#fff" height="5.93" rx="2.97" width="65.69" x="391.85" y="113.72"/></svg>