<svg viewBox="0 0 550 420" xmlns="http://www.w3.org/2000/svg" xmlns:xlink="http://www.w3.org/1999/xlink"><clipPath id="a"><circle cx="-475" cy="210" r="200"/></clipPath><circle cx="275" cy="210" fill="#129294" r="200"/><rect fill="#fff" height="234.31" rx="21.5" width="234.31" x="164.48" y="91.93"/><path d="m186 91.93h191.29a21.5 21.5 0 0 1 21.5 21.5v44.3a0 0 0 0 1 0 0h-234.31a0 0 0 0 1 0 0v-44.3a21.5 21.5 0 0 1 21.52-21.5z" fill="#085680"/><rect fill="#e5e5e5" height="34.03" rx="9.16" width="34.03" x="239.98" y="178.41"/><rect fill="#e5e5e5" height="34.03" rx="9.16" width="34.03" x="288.05" y="178.41"/><rect fill="#085680" height="34.03" rx="9.16" width="34.03" x="336.12" y="178.41"/><g fill="#e5e5e5"><rect height="34.03" rx="9.16" width="34.03" x="191.91" y="223.21"/><rect height="34.03" rx="9.16" width="34.03" x="239.98" y="223.21"/><rect height="34.03" rx="9.16" width="34.03" x="288.05" y="223.21"/><rect height="34.03" rx="9.16" width="34.03" x="336.12" y="223.21"/><rect height="34.03" rx="9.16" width="34.03" x="191.91" y="268.02"/><rect height="34.03" rx="9.16" width="34.03" x="239.98" y="268.02"/><rect height="34.03" rx="9.16" width="34.03" x="288.05" y="268.02"/></g><path d="m222.75 83.01v41.82" fill="none" stroke="#2d4a54" stroke-linecap="round" stroke-miterlimit="10" stroke-width="22.89"/><path d="m343.98 83.01v41.82" fill="none" stroke="#2d4a54" stroke-linecap="round" stroke-miterlimit="10" stroke-width="22.89"/><g clip-path="url(#a)"><path d="m-6.67 230.5-420.4 2.27" fill="none" stroke="#edd0af" stroke-linecap="round" stroke-linejoin="round" stroke-width="59.51"/></g></svg>