<svg viewBox="0 0 550 280" xmlns="http://www.w3.org/2000/svg" xmlns:xlink="http://www.w3.org/1999/xlink"><linearGradient id="a" gradientUnits="userSpaceOnUse" x1="80.4" x2="80.4" y1="254.64" y2="65.67"><stop offset="0" stop-color="#34495e"/><stop offset="1" stop-color="#485b6e"/></linearGradient><clipPath id="b"><path d="m414.2 83.43a31.71 31.71 0 1 1 -63.41 0c0-17.53 14.19-40.29 31.7-40.29s31.71 22.76 31.71 40.29z"/></clipPath><path d="m19.03 253.07h511.19" fill="none" stroke="#085680" stroke-linecap="round" stroke-miterlimit="10" stroke-width="19.99"/><rect fill="url(#a)" height="188.96" rx="14.77" width="104.97" x="27.92" y="65.67"/><rect fill="#129294" height="183.15" rx="11.55" width="99.16" x="30.83" y="68.58"/><path d="m118.43 71.48a8.66 8.66 0 0 1 8.65 8.65v160.05a8.65 8.65 0 0 1 -8.65 8.64h-76.05a8.65 8.65 0 0 1 -8.65-8.64v-160a8.66 8.66 0 0 1 8.65-8.65h76.05m0-5.81h-76.05a14.46 14.46 0 0 0 -14.46 14.41v160.05a14.46 14.46 0 0 0 14.46 14.46h76.05a14.46 14.46 0 0 0 14.46-14.46v-160a14.46 14.46 0 0 0 -14.46-14.46z" fill="#2d4a54"/><path d="m101.81 82.41h-42.81a4 4 0 0 1 -4-3.43l-1.39-9.98h53.58l-1.43 10a4 4 0 0 1 -3.95 3.41z" fill="#2d4a54"/><ellipse cx="80.4" cy="163.12" fill="#085680" rx="24.79" ry="24.83"/><path d="m84.6 151.52h-10.91a8 8 0 0 0 -8 8v6.48a8 8 0 0 0 8 8h8l5.42 3.15v-3.57a8 8 0 0 0 5.51-7.58v-6.4a8 8 0 0 0 -8.02-8.08z" fill="#fff"/><circle cx="73.25" cy="162.94" fill="#566aba" r="1.91"/><circle cx="79.15" cy="162.94" fill="#566aba" r="1.91"/><circle cx="85.04" cy="162.94" fill="#566aba" r="1.91"/><ellipse cx="101.52" cy="145.99" fill="#ec5b55" rx="8.89" ry="8.9"/><path d="m101.23 148.45a2.08 2.08 0 0 1 -.21-1.06v-3.85l-.83.49a.67.67 0 0 1 -.3.08.52.52 0 0 1 -.41-.19.63.63 0 0 1 -.16-.44.54.54 0 0 1 .09-.31 1 1 0 0 1 .3-.27l1.6-.89a1.26 1.26 0 0 1 .61-.24c.55 0 .82.43.82 1.3v4.46c0 .84-.29 1.27-.86 1.27a.69.69 0 0 1 -.65-.35z" fill="#fff"/><rect fill="#2d4a54" height="215.17" rx="9.03" width="339.74" x="143.29" y="27.64"/><path d="m157.27 43.48h311.79v174.48h-311.79z" fill="#fafcfa"/><path d="m157.27 43.48h311.79v82.62h-311.79z" fill="#085680"/><path d="m502.94 254.61h-379.56a15.06 15.06 0 0 1 -15-15.07v-5.95a3.23 3.23 0 0 1 3.22-3.23h403.17a3.23 3.23 0 0 1 3.22 3.23v5.95a15.06 15.06 0 0 1 -15.05 15.07z" fill="#b2b2b2"/><path d="m345.49 240.21h-64.66a6.12 6.12 0 0 1 -6.11-6.12v-3.73h76.88v3.73a6.11 6.11 0 0 1 -6.11 6.12z" fill="#878787"/><path d="m206.5 156.62a1.19 1.19 0 0 1 -.78-.28.83.83 0 0 1 -.34-.68v-9a.93.93 0 0 1 .27-.68.9.9 0 0 1 .68-.28h4.49a2.94 2.94 0 0 1 1.52.43 3.31 3.31 0 0 1 1.58 2.93 2.94 2.94 0 0 1 -.24 1.16 3.71 3.71 0 0 1 -.65 1 3.29 3.29 0 0 1 -.93.71v-.36a2.46 2.46 0 0 1 .73.55 2.56 2.56 0 0 1 .45.69 2.24 2.24 0 0 1 .2.79c0 .26.07.49.08.68a2.66 2.66 0 0 0 .09.5.58.58 0 0 0 .28.32.87.87 0 0 1 .43.58.74.74 0 0 1 -.18.68.77.77 0 0 1 -.44.26 1.57 1.57 0 0 1 -.53 0 1.88 1.88 0 0 1 -.44-.15 2.38 2.38 0 0 1 -.53-.46 2.42 2.42 0 0 1 -.42-.82 4.43 4.43 0 0 1 -.17-1.33 1.33 1.33 0 0 0 -.09-.49 1.05 1.05 0 0 0 -.27-.39 1.14 1.14 0 0 0 -.43-.25 2 2 0 0 0 -.63-.09h-3.15l.24-.36v3.39a1.09 1.09 0 0 1 -.22.68.73.73 0 0 1 -.6.27zm.61-5.59h3.63a.81.81 0 0 0 .55-.26 2 2 0 0 0 .43-.71 2.54 2.54 0 0 0 .18-1 1.82 1.82 0 0 0 -.37-1.15 1 1 0 0 0 -.79-.46h-3.6l.19-.5v4.42z" fill="#1c66a2"/><path d="m219.71 156.77a4.58 4.58 0 0 1 -2.3-.55 3.82 3.82 0 0 1 -1.5-1.51 4.36 4.36 0 0 1 -.52-2.15 4.74 4.74 0 0 1 .57-2.4 4 4 0 0 1 1.49-1.52 3.77 3.77 0 0 1 2-.54 3.5 3.5 0 0 1 1.5.33 4.15 4.15 0 0 1 1.26.9 4.36 4.36 0 0 1 .86 1.32 3.9 3.9 0 0 1 .32 1.59.81.81 0 0 1 -.29.61 1 1 0 0 1 -.66.24h-6l-.46-1.57h5.72l-.34.32v-.42a1.44 1.44 0 0 0 -.32-.82 2.12 2.12 0 0 0 -.72-.57 2.06 2.06 0 0 0 -.91-.21 2.75 2.75 0 0 0 -.88.13 1.63 1.63 0 0 0 -.7.42 2.07 2.07 0 0 0 -.47.8 4 4 0 0 0 -.17 1.26 2.78 2.78 0 0 0 .35 1.43 2.4 2.4 0 0 0 2.09 1.19 3.79 3.79 0 0 0 .92-.09 2 2 0 0 0 .55-.23l.38-.22a1.11 1.11 0 0 1 .53-.14.79.79 0 0 1 .8.78 1 1 0 0 1 -.44.76 3.55 3.55 0 0 1 -1.14.6 4.32 4.32 0 0 1 -1.52.26z" fill="#1c66a2"/><path d="m224.42 155.32a.84.84 0 0 1 -.14-.56.76.76 0 0 1 .4-.6.93.93 0 0 1 .53-.13.9.9 0 0 1 .55.29 3.58 3.58 0 0 0 1 .7 2.73 2.73 0 0 0 1.25.25 3.44 3.44 0 0 0 .51-.07.92.92 0 0 0 .48-.2.78.78 0 0 0 .22-.6.69.69 0 0 0 -.24-.55 1.9 1.9 0 0 0 -.62-.34 8.75 8.75 0 0 0 -.85-.26c-.32-.1-.65-.2-1-.32a4.11 4.11 0 0 1 -.92-.44 2.06 2.06 0 0 1 -.95-1.87 2.08 2.08 0 0 1 .43-1.33 2.92 2.92 0 0 1 1.13-.84 3.67 3.67 0 0 1 1.46-.3 4.55 4.55 0 0 1 1 .12 4 4 0 0 1 1 .38 2.42 2.42 0 0 1 .81.68 1.11 1.11 0 0 1 .2.56.67.67 0 0 1 -.29.59.77.77 0 0 1 -.55.17.85.85 0 0 1 -.51-.21 1.86 1.86 0 0 0 -.71-.55 2.4 2.4 0 0 0 -1-.2 2.29 2.29 0 0 0 -.5.05 1.07 1.07 0 0 0 -.48.23.86.86 0 0 0 0 1.14 1.89 1.89 0 0 0 .63.35l.85.26c.32.08.63.18 1 .29a4.17 4.17 0 0 1 .89.46 2.08 2.08 0 0 1 .9 1.85 2.06 2.06 0 0 1 -.47 1.36 2.86 2.86 0 0 1 -1.17.85 3.59 3.59 0 0 1 -1.43.29 5.36 5.36 0 0 1 -1.84-.32 3.12 3.12 0 0 1 -1.57-1.18z" fill="#1c66a2"/><path d="m238.61 148.26a.9.9 0 0 1 .67.27.94.94 0 0 1 .27.68v4a3.65 3.65 0 0 1 -.92 2.62 3.49 3.49 0 0 1 -2.66 1 3.44 3.44 0 0 1 -2.64-1 3.65 3.65 0 0 1 -.91-2.62v-4a1 1 0 0 1 .26-.68.9.9 0 0 1 .67-.27.93.93 0 0 1 .68.27 1 1 0 0 1 .26.68v4a2 2 0 0 0 .42 1.41 1.61 1.61 0 0 0 1.26.46 1.63 1.63 0 0 0 1.28-.46 2 2 0 0 0 .42-1.41v-4a.94.94 0 0 1 .27-.68.9.9 0 0 1 .67-.27z" fill="#1c66a2"/><path d="m243.6 155.66a.93.93 0 0 1 -.27.68.91.91 0 0 1 -.68.28.87.87 0 0 1 -.66-.28 1 1 0 0 1 -.26-.68v-9.66a.92.92 0 0 1 1-.95.87.87 0 0 1 .66.27 1 1 0 0 1 .26.68z" fill="#1c66a2"/><path d="m245.83 148.42h3.7a.83.83 0 0 1 .62.25.81.81 0 0 1 .25.62.79.79 0 0 1 -.25.6.87.87 0 0 1 -.62.25h-3.7a.85.85 0 0 1 -.87-.88.79.79 0 0 1 .25-.6.84.84 0 0 1 .62-.24zm1.67-1.95a.87.87 0 0 1 .66.27 1 1 0 0 1 .26.68v7a.8.8 0 0 0 .08.36.52.52 0 0 0 .24.2.83.83 0 0 0 .32.06.77.77 0 0 0 .34-.07 1 1 0 0 1 .36-.07.54.54 0 0 1 .4.2.85.85 0 0 1 .18.57.83.83 0 0 1 -.48.72 2.06 2.06 0 0 1 -1 .28 5 5 0 0 1 -.73-.06 1.82 1.82 0 0 1 -.74-.26 1.63 1.63 0 0 1 -.59-.65 2.64 2.64 0 0 1 -.23-1.2v-7a.92.92 0 0 1 .95-.95z" fill="#1c66a2"/><path d="m251.94 155.32a.9.9 0 0 1 -.14-.56.77.77 0 0 1 .41-.6.89.89 0 0 1 .53-.13.86.86 0 0 1 .54.29 3.62 3.62 0 0 0 1 .7 2.69 2.69 0 0 0 1.24.25 3.56 3.56 0 0 0 .52-.07 1 1 0 0 0 .49-.25.78.78 0 0 0 .21-.6.69.69 0 0 0 -.24-.55 2 2 0 0 0 -.61-.34c-.25-.09-.54-.18-.85-.26s-.65-.2-1-.32a4 4 0 0 1 -.93-.44 2.2 2.2 0 0 1 -.69-.73 2.29 2.29 0 0 1 -.26-1.14 2.09 2.09 0 0 1 .44-1.33 2.92 2.92 0 0 1 1.13-.84 3.63 3.63 0 0 1 1.46-.3 4.55 4.55 0 0 1 1 .12 4.11 4.11 0 0 1 1 .38 2.24 2.24 0 0 1 .81.68 1 1 0 0 1 .21.56.66.66 0 0 1 -.3.59.77.77 0 0 1 -.55.17.87.87 0 0 1 -.51-.21 1.79 1.79 0 0 0 -.71-.55 2.38 2.38 0 0 0 -1-.2 2.32 2.32 0 0 0 -.51.05 1 1 0 0 0 -.47.23.71.71 0 0 0 -.21.57.72.72 0 0 0 .24.57 1.71 1.71 0 0 0 .63.35c.26.09.55.17.85.26s.63.18.95.29a4 4 0 0 1 .89.46 2 2 0 0 1 .65.72 2.28 2.28 0 0 1 .25 1.13 2.06 2.06 0 0 1 -.46 1.36 3 3 0 0 1 -1.17.85 3.63 3.63 0 0 1 -1.44.29 5.4 5.4 0 0 1 -1.84-.32 3.21 3.21 0 0 1 -1.56-1.13z" fill="#1c66a2"/><path d="m204.21 166.8h94.1" fill="none" stroke="#1c66a2" stroke-linecap="round" stroke-miterlimit="10" stroke-width="2"/><path d="m204.21 177.95h94.1" fill="none" stroke="#1c66a2" stroke-linecap="round" stroke-miterlimit="10" stroke-width="2"/><path d="m204.21 189.1h94.1" fill="none" stroke="#1c66a2" stroke-linecap="round" stroke-miterlimit="10" stroke-width="2"/><path d="m204.21 98.59h94.1" fill="none" stroke="#fff" stroke-linecap="round" stroke-miterlimit="10" stroke-width="2.03"/><path d="m204.21 109.74h63.2" fill="none" stroke="#fff" stroke-linecap="round" stroke-miterlimit="10" stroke-width="2.03"/><ellipse cx="382.49" cy="83.43" fill="#129294" rx="31.71" ry="31.75"/><g clip-path="url(#b)"><path d="m371.44 91.21v25.62" fill="none" stroke="#edd0af" stroke-linecap="round" stroke-linejoin="round" stroke-width="3.76"/><path d="m388.43 79.12h-12.18a6.1 6.1 0 0 1 -5.87-7.79c.43-1.49.54-8.84.34-10.38l-.44-3.3a12.15 12.15 0 0 1 12.06-13.88 12.15 12.15 0 0 1 12.05 13.88l-.39 3.35c-.2 1.54-.09 8.89.34 10.38a6.1 6.1 0 0 1 -5.91 7.74z" fill="#333331"/><path d="m391.69 90.08h3.84v28.89h-3.84z" fill="#eed5bc"/><path d="m397 91h-29v-2.3a14.3 14.3 0 0 1 14.21-14.33h.49a14.3 14.3 0 0 1 14.3 14.34z" fill="#566ab0"/><path d="m391.72 116.46h-18.51v-30.45h18.51l.19 24.08z" fill="#566ab0"/><path d="m382.2 79.34a4.42 4.42 0 0 0 4.4-4.08 14.79 14.79 0 0 0 -4.24-.62h-.51a14.62 14.62 0 0 0 -4.05.57 4.42 4.42 0 0 0 4.4 4.13z" fill="#6a7cb9"/><path d="m395 120.44h-25a.84.84 0 0 1 -.83-1l1.79-6.95c.13-1.29 1.22-8.06 2.51-8.06h18c1.29 0 2.37 6.77 2.5 8l1.85 7a.84.84 0 0 1 -.82 1.01z" fill="#566ab0"/><path d="m379.27 65.22h6.12a0 0 0 0 1 0 0v9a3.06 3.06 0 0 1 -3.06 3.06 3.06 3.06 0 0 1 -3.06-3.06v-9a0 0 0 0 1 0 0z" fill="#ecc299"/><path d="m385.4 70.23h-6.13v2.52a5.61 5.61 0 0 0 3 .59 6.07 6.07 0 0 0 3.1-.59z" fill="#edd0af" opacity=".48"/><path d="m388.1 94.68c2.41 0 4.37-1.65 4.37-3.68h-4.37z" fill="#566ab0"/><path d="m376.81 94.68c-2.41 0-4.37-1.65-4.37-3.68h4.37z" fill="#566ab0"/><path d="m372.56 58.29h2.12a0 0 0 0 1 0 0v5a0 0 0 0 1 0 0h-2.12a2.49 2.49 0 0 1 -2.49-2.49 2.49 2.49 0 0 1 2.49-2.51z" fill="#ecc299"/><path d="m390 58.29h2.12a2.49 2.49 0 0 1 2.49 2.5 2.49 2.49 0 0 1 -2.49 2.49h-2.12z" fill="#ecc299"/><path d="m382.33 71.51c-5.37 0-9.72-5.68-9.72-11.36v-5.73a9.6 9.6 0 0 1 9.33-9.85h.79a9.6 9.6 0 0 1 9.33 9.85v5.73c0 5.68-4.36 11.36-9.73 11.36z" fill="#eed5bc"/><path d="m382.28 59 1 2.83a1.06 1.06 0 0 1 -.16 1 1.05 1.05 0 0 1 -1.68 0 1.08 1.08 0 0 1 -.14-1z" fill="#ecc299"/><path d="m382.29 66.42c-.66 0-1.19-.38-1.19-.85h2.39c0 .43-.49.85-1.2.85z" fill="#ecc299"/><path d="m380.6 65.09 1.6.61 1.79-.61a1.8 1.8 0 0 0 -1-.49c-.46 0-.49.18-.68.18s-.34-.18-.7-.18a1.68 1.68 0 0 0 -1.01.49z" fill="#ecc299"/><path d="m382.2 65.92a2.37 2.37 0 0 1 -1.78-.72.22.22 0 0 1 .35-.28 1.86 1.86 0 0 0 1.43.56 1.74 1.74 0 0 0 1.43-.55.21.21 0 0 1 .3-.05.22.22 0 0 1 .06.31 2.18 2.18 0 0 1 -1.79.73z" fill="#333230"/><g fill="#333331"><path d="m390.63 49.92-17.63.08v6.54a.73.73 0 0 0 1.24.51l5.09-4.05v3.52a.72.72 0 0 0 1.22.53l5.15-3.9v3.37a.72.72 0 0 0 1.22.53l4.29-3.09z"/><path d="m392.11 59.25-.9 1.14v-5.76a3.49 3.49 0 0 0 -3.49-3.5h-10.72a3.49 3.49 0 0 0 -3.49 3.45l-.08 5.81-.83-1.14-.3-6.25a8.86 8.86 0 0 1 8.46-8.7h3.13c4.51 0 8.38 4.14 8.39 8.66z"/><path d="m386.84 57.08c.59.11 1.05.33 1 .5l-2.15-.38c.05-.2.55-.2 1.15-.12z"/><path d="m377.53 57.08c.6-.1 1.1 0 1.13.12l-2.15.38c-.03-.17.43-.39 1.02-.5z"/></g><path d="m384.76 87.14h5.3a0 0 0 0 1 0 0v5.39a2.43 2.43 0 0 1 -2.42 2.47h-.45a2.43 2.43 0 0 1 -2.43-2.43v-5.43a0 0 0 0 1 0 0z" fill="#6a7cb9"/><path d="m388.59 88h-2.23a.63.63 0 1 1 0-1.25h2.23a.63.63 0 0 1 0 1.25z" fill="#e99cb7"/><path d="m387.47 91.15a.62.62 0 0 1 -.62-.62v-3.12a.63.63 0 0 1 .62-.63.62.62 0 0 1 .62.63v3.12a.62.62 0 0 1 -.62.62z" fill="#e99cb7"/><circle cx="387.47" cy="92.24" fill="#fff" r="1.71"/><path d="m387.47 94.42a2.18 2.18 0 1 1 2.18-2.18 2.19 2.19 0 0 1 -2.18 2.18zm0-3.43a1.25 1.25 0 1 0 1.25 1.25 1.24 1.24 0 0 0 -1.25-1.24z" fill="#e99cb7"/><ellipse cx="386.47" cy="59.56" fill="#333331" rx=".66" ry=".77"/><ellipse cx="377.95" cy="59.56" fill="#333331" rx=".66" ry=".77"/></g><ellipse cx="367.48" cy="180.88" fill="#8996c8" rx="20.7" ry="20.73"/><ellipse cx="397.51" cy="180.88" fill="#bbc3df" rx="20.7" ry="20.73"/><ellipse cx="382.17" cy="155.24" fill="#566ab0" rx="20.7" ry="20.73"/><path d="m385.07 157.91c-.49 0-.84-.32-1.06-.91l-.18-.46h-2.78l-.17.46c-.23.59-.45.91-1 .91s-1-.57-.69-1.36l1.87-4.56c.34-.81.72-1.14 1.44-1.14s1.09.33 1.42 1.14l1.87 4.56c.33.79-.02 1.36-.72 1.36zm-1.84-2.91-.78-2.07-.79 2.07z" fill="#fff"/><path d="m365.81 177.4h2c1.41 0 2.45.8 2.45 2a1.53 1.53 0 0 1 -1 1.42 1.54 1.54 0 0 1 1.17 1.55c0 1-.78 2-2.46 2h-2.14a.8.8 0 0 1 -.83-.83v-5.28a.8.8 0 0 1 .81-.86zm.95 2.73h.89c.45 0 .75-.23.75-.59s-.3-.57-.75-.57h-.89zm0 2.64h1c.46 0 .75-.24.75-.61s-.29-.58-.75-.58h-1z" fill="#fff"/><path d="m399.32 177.23c1.32 0 2.52.59 2.52 1.42a.76.76 0 0 1 -.83.8c-.63 0-.88-.43-1.78-.43a1.84 1.84 0 0 0 0 3.68c.9 0 1.15-.43 1.78-.43a.76.76 0 0 1 .83.8c0 .84-1.2 1.42-2.52 1.42a3.63 3.63 0 1 1 0-7.26z" fill="#fff"/><g fill="#fafcfa"><path d="m198 69.2a1.9 1.9 0 0 1 -1.32-.48 1.67 1.67 0 0 1 -.53-1.28 1.63 1.63 0 0 1 .53-1.26 1.94 1.94 0 0 1 1.32-.47h13.5a1.84 1.84 0 0 1 1.32.49 1.62 1.62 0 0 1 .53 1.27 1.57 1.57 0 0 1 -.53 1.26 1.87 1.87 0 0 1 -1.32.47zm6.74 17.8a1.93 1.93 0 0 1 -1.39-.53 1.77 1.77 0 0 1 -.55-1.32v-17.65h3.94v17.62a1.74 1.74 0 0 1 -.56 1.32 2 2 0 0 1 -1.44.56z"/><path d="m216.23 87a1.75 1.75 0 0 1 -1.3-.53 1.85 1.85 0 0 1 -.51-1.32v-12.58a1.85 1.85 0 0 1 .51-1.32 1.75 1.75 0 0 1 1.3-.53 1.77 1.77 0 0 1 1.31.53 1.85 1.85 0 0 1 .51 1.32v2.86l-.21-2a4.72 4.72 0 0 1 .87-1.29 5.42 5.42 0 0 1 1.19-.94 5.53 5.53 0 0 1 1.43-.56 6.51 6.51 0 0 1 1.52-.18 2.35 2.35 0 0 1 1.53.51 1.56 1.56 0 0 1 .62 1.22 1.77 1.77 0 0 1 -.52 1.44 1.69 1.69 0 0 1 -1.12.44 2.59 2.59 0 0 1 -1.05-.21 2.59 2.59 0 0 0 -1.07-.21 2.67 2.67 0 0 0 -1.11.25 3.1 3.1 0 0 0 -1 .81 4.18 4.18 0 0 0 -.76 1.35 5.71 5.71 0 0 0 -.29 1.9v7.2a1.85 1.85 0 0 1 -.51 1.32 1.77 1.77 0 0 1 -1.34.52z"/><path d="m229.15 68.75a2.32 2.32 0 0 1 -1.45-.34 1.39 1.39 0 0 1 -.43-1.18v-.58a1.37 1.37 0 0 1 .47-1.2 2.65 2.65 0 0 1 1.44-.32 2.49 2.49 0 0 1 1.49.34 1.43 1.43 0 0 1 .42 1.18v.58a1.37 1.37 0 0 1 -.45 1.2 2.7 2.7 0 0 1 -1.49.32zm1.85 16.37a1.85 1.85 0 0 1 -.51 1.32 1.77 1.77 0 0 1 -1.31.53 1.75 1.75 0 0 1 -1.3-.53 1.82 1.82 0 0 1 -.52-1.32v-12.55a1.82 1.82 0 0 1 .52-1.32 1.75 1.75 0 0 1 1.3-.53 1.77 1.77 0 0 1 1.31.53 1.85 1.85 0 0 1 .51 1.32z"/><path d="m247.86 70.42a1.79 1.79 0 0 1 1.31.51 1.83 1.83 0 0 1 .51 1.34v12.85a1.85 1.85 0 0 1 -.51 1.32 1.77 1.77 0 0 1 -1.31.53 1.75 1.75 0 0 1 -1.3-.53 1.82 1.82 0 0 1 -.52-1.32v-1.49l.67.27a1.72 1.72 0 0 1 -.42 1 6.21 6.21 0 0 1 -1.16 1.1 6.92 6.92 0 0 1 -1.71.92 5.77 5.77 0 0 1 -2.14.38 6.92 6.92 0 0 1 -3.79-1.08 7.49 7.49 0 0 1 -2.68-3 10.16 10.16 0 0 1 0-8.75 7.57 7.57 0 0 1 2.65-3 6.67 6.67 0 0 1 3.7-1.08 7.11 7.11 0 0 1 2.4.39 7.51 7.51 0 0 1 1.89 1 5.78 5.78 0 0 1 1.24 1.22 1.93 1.93 0 0 1 .44 1l-1.09.4v-2.13a1.79 1.79 0 0 1 .52-1.32 1.75 1.75 0 0 1 1.3-.53zm-6.12 13.51a4.06 4.06 0 0 0 2.33-.67 4.41 4.41 0 0 0 1.56-1.82 5.75 5.75 0 0 0 .56-2.58 5.82 5.82 0 0 0 -.56-2.61 4.41 4.41 0 0 0 -1.56-1.82 4.35 4.35 0 0 0 -4.64 0 4.48 4.48 0 0 0 -1.56 1.82 6 6 0 0 0 -.56 2.61 5.88 5.88 0 0 0 .56 2.58 4.48 4.48 0 0 0 1.56 1.82 4 4 0 0 0 2.31.67z"/><path d="m257.57 85.12a1.83 1.83 0 0 1 -1.85 1.88 1.74 1.74 0 0 1 -1.28-.53 1.85 1.85 0 0 1 -.51-1.32v-18.8a1.81 1.81 0 0 1 1.85-1.85 1.69 1.69 0 0 1 1.29.53 1.85 1.85 0 0 1 .5 1.32z"/><path d="m274.4 85.12a1.76 1.76 0 0 1 -.58 1.32 1.94 1.94 0 0 1 -1.34.53 1.82 1.82 0 0 1 -1.36-.53 1.86 1.86 0 0 1 -.52-1.32v-17.56a1.8 1.8 0 0 1 .55-1.32 1.93 1.93 0 0 1 1.39-.53 1.82 1.82 0 0 1 1.29.53 1.75 1.75 0 0 1 .57 1.32z"/><path d="m287.31 70.42a5.29 5.29 0 0 1 3.41.94 4.77 4.77 0 0 1 1.61 2.5 13 13 0 0 1 .44 3.48v7.78a1.85 1.85 0 0 1 -.51 1.32 1.77 1.77 0 0 1 -1.26.56 1.75 1.75 0 0 1 -1.3-.53 1.82 1.82 0 0 1 -.52-1.32v-7.81a5.69 5.69 0 0 0 -.26-1.81 2.55 2.55 0 0 0 -.92-1.29 3.25 3.25 0 0 0 -1.91-.48 4.06 4.06 0 0 0 -2.05.48 3.42 3.42 0 0 0 -1.27 1.29 3.76 3.76 0 0 0 -.44 1.81v7.78a1.82 1.82 0 0 1 -.52 1.32 1.86 1.86 0 0 1 -2.6 0 1.82 1.82 0 0 1 -.52-1.32v-12.55a1.82 1.82 0 0 1 .52-1.32 1.86 1.86 0 0 1 2.6 0 1.82 1.82 0 0 1 .52 1.32v1.31l-.46-.09a6.24 6.24 0 0 1 .79-1.11 8.23 8.23 0 0 1 1.22-1.11 6.18 6.18 0 0 1 1.57-.83 5.39 5.39 0 0 1 1.86-.32z"/><path d="m305.39 71a1.67 1.67 0 0 1 1.21.48 1.6 1.6 0 0 1 .48 1.2 1.63 1.63 0 0 1 -.48 1.2 1.7 1.7 0 0 1 -1.21.47h-8a1.67 1.67 0 0 1 -1.21-.47 1.6 1.6 0 0 1 -.49-1.2 1.57 1.57 0 0 1 .49-1.2 1.64 1.64 0 0 1 1.21-.48zm-.34-6.52a4.82 4.82 0 0 1 1.31.18 2.56 2.56 0 0 1 1.06.59 1.43 1.43 0 0 1 .42 1.08 1.66 1.66 0 0 1 -.44 1.2 1.4 1.4 0 0 1 -1 .44 3.75 3.75 0 0 1 -.82-.14 4.48 4.48 0 0 0 -1.06-.14 1.81 1.81 0 0 0 -1.17.34 1.72 1.72 0 0 0 -.56.77 2.53 2.53 0 0 0 -.15.78v15.54a1.86 1.86 0 0 1 -.52 1.32 1.75 1.75 0 0 1 -1.3.53 1.77 1.77 0 0 1 -1.31-.53 1.85 1.85 0 0 1 -.51-1.32v-15.49a4.93 4.93 0 0 1 1.5-3.63 6.26 6.26 0 0 1 4.55-1.5z"/><path d="m324.94 78.86a8.55 8.55 0 0 1 -1.1 4.39 8 8 0 0 1 -3 3 8.73 8.73 0 0 1 -8.34 0 8 8 0 0 1 -3-3 9.31 9.31 0 0 1 0-8.78 8 8 0 0 1 3-3 8.59 8.59 0 0 1 8.34 0 8.06 8.06 0 0 1 3 3 8.55 8.55 0 0 1 1.1 4.39zm-3.63 0a5.49 5.49 0 0 0 -.63-2.69 4.57 4.57 0 0 0 -1.68-1.77 4.53 4.53 0 0 0 -4.64 0 4.53 4.53 0 0 0 -1.67 1.77 5.48 5.48 0 0 0 -.62 2.69 5.42 5.42 0 0 0 .62 2.66 4.53 4.53 0 0 0 1.67 1.77 4.52 4.52 0 0 0 4.64 0 4.57 4.57 0 0 0 1.66-1.77 5.42 5.42 0 0 0 .65-2.66z"/></g></svg>