<?xml version="1.0" encoding="UTF-8"?> <svg xmlns="http://www.w3.org/2000/svg" id="Layer_1" data-name="Layer 1" viewBox="0 0 550 363"><polyline points="211.27 241.42 211.27 353.39 229.63 353.39 229.63 241.42" style="fill:#f5ddbf"></polyline><path d="M107.57,240.42v29.77L67.85,232.52,55.22,245.84l55.21,52.36a9.18,9.18,0,0,0,15.5-6.66V240.42Z" style="fill:#f5ddbf"></path><polyline points="211.27 241.42 211.27 249.99 229.63 249.99 229.63 241.42" style="fill:#f0d5b4"></polyline><polyline points="107.57 241.42 107.57 249.99 125.93 249.99 125.93 241.42" style="fill:#f0d5b4"></polyline><path d="M197.12,185.34H139.5a28.86,28.86,0,0,1-27.74-36.8c2-7,2.57-41.77,1.6-49l-2.07-15.6a57.4,57.4,0,0,1,57-65.52h0a57.4,57.4,0,0,1,57,65.52l-2.08,15.6c-1,7.27-.42,42,1.6,49A28.85,28.85,0,0,1,197.12,185.34Z" style="fill:#2d4a54"></path><path d="M237.43,241.49H100.69V230.62c0-37.11,30.09-67.67,67.2-67.67h2.33c37.12,0,67.21,30.56,67.21,67.67Z" style="fill:#566ab0"></path><polygon points="125.16 351.68 125.16 217.85 212.68 217.85 213.57 351.68 125.16 351.68" style="fill:#566ab0"></polygon><path d="M167.68,186.34h0a20.88,20.88,0,0,0,20.8-19.24,69.88,69.88,0,0,0-20-2.94H166a69.83,69.83,0,0,0-19.13,2.68A20.86,20.86,0,0,0,167.68,186.34Z" style="fill:#6a7cb9"></path><path d="M168.3,176.73h0a14.48,14.48,0,0,1-14.48-14.48V119.69h29v42.56A14.49,14.49,0,0,1,168.3,176.73Z" style="fill:#f6e0c5"></path><path d="M182.78,143.35h-29v11.91s3.93,2.75,14.33,2.75,14.63-2.75,14.63-2.75Z" style="fill:#f0d5b4"></path><path d="M132.12,110.51H122.07a11.78,11.78,0,1,1,0-23.56h10.05Z" style="fill:#f0d5b4"></path><path d="M204.5,87h10.05a11.78,11.78,0,0,1,0,23.56H204.5Z" style="fill:#f0d5b4"></path><path d="M168.3,149.38h0c-25.4,0-46-26.85-46-53.63V68.66c0-25.7,19.75-46.52,44.11-46.52h3.76c24.36,0,44.11,20.82,44.11,46.52V95.75C214.29,122.53,193.7,149.38,168.3,149.38Z" style="fill:#f6e0c5"></path><path d="M170.22,22.14h-3.76a42.31,42.31,0,0,0-24.07,7.54,42,42,0,0,1,12.33-1.85h3.76c24.36,0,44.11,20.82,44.11,46.52v27.09c0,18.29-9.61,36.6-23.79,46.38,20.36-6.07,35.53-29.08,35.53-52.07V68.66C214.33,43,194.58,22.14,170.22,22.14Z" style="fill:#f0d5b4"></path><path d="M207.55,47.42l-83.3.46V78.77a3.42,3.42,0,0,0,5.84,2.42l24-19.45V78.37a3.42,3.42,0,0,0,5.77,2.49L184.2,62.45V78.37A3.42,3.42,0,0,0,190,80.86L210.3,66.25Z" style="fill:#2d4a54"></path><path d="M212.9,91.53h-.21a2.43,2.43,0,0,1-2.39-2.43V69.65a16.53,16.53,0,0,0-16.53-16.53H142.9a16.52,16.52,0,0,0-16.52,16.29L126,89.12a2.42,2.42,0,0,1-4.84,0l-.34-27.4c0-21.43,18.59-41.06,40-41.06h14.79c21.36,0,39.62,19.54,39.7,40.91V89.11A2.43,2.43,0,0,1,212.9,91.53Z" style="fill:#2d4a54"></path><path d="M193.39,260.11h-2.13a11.47,11.47,0,0,1-11.47-11.46V223.2h25.06v25.45A11.46,11.46,0,0,1,193.39,260.11Z" style="fill:#6a7cb9"></path><path d="M197.87,227.4H187.32a2.95,2.95,0,1,1,0-5.89h10.55a2.95,2.95,0,1,1,0,5.89Z" style="fill:#e99cb7"></path><path d="M192.59,242.13a3,3,0,0,1-2.94-2.95V224.46a2.95,2.95,0,1,1,5.89,0v14.72A3,3,0,0,1,192.59,242.13Z" style="fill:#e99cb7"></path><path d="M200.7,247.29a8.11,8.11,0,1,1-8.11-8.11A8.11,8.11,0,0,1,200.7,247.29Z" style="fill:#fff"></path><path d="M192.59,257.59a10.31,10.31,0,1,1,10.31-10.3A10.32,10.32,0,0,1,192.59,257.59Zm0-16.2a5.9,5.9,0,1,0,5.9,5.9A5.91,5.91,0,0,0,192.59,241.39Z" style="fill:#e99cb7"></path><path d="M147.56,90.37h0A2.66,2.66,0,0,1,150.22,93v2.72a2.67,2.67,0,1,1-5.33,0V93A2.66,2.66,0,0,1,147.56,90.37Z" style="fill:#2d4a54"></path><path d="M187,90.37h0A2.67,2.67,0,0,1,189.66,93v2.72a2.67,2.67,0,1,1-5.34,0V93A2.67,2.67,0,0,1,187,90.37Z" style="fill:#2d4a54"></path><path d="M170.11,115.3l1.12,2.24-1-2.28-.08,0,1.12,2.24-1-2.28a4.52,4.52,0,0,1-.88.3,7.84,7.84,0,0,1-4.29-.06c-.28-.08-.48-.16-.59-.2l-.08,0-1,2.26,1.11-2.22-.08,0-1,2.26,1.11-2.22a5.53,5.53,0,1,0-5,9.89,15.16,15.16,0,0,0,2.41.91,19.06,19.06,0,0,0,5.39.79,19.41,19.41,0,0,0,5.38-.79,14.75,14.75,0,0,0,2.41-.92,5.53,5.53,0,0,0-5-9.88Z" style="fill:#f0d5b4"></path><path d="M171.57,118.21l.66,1.31-.65-1.32h0l.66,1.31-.65-1.32h0a10.78,10.78,0,0,1-4.29.87,11.42,11.42,0,0,1-3.18-.46c-.39-.12-.7-.23-.89-.31l-.21-.09,0,0h0l-.64,1.32.65-1.31h0l-.64,1.32.65-1.31a2.28,2.28,0,0,0-2,4.07,15.56,15.56,0,0,0,12.68,0,2.28,2.28,0,1,0-2-4.07Z" style="fill:#fff"></path><path d="M163.35,92.89l-1.76,14.17a1.41,1.41,0,0,0,1.41,1.6h6.06a1.42,1.42,0,0,0,0-2.84h-4.45l1.56-12.58a1.43,1.43,0,0,0-1.24-1.59,1.41,1.41,0,0,0-1.58,1.24Z" style="fill:#f0d5b4"></path><path d="M140.1,85l6.09-3.78a1.42,1.42,0,0,0-1.5-2.42l-6.09,3.78A1.42,1.42,0,1,0,140.1,85" style="fill:#2d4a54"></path><path d="M186.18,79.54l7.74,5.4a1.42,1.42,0,0,0,1.63-2.33l-7.75-5.4a1.42,1.42,0,1,0-1.62,2.33" style="fill:#2d4a54"></path><path d="M402.47,207.31v80.27a11.31,11.31,0,0,0,21.26,5.36l45.18-83.84A11.3,11.3,0,0,0,449,198.37l-23.93,44.41V207.31a11.31,11.31,0,1,0-22.61,0Z" style="fill:#9e8b6a"></path><polyline points="425.13 240.14 425.03 225.02 402.42 225.17 402.52 240.29" style="fill:#8f7d5d"></polyline><rect x="287.59" y="210.66" width="119.23" height="140.21" style="fill:#f7f5f2"></rect><polyline points="298.65 350.8 297.79 225.02 275.19 225.17 276.04 350.95" style="fill:#9e8b6a"></polyline><polyline points="297.9 240.14 297.79 225.02 275.19 225.17 275.29 240.29" style="fill:#8f7d5d"></polyline><path d="M426.6,229.13H267.81V216.51a78,78,0,0,1,78-78h2.71a78,78,0,0,1,78,78v12.62" style="fill:#f7f5f2"></path><polygon points="353.17 350.87 345.74 350.87 344.87 159.6 352.3 159.6 353.17 350.87" style="fill:#ebeced"></polygon><polyline points="333.21 139.49 347.44 169.96 320.33 177.02 333.21 139.49" style="fill:#ebeced"></polyline><polyline points="364.57 142.68 351.57 170.08 378.34 177.17 364.57 142.68" style="fill:#ebeced"></polyline><path d="M362.37,122.75h-30.9v12.84s1.85,2,6.33,3.29a79.32,79.32,0,0,1,8.05-.41h2.71c2.51,0,5,.12,7.45.35a16,16,0,0,0,6.36-3.23V122.75" style="fill:#f6e9d9"></path><path d="M348.56,138.47h-2.71a79.32,79.32,0,0,0-8.05.41,31.6,31.6,0,0,0,9,1.18,32.27,32.27,0,0,0,9.25-1.24c-2.45-.23-4.94-.35-7.45-.35" style="fill:#efdfce"></path><rect x="370.11" y="223.42" width="35.79" height="24.55" rx="5.33" style="fill:#82cad3"></rect><path d="M400.58,248v-1.79H375.44a3.5,3.5,0,0,1-2.5-1,3.56,3.56,0,0,1-1-2.5V228.75a3.56,3.56,0,0,1,1-2.5,3.5,3.5,0,0,1,2.5-1h25.14a3.53,3.53,0,0,1,3.53,3.54v13.89a3.53,3.53,0,0,1-3.53,3.54v3.58a7.12,7.12,0,0,0,7.12-7.12V228.75a7.12,7.12,0,0,0-7.12-7.12H375.44a7.12,7.12,0,0,0-7.12,7.12v13.89a7.12,7.12,0,0,0,7.12,7.12h25.14Z" style="fill:#fff"></path><rect x="374.87" y="227.95" width="11.67" height="14.45" rx="2.7" style="fill:#fff"></rect><polyline points="389.85 231.66 400.47 231.66 400.47 228.07 389.85 228.07" style="fill:#36a9b8"></polyline><polyline points="389.85 236.97 400.47 236.97 400.47 233.38 389.85 233.38" style="fill:#36a9b8"></polyline><polyline points="389.85 242.28 400.47 242.28 400.47 238.69 389.85 238.69" style="fill:#36a9b8"></polyline><rect x="385.06" y="216.72" width="6.36" height="5.4" style="fill:#d9d9d9"></rect><rect x="384.67" y="211.84" width="7.14" height="9.05" rx="1.13" style="fill:#ececec"></rect><path d="M308.55,225.84h-3.41v3.46l.1-3.46h-.1v3.46l.1-3.46h-.11a1.86,1.86,0,0,1-1.38-.64,2.78,2.78,0,0,1-.71-1.88l0-20.19h0v0A23.73,23.73,0,0,1,309.2,187a19.91,19.91,0,0,1,14.62-6.56h0l0-2.33v2.33h0l0-2.33v2.33A19.88,19.88,0,0,1,338.46,187a23.64,23.64,0,0,1,6.2,16.14l0,20.18h2.95l-2.95,0v0h2.95l-2.95,0v0a2.76,2.76,0,0,1-.71,1.88,1.89,1.89,0,0,1-1.38.65h-4.11v7.11h4.11A9,9,0,0,0,349.2,230a9.87,9.87,0,0,0,2.6-6.72h-2.95l2.95,0v0h-2.95l2.95,0v0h0l0-20.18a30.79,30.79,0,0,0-8.11-21,27,27,0,0,0-19.83-8.82h-.08l.05,3.56v-3.56A27,27,0,0,0,304,182.13a30.76,30.76,0,0,0-8.08,21v.05h0l0,20.19a9.87,9.87,0,0,0,2.61,6.71,9,9,0,0,0,6.59,2.91v-3.46L305,233h.11v-3.46L305,233h3.54v-7.11Z" style="fill:#d9d9d9"></path><path d="M308.13,235.26h-2.59V223.53h2.59a5.64,5.64,0,0,1,5.65,5.64v.43A5.67,5.67,0,0,1,308.13,235.26Z" style="fill:#575756"></path><path d="M338.1,223.49h2.58l0,11.73h-2.59a5.64,5.64,0,0,1-5.66-5.64v-.43A5.66,5.66,0,0,1,338.1,223.49Z" style="fill:#575756"></path><path d="M382.24,200c0,5.65-4.24,10.23-9.48,10.23s-9.49-4.56-9.49-10.21,4.23-10.22,9.47-10.23S382.23,194.33,382.24,200Z" style="fill:#c5c5c5"></path><path d="M382.24,200H379.7a8,8,0,0,1-2.09,5.5,6.63,6.63,0,0,1-4.85,2.19h0v2.26l0-2.26h0v2.26l0-2.26h-.05a6.56,6.56,0,0,1-4.84-2.18,8,8,0,0,1-2.11-5.5h0a8.07,8.07,0,0,1,2.1-5.5,6.56,6.56,0,0,1,4.84-2.18h.09l-.08-2.26v2.27h.08l-.08-2.26v2.27a6.58,6.58,0,0,1,4.85,2.18,8,8,0,0,1,2.1,5.49h5.07a13.1,13.1,0,0,0-3.46-8.94,11.61,11.61,0,0,0-8.56-3.8h-.1l.09,2.53v-2.53a11.66,11.66,0,0,0-8.56,3.81,13.1,13.1,0,0,0-3.45,8.94v0h0a13.17,13.17,0,0,0,3.46,8.94,11.72,11.72,0,0,0,8.56,3.8v-2.26l0,2.26h0v-2.26l0,2.26h.06a11.65,11.65,0,0,0,8.55-3.81,13.14,13.14,0,0,0,3.45-9h0v0h-2.53Z" style="fill:#d9d9d9"></path><path d="M327.73,176.84l0-16.53h0v0a23.41,23.41,0,0,1,6.11-16,20.9,20.9,0,0,1,6.53-4.76,19,19,0,0,1,7.9-1.72h.05l0-2.56v2.56h0l0-2.56v2.56a19,19,0,0,1,7.9,1.71c7.32,3.32,12.67,11.29,12.67,20.72l0,39.73a3.86,3.86,0,0,0,7.71,0l-.05-39.73a31.12,31.12,0,0,0-8.2-21.21,28.2,28.2,0,0,0-9-6.51,26.77,26.77,0,0,0-11.1-2.42h-.08l.05,3.86v-3.86a26.71,26.71,0,0,0-11.1,2.43C327,137.21,320,147.93,320,160.28v0h0l0,16.53a3.86,3.86,0,0,0,7.71,0Z" style="fill:#575756"></path><polyline points="318.76 182.86 329.03 182.85 329.02 171.66 318.75 171.67" style="fill:#575756"></polyline><path d="M348.89,170h0a15.68,15.68,0,0,1-15.68-15.68V117.63h31.36v36.72A15.68,15.68,0,0,1,348.89,170Z" style="fill:#a89779"></path><path d="M352.12,144.36h-5.45a13,13,0,0,1-12.95-13V108.6h31.35v22.8A13,13,0,0,1,352.12,144.36Z" style="fill:#8f7d5d"></path><path d="M447.46,169.81,449,179.6l-1.94,11a6.17,6.17,0,1,0,12.16,2.14l2.12-12a6.29,6.29,0,0,0,0-2l-1.7-10.81a6.18,6.18,0,0,0-12.2,1.92Z" style="fill:#9e8b6a"></path><path d="M481.69,224.45l8.84-1.24a5.23,5.23,0,0,0-1.46-10.35l-8.84,1.24a5.23,5.23,0,0,0,1.46,10.35" style="fill:#9e8b6a"></path><path d="M480,213.82l10.23-.87a5.22,5.22,0,0,0-.89-10.41l-10.22.87a5.22,5.22,0,1,0,.88,10.41" style="fill:#9e8b6a"></path><path d="M478.69,203.55l10.66-.93a5.23,5.23,0,0,0-.92-10.41l-10.65.93a5.22,5.22,0,0,0,.91,10.41" style="fill:#9e8b6a"></path><path d="M477.66,193.71l9.16-1.28a5.22,5.22,0,1,0-1.44-10.35l-9.17,1.28a5.23,5.23,0,0,0,1.45,10.35" style="fill:#9e8b6a"></path><path d="M487.18,223.69l-24.34,3.23a11.92,11.92,0,0,1-13.39-10.25l-2.9-21.82a7.42,7.42,0,0,1,6.39-8.33l28.8-3.82Z" style="fill:#9e8b6a"></path><path d="M386.31,90.85l10.67.08a12.5,12.5,0,0,0,.18-25l-10.67-.07Z" style="fill:#8f7d5d"></path><path d="M311.72,65.34l-10.66-.07a12.5,12.5,0,1,0-.18,25l10.66.08Z" style="fill:#8f7d5d"></path><path d="M349.39,131.82h0c26.95.19,49-28.13,49.2-56.56l.21-28.74C399,19.26,378.19,1.25,352.34,1.06l-4,0c-25.85-.19-47,17.52-47.16,44.78L301,74.57C300.8,103,322.44,131.63,349.39,131.82Z" style="fill:#a89779"></path><path d="M352.34,1.06l-4,0a52.63,52.63,0,0,0-5.36.23c23.83,2,42.37,19.51,42.19,45.25L385,75.26c-.18,25.88-18.48,51.67-42.1,55.94a38,38,0,0,0,6.51.62h0c26.95.19,49-28.13,49.2-56.56l.21-28.74C399,19.26,378.19,1.25,352.34,1.06Z" style="fill:#9f8f74"></path><path d="M302,52.12a1.67,1.67,0,0,0-1.67,1.67v40a39.15,39.15,0,0,0,39.15,39.15H361a39.15,39.15,0,0,0,39.15-39.15v-40a1.67,1.67,0,0,0-1.67-1.67h-.91a6.09,6.09,0,0,0-6.09,6.09V88.82a7.42,7.42,0,0,1-7.43,7.42l-15.47-4.47a43.75,43.75,0,0,0-12.14-1.72H344.07a43.75,43.75,0,0,0-12.14,1.72l-15.47,4.47A7.43,7.43,0,0,1,309,88.82V58.21a6.09,6.09,0,0,0-6.09-6.09Zm28.9,53.93a8.29,8.29,0,0,1,8.29-8.29H361.3a8.29,8.29,0,0,1,8.29,8.29v6.14a8.29,8.29,0,0,1-8.29,8.29h-1a3.41,3.41,0,0,1-3.41-3.4,2.72,2.72,0,0,0-2.72-2.73h-6.53a2.72,2.72,0,0,0-2.72,2.73,3.41,3.41,0,0,1-3.41,3.4h-2.3a8.29,8.29,0,0,1-8.29-8.29Z" style="fill:#2d4a54"></path><path d="M352.26,101a1.32,1.32,0,0,1-.54.29,4.46,4.46,0,0,1-1.49.24,5.15,5.15,0,0,1-1.55-.24,2.36,2.36,0,0,1-.72-.36,5.69,5.69,0,1,0-7.69,8.38,13.25,13.25,0,0,0,4.8,2.77,16.63,16.63,0,0,0,5.16.83,16.13,16.13,0,0,0,5.35-.91,12.86,12.86,0,0,0,5-3.2,5.69,5.69,0,1,0-8.29-7.8Z" style="fill:#8f7d5d"></path><path d="M355,103.53a5.05,5.05,0,0,1-2,1.26,8.3,8.3,0,0,1-2.77.46,8.85,8.85,0,0,1-2.75-.44,5.59,5.59,0,0,1-2.06-1.16,1.93,1.93,0,1,0-2.6,2.84,9.72,9.72,0,0,0,3.45,2,12.58,12.58,0,0,0,4,.63,12,12,0,0,0,4.07-.69,8.92,8.92,0,0,0,3.5-2.23,1.92,1.92,0,0,0-2.8-2.64Z" style="fill:#fff"></path><rect x="293.81" y="42.58" width="14.37" height="25.53" rx="5.42" style="fill:#2d4a54"></rect><rect x="391.76" y="42.58" width="14.37" height="25.53" rx="5.42" style="fill:#2d4a54"></rect><path d="M330.54,72h0a2.66,2.66,0,0,1,2.67,2.66v2.73a2.67,2.67,0,1,1-5.33,0V74.66A2.66,2.66,0,0,1,330.54,72Z" style="fill:#2d4a54"></path><path d="M370,72h0a2.67,2.67,0,0,1,2.67,2.66v2.73a2.67,2.67,0,1,1-5.34,0V74.66A2.67,2.67,0,0,1,370,72Z" style="fill:#2d4a54"></path><path d="M322.15,64.7l6.09-3.78A2.14,2.14,0,0,0,326,57.29l-6.09,3.79a2.13,2.13,0,0,0,2.25,3.62" style="fill:#2d4a54"></path><path d="M378.63,61.08l-6.09-3.79a2.14,2.14,0,1,0-2.25,3.63l6.09,3.78a2.13,2.13,0,1,0,2.25-3.62" style="fill:#2d4a54"></path><path d="M352.43,71l.16,12h-5.38a2.14,2.14,0,1,0,0,4.27h7.54a2.13,2.13,0,0,0,1.52-.64,2.1,2.1,0,0,0,.61-1.52L356.69,71a2.13,2.13,0,1,0-4.26.06Z" style="fill:#8f7d5d"></path><path d="M25,361.67H525a6,6,0,0,0,0-12H25a6,6,0,1,0,0,12" style="fill:#085680"></path><path d="M63.76,206.15l-1.5,9.53a5.38,5.38,0,0,0,0,1.79l1.87,10.62a5.44,5.44,0,1,0,10.72-1.89l-1.7-9.72,1.35-8.64a5.45,5.45,0,0,0-10.76-1.69Z" style="fill:#f6e0c5"></path><path d="M45.61,246.91l-7.79-1.1a4.61,4.61,0,1,0-1.28,9.13l7.79,1.1a4.61,4.61,0,1,0,1.28-9.13" style="fill:#f6e0c5"></path><path d="M46.57,237.48l-9-.77a4.61,4.61,0,1,0-.78,9.18l9,.77a4.61,4.61,0,1,0,.79-9.18" style="fill:#f6e0c5"></path><path d="M47.78,228.42l-9.4-.82a4.61,4.61,0,1,0-.8,9.18l9.39.83a4.61,4.61,0,0,0,.81-9.19" style="fill:#f6e0c5"></path><path d="M49.16,219.79l-8.09-1.13a4.61,4.61,0,1,0-1.27,9.13l8.09,1.13a4.61,4.61,0,1,0,1.27-9.13" style="fill:#f6e0c5"></path><path d="M39.49,255.37,61,258.22a10.54,10.54,0,0,0,11.82-9.05l2.55-19.24a6.54,6.54,0,0,0-5.63-7.35l-25.4-3.37Z" style="fill:#f6e0c5"></path></svg> 