<?xml version="1.0" encoding="UTF-8"?> <svg xmlns="http://www.w3.org/2000/svg" xmlns:xlink="http://www.w3.org/1999/xlink" id="Layer_1" data-name="Layer 1" viewBox="0 0 550 294"><defs><clipPath id="clip-path"><path d="M414.78,192.56v7.64s2.61,1.84,9.5,1.84S434,200.2,434,200.2v-7.57a38.49,38.49,0,0,1-9.49,1.17h0a38.75,38.75,0,0,1-9.72-1.23" style="fill:none"></path></clipPath></defs><path d="M335.38,52.11A51.11,51.11,0,1,1,284.28,1a51.11,51.11,0,0,1,51.1,51.11" style="fill:#9a5737"></path><path d="M335.38,108.05A51.11,51.11,0,1,1,284.28,57a51.1,51.1,0,0,1,51.1,51.1" style="fill:#9a5737"></path><path d="M457.15,194.42a33.08,33.08,0,1,1-33.08-33.07,33.08,33.08,0,0,1,33.08,33.07" style="fill:#9a5737"></path><path d="M221.94,199.63v67.1a8.27,8.27,0,0,0,16.53,0v-67.1a8.27,8.27,0,0,0-16.53,0" style="fill:#f5ddbf"></path><path d="M232.54,260.56l-24-9.19a8,8,0,1,0-5.74,15l24,9.18a8,8,0,1,0,5.74-15" style="fill:#f5ddbf"></path><rect x="174.07" y="250.64" width="37.33" height="17.02" rx="6.83" style="fill:#f5ddbf"></rect><path d="M179.93,250.28l-13.13.49a4.48,4.48,0,0,0,.34,9l13.13-.5a4.47,4.47,0,0,0-.34-8.94" style="fill:#f5ddbf"></path><path d="M178.41,254.26l-8.81,16.17a4.48,4.48,0,0,0,7.87,4.28l8.8-16.17a4.47,4.47,0,1,0-7.86-4.28" style="fill:#f5ddbf"></path><path d="M182.9,255.23l-4.88,18a4.48,4.48,0,1,0,8.64,2.34l4.88-18a4.48,4.48,0,0,0-8.64-2.34" style="fill:#f5ddbf"></path><path d="M191.08,255.66l-2.78,20.55a4.48,4.48,0,1,0,8.87,1.2L200,256.86a4.48,4.48,0,1,0-8.87-1.2" style="fill:#f5ddbf"></path><polyline points="222.4 194.82 222.4 208.76 240.57 208.76 240.57 194.82" style="fill:#f0d5b4"></polyline><rect x="236.42" y="187.16" width="97.5" height="96.99" style="fill:#006381"></rect><rect x="236.42" y="225.07" width="97.5" height="59.08" style="fill:#bf6386"></rect><path d="M330.41,199.63v67.1a8.26,8.26,0,0,0,16.52,0v-67.1a8.26,8.26,0,1,0-16.52,0" style="fill:#f5ddbf"></path><polyline points="330.41 199.63 330.41 208.76 346.94 208.76 346.94 199.63" style="fill:#f0d5b4"></polyline><path d="M349.46,201.51a64.21,64.21,0,0,0-64.21-64.21H283a64.21,64.21,0,0,0-64.21,64.21Z" style="fill:#006381"></path><path d="M341.23,260.64l-49.59-20.7a8,8,0,1,0-6.19,14.8l49.6,20.71a8,8,0,0,0,6.18-14.81" style="fill:#f5ddbf"></path><rect x="256.93" y="239.12" width="37.33" height="17.02" rx="6.83" style="fill:#f5ddbf"></rect><path d="M261.87,239.24H243.53a4.48,4.48,0,0,0,0,8.95h18.34a4.48,4.48,0,1,0,0-8.95" style="fill:#f5ddbf"></path><path d="M252.93,241.93l-14.57,18.18a4.48,4.48,0,1,0,7,5.59l14.56-18.17a4.47,4.47,0,0,0-7-5.6" style="fill:#f5ddbf"></path><path d="M261.23,242.79l-11.11,21.13a4.48,4.48,0,1,0,7.92,4.17L269.16,247a4.48,4.48,0,0,0-7.93-4.17" style="fill:#f5ddbf"></path><path d="M265.63,244.39l-2.18,19.9a4.48,4.48,0,1,0,8.9,1l2.18-19.9a4.48,4.48,0,0,0-8.9-1" style="fill:#f5ddbf"></path><path d="M273.91,245.08l1.27,16.31a4.48,4.48,0,1,0,8.93-.69l-1.27-16.32a4.48,4.48,0,0,0-8.93.7" style="fill:#f5ddbf"></path><path d="M282.49,152.89h0a12.61,12.61,0,0,0,12.61-12.61V103.22H269.88v37.06A12.6,12.6,0,0,0,282.49,152.89Z" style="fill:#f7e4ce"></path><polygon points="269.88 129.81 295.1 137.3 295.1 123.14 269.88 123.14 269.88 129.81" style="fill:#f0d5b4"></polygon><path d="M319.49,91.05h7.2a11.54,11.54,0,1,0,0-23.08h-7.2V91.05" style="fill:#f0d5b4"></path><path d="M248.56,68h-7.21a11.54,11.54,0,1,0,0,23.08h7.21V68" style="fill:#f0d5b4"></path><path d="M284.28,125.13a43.09,43.09,0,0,0,43-40.94l1.88-30a44.93,44.93,0,0,0-89.85,0l1.88,30a43.1,43.1,0,0,0,43,40.94" style="fill:#f6e0c5"></path><path d="M284.28,9.3a45.54,45.54,0,0,0-6.11.42A44.92,44.92,0,0,1,317,54.22l-1.87,30a43.11,43.11,0,0,1-36.94,40.51,43.94,43.94,0,0,0,6.11.43,43.09,43.09,0,0,0,43-40.94l1.88-30A44.92,44.92,0,0,0,284.28,9.3" style="fill:#f0d5b4"></path><path d="M262.71,73.89h0a2.4,2.4,0,0,1,2.4,2.4v2.46a2.41,2.41,0,0,1-4.81,0V76.29A2.4,2.4,0,0,1,262.71,73.89Z" style="fill:#2d4a54"></path><path d="M298.21,73.89h0a2.39,2.39,0,0,1,2.4,2.4v2.46a2.4,2.4,0,0,1-4.8,0V76.29A2.4,2.4,0,0,1,298.21,73.89Z" style="fill:#2d4a54"></path><circle cx="305.51" cy="93.68" r="7.35" style="fill:#f0d5b4"></circle><path d="M250.41,93.68a7.35,7.35,0,1,0,7.35-7.35A7.35,7.35,0,0,0,250.41,93.68Z" style="fill:#f0d5b4"></path><path d="M284,99.63l1,2-.94-2.05-.07,0,1,2-.94-2.05a5.14,5.14,0,0,1-.79.26,7,7,0,0,1-3.87,0l-.53-.18-.07,0-.93,2,1-2-.07,0-.93,2,1-2a5,5,0,0,0-4.46,8.9,13.82,13.82,0,0,0,2.17.82,17,17,0,0,0,9.71,0,13.82,13.82,0,0,0,2.17-.82,5,5,0,0,0-4.47-8.9Z" style="fill:#f0d5b4"></path><path d="M285.35,102.25l.28.56-.27-.57h0l.28.56-.27-.57a9.61,9.61,0,0,1-3.88.79,10.68,10.68,0,0,1-2.86-.41c-.35-.11-.62-.21-.8-.28l-.19-.08,0,0h0l-.58,1.18.59-1.17h0l-.58,1.18.59-1.17a2,2,0,0,0-1.84,3.66,14,14,0,0,0,11.42,0,2,2,0,0,0-1.84-3.66Z" style="fill:#fff"></path><rect x="213.13" y="272.05" width="116.81" height="9.13" style="fill:#34495e"></rect><path d="M70.63,248.47s.17-.68.5-1.95.76-3.16,1.18-5.59a51.2,51.2,0,0,0,.73-8.87,34.14,34.14,0,0,0-2-11.41,36.33,36.33,0,0,0-2.9-6c-1.2-2-2.59-3.89-4-5.84a33.18,33.18,0,0,1-3.76-6.16c-1-2.33-2-4.68-2.87-7.13A77.65,77.65,0,0,1,53.74,180a82.42,82.42,0,0,1-.67-16.49,103.44,103.44,0,0,1,2.26-16.35,130.35,130.35,0,0,1,4.41-15.4c1.69-4.92,3.66-9.56,5.61-13.93s4.09-8.37,6.11-12c1-1.82,2-3.59,2.94-5.24l2.81-4.65L82,88.44c2.77-4,4.32-6.38,4.32-6.38l-.21-.16s-1.78,2.17-4.82,6c-1.45,2-3.29,4.35-5.22,7.18L73,99.65c-1,1.61-2.1,3.34-3.23,5.13-2.18,3.62-4.37,7.65-6.56,12a130,130,0,0,0-6,14.06c-.94,2.48-1.72,5.07-2.52,7.69q-.51,2-1,4l-.9,4.07a102.11,102.11,0,0,0-2,16.81,88,88,0,0,0,1,16.89,80.69,80.69,0,0,0,4.13,15.85c.93,2.49,2,4.88,3,7.18a34.9,34.9,0,0,0,4.08,6.39c3,3.81,5.53,7.5,7,11.36a33.2,33.2,0,0,1,2.28,11,51.32,51.32,0,0,1-.45,8.77c-.35,2.42-.71,4.3-1,5.58l-.44,2Z" style="fill:#f4fafb"></path><path d="M82,87.72c1.25-5.66,8.36-33.25,18.19-27.13C110.76,67.18,82,87.72,82,87.72Z" style="fill:#f4fafb"></path><path d="M68,109.72c-2.28-5.33-12.6-31.89-1-32.65C79.39,76.26,68,109.72,68,109.72Z" style="fill:#f4fafb"></path><path d="M68.66,108.35c5.8-.13,34.24-1.81,30.13-12.62C94.35,84.08,68.66,108.35,68.66,108.35Z" style="fill:#f4fafb"></path><path d="M56.87,136C54,130.68,26.43,109.24,42.11,105.2,56.07,101.6,57.19,136.54,56.87,136Z" style="fill:#f4fafb"></path><path d="M55,140.62c7.84-9.23,38.65-10.93,29.28-23.11C75.52,106.09,54.6,141.13,55,140.62Z" style="fill:#f4fafb"></path><path d="M52.2,170.62C48.71,165.74,41.5,131.57,31,143.9,21.66,154.88,52.6,171.17,52.2,170.62Z" style="fill:#f4fafb"></path><path d="M52.1,175A92.28,92.28,0,0,1,58,155.66c2.68-5.95,9.58-14.65,17-9.49,6,4.16-3.59,7.74-10,13.41C56.1,167.32,52,175.7,52.1,175Z" style="fill:#f4fafb"></path><path d="M63.33,205.4c-1.8-6.05-2.33-8.78-2.16-13.53s1.83-14.25,7.39-16.4c7.47-2.9,7.71,6.1,6.38,9.59-2.12,5.55-7.85,11.3-8.86,18s.45,10.74.45,10.74Z" style="fill:#f4fafb"></path><path d="M57.67,200.93c-3.27-5.4-4.93-7.63-8.55-10.7S37.34,182,32,184.67c-7.16,3.58-.66,9.82,2.81,11.17,5.54,2.17,13.65,1.8,19.31,5.58a58.67,58.67,0,0,1,9.64,8.11Z" style="fill:#f4fafb"></path><path d="M92.31,255.75s.22-.56.64-1.6,1-2.59,1.61-4.6a44.9,44.9,0,0,0,1.59-7.42,29.2,29.2,0,0,0-.45-9.87,29.5,29.5,0,0,0-1.8-5.4c-.79-1.8-1.76-3.58-2.74-5.38a28.51,28.51,0,0,1-2.5-5.62c-.6-2.08-1.19-4.18-1.65-6.35A66.8,66.8,0,0,1,85.5,196a70.62,70.62,0,0,1,1.23-14,88.71,88.71,0,0,1,3.69-13.59,113.7,113.7,0,0,1,5.41-12.55c2-4,4.15-7.69,6.27-11.17s4.37-6.63,6.48-9.51c1.07-1.43,2.07-2.82,3.06-4.11l2.88-3.62c1.86-2.24,3.49-4.19,4.83-5.79,2.78-3.12,4.35-4.93,4.35-4.93l-.16-.16s-1.74,1.65-4.74,4.58c-1.45,1.52-3.25,3.32-5.2,5.51l-3.08,3.5c-1.06,1.25-2.14,2.6-3.29,4-2.24,2.82-4.54,6-6.86,9.42a110.18,110.18,0,0,0-6.61,11.24c-1.07,2-2,4.11-3,6.23q-.66,1.62-1.32,3.27c-.4,1.11-.8,2.22-1.21,3.34a87.74,87.74,0,0,0-3.53,14,74.34,74.34,0,0,0-1,14.4,68.18,68.18,0,0,0,1.77,13.86c.51,2.21,1.15,4.35,1.77,6.41A30,30,0,0,0,90,222.11a40.77,40.77,0,0,1,4.72,10.37,28.47,28.47,0,0,1,.72,9.58,43.19,43.19,0,0,1-1.34,7.37c-.56,2-1.07,3.57-1.45,4.62s-.59,1.62-.59,1.62Z" style="fill:#f4fafb"></path><path d="M119.47,121c1.67-4.65,10.7-27.22,18.34-21C146,106.75,119.47,121,119.47,121Z" style="fill:#f4fafb"></path><path d="M105.23,138.08c-1.36-4.76-7.19-28.35,2.67-27.74C118.51,111,105.23,138.08,105.23,138.08Z" style="fill:#f4fafb"></path><path d="M105.93,137c4.92.52,29.17,2.21,26.87-7.39C130.32,119.26,105.93,137,105.93,137Z" style="fill:#f4fafb"></path><path d="M92.94,159.05c-1.84-4.77-22.83-25.91-9.13-27.62C96,129.91,93.15,159.59,92.94,159.05Z" style="fill:#f4fafb"></path><path d="M90.89,162.8c7.64-7,33.89-5,27.29-16.35C112,135.83,90.46,163.19,90.89,162.8Z" style="fill:#f4fafb"></path><path d="M85.22,187.88c-2.42-4.51-4.8-34.21-15-24.92C61.1,171.23,85.49,188.39,85.22,187.88Z" style="fill:#f4fafb"></path><path d="M84.66,191.53a78.5,78.5,0,0,1,7.09-15.67c2.92-4.75,9.71-11.36,15.38-6.19,4.59,4.17-3.88,6.16-10,10.25C88.88,185.51,84.46,192.14,84.66,191.53Z" style="fill:#f4fafb"></path><path d="M90.84,218.51c-.86-5.31-1-7.68-.35-11.68s3.1-11.85,8-13.07c6.63-1.64,5.86,6,4.35,8.81-2.4,4.47-7.87,8.71-9.46,14.3s-.79,9.13-.79,9.13Z" style="fill:#f4fafb"></path><path d="M86.54,214.12c-2.18-4.93-3.34-7-6.07-10s-9.07-8.25-13.87-6.57c-6.45,2.24-1.64,8.23,1.15,9.76,4.45,2.43,11.35,3,15.73,6.82a50.32,50.32,0,0,1,7.27,7.92Z" style="fill:#f4fafb"></path><path d="M97.79,283.74H70a15,15,0,0,1-15-15V226h57.75v42.76A15,15,0,0,1,97.79,283.74Z" style="fill:#f4fafb"></path><rect x="80.29" y="139.05" width="171.97" height="110.74" rx="7.52" style="fill:#34495e"></rect><path d="M166.27,211.81a11.78,11.78,0,0,0-11.79,11.78v54.07h23.58V223.59A11.78,11.78,0,0,0,166.27,211.81ZM170,256.27a3.76,3.76,0,1,1-7.52,0v-19a3.76,3.76,0,0,1,7.52,0Z" style="fill:#85929e"></path><rect x="132.41" y="274.57" width="67.73" height="6.61" style="fill:#a6afb8"></rect><polyline points="451.59 238.91 451.59 284.15 461.83 284.15 461.83 238.91" style="fill:#f5ddbf"></polyline><polyline points="397.29 284.15 397.29 238.91 387.05 238.91 387.05 284.15" style="fill:#f5ddbf"></polyline><polyline points="451.59 238.91 451.59 246.73 461.83 246.73 461.83 238.91" style="fill:#f0d5b4"></polyline><polyline points="397.29 246.73 397.29 238.91 387.05 238.91 387.05 246.73" style="fill:#f0d5b4"></polyline><path d="M463.74,242.53H385.49v-6.22A38.45,38.45,0,0,1,424,197.86h1.33a38.45,38.45,0,0,1,38.46,38.45v6.22" style="fill:#4ba39d"></path><path d="M457.15,238.94h-64.9l-.37-9.65a32.64,32.64,0,1,1,65.27-.22v9.87" style="fill:#4ba39d"></path><path d="M417.17,195.25l7.07,18.92-7.6,2.82a4.5,4.5,0,0,1-5.75-5.89l6.28-15.85" style="fill:#74b8b4"></path><path d="M431.31,195.25l-7.07,18.92,7.6,2.82a4.51,4.51,0,0,0,5.76-5.89l-6.29-15.85" style="fill:#74b8b4"></path><rect x="395.24" y="236.42" width="58.75" height="47.73" style="fill:#4ba39d"></rect><path d="M424.27,99.36a40.44,40.44,0,0,0-40.43,40.44v17.87h80.87V139.8a40.45,40.45,0,0,0-40.44-40.44" style="fill:#9a5737"></path><path d="M396.48,167.79H389a8.79,8.79,0,0,1,0-17.57h7.5v17.57" style="fill:#f0d5b4"></path><path d="M452.87,150.22h7.49a8.79,8.79,0,1,1,0,17.57h-7.49V150.22" style="fill:#f0d5b4"></path><path d="M424.48,214.37a9.7,9.7,0,0,1-9.7-9.7V176.13h19.41v28.54a9.7,9.7,0,0,1-9.71,9.7" style="fill:#f6e0c5"></path><g style="clip-path:url(#clip-path)"><rect x="414.78" y="192.56" width="19.21" height="9.48" style="fill:#eecca7"></rect></g><path d="M424.5,193.8h0c-20,0-36.19-15-36.19-35v-19A34.71,34.71,0,0,1,423,105.09h3a34.71,34.71,0,0,1,34.71,34.71v19c0,20-16.21,35-36.19,35" style="fill:#f6e0c5"></path><path d="M425.92,105.09h-3a34.58,34.58,0,0,0-17.66,4.83,35.05,35.05,0,0,1,7.51-.82h3c19.17,0,37.27,15.54,37.27,34.71v19c0,13-9.47,24-19.82,30,15.74-3.66,27.41-17,27.41-34v-19a34.71,34.71,0,0,0-34.71-34.71" style="fill:#f0d5b4"></path><path d="M459.48,130.69a34.7,34.7,0,0,1,1.21,9.11v10.42a9.08,9.08,0,0,1,2.62.5,71.11,71.11,0,0,0-3.83-20m-59.91-16.48c-8.25,6.36-15.13,17.51-14.68,37a8.79,8.79,0,0,1,3.42-1V139.8a34.61,34.61,0,0,1,11.26-25.59" style="fill:#9a5737"></path><path d="M388.31,150.24a8.79,8.79,0,0,0-3.42,1c0,.47,0,.94.05,1.41V153s1.24-.16,3.37-.49v-2.28" style="fill:#f0d5b4"></path><path d="M460.69,150.22v.88c1.62,1.24,2.67,1.91,2.67,1.91s0-.84-.05-2.29a9.08,9.08,0,0,0-2.62-.5" style="fill:#f0d5b4"></path><path d="M459.22,130a34.52,34.52,0,0,1,1.41,9.81v11.26l.06,0V139.8a34.7,34.7,0,0,0-1.21-9.11c-.08-.23-.17-.46-.26-.7M415.77,109.1h-3a34.05,34.05,0,0,0-5.18.39,37.93,37.93,0,0,0-8.06,4.72,34.61,34.61,0,0,0-11.26,25.59v12.72c10.41-1.63,42.29-7.44,57.71-19.6A38.73,38.73,0,0,0,453,144v-.17c0-19.17-18.1-34.71-37.27-34.71" style="fill:#f0d5b4"></path><path d="M425.29,105.78a46.74,46.74,0,0,0-17.66,3.71,34.05,34.05,0,0,1,5.18-.39h3c19.17,0,37.27,15.54,37.27,34.71V144a55.08,55.08,0,0,0,7.59,7.08V139.8a34.52,34.52,0,0,0-1.41-9.81c-4.48-12-13.81-24.2-33.22-24.2h-.71" style="fill:#f0d5b4"></path><path d="M384.9,147.31l3.41,2.91s39.12-6.33,57.71-21c4.92,12.3,15,21,15,21s7.26-48.12-35-48.12C426,102.1,382.92,98.46,384.9,147.31Z" style="fill:#9a5737"></path><path d="M421.61,166.46l.8,1.6-.74-1.63-.06,0,.8,1.6-.74-1.63a5.53,5.53,0,0,1-3.7.17l-.42-.14-.06,0-.74,1.61.8-1.58-.06,0-.74,1.61.8-1.58a3.95,3.95,0,1,0-3.54,7.06,9.58,9.58,0,0,0,1.72.66,13.51,13.51,0,0,0,7.7,0,11.12,11.12,0,0,0,1.72-.66,3.95,3.95,0,0,0-3.54-7.06Z" style="fill:#f0d5b4"></path><path d="M422.65,168.54l.22.44-.21-.45h0l.22.44-.21-.45a7.63,7.63,0,0,1-3.08.63,8.35,8.35,0,0,1-2.27-.33,5.61,5.61,0,0,1-.64-.22l-.15-.06,0,0-.21.44.22-.43h0l-.21.44.22-.43a1.63,1.63,0,1,0-1.46,2.91,10.77,10.77,0,0,0,4.53,1,10.52,10.52,0,0,0,4.53-1,1.62,1.62,0,0,0-1.46-2.9Z" style="fill:#fff"></path><path d="M276.13,73.64,274.22,89a1.3,1.3,0,0,0,1.28,1.44h7.69a1.28,1.28,0,1,0,0-2.56h-6.25L278.67,74a1.29,1.29,0,0,0-1.12-1.43,1.27,1.27,0,0,0-1.42,1.11Z" style="fill:#f0d5b4"></path><path d="M416.54,149.25,415,159.72a1.09,1.09,0,0,0,1.08,1.24h6.18a1.09,1.09,0,0,0,0-2.17h-4.93l1.35-9.23a1.09,1.09,0,0,0-.92-1.23,1.08,1.08,0,0,0-1.23.92Z" style="fill:#f0d5b4"></path><path d="M254,65.85l6.35-3a1.29,1.29,0,0,0-1.09-2.33l-6.34,3A1.28,1.28,0,0,0,254,65.85" style="fill:#9a5737"></path><path d="M304.73,63.43l6.06,3.07A1.28,1.28,0,1,0,312,64.21l-6.06-3.06a1.28,1.28,0,1,0-1.16,2.28" style="fill:#9a5737"></path><path d="M404.42,147.31h0a2,2,0,0,1,2,2v2.08a2,2,0,1,1-4.06,0v-2.08A2,2,0,0,1,404.42,147.31Z" style="fill:#2d4a54"></path><path d="M433.93,147.31h0a2,2,0,0,1,2,2v2.08a2,2,0,1,1-4.06,0v-2.08A2,2,0,0,1,433.93,147.31Z" style="fill:#2d4a54"></path><path d="M331.72,58.45s1.59-52.87-43.56-52.87c-55.5,0-51.68,55-51.68,55s52.62-.35,68-32.7c5.64,19.87,27.25,30.59,27.25,30.59" style="fill:#9a5737"></path><path d="M239.74,60.43c-2.07.12-3.26.13-3.26.13v0c-.12,2.94,0,4.74,0,4.74s1.3,0,3.56-.15l-.3-4.7M329,56.94l-.28,4.54c1.83,1.12,3,1.68,3,1.68s.06-1.82-.14-4.79c-.34-.17-1.25-.65-2.55-1.43" style="fill:#9a5737"></path><path d="M304.47,27.86c-13.06,27.48-53,31.87-64.73,32.57l.3,4.7c2.88-.18,7.33-.58,12.6-1.45a1.28,1.28,0,0,1,.25-.15l6.34-3a1.33,1.33,0,0,1,.55-.12A1.28,1.28,0,0,1,261,62c15.89-3.78,35.12-11.92,43.44-29.43,2.32,8.19,7.36,14.83,12.48,19.8a45,45,0,0,0-.52-5.23c-4.94-4.91-9.72-11.37-12-19.28" style="fill:#f0d5b4"></path><path d="M316.43,47.14a45,45,0,0,1,.52,5.23,68,68,0,0,0,11.8,9.11l.28-4.54a68.17,68.17,0,0,1-12.6-9.8" style="fill:#f0d5b4"></path><path d="M259.78,60.44a1.33,1.33,0,0,0-.55.12l-6.34,3a1.28,1.28,0,0,0-.25.15c2.62-.43,5.45-1,8.39-1.68a1.28,1.28,0,0,0-1.25-1.56" style="fill:#9a5737"></path><path d="M288.16,10.3c-45.47,0-51.12,36.9-51.68,50.24v0s1.19,0,3.26-.13c11.72-.7,51.67-5.09,64.73-32.57,2.24,7.91,7,14.37,12,19.28a68.17,68.17,0,0,0,12.6,9.8h0c1.3.78,2.21,1.26,2.55,1.43-.88-13-6.65-48.07-43.42-48.07" style="fill:#9a5737"></path><path d="M250.18,46.83a13.76,13.76,0,1,1-13.76-13.76A13.76,13.76,0,0,1,250.18,46.83Z" style="fill:#9a5737"></path><path d="M401.67,163.71h4.12a3.2,3.2,0,0,0,0-6.4h-4.12a3.2,3.2,0,1,0,0,6.4" style="fill:#f0d5b4"></path><path d="M433,163.71h4.13a3.2,3.2,0,1,0,0-6.4H433a3.2,3.2,0,1,0,0,6.4" style="fill:#f0d5b4"></path><path d="M434.68,140.19l6.06,3.06A1.28,1.28,0,1,0,441.9,141l-6.07-3.07a1.28,1.28,0,0,0-1.15,2.29" style="fill:#9a5737"></path><path d="M494.18,276.9a2.91,2.91,0,0,1-2.9-2.7l-4.17-57.54a2.91,2.91,0,0,1,5.81-.42l4.16,57.54a2.91,2.91,0,0,1-2.69,3.11Z" style="fill:#f4fafb"></path><path d="M500.22,276.9l-.3,0a2.91,2.91,0,0,1-2.6-3.19l5.76-56.57a2.91,2.91,0,0,1,5.79.59l-5.76,56.57A2.91,2.91,0,0,1,500.22,276.9Z" style="fill:#f4fafb"></path><path d="M492.09,276.9a2.92,2.92,0,0,1-2.61-4.19l26-53.24A2.91,2.91,0,0,1,520.7,222l-26,53.23A2.9,2.9,0,0,1,492.09,276.9Z" style="fill:#f4fafb"></path><rect x="487.69" y="237.9" width="27.02" height="42.97" style="fill:#f4fafb"></rect><path d="M25,293.6H525a6,6,0,0,0,0-12H25a6,6,0,1,0,0,12" style="fill:#085680"></path></svg> 