<svg data-name="Layer 1" xmlns="http://www.w3.org/2000/svg" viewBox="0 0 32 32"><path d="M16 0a16 16 0 1016 16A16 16 0 0016 0zm0 2a13.89 13.89 0 019.08 3.37l-3.92 3.91a12.76 12.76 0 00-5-1 12.48 12.48 0 00-11.5 7.42l-.16.3.14.31a12.54 12.54 0 004.3 5.19l-3.58 3.57A14 14 0 0116 2zm-2.42 17.68a4.45 4.45 0 002.56.81 4.51 4.51 0 004.5-4.5 4.45 4.45 0 00-.81-2.56l2.08-2.08A11 11 0 0126.13 16a11 11 0 01-10 6.23 11.23 11.23 0 01-4.26-.84zm4.76-7.59a4.42 4.42 0 00-2.2-.6 4.51 4.51 0 00-4.5 4.5 4.42 4.42 0 00.6 2.2L10 20.41A11 11 0 016.15 16a11 11 0 0110-6.23 11.12 11.12 0 013.84.69zM16 30a13.93 13.93 0 01-9.23-3.5l4-4a12.74 12.74 0 005.41 1.19 12.47 12.47 0 0011.5-7.42l.14-.31-.14-.31A12.54 12.54 0 0023 10.26l3.49-3.5A14 14 0 0116 30z" /></svg>