<svg id="Layer_1" data-name="Layer 1" xmlns="http://www.w3.org/2000/svg" viewBox="0 0 32 32"><path class="cls-1" d="M16 0a16 16 0 1016 16A16 16 0 0016 0zm0 30a14 14 0 1114-14 14 14 0 01-14 14z"/><path class="cls-1" d="M20.06 8.91H20a3.72 3.72 0 00-3.72 3.71v6.76A3.72 3.72 0 0020 23.09h.11a3.72 3.72 0 003.71-3.71v-6.76a3.72 3.72 0 00-3.76-3.71zm1.71 10.47a1.72 1.72 0 01-1.71 1.71H20a1.72 1.72 0 01-1.72-1.71v-6.76A1.72 1.72 0 0120 10.91h.11a1.72 1.72 0 011.71 1.71zM12.05 8.91h-.11a3.72 3.72 0 00-3.71 3.71v6.76a3.72 3.72 0 003.71 3.71h.11a3.72 3.72 0 003.72-3.71v-6.76a3.72 3.72 0 00-3.72-3.71zm1.72 10.47a1.72 1.72 0 01-1.72 1.71h-.11a1.72 1.72 0 01-1.71-1.71v-6.76a1.72 1.72 0 011.71-1.71h.11a1.72 1.72 0 011.72 1.71z"/></svg>