<svg data-name="Layer 1" xmlns="http://www.w3.org/2000/svg" viewBox="0 0 32 32"><path d="M2.57 26.73a1 1 0 000 2H4a4 4 0 003.88 3.09h16.48a4 4 0 004-4v-24a4 4 0 00-4-4H7.87a4 4 0 00-3.94 3.45H2.57a1 1 0 000 2h1.3v3.86h-1.3a1 1 0 000 2h1.3V15h-1.3a1 1 0 000 2h1.3v3.87h-1.3a1 1 0 000 2h1.3v3.86zm13.5-24.91h4.16v6.12l-1.39-1.47a.73.73 0 00-.52-.24.76.76 0 00-.54.21l-1.71 1.63zM5.87 22.87h1.31a1 1 0 000-2H5.87V17h1.31a1 1 0 000-2H5.87v-3.87h1.31a1 1 0 100-2H5.87V5.27h1.31a1 1 0 100-2H6a2 2 0 011.87-1.45h6.7v8a.76.76 0 00.45.69.73.73 0 00.81-.15L18.27 8l2.17 2.29a.71.71 0 00.54.24.67.67 0 00.28-.06.74.74 0 00.47-.69v-8h2.63a2 2 0 012 2v24a2 2 0 01-2 2H7.87a2 2 0 01-1.77-1.05h1.08a1 1 0 000-2H5.87z" /></svg>