<svg id="Layer_1" data-name="Layer 1" xmlns="http://www.w3.org/2000/svg" viewBox="0 0 32 32"><path class="cls-1" d="M.09 30.56l.06.2c0 .07.07.13.1.2a1.19 1.19 0 00.09.15 1.8 1.8 0 00.55.55.83.83 0 00.16.09l.19.1.2.06.17.05A1.72 1.72 0 002 32h10a2 2 0 000-4H6.83l7.07-7.07a2 2 0 00-2.83-2.83L4 25.17V20a2 2 0 00-4 0v10a1.72 1.72 0 000 .39.84.84 0 00.09.17zM31.91 1.44l-.06-.2-.1-.2a1.19 1.19 0 00-.09-.15 1.8 1.8 0 00-.55-.55A1.29 1.29 0 0031 .25l-.18-.1-.26-.06h-.17A1.72 1.72 0 0030 0H20a2 2 0 000 4h5.17l-7.07 7.07a2 2 0 001.42 3.41 2 2 0 001.41-.58L28 6.83V12a2 2 0 004 0V2a1.72 1.72 0 000-.39.84.84 0 00-.09-.17z"/></svg>