<svg id="Layer_1" data-name="Layer 1" xmlns="http://www.w3.org/2000/svg" viewBox="0 0 32 32"><path class="cls-1" d="M16 32a2 2 0 002-2v-2.8a2 2 0 00-4 0V30a2 2 0 002 2zM16 6.8a2 2 0 002-2V2a2 2 0 00-4 0v2.8a2 2 0 002 2zM2 18h2.8a2 2 0 100-4H2a2 2 0 000 4zM30 14h-2.8a2 2 0 000 4H30a2 2 0 000-4zM2.76 11l2.46 1.35a2 2 0 001 .24 2 2 0 001-3.75L4.69 7.51A2 2 0 002.76 11zM28.27 24.73a2 2 0 001-3.75l-2.46-1.35a2 2 0 00-1.92 3.51l2.45 1.35a2.1 2.1 0 00.93.24zM8.73 7.25a2 2 0 003.48-2l-1.38-2.41a2 2 0 00-3.48 2zM23.27 24.75a2 2 0 10-3.48 2l1.38 2.43a2 2 0 001.75 1 2 2 0 001-.26 2 2 0 00.75-2.72zM20.42 7.93a2 2 0 002.72-.79l1.35-2.45A2 2 0 0021 2.76l-1.37 2.46a2 2 0 00.79 2.71zM8.3 30a2 2 0 002.7-.76l1.35-2.46a2 2 0 00-3.51-1.92l-1.33 2.45A2 2 0 008.3 30zM24 11.46a2 2 0 001.74 1 2.06 2.06 0 001-.26l2.43-1.39a2 2 0 00-2-3.47l-2.42 1.39a2 2 0 00-.75 2.73zM8 20.54a2 2 0 00-2.73-.75l-2.43 1.38a2 2 0 001 3.74 2 2 0 001-.26l2.44-1.38A2 2 0 008 20.54z"/></svg>