<svg id="Layer_1" data-name="Layer 1" xmlns="http://www.w3.org/2000/svg" viewBox="0 0 32 32"><path class="cls-1" d="M26.47 12.42a1.31 1.31 0 00-.72-.23 1.21 1.21 0 00-.79.21 1.51 1.51 0 00-.53.66L19.5 25a1.35 1.35 0 00-.07.44 1.28 1.28 0 00.32.82 1.14 1.14 0 00.9.37 1.24 1.24 0 00.74-.25 1.42 1.42 0 00.46-.63l1.06-2.53h5.47l1.07 2.53a1.45 1.45 0 00.47.62 1.26 1.26 0 002-1.05 1.32 1.32 0 00-.1-.51L27 13.07a1.41 1.41 0 00-.53-.65zm.83 8.21H24l1.65-4zM1.87 27a1.75 1.75 0 001-.33 1.81 1.81 0 00.67-.87l1.76-4.29h8.22l1.77 4.24a1.91 1.91 0 00.7.92 1.79 1.79 0 001 .33 2 2 0 001.27-.48 1.77 1.77 0 00.59-1.38 2 2 0 00-.14-.74L11.29 6.25a1.73 1.73 0 00-.7-.9 1.87 1.87 0 00-1-.33 1.91 1.91 0 00-1.12.27 1.83 1.83 0 00-.74.94L.17 24.55a1.53 1.53 0 00-.11.7 1.73 1.73 0 00.45 1.18 1.75 1.75 0 001.36.57zm5-9.21l2.53-6.27 2.6 6.23z"/></svg>