<svg id="Layer_1" data-name="Layer 1" xmlns="http://www.w3.org/2000/svg" viewBox="0 0 32 32"><path class="cls-1" d="M21.15 26.31a1 1 0 001-1v-3.77a6.15 6.15 0 00-12.3 0v3.77a1 1 0 002 0v-3.77a4.15 4.15 0 018.3 0v3.77a1 1 0 001 1zM16 15a4.67 4.67 0 10-4.66-4.67A4.67 4.67 0 0016 15zm0-7.33a2.67 2.67 0 11-2.66 2.66A2.66 2.66 0 0116 7.69zM26.46 16.26a5.52 5.52 0 00-3.95 1.65.75.75 0 001.07 1.09 4 4 0 016.92 2.8v3.51a.75.75 0 101.5 0V21.8a5.55 5.55 0 00-5.54-5.54zM22.29 11.38a4.17 4.17 0 104.17-4.17 4.17 4.17 0 00-4.17 4.17zm4.17-2.67a2.67 2.67 0 11-2.67 2.67 2.67 2.67 0 012.67-2.67zM.75 26.06a.75.75 0 00.75-.75V21.8A4 4 0 018.42 19a.75.75 0 001.07-1.05A5.54 5.54 0 000 21.8v3.51a.75.75 0 00.75.75zM5.54 15.54a4.17 4.17 0 10-4.16-4.16 4.17 4.17 0 004.16 4.16zm0-6.83a2.67 2.67 0 11-2.66 2.67 2.68 2.68 0 012.66-2.67z"/></svg>